<?xml version="1.0" encoding="UTF-8"?>
<svg width="75px" height="69px" viewBox="0 0 75 69" version="1.1" xmlns="http://www.w3.org/2000/svg" xmlns:xlink="http://www.w3.org/1999/xlink">
    <!-- Generator: Sketch 50.2 (55047) - http://www.bohemiancoding.com/sketch -->
    <title>add-user</title>
    <desc>Created with Sketch.</desc>
    <defs></defs>
    <g id="Page-1" stroke="none" stroke-width="1" fill="none" fill-rule="evenodd">
        <g id="add-user" fill="#E0E4E6" fill-rule="nonzero">
            <path d="M73.7894737,55.6736842 L64.7105263,55.6736842 L64.7105263,46.2631579 C64.7105263,45.5684211 64.1657895,45 63.5,45 C62.8342105,45 62.2894737,45.5684211 62.2894737,46.2631579 L62.2894737,55.6736842 L53.2105263,55.6736842 C52.5447368,55.6736842 52,56.2421053 52,56.9368421 C52,57.6315789 52.5447368,58.2 53.2105263,58.2 L62.2894737,58.2 L62.2894737,67.7368421 C62.2894737,68.4315789 62.8342105,69 63.5,69 C64.1657895,69 64.7105263,68.4315789 64.7105263,67.7368421 L64.7105263,58.2 L73.7894737,58.2 C74.4552632,58.2 75,57.6315789 75,56.9368421 C75,56.2421053 74.4552632,55.6736842 73.7894737,55.6736842 Z" id="Shape"></path>
            <path d="M52.0341383,36.2734123 C53.8887156,36.8353068 55.6196543,37.7093649 56.9796776,38.9580194 C57.4742315,39.3950484 58.2778817,39.3326157 58.7106164,38.8331539 C59.1433511,38.3336921 59.0815318,37.5220667 58.5869779,37.0850377 C56.9178584,35.5866523 54.8778234,34.525296 52.5905115,33.9009688 L51.8486806,33.7136706 C50.674115,33.401507 49.375911,33.8385361 48.6340801,34.7125942 C45.9140335,37.8342304 42.452156,38.0839612 38.8048207,38.0839612 C35.2193048,38.0839612 31.7574273,37.8342304 29.0373807,34.7125942 C28.2337305,33.7761033 26.9973457,33.401507 25.8845994,33.7136706 L25.1427685,33.9009688 C20.0117715,35.2744887 15.9317016,39.270183 14.4480398,44.452099 L13.3971127,48.073197 C13.3352934,48.073197 13.2734742,48.073197 13.2116549,48.073197 L3.01148017,48.073197 C2.76420321,48.073197 2.64056473,47.9483315 2.57874548,47.8858988 C2.51692624,47.8234661 2.39328776,47.6361679 2.455107,47.386437 L4.49514196,40.0818084 C6.22608071,34.2755651 9.87341593,32.4025834 16.4262555,30.8417653 C16.549894,30.8417653 16.6117132,30.7793326 16.7353517,30.7168999 C17.1680864,31.0290635 17.6626403,31.3412271 18.095375,31.590958 C18.2808327,31.7158235 18.4662904,31.7158235 18.6517482,31.7158235 C19.0844828,31.7158235 19.5172175,31.4660926 19.7644945,31.0290635 C20.0735907,30.4047363 19.8263137,29.6555436 19.2699406,29.34338 C15.6226053,27.4703983 12.964378,22.0387513 12.964378,16.482239 C12.964378,11.4251884 16.9826287,7.36706136 21.9899872,7.36706136 C23.473649,7.36706136 24.8336723,7.7416577 26.1936956,8.42841765 C25.4518647,10.1765339 25.01913,12.1119483 25.01913,14.1097955 C25.01913,24.7857912 31.3865118,33.7761033 38.9902785,33.7761033 C46.4085874,33.7761033 52.9614269,24.598493 52.9614269,14.1097955 C52.9614269,6.30570506 46.7176836,0 38.9902785,0 C34.1683777,0 29.90285,2.49730893 27.3682611,6.24327234 L27.3064419,6.18083961 C25.6373224,5.30678149 23.8445644,4.86975242 21.9899872,4.86975242 C15.6226053,4.86975242 10.4916083,10.0516685 10.4916083,16.482239 C10.4916083,21.1646932 12.0989086,25.6598493 14.6334975,28.65662 C9.00794655,30.0925727 4.30968423,32.2152853 2.1460108,39.3326157 L0.105975842,46.6996771 C-0.141301122,47.6361679 0.0441566008,48.6350915 0.662349011,49.3842842 C1.21872218,50.1334769 2.08419156,50.5705059 3.01148017,50.5705059 L12.6552818,50.5705059 L11.7898124,53.5048439 C11.4807162,54.5662002 11.6661739,55.6899892 12.3461856,56.5640474 C13.0261972,57.4381055 14.0771243,58 15.1898707,58 L41.4012289,58 C42.0812405,58 42.6376137,57.4381055 42.6376137,56.7513455 C42.6376137,56.0645856 42.0812405,55.5026911 41.4012289,55.5026911 L15.1898707,55.5026911 C14.8807745,55.5026911 14.5716782,55.3778256 14.3862205,55.065662 C14.262582,54.9407966 14.1389436,54.6286329 14.262582,54.1916039 L16.8589902,45.0764263 C18.095375,40.7685684 21.4954332,37.3972013 25.8227801,36.2734123 L26.564611,36.0861141 C26.811888,36.0236814 27.0591649,36.1485468 27.2446227,36.335845 C30.6446809,40.2691066 34.8483893,40.5812702 38.9284592,40.5812702 C43.0085291,40.5812702 47.2122375,40.2691066 50.6122958,36.335845 C50.6122958,36.335845 50.6122958,36.2734123 50.674115,36.2734123 C50.7977535,36.1485468 51.1068497,36.0236814 51.2923074,36.0861141 L52.0341383,36.2734123 Z M38.9902785,2.49730893 C44.1212755,2.49730893 48.4486224,5.93110872 49.9322841,10.613563 C47.7686107,11.050592 45.4812988,10.1765339 44.1212755,8.30355221 C43.6885408,7.7416577 42.9467099,7.61679225 42.3903367,8.05382131 C42.1430598,8.24111948 42.0194213,8.42841765 41.957602,8.67814855 C41.8957828,8.74058127 41.8957828,8.80301399 41.8339636,8.86544672 C40.1030248,12.4241119 34.2920161,13.9224973 27.6155381,12.6114101 C28.357369,6.93003229 33.1792698,2.49730893 38.9902785,2.49730893 Z M32.2519812,15.5457481 C37.1975205,15.5457481 41.2775904,13.98493 43.3794446,11.050592 C44.9249256,12.4241119 46.8413221,13.1733046 48.881357,13.1733046 C49.375911,13.1733046 49.9322841,13.1108719 50.4268381,12.9860065 C50.4886573,13.3606028 50.4886573,13.6727664 50.4886573,14.0473628 C50.4886573,23.2249731 45.1103833,31.2787944 38.9902785,31.2787944 C33.1174506,31.2787944 27.8628151,23.8493003 27.4918996,15.1087191 C29.1610191,15.4208827 30.7065002,15.5457481 32.2519812,15.5457481 Z" id="Shape"></path>
        </g>
    </g>
</svg>