<?xml version="1.0" encoding="UTF-8"?>
<svg width="33px" height="29px" viewBox="0 0 33 29" version="1.1" xmlns="http://www.w3.org/2000/svg" xmlns:xlink="http://www.w3.org/1999/xlink">
    <!-- Generator: Sketch 49.3 (51167) - http://www.bohemiancoding.com/sketch -->
    <title>Fill 4</title>
    <desc>Created with Sketch.</desc>
    <defs></defs>
    <g id="Page-1" stroke="none" stroke-width="1" fill="none" fill-rule="evenodd">
        <g id="Dash-board-Copy" transform="translate(-80.000000, -491.000000)" fill="#FFFFFF">
            <g id="Page-1" transform="translate(52.000000, 398.000000)">
                <path d="M59.0662829,114.266632 L37.6137208,114.266632 C37.1665229,110.240292 33.960569,107.034228 29.9331995,106.587087 L29.9331995,98.7998965 L30.6718007,98.7998965 C32.374155,98.7998965 33.9041517,97.8543793 34.6650093,96.3323399 C35.0966796,95.4696267 35.9641608,94.9334713 36.928949,94.9334713 L41.5349844,94.9334713 L41.5349844,96.8664252 L38.6344088,96.8664252 C38.1007732,96.8664252 37.6675502,97.2995931 37.6675502,97.8331608 C37.6675502,98.3667285 38.1007732,98.7998965 38.6344088,98.7998965 L42.0184137,98.7998965 L43.4687015,100.733368 L40.5681259,100.733368 C40.0339727,100.733368 39.6012673,101.166536 39.6012673,101.700104 C39.6012673,102.233671 40.0339727,102.666839 40.5681259,102.666839 L44.9189893,102.666839 L46.3687595,104.599793 L42.5018429,104.599793 C41.9676898,104.599793 41.5349844,105.032961 41.5349844,105.566529 C41.5349844,106.100614 41.9676898,106.533782 42.5018429,106.533782 L48.3024766,106.533782 L54.2325078,106.533782 C56.8980975,106.533782 59.0662829,108.701692 59.0662829,111.366425 L59.0662829,114.266632 Z M59.0662829,117.166839 C59.0662829,117.699889 58.6325423,118.133575 58.0994244,118.133575 C57.5657889,118.133575 57.1325658,118.566743 57.1325658,119.100311 C57.1325658,119.633361 56.6988252,120.067046 56.1657073,120.067046 C55.6325894,120.067046 55.1988488,119.633361 55.1988488,119.100311 C55.1988488,118.566743 54.7661433,118.133575 54.2325078,118.133575 L50.2361937,118.133575 C49.7020406,118.133575 49.2693351,118.566743 49.2693351,119.100311 C49.2693351,119.633361 48.8355945,120.067046 48.3024766,120.067046 C47.7693587,120.067046 47.335618,119.633361 47.335618,119.100311 C47.335618,118.566743 46.9029126,118.133575 46.3687595,118.133575 L42.5018429,118.133575 C41.9676898,118.133575 41.5349844,118.566743 41.5349844,119.100311 C41.5349844,119.633361 41.1012438,120.067046 40.5681259,120.067046 C40.0350079,120.067046 39.6012673,119.633361 39.6012673,119.100311 C39.6012673,118.566743 39.1685619,118.133575 38.6344088,118.133575 L34.7674922,118.133575 C34.2333391,118.133575 33.8006337,118.566743 33.8006337,119.100311 C33.8006337,119.633361 33.366893,120.067046 32.8337751,120.067046 C32.3006572,120.067046 31.8669166,119.633361 31.8669166,119.100311 C31.8669166,118.566743 31.4342111,118.133575 30.900058,118.133575 C30.3669401,118.133575 29.9331995,117.699889 29.9331995,117.166839 L29.9331995,116.200104 L59.0662829,116.200104 L59.0662829,117.166839 Z M29.9331995,108.535566 C32.8927804,108.960454 35.2400521,111.307427 35.6655112,114.266632 L29.9331995,114.266632 L29.9331995,108.535566 Z M54.2325078,104.599793 L48.7859059,104.599793 L43.4687015,97.5112606 L43.4687015,93.9662181 C43.4687015,93.4326504 43.0354785,93 42.5018429,93 L36.928949,93 C35.2271123,93 33.6971156,93.9449996 32.9357404,95.4675566 C32.5045877,96.3307874 31.6365889,96.8664252 30.6718007,96.8664252 L28.966341,96.8664252 C28.4327054,96.8664252 28,97.2995931 28,97.8331608 L28,117.166839 C28,118.473071 28.8679988,119.581091 30.0579387,119.942323 C30.4197343,121.132111 31.5273774,122 32.8337751,122 C34.0941073,122 35.1696598,121.192144 35.5687219,120.067046 L37.8336967,120.067046 C38.2327588,121.192144 39.3077937,122 40.5681259,122 C41.8284581,122 42.9040105,121.192144 43.3030726,120.067046 L45.5680474,120.067046 C45.9671095,121.192144 47.0421444,122 48.3029942,122 C49.5633264,122 50.6383613,121.192144 51.0374233,120.067046 L53.4312781,120.067046 C53.8303402,121.192144 54.9053751,122 56.1662249,122 C57.4726226,122 58.5802657,121.132111 58.9420613,119.942323 C60.1314836,119.581091 61,118.473071 61,117.166839 L61,115.233368 L61,111.366425 C61,107.635591 57.9638157,104.599793 54.2325078,104.599793 Z" id="Fill-4"></path>
            </g>
        </g>
    </g>
</svg>