<?xml version="1.0" encoding="UTF-8"?>
<svg width="69px" height="69px" viewBox="0 0 69 69" version="1.1" xmlns="http://www.w3.org/2000/svg" xmlns:xlink="http://www.w3.org/1999/xlink">
    <!-- Generator: Sketch 50.2 (55047) - http://www.bohemiancoding.com/sketch -->
    <title>online</title>
    <desc>Created with Sketch.</desc>
    <defs></defs>
    <g id="Page-1" stroke="none" stroke-width="1" fill="none" fill-rule="evenodd">
        <g id="online" fill="#E0E4E6" fill-rule="nonzero">
            <path d="M34.7943988,54.9306774 C31.9123893,55.4581935 29.6014693,57.5370968 28.759223,60.3571935 L26.1815732,69 L69,69 L66.4223502,60.3571935 C65.5801039,57.5370968 63.2680771,55.4581935 60.3871744,54.9317903 L53.124599,53.6029839 L53.124599,53.0265 C55.8405941,51.4406129 57.8283395,48.7351452 58.4492333,45.5366613 C60.4613275,45.1182097 61.9786988,43.3230968 61.9786988,41.1774194 L61.9786988,30.1852742 C61.9786988,27.0791613 59.955537,24.3703548 57.0215097,23.4889355 L56.4681284,22.9324839 C54.8876716,21.3432581 52.9862537,20.1969677 50.911074,19.5459194 L50.911074,7.79032258 C50.911074,5.94958065 49.4213717,4.4516129 47.5907866,4.4516129 L31.708745,4.4516129 C30.7945592,1.8618871 28.3408668,0 25.455537,0 C22.5702072,0 20.1165148,1.8618871 19.202329,4.4516129 L3.32028744,4.4516129 C1.4897023,4.4516129 0,5.94958065 0,7.79032258 L0,41.1774194 C0,43.0181613 1.4897023,44.516129 3.32028744,44.516129 L16.6014372,44.516129 L16.6014372,48.9677419 L14.3879122,48.9677419 L14.3879122,51.1935484 L36.5231618,51.1935484 L36.5231618,48.9677419 L34.3096369,48.9677419 L34.3096369,44.516129 L34.7324201,44.516129 C35.2957622,45.011371 35.9731009,45.378629 36.7323399,45.5366613 C37.3532337,48.7351452 39.3420858,51.4406129 42.0569742,53.0265 L42.0569742,53.6029839 L34.7943988,54.9306774 Z M58.6584114,43.0938387 L58.6584114,39.2621129 C59.3169351,39.6482903 59.7651739,40.3583226 59.7651739,41.1785323 C59.7651739,41.9987419 59.3169351,42.7076613 58.6584114,43.0938387 Z M32.0961119,10.016129 L32.0961119,6.67741935 L47.5907866,6.67741935 C48.2017195,6.67741935 48.6975491,7.1771129 48.6975491,7.79032258 L48.6975491,19.0618065 C48.0832959,18.9772258 47.4624022,18.9193548 46.8304408,18.9193548 C43.3917298,18.9193548 40.2551649,20.217 37.8545971,22.3370806 L37.249198,20.205871 C36.6659342,18.1514516 34.9338509,16.5967258 32.8376428,16.2450484 L29.8825869,15.7509194 L29.8825869,14.9674355 C31.2959226,13.6976129 32.0961119,11.9225323 32.0961119,10.016129 Z M32.0961119,48.9677419 L18.8149621,48.9677419 L18.8149621,44.516129 L32.0961119,44.516129 L32.0961119,48.9677419 Z M33.2028744,32.6225323 L33.2028744,35.6129032 L30.9893494,35.6129032 L30.9893494,37.8387097 L33.2028744,37.8387097 L33.2028744,41.1774194 C33.2028744,41.5635968 33.2670666,41.9319677 33.3600346,42.2903226 L3.32028744,42.2903226 C2.70935455,42.2903226 2.21352496,41.7917419 2.21352496,41.1774194 L2.21352496,37.8387097 L28.7758245,37.8387097 L28.7758245,35.6129032 L2.21352496,35.6129032 L2.21352496,7.79032258 C2.21352496,7.1771129 2.70935455,6.67741935 3.32028744,6.67741935 L18.8149621,6.67741935 L18.8149621,10.016129 C18.8149621,11.9225323 19.6151514,13.6976129 21.0284871,14.9674355 L21.0284871,15.7509194 L18.0734313,16.2461613 C15.9761164,16.5967258 14.2451399,18.1514516 13.661876,20.205871 L11.8135827,26.7096774 L34.5564449,26.7096774 C33.6975972,28.5025645 33.2028744,30.5035645 33.2028744,32.6225323 Z M14.7487168,24.4827581 L15.7901803,20.8168548 C16.1388105,19.584871 17.1791672,18.6522581 18.4364494,18.4408065 L23.2420121,17.6361774 L23.2420121,13.8890323 L22.8026274,13.5551613 C21.6748364,12.6982258 21.0284871,11.408371 21.0284871,10.016129 L21.0284871,6.67741935 C21.0284871,4.22235484 23.014019,2.22580645 25.455537,2.22580645 C27.897055,2.22580645 29.8825869,4.22235484 29.8825869,6.67741935 L29.8825869,10.016129 C29.8825869,11.408371 29.2362376,12.6982258 28.1084467,13.5551613 L27.669062,13.8890323 L27.669062,17.6361774 L32.4746247,18.4419194 C33.7319068,18.6522581 34.7711568,19.584871 35.1208938,20.8179677 L36.0893109,24.2201129 C36.0217984,24.3069194 35.9587129,24.3948387 35.893414,24.4827581 L14.7487168,24.4827581 Z M36.5231618,43.0927258 C35.8646381,42.7076613 35.4163993,41.997629 35.4163993,41.1774194 C35.4163993,40.3572097 35.8646381,39.6471774 36.5231618,39.261 L36.5231618,43.0927258 Z M36.5231618,35.6129032 L36.5231618,36.8838387 C36.1291544,36.9862258 35.7594957,37.1431452 35.4163993,37.3445806 L35.4163993,32.6225323 C35.4163993,26.2934516 40.5373893,21.1451613 46.8304408,21.1451613 C49.8806782,21.1451613 52.747193,22.3393065 54.9020595,24.5072419 L55.878224,25.4888226 L56.1770499,25.5633871 C58.2898595,26.0953548 59.7651739,27.9950806 59.7651739,30.1852742 L59.7651739,37.3445806 C59.4220775,37.1431452 59.0524188,36.9862258 58.6584114,36.8838387 L58.6584114,35.6129032 L55.1477608,35.6129032 C52.1484345,35.6129032 49.2830264,34.1728065 47.4834306,31.7611452 L46.6046612,30.5792419 L44.4044174,32.7916935 C42.5948608,34.6112903 40.1887591,35.6129032 37.6299243,35.6129032 L36.5231618,35.6129032 Z M38.7366868,43.4032258 L38.7366868,37.7875161 C41.4692833,37.5326613 44.0059829,36.339629 45.9693796,34.3642258 L46.3999102,33.9313065 C48.6211825,36.3941613 51.8175125,37.8375968 55.1477608,37.8375968 L56.4448864,37.8375968 L56.4448864,43.4021129 C56.4448864,48.311129 52.4727159,52.3053387 47.5907866,52.3053387 C42.7088573,52.3053387 38.7366868,48.3122419 38.7366868,43.4032258 Z M44.3634672,54.0470323 C45.3861157,54.360871 46.4685294,54.5322581 47.5907866,54.5322581 C48.7130438,54.5322581 49.7954575,54.360871 50.818106,54.0470323 L47.5907866,56.4798387 L44.3634672,54.0470323 Z M45.9062941,57.9911613 L43.6484987,60.2614839 L42.1831451,55.8421452 L42.8870461,55.7141613 L45.9062941,57.9911613 Z M52.2956339,55.7152742 L52.9995348,55.8432581 L51.5341813,60.2625968 L49.2763859,57.9922742 L52.2956339,55.7152742 Z M42.6811882,64.3836774 L47.5907866,59.4446129 L52.5025985,64.3836774 L55.1997786,56.246129 L59.9920602,57.1219839 C62.0484249,57.4970323 63.7008212,58.9827581 64.3017933,60.9971129 L66.0250225,66.7741935 L29.1565508,66.7741935 L30.8808867,60.9971129 C31.4818587,58.9827581 33.1331483,57.4970323 35.1917265,57.1219839 L39.9840081,56.246129 L42.6811882,64.3836774 Z" id="Shape"></path>
            <rect id="Rectangle-path" x="35" y="9" width="2" height="2"></rect>
            <rect id="Rectangle-path" x="40" y="9" width="2" height="2"></rect>
            <rect id="Rectangle-path" x="44" y="9" width="2" height="2"></rect>
            <rect id="Rectangle-path" x="4" y="31" width="2" height="2"></rect>
            <rect id="Rectangle-path" x="9" y="31" width="2" height="2"></rect>
            <rect id="Rectangle-path" x="14" y="31" width="2" height="2"></rect>
        </g>
    </g>
</svg>