<?xml version="1.0" encoding="UTF-8"?>
<svg width="35px" height="35px" viewBox="0 0 35 35" version="1.1" xmlns="http://www.w3.org/2000/svg" xmlns:xlink="http://www.w3.org/1999/xlink">
    <!-- Generator: Sketch 49.3 (51167) - http://www.bohemiancoding.com/sketch -->
    <title>Fill 3</title>
    <desc>Created with Sketch.</desc>
    <defs></defs>
    <g id="Page-1" stroke="none" stroke-width="1" fill="none" fill-rule="evenodd">
        <g id="Dash-board-Copy" transform="translate(-76.000000, -548.000000)" fill="#FFFFFF">
            <g id="Page-1" transform="translate(52.000000, 398.000000)">
                <path d="M56.8205457,160.774893 C56.3625421,163.202423 54.8018794,165.162537 52.5390492,166.152266 L49.4632104,167.498048 L47.2725314,165.307885 L51.3830608,163.509328 C53.3368955,162.65449 53.8545022,160.938018 53.9862567,160.240554 C54.1180111,159.542044 54.2612679,157.755512 52.7534115,156.247128 C51.2450323,154.738745 49.457982,154.882002 48.7599972,155.013757 C48.0620123,155.145512 46.3455448,155.66312 45.4907094,157.617483 L43.6926796,161.727501 L41.5020006,159.537339 L42.8477781,156.460969 C43.8380277,154.198132 45.7976136,152.637465 48.2251369,152.179983 C48.6967341,152.090578 49.1667629,152.047183 49.6315633,152.047183 C51.5582105,152.047183 53.3855192,152.800067 54.7929912,154.20702 C56.5392604,155.953817 57.2785492,158.347363 56.8205457,160.774893 Z M45.2496824,163.285031 L47.3697787,158.439382 C47.8324877,157.381161 48.7620885,157.10092 49.1400983,157.029292 C49.2493708,157.008901 49.407267,156.987988 49.5970561,156.987988 C50.0644707,156.987988 50.7216744,157.116083 51.303067,157.696954 C52.1197354,158.514148 52.041833,159.481395 51.9707274,159.859929 C51.899099,160.238462 51.6188594,161.167543 50.5606412,161.630776 L45.7155285,163.750355 L45.2496824,163.285031 Z M42.5858377,173.649742 L35.350323,166.414207 L37.157241,164.607284 L42.6365527,170.086611 L44.0863744,168.636263 L38.6075855,163.156936 L40.4145036,161.350013 L47.6500183,168.585547 L42.5858377,173.649742 Z M37.2848128,171.2494 L37.7506588,171.715247 L35.6305626,176.560373 C35.1678535,177.619117 34.2382527,177.898834 33.860243,177.970463 C33.4822332,178.041569 32.5144655,178.119471 31.6972742,177.302278 C30.8806058,176.48613 30.9585083,175.517837 31.0296138,175.139826 C31.1012422,174.761815 31.380959,173.832212 32.4397001,173.369502 L37.2848128,171.2494 Z M40.1525632,178.538786 C39.1623136,180.801623 37.2027277,182.36229 34.7752044,182.820295 C34.3036071,182.909177 33.8335784,182.953095 33.368778,182.953095 C31.4421307,182.953095 29.6148221,182.199688 28.2073501,180.792212 C26.4610809,179.045938 25.7217921,176.651869 26.1797956,174.224862 C26.6377991,171.797332 28.1984619,169.837741 30.4612921,168.847489 L33.5371309,167.501707 L35.7278099,169.692392 L31.6172805,171.489904 C29.6634458,172.345265 29.145839,174.061214 29.0140846,174.759724 C28.8823302,175.457711 28.7390733,177.244766 30.2469297,178.753149 C31.3203101,179.82601 32.5338104,180.062855 33.3964883,180.062855 C33.7467878,180.062855 34.0390526,180.023642 34.2403441,179.985475 C34.9383289,179.85372 36.6547965,179.336635 37.5096319,177.382795 L39.3076617,173.272254 L41.4983407,175.462939 L40.1525632,178.538786 Z M58.6227582,156.748529 C58.1783484,155.234917 57.3778879,153.89175 56.2433357,152.757195 C55.1082608,151.622117 53.7650974,150.821654 52.2514899,150.377243 C50.834084,149.961065 49.3105425,149.887868 47.8450358,150.164448 C46.379529,150.440506 44.9872192,151.064773 43.8186828,151.968234 C42.5711983,152.933913 41.6123188,154.16833 40.9687088,155.63907 L39.2140742,159.649749 L33.6500633,165.213775 L29.6393954,166.968937 C28.1686603,167.612026 26.9337238,168.570908 25.9685702,169.818396 C25.0645884,170.986936 24.4408461,172.379249 24.1642664,173.84476 C23.8876866,175.310271 23.9614064,176.833816 24.3775831,178.251749 C24.8214701,179.764838 25.6224534,181.108005 26.7575284,182.243083 C27.8920805,183.377638 29.2352438,184.178624 30.7488514,184.622512 C31.6042096,184.873474 32.4977348,185 33.3943969,185 C33.9836321,185 34.5744357,184.945102 35.1553055,184.835829 C36.6208122,184.558726 38.013122,183.935505 39.1816585,183.030998 C40.429143,182.066364 41.3880225,180.830902 42.0311097,179.360685 L43.1740272,176.749117 C43.7711048,177.083732 44.4147148,177.336262 45.0881264,177.494682 C45.6465143,177.626437 46.214836,177.692314 46.7826349,177.692314 C47.571593,177.692314 48.3584598,177.565788 49.1144794,177.31378 L48.4661639,175.368306 C47.010591,175.853498 45.4629991,175.68985 44.1747335,174.962062 L49.350278,169.785457 L53.3609459,168.031341 C54.8311582,167.387729 56.0666175,166.428847 57.0312482,165.181359 C57.9352301,164.012819 58.5594951,162.620506 58.8355521,161.155518 C59.1121318,159.690007 59.0389349,158.165938 58.6227582,156.748529 Z" id="Fill-3"></path>
            </g>
        </g>
    </g>
</svg>