<?xml version="1.0" encoding="UTF-8"?>
<svg width="70px" height="70px" viewBox="0 0 70 70" version="1.1" xmlns="http://www.w3.org/2000/svg" xmlns:xlink="http://www.w3.org/1999/xlink">
    <!-- Generator: Sketch 50.2 (55047) - http://www.bohemiancoding.com/sketch -->
    <title>users</title>
    <desc>Created with Sketch.</desc>
    <defs></defs>
    <g id="Page-1" stroke="none" stroke-width="1" fill="none" fill-rule="evenodd">
        <g id="users" fill="#E0E4E6" fill-rule="nonzero">
            <path d="M11,48 C14.8088477,48 18,44.8088477 18,41 C18,37.1911523 14.9117969,34 11,34 C7.08820313,34 4,37.1911523 4,41 C4,44.8088477 7.08820313,48 11,48 Z M11,35.9558984 C13.6764062,35.9558984 15.9411523,38.2206445 15.9411523,40.8970508 C15.9411523,43.573457 13.7793555,45.8382031 11,45.8382031 C8.22064453,45.8382031 6.05884766,43.573457 6.05884766,40.8970508 C6.05884766,38.2206445 8.22050781,35.9558984 11,35.9558984 Z" id="Shape"></path>
            <path d="M1.04260087,64 L20.9573991,64 C21.5830427,64 22,63.5833691 22,62.958561 L22,55.8763881 C22,52.0228285 18.8720589,49.0025308 15.1184742,49.0025308 L6.88152578,49.0025308 C3.12794108,48.898373 0,52.0228285 0,55.8763881 L0,62.958561 C0,63.4793496 0.417095739,64 1.04260087,64 Z M2.08534022,55.8763881 C2.08534022,53.1685636 4.27495437,50.9813894 6.88152578,50.9813894 L15.0142003,50.9813894 C17.7250456,50.9813894 19.8103859,53.1685636 19.8103859,55.7722304 L19.8103859,61.8129642 L2.08520174,61.8129642 L2.08520174,55.8763881 L2.08534022,55.8763881 Z" id="Shape"></path>
            <path d="M42,41 C42,37.0882031 38.9117969,34 35,34 C31.0882031,34 28,37.1911523 28,41 C28,44.8088477 31.0882031,48 35,48 C38.9117969,48 42,44.9117969 42,41 Z M30.0587109,41 C30.0587109,38.2206445 32.2205078,36.0588477 34.9998633,36.0588477 C37.7792188,36.0588477 39.9410156,38.3235938 39.9410156,41 C39.9410156,43.6764063 37.7792188,45.9411523 34.9998633,45.9411523 C32.2205078,45.9411523 30.0587109,43.7794922 30.0587109,41 Z" id="Shape"></path>
            <path d="M24,55.8763881 L24,62.958561 C24,63.5835074 24.4170957,64 25.0426009,64 L44.9573991,64 C45.5830427,64 46,63.5833691 46,62.958561 L46,55.8763881 C46,52.0228285 42.8720589,49.0025308 39.1184742,49.0025308 L30.9857997,49.0025308 C27.1279411,48.898373 24,52.0228285 24,55.8763881 Z M26.0853402,55.8763881 C26.0853402,53.1685636 28.2749544,51.0855472 30.8815258,51.0855472 L39.0142003,51.0855472 C41.7250456,51.0855472 43.8103859,53.2727213 43.8103859,55.8763881 L43.8103859,61.9171219 L26.0852017,61.9171219 L26.0852017,55.8763881 L26.0853402,55.8763881 Z" id="Shape"></path>
            <path d="M52,41 C52,44.9117969 55.0882031,48 59,48 C62.8088477,48 66,44.8088477 66,41 C66,37.1911523 62.9117969,34 59,34 C55.0882031,34 52,37.0883398 52,41 Z M63.8383398,41 C63.8383398,43.7793555 61.676543,45.9411523 58.8971875,45.9411523 C56.117832,45.9411523 53.9560352,43.6764063 53.9560352,41 C53.9560352,38.3235938 56.117832,36.0588477 58.8971875,36.0588477 C61.676543,36.0588477 63.8383398,38.3235938 63.8383398,41 Z" id="Shape"></path>
            <path d="M63.0857024,49 L54.9142976,49 C51.0380667,49 48,52.1249827 48,55.8750173 L48,62.9583852 C48,63.5834371 48.4190821,64 49.047566,64 L68.952434,64 C69.5810571,64 70,63.5832987 70,62.9583852 L70,55.8750173 C70,52.1249827 66.8571627,49 63.0857024,49 Z M49.9903616,62.0209457 L49.9903616,55.9791926 C49.9903616,53.2709112 52.1904033,51.1875432 54.809388,51.1875432 L62.9807927,51.1875432 C65.7045479,51.1875432 67.7998191,53.3750865 67.7998191,55.9791926 L67.7998191,62.0209457 L49.9903616,62.0209457 Z" id="Shape"></path>
            <path d="M20,15.500071 C20,16.1415061 20.4276254,16.5689875 21.0689215,16.5689875 L24.2758278,16.5689875 L24.2758278,25.6552752 C24.2758278,26.2967103 24.7034532,26.7241918 25.3447493,26.7241918 L34.4310785,26.7241918 L34.4310785,29.9310834 C34.4310785,30.5725186 34.8587039,31 35.5,31 C36.1412961,31 36.5689215,30.5723766 36.5689215,29.9310834 L36.5689215,26.7241918 L45.6552507,26.7241918 C46.2966888,26.7241918 46.7241722,26.2965684 46.7241722,25.6552752 L46.7241722,16.5689875 L49.9310785,16.5689875 C50.5725166,16.5689875 51,16.1413641 51,15.500071 C51,14.8587778 50.5723746,14.4311544 49.9310785,14.4311544 L46.7241722,14.4311544 L46.7241722,5.34486675 C46.7241722,4.70343163 46.2965468,4.27595019 45.6552507,4.27595019 L36.5689215,4.27595019 L36.5689215,1.06891656 C36.5692054,0.427623414 36.14158,0 35.5002839,0 C34.8589879,0 34.4313625,0.427623414 34.4313625,1.06891656 L34.4313625,4.27580822 L25.3450332,4.27580822 C24.7035951,4.27580822 24.2761117,4.70343163 24.2761117,5.34472478 L24.2761117,14.4310125 L21.0692054,14.4310125 C20.4276254,14.4311544 20,14.8587778 20,15.500071 Z M26.4139547,16.5691295 L29.620861,16.5691295 C30.2622991,16.5691295 30.6897825,16.1415061 30.6897825,15.500213 C30.6897825,14.8589198 30.2621571,14.4312964 29.620861,14.4312964 L26.4139547,14.4312964 L26.4139547,6.41378331 L34.4313625,6.41378331 L34.4313625,9.62067497 C34.4313625,10.2621101 34.8589879,10.6895915 35.5002839,10.6895915 C36.14158,10.6895915 36.5692054,10.2621101 36.5692054,9.62081694 L36.5692054,6.41378331 L44.5866132,6.41378331 L44.5866132,14.4311544 L41.3797069,14.4311544 C40.7382688,14.4311544 40.3107854,14.8587778 40.3107854,15.500071 C40.3107854,16.1413641 40.7384108,16.5689875 41.3797069,16.5689875 L44.5866132,16.5689875 L44.5866132,24.5863587 L36.5692054,24.5863587 L36.5692054,21.379467 C36.5692054,20.7380319 36.14158,20.3105504 35.5002839,20.3105504 C34.8589879,20.3105504 34.4313625,20.7381739 34.4313625,21.379467 L34.4313625,24.5863587 L26.4139547,24.5863587 L26.4139547,16.5691295 Z" id="Shape"></path>
            <path d="M49.1010113,11.1389356 L57.7982698,11.1389356 L57.7982698,27.9305322 C57.7982698,28.5722981 58.2386743,29 58.8991349,29 C59.5595955,29 60,28.5721561 60,27.9305322 L60,10.0694678 C60,9.4277019 59.5595955,9 58.8991349,9 L49.1008651,9 C48.4402583,9 48,9.42784395 48,10.0694678 C48,10.7110917 48.5505057,11.1389356 49.1010113,11.1389356 Z" id="Shape"></path>
            <path d="M11.1008786,29 C11.7614934,29 12.2017571,28.5721561 12.2017571,27.9305322 L12.2017571,11.1389356 L20.8991215,11.1389356 C21.5597363,11.1389356 22,10.7110917 22,10.0694678 C22,9.42784395 21.5595901,9 20.8991215,9 L11.1008786,9 C10.4402637,9 10,9.42784395 10,10.0694678 L10,27.9305322 C9.99985381,28.5721561 10.5503662,29 11.1008786,29 Z" id="Shape"></path>
            <path d="M68.9395903,68 L1.06055057,68 C0.424135711,68 0,68.4000531 0,69 C0,69.5999469 0.424276573,70 1.06055057,70 L68.9394494,70 C69.5758643,70 70,69.5999469 70,69 C70,68.4000531 69.5758643,68 68.9395903,68 Z" id="Shape"></path>
        </g>
    </g>
</svg>