<?xml version="1.0" encoding="UTF-8"?>
<svg width="96px" height="74px" viewBox="0 0 96 74" version="1.1" xmlns="http://www.w3.org/2000/svg" xmlns:xlink="http://www.w3.org/1999/xlink">
    <!-- Generator: Sketch 50.2 (55047) - http://www.bohemiancoding.com/sketch -->
    <title>007-team</title>
    <desc>Created with Sketch.</desc>
    <defs></defs>
    <g id="Page-1" stroke="none" stroke-width="1" fill="none" fill-rule="evenodd">
        <g id="Dashboard" transform="translate(-347.000000, -181.000000)" fill="#E0E4E6" fill-rule="nonzero">
            <g id="007-team" transform="translate(347.000000, 181.000000)">
                <path d="M33.5,65 C32.6716,65 32,65.6421469 32,66.4342172 L32,72.5657828 C32,73.3578531 32.6716,74 33.5,74 C34.3284,74 35,73.3578531 35,72.5657828 L35,66.4342172 C35,65.6421469 34.3284,65 33.5,65 Z" id="Shape"></path>
                <path d="M63.5,65 C62.6716,65 62,65.6421469 62,66.4342172 L62,72.5657828 C62,73.3578531 62.6716,74 63.5,74 C64.3284,74 65,73.3578531 65,72.5657828 L65,66.4342172 C65,65.6421469 64.3284,65 63.5,65 Z" id="Shape"></path>
                <path d="M21.2111775,34.5306947 C17.898983,33.0173785 11.6889986,33 11.4261683,33 C10.6386283,33 10.0001902,33.5832211 10,34.3030369 C9.99980986,35.0226789 10.6380577,35.6064213 11.4257879,35.6067689 C13.0305363,35.6076378 17.6871212,35.8349481 19.9354425,36.8621888 C20.1402675,36.9558587 20.3578347,37 20.5721689,37 C21.0953571,37 21.599147,36.7358474 21.849045,36.2793153 C22.2014506,35.6354434 21.9157985,34.8525438 21.2111775,34.5306947 Z" id="Shape"></path>
                <path d="M7.5,61 C6.6716,61 6,61.6386358 6,62.4263753 L6,71.5736247 C6,72.3613642 6.6716,73 7.5,73 C8.3284,73 9,72.3613642 9,71.5736247 L9,62.4263753 C9,61.6388259 8.3286,61 7.5,61 Z" id="Shape"></path>
                <path d="M92.7298189,56.0231648 L87.03508,53.1937854 C87.0020801,53.1773876 86.9814551,53.1442191 86.9814551,53.1076966 L86.9818301,50.2632237 C89.3195755,48.6634989 90.9742598,46.1344988 91.388259,43.1664829 C92.439757,41.3606665 92.9938184,39.3209941 92.9938184,37.2470352 C92.9938184,33.3795583 91.119947,29.939358 88.2277652,27.7744654 C88.3972648,27.213397 88.4848272,26.6346265 88.4848272,26.0441165 C88.4848272,22.3907438 85.1568962,19.418442 81.0665917,19.418442 C76.9762872,19.418442 73.6483562,22.3907438 73.6483562,26.0441165 C73.6483562,26.6353718 73.734981,27.2143287 73.9044807,27.7750244 C72.1800465,29.0659846 70.8202992,30.8116133 70.0016758,32.8296704 C69.653114,29.4254336 69.2901147,25.4010588 68.9419278,20.713129 C68.4825537,14.5277748 66.2441831,9.30430521 62.4690655,5.60770169 C58.7226353,1.93904911 53.7192076,0 47.9999063,0 C42.2806049,0 37.2771772,1.93904911 33.531122,5.60751535 C29.7560044,9.30430521 27.5176338,14.5277748 27.0582597,20.7129427 C26.9361974,22.3551529 26.8124476,23.911647 26.6881354,25.3932326 L13.4304113,25.3932326 C8.51117088,25.3932326 4.50899119,29.3706497 4.50899119,34.2594535 L4.50899119,34.3427473 C4.50899119,35.4812818 4.77974066,36.6214934 5.29217716,37.6398389 L6.01198826,39.0707401 L6.01198826,41.3524676 C6.01198826,44.9685724 7.80504726,48.2133026 10.5209795,50.1659545 L10.5209795,52.1843842 C10.5209795,52.4432098 10.3460423,52.6735255 10.0957303,52.7447072 L4.29017912,54.393253 C1.76418405,55.1102875 0,57.4346867 0,60.0454898 L0,71.6024536 C0,72.3742719 0.62962377,73 1.40624725,73 C2.18287074,73 2.81249451,72.3742719 2.81249451,71.6024536 L2.81249451,60.0454898 C2.81249451,58.6758943 3.7379927,57.4566748 5.06286511,57.0804553 L10.8686038,55.4319095 C11.0780409,55.3724672 11.276978,55.2917822 11.4663526,55.1960037 L15.0301581,58.737759 L15.0301581,71.6024536 C15.0301581,72.3742719 15.6597819,73 16.4364054,73 C17.2130289,73 17.8426527,72.3742719 17.8426527,71.6024536 L17.8426527,58.737759 L21.4313956,55.1712205 C21.9110197,55.4050766 22.3889563,55.5411045 22.7392056,55.6406098 L24.1647653,56.0453392 C22.2329566,57.4104626 21.0423339,59.6370336 21.0423339,62.0514348 L21.0423339,71.6020809 C21.0423339,72.3738992 21.6719577,72.9996273 22.4485812,72.9996273 C23.2252046,72.9996273 23.8548284,72.3738992 23.8548284,71.6020809 L23.8548284,62.0514348 C23.8548284,60.2398419 24.9323888,58.5963273 26.6000105,57.8643857 L34.6399948,54.3353014 C37.1594274,59.3495117 42.3077924,62.5437438 48.0000937,62.5437438 C53.7135826,62.5437438 58.8446976,59.3565926 61.3626302,54.3364194 L69.400177,57.8643857 C71.0677987,58.5963273 72.1453591,60.2398419 72.1453591,62.0514348 L72.1453591,71.6020809 C72.1453591,72.3738992 72.7749829,72.9996273 73.5516063,72.9996273 C74.3282298,72.9996273 74.9578536,72.3738992 74.9578536,71.6020809 L74.9578536,62.0514348 C74.9578536,60.2636934 74.3040424,58.5795568 73.1818571,57.2703353 L75.3581653,56.189007 L76.9918496,57.7318983 C78.1344724,58.8111768 79.6003445,59.3504434 81.0667792,59.3504434 C82.5326513,59.3504434 83.9992734,58.8108041 85.1415212,57.7318983 L86.775018,56.1891933 L91.4722588,58.5230959 C92.5303193,59.0487597 93.1875055,60.1056775 93.1875055,61.2812936 L93.1875055,71.6022672 C93.1875055,72.3740855 93.8171293,72.9998137 94.5937527,72.9998137 C95.3703762,72.9998137 96,72.3740855 96,71.6022672 L96,61.2812936 C95.9998125,59.0403744 94.7467524,57.0254851 92.7298189,56.0231648 Z M81.0664042,22.2133485 C83.6058992,22.2133485 85.6721452,23.9317717 85.6721452,26.0439302 C85.6721452,26.1324415 85.6650202,26.2202074 85.6578952,26.307787 C84.243773,25.7193267 82.692776,25.3932326 81.0664042,25.3932326 C79.4402198,25.3932326 77.8894104,25.7193267 76.4756631,26.3076006 C76.4683506,26.220021 76.4606632,26.1324415 76.4606632,26.0439302 C76.4606632,23.9317717 78.5269091,22.2133485 81.0664042,22.2133485 Z M16.4365929,56.1826714 L13.2322242,52.9981289 C13.2984115,52.7357629 13.333849,52.4627755 13.333849,52.1841979 L13.333849,51.5946196 C14.2184722,51.8832596 15.1514704,52.0545056 16.116906,52.0832019 C16.2250933,52.086556 16.3327181,52.0880467 16.4405304,52.0880467 C17.5070283,52.0880467 18.5482138,51.927981 19.5389618,51.6225706 L19.5389618,52.1836389 C19.5389618,52.4868133 19.5702743,52.7618504 19.6259617,53.0130361 L16.4365929,56.1826714 Z M16.2012809,49.2890407 C12.1336638,49.1681063 8.82448276,45.6075307 8.82448276,41.3524676 L8.82448276,38.7407328 C8.82448276,38.5238336 8.77367036,38.3097295 8.67598305,38.11575 L7.80767225,36.3898733 C7.48967287,35.757437 7.3214857,35.0497195 7.3214857,34.3427473 L7.3214857,34.2594535 C7.3214857,30.911864 10.0619803,28.1883254 13.4304113,28.1883254 L25.5515126,28.1883254 L25.5515126,33.9900066 C25.5515126,34.9274807 25.3285755,35.8664456 24.9065139,36.7049735 L24.1968277,38.1155637 C24.0991404,38.3097295 24.048328,38.5236473 24.048328,38.7405465 L24.048328,41.7279417 C24.048328,43.7914656 23.2274546,45.7197071 21.7368325,47.1571302 C20.2469605,48.5938079 18.2799018,49.3516508 16.2012809,49.2890407 Z M27.9543204,54.214367 L23.5118916,52.9530348 C22.3512688,52.6235865 22.3514563,52.4950122 22.3514563,52.1840116 L22.3518313,50.2585652 C22.8241429,49.9334028 23.274517,49.5694817 23.6958287,49.1630752 C23.9793282,48.8897151 24.2433276,48.6020069 24.4908272,48.3038636 C24.7167642,48.7592774 25.063076,49.1571123 25.5106377,49.4450069 C26.6378855,50.1704266 28.7650688,51.3754844 31.8933127,52.4853226 L27.9543204,54.214367 Z M47.9999063,59.7488373 C43.4245402,59.7488373 39.2807983,57.2071662 37.2143648,53.2055248 L39.2612983,52.3069956 C40.8587952,51.6058 41.8909807,50.0314174 41.8909807,48.295851 L41.8909807,44.9424849 C43.7804145,45.6969736 45.8421605,46.1130698 47.9999063,46.1130698 C50.157652,46.1130698 52.2192105,45.6969736 54.1088318,44.9424849 L54.1088318,48.295851 C54.1088318,50.0314174 55.1410173,51.6059863 56.7385142,52.3069956 L58.7850727,53.2053385 C56.7201392,57.211452 52.5923348,59.7488373 47.9999063,59.7488373 Z M60.1937574,50.7680175 L57.874762,49.7500447 C57.2955756,49.4958776 56.9213263,48.9249332 56.9213263,48.2956647 L56.9213263,43.4909 C61.4404425,40.5771088 64.4364991,35.5189224 64.4364991,29.7781743 L64.4364991,27.1576815 C64.4364991,25.4545383 63.7078756,23.8479189 62.4373781,22.7500064 C59.6119461,20.3078406 53.2161461,16.0460693 42.1277927,14.9440573 C41.3569817,14.8672854 40.6658581,15.427422 40.5886082,16.1956999 C40.5113584,16.9637914 41.0751698,17.6485892 41.8480433,17.7253611 C52.1614606,18.7502285 58.0183867,22.6348486 60.5918192,24.8591835 C61.2478804,25.4260283 61.6240046,26.2639972 61.6240046,27.1576815 L61.6240046,29.7781743 C61.6240046,37.2438674 55.5122666,43.3177906 48.0000937,43.3177906 C40.4879209,43.3177906 34.3761829,37.2438674 34.3761829,29.7781743 L34.3761829,28.6090801 C34.3761829,28.0720496 34.6758073,27.5801132 35.1775563,27.292964 C36.9357404,26.2869169 39.2543608,24.423149 40.3161713,21.2577995 C40.5617958,20.5256715 40.1635466,19.7341012 39.426673,19.4899964 C38.6901744,19.2458916 37.8934885,19.6416767 37.647864,20.3739911 C36.8656155,22.7062166 35.1094939,24.1065581 33.7741215,24.8707365 C32.4106242,25.6509401 31.5635009,27.0835184 31.5635009,28.6092664 L31.5635009,29.7783606 C31.5635009,35.5192951 34.55937,40.5772952 39.0786737,43.4910863 L39.0786737,48.295851 C39.0786737,48.9251196 38.7044244,49.4958776 38.125238,49.750231 L35.8060551,50.7682038 C31.2768139,49.5638915 28.3746946,47.9582038 27.0391347,47.0989922 C27.0125097,47.081849 26.9975098,47.0622833 27.0050098,47.0181209 C27.4955088,44.1365665 28.7558813,35.8248919 29.8632542,20.9188479 C30.2716284,15.4190368 32.2225621,10.8127237 35.5051182,7.59836685 C38.7141744,4.45612342 43.0347284,2.79509289 47.9999063,2.79509289 C52.9650841,2.79509289 57.2856381,4.45612342 60.4946943,7.59836685 C63.7772504,10.8127237 65.7281841,15.4188504 66.1367458,20.9186615 C67.2439312,35.8241465 68.5043037,44.1361938 68.9949902,47.0179345 C69.0024902,47.0622833 68.9874903,47.081849 68.9606778,47.0989922 C67.6232429,47.9593218 64.7211236,49.5640778 60.1937574,50.7680175 Z M75.1511657,53.1075102 C75.1511657,53.1442191 75.1307283,53.1772012 75.0977283,53.1935991 L70.6918619,55.3829022 C70.6395495,55.3584917 70.5892996,55.3310998 70.5364247,55.3078074 L64.1068748,52.4856953 C67.2336187,51.3762297 69.360427,50.171731 70.4891748,49.4453795 C71.4589229,48.8213285 71.961047,47.6857754 71.7681098,46.5518994 C71.7576098,46.4898483 71.7461724,46.4218344 71.7349224,46.3547522 C72.5257958,47.935284 73.708356,49.2759969 75.1511657,50.2632237 L75.1511657,53.1075102 Z M83.203525,55.7060149 C82.0052148,56.8382139 80.1275935,56.8380276 78.9289083,55.7060149 L77.6218484,54.4717019 C77.842348,54.0610096 77.9634727,53.5951608 77.9634727,53.1075102 L77.9634727,51.6203345 C78.9455958,51.9231362 79.9873438,52.0878604 81.0662167,52.0878604 C82.1449021,52.0878604 83.1868375,51.9231362 84.1687731,51.6203345 L84.1685856,53.1071376 C84.1685856,53.5951608 84.2897104,54.0610096 84.5103974,54.4718883 L83.203525,55.7060149 Z M81.0664042,49.2925811 C77.1727868,49.2925811 73.9207931,46.3950015 73.5021064,42.5524941 C73.4796065,42.346589 73.4115441,42.1483237 73.3024193,41.9716738 C72.4185461,40.5411453 71.9514845,38.9073203 71.9514845,37.2466625 C71.9514845,32.2520178 76.040289,28.1883254 81.0664042,28.1883254 C86.0923319,28.1883254 90.1813239,32.2520178 90.1813239,37.2468488 C90.1813239,38.2096652 90.0232617,39.1633508 89.7189498,40.0738058 C85.7259576,36.0423501 78.7016588,34.4623773 78.3630344,34.3882142 C77.9471603,34.2970941 77.5117861,34.3984628 77.1795368,34.663624 C76.8474749,34.9289715 76.6541628,35.3296014 76.6541628,35.7529648 C76.6541628,35.7620955 76.5900379,36.73162 75.5631024,37.7522016 C75.013916,38.2979901 75.013916,39.1829165 75.5631024,39.7285186 C76.1122888,40.2743071 77.0027246,40.2743071 77.5517235,39.7285186 C78.342597,38.9425385 78.8072211,38.144819 79.0798455,37.4712016 C81.4460909,38.1697885 86.3572688,39.9340511 88.561327,43.0308277 C87.9358283,46.6325844 84.7963344,49.2925811 81.0664042,49.2925811 Z" id="Shape"></path>
                <path d="M88.5,64 C87.6716,64 87,64.6313573 87,65.410119 L87,72.589881 C87,73.3686427 87.6716,74 88.5,74 C89.3284,74 90,73.3686427 90,72.589881 L90,65.410119 C90,64.6313573 89.3284,64 88.5,64 Z" id="Shape"></path>
            </g>
        </g>
    </g>
</svg>