<?xml version="1.0" encoding="UTF-8"?>
<svg width="75px" height="78px" viewBox="0 0 75 78" version="1.1" xmlns="http://www.w3.org/2000/svg" xmlns:xlink="http://www.w3.org/1999/xlink">
    <!-- Generator: Sketch 50.2 (55047) - http://www.bohemiancoding.com/sketch -->
    <title>Shape Copy</title>
    <desc>Created with Sketch.</desc>
    <defs></defs>
    <g id="Page-1" stroke="none" stroke-width="1" fill="none" fill-rule="evenodd">
        <path d="M68.0316173,44.9567932 L64.6300922,44.9567932 L64.6300922,28.9007634 C68.3820862,28.9007634 71.4333018,26.0204711 71.4333018,22.4783213 L71.4333018,12.8447335 C71.4333018,9.30273426 68.3822456,6.42229151 64.6300922,6.42229151 L47.4501026,6.42229151 C46.6598735,2.76258182 43.2247047,0 39.1182557,0 L35.7167306,0 C31.6102816,0 28.1751128,2.76258182 27.3848837,6.42244203 L10.2047346,6.42244203 C6.45274071,6.42244203 3.40152506,9.30273426 3.40152506,12.8448841 L3.40152506,22.4784719 C3.40152506,26.0204711 6.45258126,28.9009139 10.2047346,28.9009139 L10.2047346,44.9569437 L6.80320956,44.9569437 C3.05121565,44.9569437 0,47.8372359 0,51.3793857 L0,61.0129735 C0,64.5548223 3.05121565,67.4351145 6.80320956,67.4351145 L10.2047346,67.4351145 L10.2047346,70.6462603 C10.2047346,74.1884101 13.2559503,77.0687023 17.0079442,77.0687023 L57.8268827,77.0687023 C61.5788766,77.0687023 64.6300922,74.1884101 64.6300922,70.6462603 L64.6300922,67.4351145 L68.0316173,67.4351145 C71.7836112,67.4351145 74.8348269,64.5548223 74.8348269,61.0126725 L74.8348269,51.3790847 C74.8348269,47.8370854 71.7836112,44.9567932 68.0316173,44.9567932 Z M10.2047346,64.2239688 L6.80320956,64.2239688 C4.92808958,64.2239688 3.40168451,62.7829948 3.40168451,61.012823 L3.40168451,51.3792352 C3.40168451,49.6089129 4.92808958,48.1679389 6.80320956,48.1679389 L10.2047346,48.1679389 L10.2047346,64.2239688 Z M47.6221481,9.63358779 L51.0236731,9.63358779 L51.0236731,32.1119091 L47.6221481,32.1119091 L47.6221481,9.63358779 Z M47.6221481,35.3232054 L51.0236731,35.3232054 L51.0236731,36.9288535 C51.0236731,37.814692 50.2613475,38.5345017 49.3228309,38.5345017 C48.3844736,38.5345017 47.6219886,37.8148426 47.6219886,36.9288535 L47.6219886,35.3232054 L47.6221481,35.3232054 Z M35.7165712,3.21114575 L39.1180962,3.21114575 C41.3325236,3.21114575 43.2027007,4.55743965 43.9071463,6.42229151 L30.9273617,6.42229151 C31.6319667,4.55743965 33.5021438,3.21114575 35.7165712,3.21114575 Z M30.6119716,9.63358779 L44.220623,9.63358779 L44.220623,25.6896176 L30.6108554,25.6896176 C30.6100582,19.415593 30.6100582,12.6234621 30.6119716,9.63358779 Z M23.8111538,9.63358779 L27.2115627,9.63358779 C27.2082142,12.0504141 27.2066197,17.8937872 27.2099682,32.1119091 L23.8113132,32.1119091 L23.8113132,9.63358779 L23.8111538,9.63358779 Z M23.8111538,35.3232054 L27.210606,35.3232054 C27.2107654,35.8714167 27.2107654,36.3598698 27.2110843,36.9303588 C27.2110843,37.3584513 27.0350526,37.7614063 26.7144008,38.0639611 C25.7328328,38.9984191 23.8127482,38.2442898 23.8111538,36.928703 L23.8111538,35.3232054 Z M10.2047346,25.6896176 C8.32961464,25.6896176 6.80320956,24.2486436 6.80320956,22.4784719 L6.80320956,12.8448841 C6.80320956,11.0745618 8.32961464,9.63358779 10.2047346,9.63358779 L20.4094692,9.63358779 L20.4094692,25.6896176 L10.2047346,25.6896176 Z M61.2284077,70.6462603 C61.2284077,72.416432 59.7020027,73.857406 57.8268827,73.857406 L17.0079442,73.857406 C15.1328242,73.857406 13.6064191,72.416432 13.6064191,70.6462603 L13.6064191,28.9007634 L20.4096287,28.9007634 L20.4096287,32.1119091 C19.4695175,32.1119091 18.7087864,32.830063 18.7087864,33.7175573 C18.7087864,34.6050515 19.4695175,35.3232054 20.4096287,35.3232054 L20.4096287,36.9288535 C20.4096287,39.5850143 22.6983593,41.7456474 25.511996,41.7456474 C26.8756037,41.7456474 28.1561384,41.2439482 29.1195291,40.3344773 C30.0845144,39.4250064 30.6143633,38.2146365 30.6127688,36.9288535 C30.6126094,36.4816443 30.6126094,35.9275625 30.6122905,35.3232054 L30.6143633,35.3232054 C31.5544745,35.3232054 32.3152056,34.6050515 32.3152056,33.7175573 C32.3152056,32.830063 31.5544745,32.1119091 30.6143633,32.1119091 L30.6116527,32.1119091 C30.6116527,31.1133275 30.6114932,30.0253342 30.6111743,28.9007634 L44.220623,28.9007634 L44.220623,32.1119091 C43.2805118,32.1119091 42.5197807,32.830063 42.5197807,33.7175573 C42.5197807,34.6050515 43.2805118,35.3232054 44.220623,35.3232054 L44.220623,36.9288535 C44.220623,39.5850143 46.5093536,41.7456474 49.3229903,41.7456474 C52.136627,41.7456474 54.4253576,39.5850143 54.4253576,36.9288535 L54.4253576,35.3232054 C55.3654688,35.3232054 56.1261999,34.6050515 56.1261999,33.7175573 C56.1261999,32.830063 55.3654688,32.1119091 54.4253576,32.1119091 L54.4253576,28.9007634 L61.2285672,28.9007634 L61.2285672,70.6462603 L61.2284077,70.6462603 Z M54.4253576,25.6896176 L54.4253576,9.63358779 L64.6300922,9.63358779 C66.5052122,9.63358779 68.0316173,11.0745618 68.0316173,12.8447335 L68.0316173,22.4783213 C68.0316173,24.2484931 66.5052122,25.6894671 64.6300922,25.6894671 L54.4253576,25.6896176 Z M71.4331424,61.0126725 C71.4331424,62.7828442 69.9067373,64.2238182 68.0316173,64.2238182 L64.6300922,64.2238182 L64.6300922,48.1679389 L68.0316173,48.1679389 C69.9067373,48.1679389 71.4331424,49.6089129 71.4331424,51.3790847 L71.4331424,61.0126725 Z" id="Shape-Copy" fill="#FFFFFF" fill-rule="nonzero"></path>
    </g>
</svg>