<?xml version="1.0" encoding="UTF-8"?>
<svg width="39px" height="39px" viewBox="0 0 39 39" version="1.1" xmlns="http://www.w3.org/2000/svg" xmlns:xlink="http://www.w3.org/1999/xlink">
    <!-- Generator: Sketch 49.3 (51167) - http://www.bohemiancoding.com/sketch -->
    <title>alistamiento</title>
    <desc>Created with Sketch.</desc>
    <defs></defs>
    <g id="Symbols" stroke="none" stroke-width="1" fill="none" fill-rule="evenodd">
        <g id="Footer" transform="translate(-188.000000, -14.000000)">
            <g id="Group-2" transform="translate(189.000000, 14.000000)">
                <g id="alistamiento" transform="translate(0.000000, 1.000000)">
                    <circle id="Oval" stroke="#FFFFFF" cx="18.3206107" cy="18.3206107" r="18.3206107"></circle>
                    <path d="M26.3691762,19.7557389 L25.4392822,19.7557389 L25.4392822,15.3664122 C26.4649858,15.3664122 27.2991137,14.5790106 27.2991137,13.6106733 L27.2991137,10.9770855 C27.2991137,10.0087894 26.4650294,9.22134661 25.4392822,9.22134661 L20.7426924,9.22134661 C20.526663,8.2208713 19.5875717,7.46564885 18.4649688,7.46564885 L17.5350748,7.46564885 C16.4124719,7.46564885 15.4733806,8.2208713 15.2573512,9.22138776 L10.5607178,9.22138776 C9.53501419,9.22138776 8.7008863,10.0087894 8.7008863,10.9771267 L8.7008863,13.6107145 C8.7008863,14.5790106 9.5349706,15.3664534 10.5607178,15.3664534 L10.5607178,19.7557801 L9.63082382,19.7557801 C8.60512026,19.7557801 7.77099237,20.5431817 7.77099237,21.511519 L7.77099237,24.1451068 C7.77099237,25.1133618 8.60512026,25.9007634 9.63082382,25.9007634 L10.5607178,25.9007634 L10.5607178,26.7786122 C10.5607178,27.7469495 11.3948457,28.5343511 12.4205492,28.5343511 L23.5794508,28.5343511 C24.6051543,28.5343511 25.4392822,27.7469495 25.4392822,26.7786122 L25.4392822,25.9007634 L26.3691762,25.9007634 C27.3948797,25.9007634 28.2290076,25.1133618 28.2290076,24.1450245 L28.2290076,21.5114367 C28.2290076,20.5431405 27.3948797,19.7557389 26.3691762,19.7557389 Z M10.5607178,25.0229145 L9.63082382,25.0229145 C9.11821178,25.0229145 8.70092989,24.6289874 8.70092989,24.1450656 L8.70092989,21.5114778 C8.70092989,21.0275149 9.11821178,20.6335878 9.63082382,20.6335878 L10.5607178,20.6335878 L10.5607178,25.0229145 Z M20.7897254,10.0992366 L21.7196193,10.0992366 L21.7196193,16.2442611 L20.7897254,16.2442611 L20.7897254,10.0992366 Z M20.7897254,17.1221511 L21.7196193,17.1221511 L21.7196193,17.5610961 C21.7196193,17.8032628 21.5112181,18.0000411 21.2546506,18.0000411 C20.9981266,18.0000411 20.7896818,17.8033039 20.7896818,17.5610961 L20.7896818,17.1221511 L20.7897254,17.1221511 Z M17.5350312,8.34349773 L18.4649252,8.34349773 C19.0702956,8.34349773 19.5815563,8.71154163 19.7741346,9.22134661 L16.2257782,9.22134661 C16.4184001,8.71154163 16.9296608,8.34349773 17.5350312,8.34349773 Z M16.1395583,10.0992366 L19.8598315,10.0992366 L19.8598315,14.4885633 L16.1392532,14.4885633 C16.1390352,12.7733981 16.1390352,10.9165953 16.1395583,10.0992366 Z M14.2803807,10.0992366 L15.2099695,10.0992366 C15.2090541,10.759938 15.2086182,12.3573736 15.2095336,16.2442611 L14.2804243,16.2442611 L14.2804243,10.0992366 L14.2803807,10.0992366 Z M14.2803807,17.1221511 L15.2097079,17.1221511 C15.2097515,17.2720187 15.2097515,17.4055499 15.2098387,17.5615076 C15.2098387,17.6785377 15.161716,17.7886957 15.0740575,17.8714068 C14.8057208,18.1268649 14.2808166,17.9207043 14.2803807,17.561055 L14.2803807,17.1221511 Z M10.5607178,14.4885633 C10.0481057,14.4885633 9.63082382,14.0946362 9.63082382,13.6107145 L9.63082382,10.9771267 C9.63082382,10.4931638 10.0481057,10.0992366 10.5607178,10.0992366 L13.3504432,10.0992366 L13.3504432,14.4885633 L10.5607178,14.4885633 Z M24.5093447,26.7786122 C24.5093447,27.262534 24.0920628,27.6564611 23.5794508,27.6564611 L12.4205492,27.6564611 C11.9079372,27.6564611 11.4906553,27.262534 11.4906553,26.7786122 L11.4906553,15.3664122 L13.3504867,15.3664122 L13.3504867,16.2442611 C13.0934833,16.2442611 12.885518,16.4405868 12.885518,16.6832061 C12.885518,16.9258254 13.0934833,17.1221511 13.3504867,17.1221511 L13.3504867,17.5610961 C13.3504867,18.2872257 13.9761698,18.87789 14.7453494,18.87789 C15.1181265,18.87789 15.4681934,18.7407377 15.731561,18.4921106 C15.9953644,18.2434834 16.1402121,17.9125978 16.1397762,17.5610961 C16.1397326,17.4388401 16.1397326,17.2873676 16.1396455,17.1221511 L16.1402121,17.1221511 C16.3972156,17.1221511 16.6051809,16.9258254 16.6051809,16.6832061 C16.6051809,16.4405868 16.3972156,16.2442611 16.1402121,16.2442611 L16.1394711,16.2442611 C16.1394711,15.9712733 16.1394275,15.6738424 16.1393403,15.3664122 L19.8598315,15.3664122 L19.8598315,16.2442611 C19.602828,16.2442611 19.3948627,16.4405868 19.3948627,16.6832061 C19.3948627,16.9258254 19.602828,17.1221511 19.8598315,17.1221511 L19.8598315,17.5610961 C19.8598315,18.2872257 20.4855146,18.87789 21.2546942,18.87789 C22.0238738,18.87789 22.6495568,18.2872257 22.6495568,17.5610961 L22.6495568,17.1221511 C22.9065603,17.1221511 23.1145256,16.9258254 23.1145256,16.6832061 C23.1145256,16.4405868 22.9065603,16.2442611 22.6495568,16.2442611 L22.6495568,15.3664122 L24.5093883,15.3664122 L24.5093883,26.7786122 L24.5093447,26.7786122 Z M22.6495568,14.4885633 L22.6495568,10.0992366 L25.4392822,10.0992366 C25.9518943,10.0992366 26.3691762,10.4931638 26.3691762,10.9770855 L26.3691762,13.6106733 C26.3691762,14.0945951 25.9518943,14.4885222 25.4392822,14.4885222 L22.6495568,14.4885633 Z M27.2990701,24.1450245 C27.2990701,24.6289462 26.8817882,25.0228733 26.3691762,25.0228733 L25.4392822,25.0228733 L25.4392822,20.6335878 L26.3691762,20.6335878 C26.8817882,20.6335878 27.2990701,21.0275149 27.2990701,21.5114367 L27.2990701,24.1450245 Z" id="Shape" fill="#FFFFFF" fill-rule="nonzero"></path>
                </g>
            </g>
        </g>
    </g>
</svg>