<?xml version="1.0" encoding="UTF-8"?>
<svg width="9px" height="80vh" viewBox="0 0 9 933" version="1.1" xmlns="http://www.w3.org/2000/svg" xmlns:xlink="http://www.w3.org/1999/xlink">
    <!-- Generator: Sketch 49.3 (51167) - http://www.bohemiancoding.com/sketch -->
    <title>Page 1</title>
    <desc>Created with Sketch.</desc>
    <defs></defs>
    <g id="Page-1" stroke="none" stroke-width="1" fill="none" fill-rule="evenodd" stroke-linecap="round">
        <g id="Artboard" transform="translate(-136.000000, -12.000000)" stroke="#F9F9F9" stroke-width="0.459">
            <g id="Page-1" transform="translate(136.000000, 13.000000)">
                <polyline id="Stroke-1" points="0 168 8 168 8 84 0 84"></polyline>
                <polyline id="Stroke-3" points="4 102 8 102 8 84 4 84"></polyline>
                <polyline id="Stroke-4" points="4 120 8 120 8 102 4 102"></polyline>
                <polyline id="Stroke-5" points="4 136 8 136 8 118 4 118"></polyline>
                <polyline id="Stroke-6" points="4 153 8 153 8 135 4 135"></polyline>
                <polyline id="Stroke-7" points="4 168 8 168 8 150 4 150"></polyline>
                <polyline id="Stroke-8" points="0 84 8 84 8 0 0 0"></polyline>
                <polyline id="Stroke-10" points="4 18 8 18 8 0 4 0"></polyline>
                <polyline id="Stroke-11" points="4 33 8 33 8 15 4 15"></polyline>
                <polyline id="Stroke-12" points="4 51 8 51 8 33 4 33"></polyline>
                <polyline id="Stroke-13" points="4 67 8 67 8 49 4 49"></polyline>
                <polyline id="Stroke-14" points="4 85 8 85 8 67 4 67"></polyline>
                <polyline id="Stroke-15" points="0 253 8 253 8 169 0 169"></polyline>
                <polyline id="Stroke-17" points="4 187 8 187 8 169 4 169"></polyline>
                <polyline id="Stroke-18" points="4 202 8 202 8 184 4 184"></polyline>
                <polyline id="Stroke-19" points="4 221 8 221 8 203 4 203"></polyline>
                <polyline id="Stroke-20" points="4 237 8 237 8 219 4 219"></polyline>
                <polyline id="Stroke-21" points="4 256 8 256 8 238 4 238"></polyline>
                <polyline id="Stroke-22" points="0 338 8 338 8 254 0 254"></polyline>
                <polyline id="Stroke-24" points="4 272 8 272 8 254 4 254"></polyline>
                <polyline id="Stroke-25" points="4 287 8 287 8 269 4 269"></polyline>
                <polyline id="Stroke-26" points="4 304 8 304 8 286 4 286"></polyline>
                <polyline id="Stroke-27" points="4 321 8 321 8 303 4 303"></polyline>
                <polyline id="Stroke-28" points="4 338 8 338 8 320 4 320"></polyline>
                <polyline id="Stroke-29" points="0 424 8 424 8 340 0 340"></polyline>
                <polyline id="Stroke-31" points="4 358 8 358 8 340 4 340"></polyline>
                <polyline id="Stroke-32" points="4 374 8 374 8 356 4 356"></polyline>
                <polyline id="Stroke-33" points="4 390 8 390 8 372 4 372"></polyline>
                <polyline id="Stroke-34" points="4 406 8 406 8 388 4 388"></polyline>
                <polyline id="Stroke-35" points="4 423 8 423 8 405 4 405"></polyline>
                <polyline id="Stroke-36" points="0 507 8 507 8 423 0 423"></polyline>
                <polyline id="Stroke-38" points="4 441 8 441 8 423 4 423"></polyline>
                <polyline id="Stroke-39" points="4 457 8 457 8 439 4 439"></polyline>
                <polyline id="Stroke-40" points="4 475 8 475 8 457 4 457"></polyline>
                <polyline id="Stroke-41" points="4 489 8 489 8 471 4 471"></polyline>
                <polyline id="Stroke-42" points="4 508 8 508 8 490 4 490"></polyline>
                <polyline id="Stroke-43" points="0 590 8 590 8 506 0 506"></polyline>
                <polyline id="Stroke-45" points="4 524 8 524 8 506 4 506"></polyline>
                <polyline id="Stroke-46" points="4 541 8 541 8 523 4 523"></polyline>
                <polyline id="Stroke-47" points="4 559 8 559 8 541 4 541"></polyline>
                <polyline id="Stroke-48" points="4 574 8 574 8 556 4 556"></polyline>
                <polyline id="Stroke-49" points="4 591 8 591 8 573 4 573"></polyline>
                <polyline id="Stroke-50" points="0 674 8 674 8 590 0 590"></polyline>
                <polyline id="Stroke-52" points="4 608 8 608 8 590 4 590"></polyline>
                <polyline id="Stroke-53" points="4 626 8 626 8 608 4 608"></polyline>
                <polyline id="Stroke-54" points="4 643 8 643 8 625 4 625"></polyline>
                <polyline id="Stroke-55" points="4 660 8 660 8 642 4 642"></polyline>
                <polyline id="Stroke-56" points="4 678 8 678 8 660 4 660"></polyline>
                <polyline id="Stroke-57" points="0 760 8 760 8 676 0 676"></polyline>
                <polyline id="Stroke-59" points="4 694 8 694 8 676 4 676"></polyline>
                <polyline id="Stroke-60" points="4 710 8 710 8 692 4 692"></polyline>
                <polyline id="Stroke-61" points="4 726 8 726 8 708 4 708"></polyline>
                <polyline id="Stroke-62" points="4 743 8 743 8 725 4 725"></polyline>
                <polyline id="Stroke-63" points="4 762 8 762 8 744 4 744"></polyline>
                <polyline id="Stroke-64" points="0 845 8 845 8 761 0 761"></polyline>
                <polyline id="Stroke-66" points="4 779 8 779 8 761 4 761"></polyline>
                <polyline id="Stroke-67" points="4 793 8 793 8 775 4 775"></polyline>
                <polyline id="Stroke-68" points="4 812 8 812 8 794 4 794"></polyline>
                <polyline id="Stroke-69" points="4 828 8 828 8 810 4 810"></polyline>
                <polyline id="Stroke-70" points="4 846 8 846 8 828 4 828"></polyline>
                <polyline id="Stroke-71" points="0 928 8 928 8 844 0 844"></polyline>
                <polyline id="Stroke-73" points="4 862 8 862 8 844 4 844"></polyline>
                <polyline id="Stroke-74" points="4 878 8 878 8 860 4 860"></polyline>
                <polyline id="Stroke-75" points="4 897 8 897 8 879 4 879"></polyline>
                <polyline id="Stroke-76" points="4 913 8 913 8 895 4 895"></polyline>
                <polyline id="Stroke-77" points="4 931 8 931 8 913 4 913"></polyline>
            </g>
        </g>
    </g>
</svg>