<?xml version="1.0" encoding="UTF-8"?>
<svg width="52px" height="71px" viewBox="0 0 52 71" version="1.1" xmlns="http://www.w3.org/2000/svg" xmlns:xlink="http://www.w3.org/1999/xlink">
    <!-- Generator: Sketch 50.2 (55047) - http://www.bohemiancoding.com/sketch -->
    <title>Group</title>
    <desc>Created with Sketch.</desc>
    <defs></defs>
    <g id="Page-1" stroke="none" stroke-width="1" fill="none" fill-rule="evenodd">
        <g id="Dashboard" transform="translate(-135.000000, -183.000000)" fill="#E0E4E6" fill-rule="nonzero">
            <g id="Group" transform="translate(135.000000, 183.000000)">
                <path d="M34.751031,14.6785994 C29.506723,12.030411 19.6742478,12 19.2580998,12 C18.0111614,12 17.0003012,13.0205926 17.0000001,14.2802155 C16.9996989,15.5395343 18.0102581,16.5610392 19.2574976,16.5616474 C21.798048,16.563168 29.1712752,16.9609436 32.7311172,18.7588409 C33.0554236,18.922452 33.399905,19 33.7392674,19 C34.5676488,19 35.365316,18.5377531 35.7609878,17.7385524 C36.3189634,16.6118255 35.866681,15.2418108 34.751031,14.6785994 Z" id="Shape"></path>
                <path d="M45.2141156,46.1456116 L37.1926008,43.8544761 C36.1117948,43.5458088 35.3572474,42.5453828 35.3572474,41.4216085 L35.357544,39.5666397 C36.1046764,39.0492291 36.8171068,38.4701443 37.4832677,37.8237517 C40.7120423,34.6914162 42.4901522,30.4895678 42.4901522,25.9926916 L42.4901522,21.7638608 L43.3778724,19.9889498 C44.3527927,18.0402836 44.8676882,15.8585604 44.8676882,13.6795057 L44.8676882,2.22382774 C44.8676882,0.995681807 43.8717094,0 42.6431972,0 L21.2450761,0 C13.4635097,0 7.13260816,6.32901375 7.13260816,14.1082597 L7.13260816,14.2407998 C7.13260816,16.0524782 7.56089684,17.8665286 8.37150138,19.4872542 L9.51014421,21.7638608 L9.51014421,25.3946302 C9.51014421,31.1487104 12.3465186,36.3118454 16.6427524,39.4189775 L16.6427524,41.421905 C16.6427524,42.5453828 15.888205,43.5458088 14.8073989,43.8544761 L6.78647735,46.1456116 C2.79069819,47.28688 0,50.9858469 0,55.1402536 L0,68.7761723 C0,70.0043182 0.995978801,71 2.22449107,71 C3.45300333,71 4.44898213,70.0043182 4.44898213,68.7761723 L4.44898213,55.1399571 C4.44898213,52.9606059 5.91299386,51.0205386 8.00876104,50.4218841 L16.029386,48.1307485 C16.7255034,47.9317901 17.3700126,47.6254949 17.9531259,47.2385489 L19.3833254,48.6686183 C21.207408,50.4921571 23.6036298,51.4039265 25.9998516,51.4039265 C28.3960734,51.4039265 30.7922951,50.4921571 32.6163778,48.6686183 L34.0462807,47.2391419 C34.6290973,47.6260879 35.2736066,47.9323831 35.969724,48.1313416 L43.9912387,50.4224772 C46.0870059,51.0211316 47.5510177,52.9611989 47.5510177,55.1405501 L47.5510177,68.7761723 C47.5510177,70.0043182 48.5469965,71 49.7755087,71 C51.004021,71 51.9999998,70.0043182 51.9999998,68.7761723 L51.9999998,55.1399571 C52.0008896,50.9852538 49.2101914,47.2865835 45.2141156,46.1456116 Z M29.4715407,45.5235329 C27.5575885,47.4366178 24.4438942,47.4366178 22.5299421,45.5235329 L20.7046731,43.6988081 C20.9271222,43.0607178 21.0543631,42.3843777 21.0813535,41.6887643 C22.4842659,42.1501345 23.9639974,42.4238135 25.495337,42.4697726 C25.6664745,42.4748133 25.8367222,42.4774819 26.0072666,42.4774819 C27.6990662,42.4774819 29.3505283,42.221297 30.9216122,41.7326479 C30.9524585,42.4128427 31.078513,43.0743573 31.2965131,43.6991046 L29.4715407,45.5235329 Z M25.6288065,38.0241927 C19.1943919,37.8311645 13.9597195,32.1657409 13.9597195,25.3946302 L13.9597195,21.238741 C13.9597195,20.8936029 13.8793413,20.5529125 13.7248133,20.2442452 L12.3515608,17.4979662 C11.8482326,16.49161 11.5821835,15.3654636 11.5821835,14.2405033 L11.5821835,14.1079632 C11.5821835,8.78115447 15.9172717,4.44735897 21.2456693,4.44735897 L40.4192993,4.44735897 L40.4192993,13.6792092 C40.4192993,15.1709528 40.0666433,16.6650686 39.399296,17.9996617 L38.2766695,20.2442452 C38.1221415,20.553209 38.0417632,20.8936029 38.0417632,21.238741 L38.0417632,25.9923951 C38.0417632,29.2762474 36.7432537,32.3442402 34.3852931,34.6318177 C32.0288156,36.9182091 28.9154179,38.1226342 25.6288065,38.0241927 Z" id="Shape"></path>
                <path d="M11,57 C9.89546667,57 9,57.9988951 9,59.2310046 L9,68.7689954 C9,70.0011049 9.89546667,71 11,71 C12.1045333,71 13,70.0011049 13,68.7689954 L13,59.2310046 C13,57.9985977 12.1045333,57 11,57 Z" id="Shape"></path>
                <path d="M40,57 C38.8954667,57 38,57.9988951 38,59.2310046 L38,68.7689954 C38,70.0011049 38.8954667,71 40,71 C41.1045333,71 42,70.0011049 42,68.7689954 L42,59.2310046 C42,57.9985977 41.1045333,57 40,57 Z" id="Shape"></path>
            </g>
        </g>
    </g>
</svg>