<svg xmlns="http://www.w3.org/2000/svg" viewBox="0 0 105 145"><defs><style>.cls-1{fill:#227791;}.cls-2{fill:#20617b;}.cls-3{fill:#fcecdb;}.cls-4{fill:#e3c190;}</style></defs><title>001</title><g id="Capa_2" data-name="Capa 2"><g id="OBJECTS"><path class="cls-1" d="M52.5,0V145s-11.33-4.69-33.92-22.81C-1.85,105.81.05,103.25.05,88.84V22.61s8-.7,12-7.72A25.12,25.12,0,0,0,15,0Z"/><path class="cls-2" d="M52.5,0V145s11.33-4.69,33.92-22.81C106.85,105.81,105,103.25,105,88.84V22.61s-8-.7-12-7.72A25.12,25.12,0,0,1,90,0Z"/><path class="cls-3" d="M20.06,5a29.78,29.78,0,0,1-3.69,12.36A20.51,20.51,0,0,1,5.05,26.52V88.84c0,1.22,0,2.36,0,3.42-.12,10.37-.15,12.53,16.68,26,16.43,13.17,26.77,19.08,30.8,21.16V5Z"/><path class="cls-4" d="M83.3,118.29c16.83-13.5,16.8-15.66,16.68-26,0-1.06,0-2.2,0-3.42V26.52a20.51,20.51,0,0,1-11.32-9.16A29.78,29.78,0,0,1,84.94,5H52.5V139.45h0C56.53,137.37,66.87,131.46,83.3,118.29Z"/><path class="cls-1" d="M22.72,8A32.36,32.36,0,0,1,19,18.84,23.09,23.09,0,0,1,8.05,28.56V88.84c0,1.23,0,2.38,0,3.46-.11,9.59-.13,11.07,15.56,23.65C38.25,127.72,48,133.59,52.5,136.05V8Z"/><path class="cls-2" d="M81.42,116C97.11,103.37,97.09,101.89,97,92.3c0-1.08,0-2.23,0-3.46V28.56A23.09,23.09,0,0,1,86,18.84,32.36,32.36,0,0,1,82.28,8H52.5V136.05h0C57,133.6,66.75,127.72,81.42,116Z"/></g></g></svg>