<svg xmlns="http://www.w3.org/2000/svg" viewBox="0 0 150.14 160.24"><defs><style>.cls-1{fill:#59aa46;}.cls-2{fill:#fff;}.cls-3{fill:#f9f8f7;}</style></defs><title>001</title><g id="Capa_2" data-name="Capa 2"><g id="BACKGROUND"><rect class="cls-1" x="42.89" y="0.85" width="1.35" height="39.14" transform="translate(-1.68 36.78) rotate(-45)"/><path class="cls-1" d="M33.81,8.6a1.46,1.46,0,0,1-2.07,2.07A1.46,1.46,0,1,1,33.81,8.6Z"/><path class="cls-1" d="M29.24,3.39c1.86,1.86,1.38,2.6.63,3.35S28.39,8,26.53,6.1,23.14,0,23.14,0,27.38,1.53,29.24,3.39Z"/><rect class="cls-2" x="28.61" y="7.13" width="4.38" height="1.07" transform="translate(3.6 24.03) rotate(-45)"/><path class="cls-3" d="M32,5.74l.75.75-3.1,3.1-.75-.75L32,5.74m0-1.32-.66.66-3.1,3.1-.66.66.66.66.75.75.66.66.66-.66,3.1-3.1.66-.66-.66-.66-.75-.75L32,4.42Z"/><rect class="cls-1" x="105.91" y="0.85" width="1.35" height="39.14" transform="translate(167.5 110.22) rotate(-135)"/><path class="cls-1" d="M116.33,8.6a1.47,1.47,0,1,0,2.08,0A1.47,1.47,0,0,0,116.33,8.6Z"/><path class="cls-1" d="M120.9,3.39c-1.86,1.86-1.38,2.6-.63,3.35s1.48,1.22,3.34-.64S127,0,127,0,122.76,1.53,120.9,3.39Z"/><rect class="cls-2" x="117.15" y="7.13" width="4.38" height="1.07" transform="translate(198.3 97.47) rotate(-135)"/><path class="cls-3" d="M118.16,5.74l3.1,3.1-.75.75-3.1-3.1.75-.75m0-1.32-.66.66-.75.75-.66.66.66.66,3.1,3.1.66.66.66-.66.75-.75.66-.66-.66-.66-3.1-3.1-.66-.66Z"/><path class="cls-2" d="M35.27,29h79.6a4.77,4.77,0,0,1,4.77,4.77V94.85a44.57,44.57,0,0,1-44.57,44.57h0A44.57,44.57,0,0,1,30.5,94.85V33.78A4.77,4.77,0,0,1,35.27,29Z"/><path class="cls-3" d="M75.07,140.35a45.55,45.55,0,0,1-45.5-45.5V33.78a5.71,5.71,0,0,1,5.7-5.71h79.6a5.71,5.71,0,0,1,5.71,5.71V94.85A45.56,45.56,0,0,1,75.07,140.35ZM35.27,29.94a3.84,3.84,0,0,0-3.84,3.84V94.85a43.68,43.68,0,0,0,43.64,43.63h0a43.68,43.68,0,0,0,43.64-43.63V33.78a3.84,3.84,0,0,0-3.84-3.84Z"/><path class="cls-1" d="M57.47,130.94c-12.31-5.38-22.3-21-22.3-34.45V35.6a1.92,1.92,0,0,1,1.92-1.92h76A1.92,1.92,0,0,1,115,35.6V94.85C115,122.52,86.65,143.7,57.47,130.94Z"/><path class="cls-2" d="M102.3,123.88c4.8-16.39-5.19-31-15.13-39.08,8,6.31,24.69,11.74,24.69,25.48a39.68,39.68,0,0,1-9.51,13.65Z"/><path class="cls-2" d="M38.29,110.28C38.29,96.54,55,91.11,63,84.8,53,92.88,43.05,107.49,47.85,123.88l-.2.2a44.09,44.09,0,0,1-9.4-13.78Z"/><path class="cls-1" d="M129.2,89.74a50.48,50.48,0,0,1-32.89,54.59C93,145.52,80.57,151,74.08,157.77l.68.64c6.25-6.56,18.68-12.07,21.86-13.2a51.54,51.54,0,0,0,34-48.36,52.52,52.52,0,0,0-.51-7.25l-.93.14Z"/><path class="cls-1" d="M109.62,147.85a6.62,6.62,0,0,1-3,.88,10.57,10.57,0,0,1-3.6-.28c-2.47-.75-4.11-2.16-4.68-3.55a7.17,7.17,0,0,1,2.75-.39,13.46,13.46,0,0,1,6.57,1.64A5.29,5.29,0,0,1,109.62,147.85Z"/><path class="cls-1" d="M100.93,133.29A6.35,6.35,0,0,0,99.34,135a11.22,11.22,0,0,0-1.26,2.78,8.91,8.91,0,0,0-.36,5.62,6,6,0,0,0,2.1-1.6,9,9,0,0,0,1.48-2.88,8.16,8.16,0,0,0,.36-3.11A6,6,0,0,0,100.93,133.29Z"/><path class="cls-1" d="M118.71,141.15a7.42,7.42,0,0,1-1.21.85,6.44,6.44,0,0,1-1.54.62,11.29,11.29,0,0,1-3.61.36,8.17,8.17,0,0,1-3.27-.89,5.37,5.37,0,0,1-2-1.68,11.1,11.1,0,0,1,6-1.14,13.73,13.73,0,0,1,3.33.57A5.43,5.43,0,0,1,118.71,141.15Z"/><path class="cls-1" d="M107.42,128.5a3.62,3.62,0,0,0-.66.85,11.69,11.69,0,0,0-.56,1.12,10.12,10.12,0,0,0-.74,2.93,14.55,14.55,0,0,0,0,3.15,6.2,6.2,0,0,0,.77,2.46c1.36-.8,2.41-2.84,2.67-5.07a7.81,7.81,0,0,0-.26-3.16A6.13,6.13,0,0,0,107.42,128.5Z"/><path class="cls-1" d="M126.39,132.88a8.08,8.08,0,0,1-2.43,2,9.59,9.59,0,0,1-3.49,1,8.74,8.74,0,0,1-3.34-.22,5.15,5.15,0,0,1-2.28-1.28,9,9,0,0,1,2.36-1.43,15.25,15.25,0,0,1,3.34-.84C123,131.71,125.18,132,126.39,132.88Z"/><path class="cls-1" d="M112.92,122.58a4.8,4.8,0,0,0-.84,2.16,12.47,12.47,0,0,0-.19,3,12.68,12.68,0,0,0,.59,3.14,6,6,0,0,0,1.22,2.25,5.07,5.07,0,0,0,1.31-2.31,8.2,8.2,0,0,0,.35-3.18A7.44,7.44,0,0,0,112.92,122.58Z"/><path class="cls-1" d="M132.4,123.33a8.16,8.16,0,0,1-2.08,2.34,8.88,8.88,0,0,1-3.2,1.68c-2.45.73-4.58.44-5.81-.42a6.84,6.84,0,0,1,2.06-1.85c.44-.28,1-.52,1.46-.78a12.66,12.66,0,0,1,1.63-.69C128.77,122.81,131,122.68,132.4,123.33Z"/><path class="cls-1" d="M117.22,115.75a4.7,4.7,0,0,0-.46,2.25,14.83,14.83,0,0,0,.41,3,9.09,9.09,0,0,0,2.78,5,6.3,6.3,0,0,0,.86-2.52,7.13,7.13,0,0,0,0-1.54,9.75,9.75,0,0,0-.33-1.66A7.17,7.17,0,0,0,117.22,115.75Z"/><path class="cls-1" d="M136.43,112.77a6.09,6.09,0,0,1-.56,1.37,8.8,8.8,0,0,1-1,1.34,10.69,10.69,0,0,1-2.81,2.27,7.07,7.07,0,0,1-5.83.66,6.85,6.85,0,0,1,1.73-2.18,11.85,11.85,0,0,1,2.73-2C132.88,113,135,112.39,136.43,112.77Z"/><path class="cls-1" d="M120.1,108.2a4.61,4.61,0,0,0-.1,1.08,6,6,0,0,0,.1,1.23,10.55,10.55,0,0,0,1,2.88,8.82,8.82,0,0,0,3.61,4.32,6.07,6.07,0,0,0,.43-2.61,9.46,9.46,0,0,0-.92-3.1A7.21,7.21,0,0,0,120.1,108.2Z"/><path class="cls-1" d="M138.41,101.64a7.18,7.18,0,0,1-1,3,11.26,11.26,0,0,1-2.38,2.76,10.28,10.28,0,0,1-1.46,1,8.53,8.53,0,0,1-1.51.61,5.24,5.24,0,0,1-2.6.15,11,11,0,0,1,3.59-5q.74-.6,1.41-1.08a11.65,11.65,0,0,1,1.38-.8A5.51,5.51,0,0,1,138.41,101.64Z"/><path class="cls-1" d="M121.5,100.27a5.69,5.69,0,0,0,.48,2.27,10.62,10.62,0,0,0,1.47,2.62,13.59,13.59,0,0,0,1.08,1.27,10.62,10.62,0,0,0,1.08,1,6.18,6.18,0,0,0,2.25,1.24c.44-1.5-.23-3.71-1.56-5.51a6.82,6.82,0,0,0-1.13-1.21,7.7,7.7,0,0,0-1.24-.89A6,6,0,0,0,121.5,100.27Z"/><path class="cls-1" d="M138.25,90.36a8.18,8.18,0,0,1-.4,3.08A10.2,10.2,0,0,1,136,96.59a8.76,8.76,0,0,1-2.57,2.15,5.37,5.37,0,0,1-2.53.65,8.76,8.76,0,0,1,.72-2.67,14,14,0,0,1,1.85-2.92C135,91.88,136.75,90.55,138.25,90.36Z"/><path class="cls-1" d="M128.79,81.14a8.11,8.11,0,0,1,1.89,2.47,10.32,10.32,0,0,1,.91,3.53,8.75,8.75,0,0,1-.32,3.33,5.25,5.25,0,0,1-1.34,2.24,8.8,8.8,0,0,1-1.37-2.4,14.38,14.38,0,0,1-.73-3.38C127.52,84.54,127.86,82.33,128.79,81.14Z"/><path class="cls-1" d="M121.39,92.2a4.77,4.77,0,0,0,.9,2.14,11.26,11.26,0,0,0,1.93,2.31,12.62,12.62,0,0,0,2.6,1.86,6.13,6.13,0,0,0,2.43.8,5.11,5.11,0,0,0-.65-2.58,8.2,8.2,0,0,0-1.93-2.54A7.45,7.45,0,0,0,121.39,92.2Z"/><path class="cls-1" d="M72.55,157.67l2.52,2.57s8.29-10.53,21.39-15.47C96.46,144.77,82.05,147.74,72.55,157.67Z"/><path class="cls-1" d="M20,89.6a51.42,51.42,0,0,0,33.5,55.61c3.18,1.13,15.61,6.64,21.86,13.2l.68-.64c-6.49-6.78-18.93-12.25-22.22-13.44a50.48,50.48,0,0,1-32.9-54.59L20,89.6Z"/><path class="cls-1" d="M40.52,147.85a6.62,6.62,0,0,0,3,.88,10.57,10.57,0,0,0,3.6-.28c2.47-.75,4.11-2.16,4.68-3.55a7.17,7.17,0,0,0-2.75-.39,13.46,13.46,0,0,0-6.57,1.64A5.29,5.29,0,0,0,40.52,147.85Z"/><path class="cls-1" d="M49.21,133.29A6.35,6.35,0,0,1,50.8,135a11.22,11.22,0,0,1,1.26,2.78,8.84,8.84,0,0,1,.36,5.62,6,6,0,0,1-2.1-1.6,9,9,0,0,1-1.48-2.88,8.16,8.16,0,0,1-.36-3.11A6.2,6.2,0,0,1,49.21,133.29Z"/><path class="cls-1" d="M31.43,141.15a7.11,7.11,0,0,0,1.22.85,6.2,6.2,0,0,0,1.53.62,11.32,11.32,0,0,0,3.61.36,8.13,8.13,0,0,0,3.27-.89,5.29,5.29,0,0,0,2-1.68,11.1,11.1,0,0,0-6-1.14,13.73,13.73,0,0,0-3.33.57A5.43,5.43,0,0,0,31.43,141.15Z"/><path class="cls-1" d="M42.72,128.5a3.94,3.94,0,0,1,.67.85c.19.34.37.72.56,1.12a10.46,10.46,0,0,1,.73,2.93,14.55,14.55,0,0,1,0,3.15A6.2,6.2,0,0,1,44,139c-1.36-.8-2.41-2.84-2.67-5.07a8,8,0,0,1,.26-3.16A6.13,6.13,0,0,1,42.72,128.5Z"/><path class="cls-1" d="M23.75,132.88a8.08,8.08,0,0,0,2.43,2,9.59,9.59,0,0,0,3.49,1,8.74,8.74,0,0,0,3.34-.22,5.25,5.25,0,0,0,2.29-1.28,9.19,9.19,0,0,0-2.37-1.43,15.11,15.11,0,0,0-3.34-.84C27.19,131.71,25,132,23.75,132.88Z"/><path class="cls-1" d="M37.22,122.58a4.8,4.8,0,0,1,.84,2.16,12.47,12.47,0,0,1,.19,3,12.68,12.68,0,0,1-.59,3.14,6.08,6.08,0,0,1-1.21,2.25,5,5,0,0,1-1.32-2.31,8,8,0,0,1-.34-3.18A7.4,7.4,0,0,1,37.22,122.58Z"/><path class="cls-1" d="M17.75,123.33a8,8,0,0,0,2.07,2.34,8.88,8.88,0,0,0,3.2,1.68c2.45.73,4.58.44,5.82-.42a6.89,6.89,0,0,0-2.07-1.85c-.44-.28-1-.52-1.46-.78a12.09,12.09,0,0,0-1.63-.69C21.37,122.81,19.1,122.68,17.75,123.33Z"/><path class="cls-1" d="M32.92,115.75a4.81,4.81,0,0,1,.47,2.25,14.88,14.88,0,0,1-.42,3,9.09,9.09,0,0,1-2.78,5,6.3,6.3,0,0,1-.86-2.52,7.13,7.13,0,0,1,0-1.54,9.75,9.75,0,0,1,.33-1.66A7.17,7.17,0,0,1,32.92,115.75Z"/><path class="cls-1" d="M13.71,112.77a6.09,6.09,0,0,0,.56,1.37,8.8,8.8,0,0,0,1,1.34,10.69,10.69,0,0,0,2.81,2.27,7.07,7.07,0,0,0,5.83.66,6.85,6.85,0,0,0-1.73-2.18,11.85,11.85,0,0,0-2.73-2C17.26,113,15.18,112.39,13.71,112.77Z"/><path class="cls-1" d="M30.05,108.2a4.63,4.63,0,0,1,.09,1.08,6,6,0,0,1-.1,1.23,10.55,10.55,0,0,1-1,2.88,8.82,8.82,0,0,1-3.61,4.32A6.23,6.23,0,0,1,25,115.1a9.7,9.7,0,0,1,.92-3.1A7.2,7.2,0,0,1,30.05,108.2Z"/><path class="cls-1" d="M11.73,101.64a7.18,7.18,0,0,0,1,3,11.26,11.26,0,0,0,2.38,2.76,10.28,10.28,0,0,0,1.46,1,8.85,8.85,0,0,0,1.51.61,5.24,5.24,0,0,0,2.6.15,11,11,0,0,0-3.59-5q-.74-.6-1.41-1.08a11.65,11.65,0,0,0-1.38-.8A5.51,5.51,0,0,0,11.73,101.64Z"/><path class="cls-1" d="M28.64,100.27a5.69,5.69,0,0,1-.48,2.27,10.31,10.31,0,0,1-1.47,2.62,12.23,12.23,0,0,1-1.08,1.27,10.62,10.62,0,0,1-1.08,1,6.18,6.18,0,0,1-2.25,1.24c-.44-1.5.23-3.71,1.56-5.51A6.82,6.82,0,0,1,25,102a7.7,7.7,0,0,1,1.24-.89A6,6,0,0,1,28.64,100.27Z"/><path class="cls-1" d="M11.89,90.36a8.18,8.18,0,0,0,.4,3.08,10.2,10.2,0,0,0,1.83,3.15,8.76,8.76,0,0,0,2.57,2.15,5.37,5.37,0,0,0,2.53.65,8.76,8.76,0,0,0-.72-2.67,14,14,0,0,0-1.85-2.92C15.19,91.88,13.39,90.55,11.89,90.36Z"/><path class="cls-1" d="M21.35,81.14a8.11,8.11,0,0,0-1.89,2.47,10.32,10.32,0,0,0-.91,3.53,8.75,8.75,0,0,0,.32,3.33,5.16,5.16,0,0,0,1.35,2.24,9.05,9.05,0,0,0,1.36-2.4,13.9,13.9,0,0,0,.73-3.38C22.62,84.54,22.28,82.33,21.35,81.14Z"/><path class="cls-1" d="M28.75,92.2a4.77,4.77,0,0,1-.9,2.14,11.26,11.26,0,0,1-1.93,2.31,12.62,12.62,0,0,1-2.6,1.86,6.08,6.08,0,0,1-2.43.8,5.11,5.11,0,0,1,.65-2.58,8.2,8.2,0,0,1,1.93-2.54A7.45,7.45,0,0,1,28.75,92.2Z"/><path class="cls-1" d="M77.59,157.67l-2.52,2.57s-8.29-10.53-21.39-15.47C53.68,144.77,68.09,147.74,77.59,157.67Z"/><path class="cls-3" d="M75.07,90.36c0-1.89-3.06-4.9-3.06-4.9a39.28,39.28,0,0,0,1.27-10.93A24.17,24.17,0,0,1,71,82.67,3.62,3.62,0,0,0,70,79.82a25.13,25.13,0,0,0,1.91-9c-.4,2.68-2.75,6.73-2.75,6.73a3.57,3.57,0,0,0-1.71-2.56,14.59,14.59,0,0,0,4-11.16s-1.33,3.24-2.29,3-.51-3-.51-3-2,6.7-3,6.33.51-6.33.51-6.33S62.3,75.27,60.75,74.46s2.66-11.2,2.66-11.2-6,13.85-7.89,12.53,5.74-13.6,5.74-13.6S50.29,77,49.48,75.12s9.65-15,9.65-15S50.68,70.77,46.87,73.31c-2.59,1.73-4,.76-4,.76L62.48,51.7c3.56-.18,4.63,3.3,5.61,5.44s3.83,1.07,3.83,1.07a8.13,8.13,0,0,0,.74-4.53s-1.51-1.23-2.88-.35a4.54,4.54,0,0,1,2.47-1.91s.13-1.78,1.78-1.78,5.37,1.19,4.19,8.57c0,0,2.85,1.06,3.83-1.07s2-5.62,5.61-5.44l19.6,22.37s-1.4,1-4-.76C99.46,70.77,91,60.09,91,60.09s10.46,13.12,9.65,15S88.88,62.19,88.88,62.19s7.58,12.27,5.74,13.6-7.88-12.53-7.88-12.53,4.2,10.39,2.65,11.2S84,63.78,84,63.78s1.55,6,.51,6.33-3-6.33-3-6.33.45,2.79-.51,3-2.29-3-2.29-3a14.59,14.59,0,0,0,4,11.16A3.57,3.57,0,0,0,81,77.5s-2.35-4-2.75-6.73a25,25,0,0,0,1.92,9,3.61,3.61,0,0,0-1.09,2.85,24.17,24.17,0,0,1-2.24-8.14,39.28,39.28,0,0,0,1.27,10.93S75.07,88.47,75.07,90.36Z"/><path class="cls-3" d="M65.94,96.3h0a9.13,9.13,0,0,0,9.13-9.13h0A9.13,9.13,0,0,0,84.2,96.3h0a9.13,9.13,0,0,0-9.13,9.13h0A9.13,9.13,0,0,0,65.94,96.3Z"/><path class="cls-3" d="M68.71,111.79h0a6.36,6.36,0,0,0,6.36-6.36h0a6.36,6.36,0,0,0,6.36,6.36h0a6.35,6.35,0,0,0-6.36,6.35h0A6.35,6.35,0,0,0,68.71,111.79Z"/><path class="cls-3" d="M84.2,108.64h0A3.21,3.21,0,0,0,81,105.43h0a3.21,3.21,0,0,0,3.21-3.21h0a3.21,3.21,0,0,0,3.21,3.21h0A3.21,3.21,0,0,0,84.2,108.64Z"/><path class="cls-3" d="M65.94,108.64h0a3.21,3.21,0,0,0-3.21-3.21h0a3.21,3.21,0,0,0,3.21-3.21h0a3.21,3.21,0,0,0,3.21,3.21h0A3.21,3.21,0,0,0,65.94,108.64Z"/><path class="cls-3" d="M110.93,110.33v-.51c0-.32,0-.85-.07-1.41a14.4,14.4,0,0,0-.36-2,7.88,7.88,0,0,0-.37-1.24l-.23-.67-.3-.67c-.11-.23-.21-.47-.33-.71l-.4-.7a15.58,15.58,0,0,0-.92-1.43c-.32-.48-.73-.94-1.1-1.43s-.83-.94-1.3-1.39a32.4,32.4,0,0,0-3-2.67c-1.08-.85-2.21-1.68-3.37-2.47-4.64-3.17-9.68-5.87-12.87-8.73a14.2,14.2,0,0,1-2-2.15,8.6,8.6,0,0,1-.65-1c-.17-.33-.29-.66-.41-.95A5.82,5.82,0,0,1,83,78.74l0-.5,0,.5a5.79,5.79,0,0,0,.33,1.39c.14.27.26.59.45.91a8.73,8.73,0,0,0,.68,1,13.3,13.3,0,0,0,2,2c3.26,2.69,8.37,5.16,13.19,8.17,1.21.75,2.39,1.54,3.53,2.37a34.88,34.88,0,0,1,3.21,2.63c.51.45,1,1,1.42,1.41s.87,1,1.25,1.48a16.25,16.25,0,0,1,1.05,1.5l.47.75c.14.25.26.5.39.75l.36.73c.1.25.2.49.29.73a9.18,9.18,0,0,1,.47,1.36,16.58,16.58,0,0,1,.5,2.34c.11.66.09,1.11.13,1.46l0,.5Z"/><path class="cls-3" d="M101.39,123.66s.17-.67.48-1.85a13.9,13.9,0,0,0,.45-2.1c.07-.41.13-.83.2-1.28,0-.23.07-.46.11-.7s0-.49,0-.74a23.57,23.57,0,0,0,.07-3.29c0-.58,0-1.18-.08-1.79L102.4,110a14.25,14.25,0,0,0-.36-1.91c-.16-.64-.26-1.31-.47-1.95s-.41-1.29-.61-1.94-.5-1.28-.74-1.92l-.39-1-.45-.93c-.3-.61-.58-1.24-.91-1.83-.67-1.18-1.32-2.35-2.06-3.42s-1.48-2.08-2.18-3-1.45-1.81-2.17-2.57-1.34-1.48-2-2.06S89,86.39,88.52,86l-1.43-1.27,1.48,1.21c.49.38,1,.89,1.65,1.46s1.31,1.25,2.06,2,1.48,1.61,2.29,2.49,1.58,1.9,2.32,3,1.51,2.2,2.24,3.38c.37.58.67,1.21,1,1.82l.5.93.43,1c.28.65.61,1.28.85,1.94l.71,2c.24.65.38,1.33.57,2a14,14,0,0,1,.46,2c.12.66.23,1.3.34,1.93s.12,1.27.17,1.88a25.37,25.37,0,0,1,.08,3.45c0,.27,0,.53,0,.79s0,.51-.08.75c-.06.49-.11,1-.16,1.4a16.61,16.61,0,0,1-.38,2.21l-.41,1.87Z"/><path class="cls-3" d="M37.35,110.23l0-.5a13.37,13.37,0,0,1,.13-1.46,16.58,16.58,0,0,1,.5-2.34,9.18,9.18,0,0,1,.47-1.36c.09-.24.19-.48.29-.73l.36-.73c.13-.25.25-.5.39-.75l.47-.75a16.25,16.25,0,0,1,1-1.5c.38-.51.82-1,1.25-1.48s.91-1,1.42-1.41a34.88,34.88,0,0,1,3.21-2.63c1.14-.83,2.32-1.62,3.53-2.37,4.82-3,9.93-5.48,13.19-8.17a13.77,13.77,0,0,0,2-2,8.73,8.73,0,0,0,.68-1c.19-.32.31-.64.45-.91a5.79,5.79,0,0,0,.33-1.39c0-.33.05-.5.05-.5l0,.5a5.82,5.82,0,0,1-.28,1.41c-.12.29-.24.62-.41.95a10.1,10.1,0,0,1-.65,1,14.2,14.2,0,0,1-2,2.15C60.65,87.13,55.61,89.83,51,93c-1.16.79-2.29,1.62-3.37,2.47a33.91,33.91,0,0,0-3,2.67c-.46.45-.87.94-1.29,1.39s-.78,1-1.11,1.43-.66,1-.91,1.43l-.4.7c-.12.24-.22.48-.33.71l-.3.67-.23.67a7.88,7.88,0,0,0-.37,1.24,14.4,14.4,0,0,0-.36,2c-.07.56,0,1.09-.07,1.41v.51Z"/><path class="cls-3" d="M47,124.1l-.41-1.87a16.61,16.61,0,0,1-.38-2.21c0-.44-.1-.91-.16-1.4l-.09-.75c0-.26,0-.52,0-.79a27,27,0,0,1,.07-3.45c.06-.61.09-1.24.17-1.88s.23-1.27.35-1.93a14,14,0,0,1,.46-2c.19-.66.32-1.34.57-2l.71-2c.24-.66.57-1.29.84-1.94l.44-1,.5-.93c.34-.61.64-1.24,1-1.82.73-1.18,1.44-2.33,2.24-3.38s1.58-2,2.32-3,1.54-1.75,2.29-2.49,1.41-1.43,2.06-2,1.16-1.08,1.65-1.46l1.48-1.21L61.63,86c-.47.4-1,.93-1.59,1.52s-1.25,1.3-1.95,2.06-1.41,1.66-2.17,2.57-1.49,1.94-2.18,3-1.39,2.24-2.06,3.42c-.34.59-.61,1.22-.92,1.83l-.45.93-.38,1c-.24.64-.53,1.27-.74,1.92s-.41,1.3-.61,1.94-.31,1.31-.47,1.95a14.25,14.25,0,0,0-.36,1.91c-.09.63-.17,1.26-.26,1.87s-.05,1.21-.08,1.79a23.57,23.57,0,0,0,.07,3.29c0,.25,0,.5,0,.74s.07.47.11.7c.07.45.13.87.2,1.28a13.9,13.9,0,0,0,.45,2.1c.31,1.18.48,1.85.48,1.85Z"/><path class="cls-3" d="M114,80.22l0-.63a15.4,15.4,0,0,0-.12-1.67q-.08-.54-.18-1.2c-.09-.44-.19-.91-.29-1.41-.25-1-.56-2.13-1-3.33a37.59,37.59,0,0,0-1.58-3.83c-.61-1.34-1.36-2.71-2.17-4.11s-1.74-2.78-2.74-4.15-2.08-2.72-3.23-4c-.57-.67-1.13-1.29-1.75-1.9l-.91-.93-.94-.85-.94-.85-1-.79c-.64-.54-1.3-1-2-1.5-1.31-1-2.64-1.81-3.92-2.57s-2.52-1.44-3.69-2a58,58,0,0,0-5.77-2.53c-1.43-.53-2.27-.77-2.27-.77s.85.21,2.3.69a59.4,59.4,0,0,1,5.87,2.33c1.19.55,2.47,1.18,3.79,1.91s2.68,1.53,4,2.45c.68.46,1.37.93,2,1.45l1,.77,1,.84,1,.85.94.89c.31.31.62.58,1,.92l.9.95c1.21,1.28,2.34,2.63,3.41,4s2,2.76,3,4.15,1.69,2.79,2.37,4.15a42,42,0,0,1,1.76,3.92c.48,1.24.85,2.41,1.15,3.46l.36,1.49c.09.47.16.9.24,1.29.1.81.18,1.46.19,1.85l0,.63Z"/><path class="cls-3" d="M34.28,80.15l0-.63c0-.39.09-1,.19-1.85q.12-.58.24-1.29l.36-1.49c.3-1,.67-2.22,1.15-3.46A42,42,0,0,1,38,67.51c.68-1.36,1.5-2.74,2.37-4.15s1.88-2.79,2.95-4.15,2.2-2.71,3.41-4l.9-.95c.33-.34.64-.61,1-.92l.94-.89,1-.85,1-.84,1-.77c.67-.52,1.36-1,2-1.45,1.36-.92,2.73-1.73,4-2.45s2.59-1.36,3.78-1.91a59.4,59.4,0,0,1,5.87-2.33c1.45-.48,2.3-.69,2.3-.69s-.84.24-2.27.77a59,59,0,0,0-5.77,2.53c-1.17.58-2.41,1.25-3.69,2s-2.61,1.61-3.92,2.57c-.65.47-1.32,1-2,1.5l-1,.79-.94.85-.94.85-.91.93c-.62.61-1.18,1.23-1.75,1.9-1.15,1.29-2.22,2.65-3.22,4S42.32,62.66,41.49,64s-1.56,2.77-2.17,4.11A37.59,37.59,0,0,0,37.74,72c-.43,1.2-.74,2.33-1,3.33-.1.5-.2,1-.29,1.41s-.13.84-.18,1.2a15.4,15.4,0,0,0-.12,1.67l0,.63Z"/><polygon class="cls-3" points="106.42 41.17 107.58 43.29 109.71 44.45 107.58 45.62 106.42 47.74 105.26 45.62 103.13 44.45 105.26 43.29 106.42 41.17"/><polygon class="cls-3" points="95.23 37.92 95.81 38.97 96.86 39.55 95.81 40.13 95.23 41.19 94.65 40.13 93.6 39.55 94.65 38.97 95.23 37.92"/><polygon class="cls-3" points="43.72 41.17 42.56 43.29 40.43 44.45 42.56 45.62 43.72 47.74 44.88 45.62 47.01 44.45 44.88 43.29 43.72 41.17"/><polygon class="cls-3" points="54.91 37.92 54.33 38.97 53.28 39.55 54.33 40.13 54.91 41.19 55.49 40.13 56.55 39.55 55.49 38.97 54.91 37.92"/><polygon class="cls-3" points="75.07 35.29 76.13 38.54 79.55 38.54 76.78 40.56 77.84 43.81 75.07 41.8 72.3 43.81 73.36 40.56 70.59 38.54 74.01 38.54 75.07 35.29"/><path class="cls-3" d="M75.11,135.68a45,45,0,0,1-18-3.88h0c-12.61-5.52-22.86-21.35-22.86-35.31V35.6a2.86,2.86,0,0,1,2.85-2.86h76a2.86,2.86,0,0,1,2.86,2.86V94.85a40.87,40.87,0,0,1-40.8,40.83Zm-17.26-5.59c13.14,5.75,27.17,4.8,38.49-2.61A38.91,38.91,0,0,0,114,94.85V35.6a1,1,0,0,0-1-1h-76a1,1,0,0,0-1,1V96.49c0,13.28,9.76,28.35,21.75,33.6Z"/><path class="cls-1" d="M10.49,72.3A45.18,45.18,0,0,0,15,60.72,72.48,72.48,0,0,1,.47,62.28c7-3.27,11.9-8.53,16.3-14.35l7.9,7.89c2.11-1.15,4.17-2.35,6.21-3.57C25.35,60.2,19.66,68,10.49,72.3Z"/><path class="cls-2" d="M24.67,55.82c1.4-1.85,2.75-3.77,4.09-5.69l2.12,2.12C28.84,53.47,26.78,54.67,24.67,55.82Z"/><path class="cls-1" d="M14.65,45.8l10,10c7.77-10.27,13.81-22.27,26.08-28l-10-10C28.46,23.53,22.42,35.53,14.65,45.8Z"/><path class="cls-3" d="M10.49,72.76a.47.47,0,0,1-.41-.7,43.08,43.08,0,0,0,4.25-10.74A72.17,72.17,0,0,1,.47,62.74.48.48,0,0,1,0,62.38a.48.48,0,0,1,.26-.53C7.63,58.4,12.56,52.73,16.4,47.64a.5.5,0,0,1,.34-.18.43.43,0,0,1,.36.14l7.65,7.65c1.89-1,3.73-2.12,5.89-3.4a.46.46,0,0,1,.58.09.47.47,0,0,1,.05.58c-6,8.56-11.62,16-20.58,20.2A.51.51,0,0,1,10.49,72.76ZM15,60.25a.47.47,0,0,1,.45.58,47.59,47.59,0,0,1-3.8,10.38C19,67.32,24.12,61,29.26,53.75c-1.52.9-2.92,1.7-4.37,2.48a.46.46,0,0,1-.55-.08l-7.52-7.51c-3.53,4.63-8,9.66-14.32,13.13a71.6,71.6,0,0,0,12.37-1.51Z"/><path class="cls-3" d="M24.67,56.29a.48.48,0,0,1-.35-.16.47.47,0,0,1,0-.59c1.32-1.75,2.58-3.53,4.08-5.68a.46.46,0,0,1,.34-.19.43.43,0,0,1,.37.13l2.12,2.12a.52.52,0,0,1,.14.39.5.5,0,0,1-.23.35c-2.28,1.35-4.22,2.48-6.23,3.57A.43.43,0,0,1,24.67,56.29Zm4.15-5.43c-.88,1.26-1.69,2.41-2.49,3.51,1.21-.69,2.45-1.41,3.8-2.21Z"/><path class="cls-3" d="M24.67,56.29a.47.47,0,0,1-.33-.14l-10-10a.47.47,0,0,1,0-.61C16,43.3,17.58,41,19.15,38.69c5.73-8.25,11.66-16.78,21.38-21.35a.48.48,0,0,1,.53.1l10,10a.44.44,0,0,1,.13.41.44.44,0,0,1-.26.34c-9.5,4.46-15.35,12.89-21,21-1.58,2.27-3.21,4.62-4.9,6.86a.48.48,0,0,1-.34.18Zm-9.4-10.53,9.35,9.35c1.56-2.09,3.08-4.28,4.55-6.4C34.78,40.63,40.58,32.28,50,27.65l-9.33-9.32c-9.32,4.5-15.11,12.83-20.71,20.9C18.42,41.39,16.87,43.62,15.27,45.76Z"/><path class="cls-1" d="M139.65,72.3a45.18,45.18,0,0,1-4.48-11.58,72.48,72.48,0,0,0,14.5,1.56c-6.95-3.27-11.9-8.53-16.3-14.35l-7.9,7.89c-2.11-1.15-4.17-2.35-6.21-3.57C124.79,60.2,130.48,68,139.65,72.3Z"/><path class="cls-2" d="M125.47,55.82c-1.4-1.85-2.75-3.77-4.09-5.69l-2.12,2.12C121.3,53.47,123.36,54.67,125.47,55.82Z"/><path class="cls-1" d="M135.49,45.8l-10,10c-7.77-10.27-13.81-22.27-26.08-28l10-10C121.68,23.53,127.72,35.53,135.49,45.8Z"/><path class="cls-3" d="M139.65,72.76a.43.43,0,0,1-.19,0c-9-4.21-14.63-11.64-20.58-20.2a.45.45,0,0,1,0-.58.46.46,0,0,1,.58-.09c2.16,1.28,4,2.36,5.89,3.4L133,47.6a.43.43,0,0,1,.36-.14.5.5,0,0,1,.34.18c3.85,5.09,8.77,10.76,16.13,14.21a.48.48,0,0,1,.26.53.47.47,0,0,1-.46.36,72.26,72.26,0,0,1-13.86-1.42,43.08,43.08,0,0,0,4.25,10.74.47.47,0,0,1-.41.7Zm-18.77-19C126,61,131.12,67.32,138.52,71.21a47.59,47.59,0,0,1-3.8-10.38.48.48,0,0,1,.12-.44.46.46,0,0,1,.43-.13,71.72,71.72,0,0,0,12.37,1.51c-6.35-3.47-10.79-8.5-14.32-13.13l-7.52,7.51a.46.46,0,0,1-.55.08C123.8,55.45,122.4,54.65,120.88,53.75Z"/><path class="cls-3" d="M125.47,56.29a.43.43,0,0,1-.22-.06c-2-1.09-4-2.22-6.23-3.57a.46.46,0,0,1-.22-.35.48.48,0,0,1,.13-.39l2.12-2.12a.43.43,0,0,1,.37-.13.44.44,0,0,1,.34.19c1.21,1.74,2.62,3.74,4.08,5.68a.45.45,0,0,1,0,.59A.48.48,0,0,1,125.47,56.29ZM120,52.16c1.36.8,2.59,1.52,3.8,2.21-.88-1.21-1.72-2.41-2.49-3.51Z"/><path class="cls-3" d="M125.47,56.29h0a.48.48,0,0,1-.34-.18c-1.69-2.24-3.32-4.59-4.9-6.86-5.66-8.15-11.51-16.58-21-21a.44.44,0,0,1-.26-.34.44.44,0,0,1,.13-.41l10-10a.48.48,0,0,1,.53-.1c9.72,4.57,15.65,13.1,21.38,21.35,1.57,2.27,3.2,4.61,4.87,6.83a.46.46,0,0,1,0,.61l-10,10A.47.47,0,0,1,125.47,56.29ZM100.18,27.65c9.38,4.63,15.18,13,20.79,21.06,1.47,2.12,3,4.31,4.55,6.4l9.35-9.35c-1.6-2.14-3.15-4.37-4.65-6.53-5.6-8.07-11.39-16.4-20.71-20.9Z"/><polygon class="cls-1" points="110.16 15.88 111.12 16.84 99.78 28.18 97.91 28.14 110.16 15.88"/><polygon class="cls-1" points="39.42 17.23 40.49 16.4 52.16 28.07 50.26 28.07 39.42 17.23"/></g></g></svg>