<svg xmlns="http://www.w3.org/2000/svg" viewBox="0 0 122.32 158.21"><defs><style>.cls-1{isolation:isolate;}.cls-2{fill:#8f4139;}.cls-3{fill:#f8f6e4;}.cls-4{fill:#e4e5e6;mix-blend-mode:multiply;}</style></defs><title>001</title><g class="cls-1"><g id="Capa_2" data-name="Capa 2"><g id="OBJECT"><path class="cls-2" d="M122.32,6.19A305.36,305.36,0,0,0,0,6.19V60.52a108.6,108.6,0,0,0,61.16,97.69h0a108.6,108.6,0,0,0,61.16-97.69V6.19Z"/><path class="cls-3" d="M61.16,151.57a102.68,102.68,0,0,1-55.23-91V11.07a299.82,299.82,0,0,1,110.45,0V60.52a102.64,102.64,0,0,1-55.22,91Z"/><path class="cls-2" d="M109,105.68h-6V95.06H86.45v10.62h-17V95.06H52.86v10.62h-17V95.06H19.27v10.62h-6c.4.66,12.07,21.81,14.17,24.58L61.16,155.8,97,128.86C99.11,126.08,108.64,106.34,109,105.68Z"/><path class="cls-2" d="M27.71,50.35c.91-2.43,3.38-3.9,5.82-4.77a24.22,24.22,0,0,1,7.14-1.42,11.79,11.79,0,0,0,1.67-.35A13.18,13.18,0,0,0,41,40.67c-.31-.45-.67-.86-1-1.32a6.93,6.93,0,0,1-1.21-3.54c0-1.16.13-2.46-.63-3.33s-2-.85-3.12-.8c0,.51.16,1,.16,1.47-1.92,0-4,0-5.88-.16a11.92,11.92,0,0,1,.23-3,4,4,0,0,1,1.5-2.52,4.46,4.46,0,0,1,1.84-.68,9.6,9.6,0,0,1,6.83,1.37,12.69,12.69,0,0,1,3.88,4.23A32.45,32.45,0,0,1,46,37.69c.72-1.7,2.9-2.71,4.75-2.84a20.07,20.07,0,0,1,5.48.76,10.34,10.34,0,0,0,5.49,0,3.49,3.49,0,0,0,1.63-1,2,2,0,0,0,.39-1.85c-2.64-.07-5.41-.27-8.06-.34a.85.85,0,0,1-.57-.16.8.8,0,0,1-.18-.5,7.37,7.37,0,0,1,0-1.33A15.34,15.34,0,0,0,58.7,30c.39-.09.86-.26.93-.66a1,1,0,0,0-.19-.65l-.39-.32c-1.64-.81-3.85.05-5.3-1.06a1.2,1.2,0,0,1-.55-1,1.43,1.43,0,0,1,.26-.59,11.74,11.74,0,0,1,3.9-3.29,15.34,15.34,0,0,0,4.06-3.11,4.73,4.73,0,0,0,1-4.78,4.67,4.67,0,0,1,3.75,2.72l2.58,0a8.68,8.68,0,0,0-.25-1.9,3.77,3.77,0,0,0-.89-1.7c.61.2,1.47.43,2.06.68a5.33,5.33,0,0,1,1.3.72,6.55,6.55,0,0,1,1.83,3.14c.69,2,3.11,2.87,4.94,3.86a5,5,0,0,0,1.11.48c.65.16,1.34.05,2,.18a1.51,1.51,0,0,1-.8,1.08,3.74,3.74,0,0,1-2.17.84,16.65,16.65,0,0,0,1.41,2.68,4.93,4.93,0,0,0,2.26,1.7,4.83,4.83,0,0,1-2.93.25,13.32,13.32,0,0,0,.68,2.92A3.74,3.74,0,0,0,81,34.19h-1.2a1.42,1.42,0,0,0-.65.08,1.38,1.38,0,0,0-.47.46c-1,1.29-2,2.72-1.93,4.33,0,.66.08,1.35.11,2a1.28,1.28,0,0,0-.88-.63.93.93,0,0,0-.89.63,2.53,2.53,0,0,0-.1,1.16c.11,1.76.27,3.52.48,5.27a5.4,5.4,0,0,0,1.13,3.22c-.79-.47-1.78,0-2.58.47a6.84,6.84,0,0,0-1.92,2c-.5.69-1,1.4-1.41,2.12a3.11,3.11,0,0,0-1.46-2.51.63.63,0,0,0-.85,0,2.43,2.43,0,0,0-.29,3.66,5.86,5.86,0,0,0,1,.74,11.58,11.58,0,0,1,1.6,1.29c.7.65,1.52,1.42,2.21,2.09a7.85,7.85,0,0,1,2.09,3.44c2.19-.24,4.47-1,5.5-2.93a5.66,5.66,0,0,0,.42-3.72,18.65,18.65,0,0,0-1.2-3.61c-1.8-4.51-4.84-11.73-.06-15.47a4.4,4.4,0,0,1,2.13-1c1.76-.22,4.82,1.15,5.59,2.83a4.4,4.4,0,0,1,4.34,2.05c.38.64.59,1.38,1,2A4.25,4.25,0,0,0,94,45.74,2.87,2.87,0,0,1,92,45.65a6.23,6.23,0,0,1,1.4,3,4.7,4.7,0,0,0,1.47,2.77c-.93-.5-1.89-.95-2.81-1.45a2,2,0,0,1-.49-.35,3.11,3.11,0,0,1,.23,1.07c0,.46,0,.92,0,1.38a6.43,6.43,0,0,0,1,3.5,6.37,6.37,0,0,1-2.34-2.46,8.76,8.76,0,0,0-2.26-2.61,5.13,5.13,0,0,0-.16,3.1,18.51,18.51,0,0,1-2.35-3.82,9.49,9.49,0,0,1-.76-2.17,12.74,12.74,0,0,1,0-3.7l.27-2.8a2.29,2.29,0,0,0-2.46-.68,3,3,0,0,0-1.9,1.7,5.32,5.32,0,0,0-.4,2.59c.2,3,1.91,5.64,3.57,8.14s1.69,6,1.1,8.88a10,10,0,0,1-.8,2.5,8,8,0,0,1-4.1,3.56,18.14,18.14,0,0,1-5.41,1.14A4.8,4.8,0,0,1,74.13,72L73,74.09a1.53,1.53,0,0,0,.22,1.34,15.8,15.8,0,0,0,5.8,1l4.39.23a1.49,1.49,0,0,1,.86.21,1.78,1.78,0,0,1,.37.45,42.61,42.61,0,0,1,3.11,6.14c.49,1.18.12,2.73,0,4a1.62,1.62,0,0,1-2,1.93l-8.19-.24c.12-.67-.15-1.46,0-2.11a2.7,2.7,0,0,1,1-1.25,5.44,5.44,0,0,1,.62-.45A5.16,5.16,0,0,1,82,84.9a5.9,5.9,0,0,1-.12-1.68A5,5,0,0,1,80,81.92a31.13,31.13,0,0,1-9.83.65,15.2,15.2,0,0,1-3.49-.47,5.66,5.66,0,0,1-2.93-1.86c-1.33-1.71-1.17-4.13-.86-6.28a33.52,33.52,0,0,1-4.9-.42,8.69,8.69,0,0,0,.76,3.34,4,4,0,0,1,.06,3.2c-.62,1.1-2,1.47-3.23,1.69A45.75,45.75,0,0,1,45,82.43a2.14,2.14,0,0,1-.51,1.87,1.68,1.68,0,0,1-.92.2q-3.18.07-6.36-.06a.68.68,0,0,1-.72-1,8.31,8.31,0,0,1,1.16-3.29,4.76,4.76,0,0,1,2.74-2.06,8.2,8.2,0,0,1,1.86-.16c2.9,0,5.79,0,8.69.1,0-1.11.09-2.41.13-3.52-.65-.88-1.37-1.84-2-2.76-1-1.55-1.84-3.3-1.6-5.1a7.58,7.58,0,0,1,1.15-2.85,3,3,0,0,1,.88-1.08A3.17,3.17,0,0,1,51,62.3c2.32-.29,4.85-.45,6.82.82,0-.41-.09-.87-.09-1.28l-4-2.36a11,11,0,0,1-4-3.36c-1.11-1.8-1.1-4-1.05-6.14-4.35.07-9,.24-13.36.3,0,.53-.06,1-.06,1.51a.62.62,0,0,1-.07.38.71.71,0,0,1-.34.24,12.54,12.54,0,0,1-4.77.92,2.67,2.67,0,0,1-2.3-.89A2.33,2.33,0,0,1,27.71,50.35Z"/><path class="cls-3" d="M72.59,133.49A5.74,5.74,0,0,0,69,131.82l-6.46-6.47,9.56-9.56.73,1.38,2.42-5.89-5.89,2.42,1.38.73L61.16,124l-9.56-9.56L53,113.7l-5.89-2.42,2.42,5.89.73-1.38,9.56,9.56-6.46,6.47a5.74,5.74,0,0,0-3.61,1.67l-3,3H49l.05.27a.81.81,0,0,0,.17.24l.3.3a.73.73,0,0,0,.55.22v2.28l3-3a5.75,5.75,0,0,0,1.68-3.66l6.44-6.44,6.21,6.21.22.23a5.85,5.85,0,0,0,1.68,3.66l3,3V137.5a.73.73,0,0,0,.56-.23l.29-.29a.78.78,0,0,0,.16-.24l0-.06a.19.19,0,0,0,0-.07l0-.15h2.25Z"/><path class="cls-3" d="M50.11,126.49,49.65,128l5.88-2.45-5.87-2.45.45,1.49H37a5.74,5.74,0,0,0-3.78-1.4H29.05l1.61,1.61a.71.71,0,0,0-.24.56v.4a.72.72,0,0,0,.06.29l0,.06,0,.06.1.12-1.59,1.59h4.19A5.75,5.75,0,0,0,37,126.49Z"/><path class="cls-3" d="M72.21,126.49l.45,1.49-5.87-2.45,5.87-2.45-.45,1.49H85.3a5.73,5.73,0,0,1,3.77-1.4h4.2l-1.61,1.61a.71.71,0,0,1,.24.56v.4a.72.72,0,0,1-.06.29l0,.06a.21.21,0,0,1,0,.06l-.09.12,1.59,1.59h-4.2a5.72,5.72,0,0,1-3.73-1.37Z"/><path class="cls-4" d="M122.32,6.19A305,305,0,0,0,61.16,0V158.21h0a108.6,108.6,0,0,0,61.16-97.69V6.19Z"/></g></g></g></svg>