<svg xmlns="http://www.w3.org/2000/svg" viewBox="0 0 122.32 158.21"><defs><style>.cls-1{isolation:isolate;}.cls-2{fill:#ddd4b3;}.cls-3{fill:#00627d;}.cls-4{fill:#e8dbc4;mix-blend-mode:multiply;}</style></defs><title>002</title><g class="cls-1"><g id="Capa_2" data-name="Capa 2"><g id="OBJECT"><path class="cls-2" d="M122.32,6.19A305.36,305.36,0,0,0,0,6.19V60.52a108.6,108.6,0,0,0,61.16,97.69h0a108.6,108.6,0,0,0,61.16-97.69V6.19Z"/><path class="cls-3" d="M61.16,151.57a102.68,102.68,0,0,1-55.23-91V11.07a299.82,299.82,0,0,1,110.45,0V60.52a102.64,102.64,0,0,1-55.22,91Z"/><path class="cls-2" d="M88.46,86.49a13.34,13.34,0,0,0,10.28,4,16.38,16.38,0,0,1-7.42-7.73,32.67,32.67,0,0,1-2.47-10.15,10.55,10.55,0,0,0,9.48,1.8,8.44,8.44,0,0,1-5.28-4.15c-1.17-1.87-1.74-4.36-3.26-6a2,2,0,0,0,1,.14,30.58,30.58,0,0,0,6.12-.75,10.14,10.14,0,0,1-6-5.07,7,7,0,0,0,4.93-4c-1.53,1.06-3.76.88-5.57.24s-3.43-1.65-5.29-2.18-4.15-.45-5.42.85a5.15,5.15,0,0,0-1,1.53,11.2,11.2,0,0,0-1.1,6.39l.35-1.49a2.28,2.28,0,0,1,.86-1.57A2.57,2.57,0,0,1,81,58.4c.87.4,1.72,1.14,1.58,2a2.37,2.37,0,0,1-.76,1.18,15.33,15.33,0,0,1-1.44,1.35,2.87,2.87,0,0,1,2.2.46,1.48,1.48,0,0,1,.06,1.9,5.28,5.28,0,0,1-1.69,1.36,22.2,22.2,0,0,1-4.44,2.22,9.22,9.22,0,0,1-5.28.15,4.62,4.62,0,0,1-2.74,2.36,8.44,8.44,0,0,1-1.88.44,6.63,6.63,0,0,1-1.27-1.59,6.38,6.38,0,0,0,3.13.13,4,4,0,0,1-2.11-2.14,2.72,2.72,0,0,0,1.87.14,4.42,4.42,0,0,1-2.27-3,4.12,4.12,0,0,0,1.55.52,3.36,3.36,0,0,1-.82-2.72c1.77-.73,1.5-.32,3.45-.42l.18-.24c-1.64-1.06-1.49-1.67-3.52-1.72a6.07,6.07,0,0,0-4.32-5.13,7.4,7.4,0,0,0-7.06,1.45,4.71,4.71,0,0,1-2.06,1.5,5.4,5.4,0,0,0,2.7.73,5.06,5.06,0,0,0-1.93,2.53,3.37,3.37,0,0,1-2.44,2.06,4.65,4.65,0,0,0,3.74-.29A4.2,4.2,0,0,1,52.33,68a6.47,6.47,0,0,0,3.59.49,6.66,6.66,0,0,1-2,2.9l-.06,0A4.62,4.62,0,0,1,51.11,69a9.22,9.22,0,0,1-5.28-.15,22.2,22.2,0,0,1-4.44-2.22,5.28,5.28,0,0,1-1.69-1.36,1.48,1.48,0,0,1,.06-1.9A2.86,2.86,0,0,1,42,62.92a16.55,16.55,0,0,1-1.43-1.35,2.3,2.3,0,0,1-.76-1.18c-.14-.85.71-1.59,1.57-2a2.57,2.57,0,0,1,2.33-.12,2.29,2.29,0,0,1,.87,1.57l.35,1.49A11.2,11.2,0,0,0,43.78,55a5.15,5.15,0,0,0-1-1.53c-1.28-1.3-3.57-1.38-5.43-.85s-3.47,1.55-5.28,2.18-4,.82-5.57-.24a7,7,0,0,0,4.93,4,10.14,10.14,0,0,1-6,5.07,30.58,30.58,0,0,0,6.12.75,2,2,0,0,0,1-.14c-1.52,1.67-2.09,4.16-3.26,6A8.47,8.47,0,0,1,24,74.38a10.56,10.56,0,0,0,9.48-1.8A32.67,32.67,0,0,1,31,82.73a16.35,16.35,0,0,1-7.43,7.73,13.35,13.35,0,0,0,10.29-4,25.85,25.85,0,0,0,5.94-9.36,29.16,29.16,0,0,1-1.53,11.68,17.72,17.72,0,0,1-8,9.25c5.36.08,10.22-3.35,13.11-7.33s4.4-8.62,6.54-13a17.59,17.59,0,0,1-.33,6.47,43.61,43.61,0,0,1-1.74,5.21,14.07,14.07,0,0,0,5.83-4.57,41,41,0,0,0,3.84-6.41c.06,1.46.34,3.06.4,4.52a5.78,5.78,0,0,1-.45,3.14,5.72,5.72,0,0,1-2.19,2c-1.52.9-3.21,1.59-4.74,2.48A8.24,8.24,0,0,0,47,94.16a7.11,7.11,0,0,1,2.51.36,33.26,33.26,0,0,1-7.91,9.28c-.49-.54-1.2-1.08-1.69-1.62a2.57,2.57,0,0,0-.82-.68,2.44,2.44,0,0,0-1.2-.11,6.45,6.45,0,0,0-5.73,4.86A2.8,2.8,0,0,1,35,104.76a4.61,4.61,0,0,1,2.95,1.41,3.84,3.84,0,0,0-2.67,3.34,7.47,7.47,0,0,0,1.47,4.32c.11-.71.22-1.43.32-2.14a1.55,1.55,0,0,1,.39-1,2.7,2.7,0,0,1,.82-.39A4.89,4.89,0,0,0,40,109.23c.73-.73,1.29-1.75,2.37-2a20,20,0,0,0,.51,4.62,1.68,1.68,0,0,0,.77,1.25c.9-1.13,1.84-2.35,1.84-3.73,0-1-.5-2-.28-3a1.41,1.41,0,0,1,1.48-1,4.92,4.92,0,0,1,1.72.84,2.33,2.33,0,0,0,1.84.43,7.19,7.19,0,0,0,1.26-.79,2.12,2.12,0,0,1,2.08.13c-.45-.54-.13-1.56-.68-2.11a2.15,2.15,0,0,0-1-.46c-1.36-.31-2.74-.56-4.13-.74a17.21,17.21,0,0,1,5.53-5.77,10.86,10.86,0,0,0,1,1.67A61.15,61.15,0,0,1,58,93.43c0,.74,0,1.56,0,2.3a3.78,3.78,0,0,1-.35,1.66A4.78,4.78,0,0,1,55,99.16a13.07,13.07,0,0,0,3,1.69,2.65,2.65,0,0,1-3.33,1.25,4.59,4.59,0,0,0,2.93,3,9.62,9.62,0,0,1-8.29,3.29,9.07,9.07,0,0,0,6.91,1.31A5.56,5.56,0,0,1,51.83,113c-1.08.1-2.18,0-3.24.12-2.29.37-3.92,2.16-5,4,.67-.83,2.31-.92,3.47-1s2.3.16,3.45.18a10.58,10.58,0,0,0,7.19-2.58,15.72,15.72,0,0,1-4.13,3.48,6.57,6.57,0,0,1-4,1.4,7.43,7.43,0,0,0,4.86.05,12.9,12.9,0,0,0,4.74-3.46,18.66,18.66,0,0,0,.64,3.63,6.41,6.41,0,0,0,1.67,3.23c1-.88.78-2,1.13-3.23a18.66,18.66,0,0,0,.64-3.63,12.87,12.87,0,0,0,4.73,3.46,7.46,7.46,0,0,0,4.87-.05,6.57,6.57,0,0,1-4-1.4,15.72,15.72,0,0,1-4.13-3.48,10.57,10.57,0,0,0,7.18,2.58c1.16,0,2.31-.23,3.46-.18s2.8.13,3.47,1c-1.08-1.82-2.71-3.61-5-4-1.06-.17-2.16,0-3.24-.12A5.56,5.56,0,0,1,66,109.66a9.07,9.07,0,0,0,6.91-1.31,9.65,9.65,0,0,1-8.3-3.29,4.59,4.59,0,0,0,2.94-3,2.65,2.65,0,0,1-3.33-1.25,12.81,12.81,0,0,0,3-1.69,4.85,4.85,0,0,1-2.56-1.77,3.92,3.92,0,0,1-.34-1.66c0-.74,0-1.56,0-2.3A61.15,61.15,0,0,1,68,98.58a10.86,10.86,0,0,0,1-1.67,17.3,17.3,0,0,1,5.53,5.77c-1.4.18-2.78.43-4.13.74a2.15,2.15,0,0,0-1,.46c-.55.55-.23,1.57-.68,2.11a2.12,2.12,0,0,1,2.08-.13,7.5,7.5,0,0,0,1.25.79,2.34,2.34,0,0,0,1.85-.43,4.84,4.84,0,0,1,1.72-.84,1.4,1.4,0,0,1,1.47,1c.23,1-.28,2-.28,3,0,1.38,1,2.6,1.85,3.73a1.71,1.71,0,0,0,.77-1.25,20.57,20.57,0,0,0,.51-4.62c1.08.21,1.63,1.23,2.37,2a4.89,4.89,0,0,0,1.74,1.09,2.7,2.7,0,0,1,.82.39,1.55,1.55,0,0,1,.39,1c.1.71.21,1.43.32,2.14a7.47,7.47,0,0,0,1.47-4.32,3.84,3.84,0,0,0-2.67-3.34,4.6,4.6,0,0,1,2.94-1.41,2.81,2.81,0,0,1,2.8,1.49,6.45,6.45,0,0,0-5.73-4.86,2.44,2.44,0,0,0-1.2.11,2.47,2.47,0,0,0-.82.68c-.49.54-1.21,1.08-1.69,1.62a33.26,33.26,0,0,1-7.91-9.28,7.11,7.11,0,0,1,2.51-.36,8.24,8.24,0,0,0-3.59-3.59C70.2,89.68,68.51,89,67,88.09A4.47,4.47,0,0,1,64.35,83c.06-1.46.33-3.06.4-4.52a41,41,0,0,0,3.84,6.41,14.07,14.07,0,0,0,5.83,4.57,41.89,41.89,0,0,1-1.74-5.21,17.59,17.59,0,0,1-.33-6.47c2.14,4.34,3.64,9,6.53,13S86.63,98.14,92,98.06a17.72,17.72,0,0,1-8-9.25,29,29,0,0,1-1.53-11.68A25.85,25.85,0,0,0,88.46,86.49Z"/><polygon class="cls-2" points="118.06 42.86 118.06 34.31 103.63 26.03 82.39 38.21 61.16 26.03 39.92 38.21 18.69 26.03 4.26 34.31 4.26 42.86 18.69 34.58 39.92 46.76 61.16 34.58 82.39 46.76 103.63 34.58 118.06 42.86"/><path class="cls-2" d="M61.16,122.9,37.74,136.32a144.59,144.59,0,0,0,23.42,15.25,144.07,144.07,0,0,0,23.41-15.25Z"/><path class="cls-3" d="M61.16,131.27l-16.58,9.51a103.2,103.2,0,0,0,16.58,10.79,103.2,103.2,0,0,0,16.58-10.79Z"/><polygon class="cls-2" points="4.26 29.6 18.69 21.33 39.92 33.5 61.16 21.33 82.39 33.5 103.63 21.33 118.06 29.6 118.06 21.05 103.63 12.78 82.39 24.95 61.16 12.78 39.92 24.95 18.69 12.78 4.26 21.05 4.26 29.6"/><path class="cls-4" d="M122.32,6.19A305,305,0,0,0,61.16,0V158.21h0a108.6,108.6,0,0,0,61.16-97.69V6.19Z"/></g></g></g></svg>