<svg xmlns="http://www.w3.org/2000/svg" viewBox="0 0 115 145"><defs><style>.cls-1{fill:#20617b;}.cls-2{fill:#227791;}.cls-3{fill:#e3c190;}.cls-4{fill:#fcecdb;}</style></defs><title>002</title><g id="Capa_2" data-name="Capa 2"><g id="OBJECTS"><path class="cls-1" d="M57.5,0V145s29.81-14.28,46.19-54S113.84,0,113.84,0Z"/><path class="cls-2" d="M57.5,0V145S27.69,130.72,11.31,91,1.16,0,1.16,0Z"/><path class="cls-3" d="M99.06,89.08c13-31.44,11.24-71,10.22-84.08H57.5V139.29h0C64.41,135.24,86.12,120.49,99.06,89.08Z"/><path class="cls-4" d="M5.72,5C4.7,18.06,3,57.64,15.94,89.08c12.88,31.25,34.65,46.12,41.56,50.21V5Z"/><path class="cls-1" d="M96.29,87.94c11.95-29,11.1-65.72,10.2-79.94h-49V135.77h0C65.19,131,84.51,116.51,96.29,87.94Z"/><path class="cls-2" d="M8.51,8c-.9,14.22-1.75,50.93,10.2,79.94,11.72,28.42,31.08,42.94,38.79,47.83V8Z"/></g></g></svg>