<svg xmlns="http://www.w3.org/2000/svg" viewBox="0 0 156.57 151.8"><defs><style>.cls-1{fill:#59aa46;}.cls-2{fill:#f9f8f7;}.cls-3{fill:#fff;}</style></defs><title>002</title><g id="Capa_2" data-name="Capa 2"><g id="BACKGROUND"><path class="cls-1" d="M147.46,129.84q3.71-3.72,7.43-7.43a139.61,139.61,0,0,1-24.83-24.83q-3.7,3.72-7.43,7.43A140.28,140.28,0,0,1,147.46,129.84Z"/><path class="cls-1" d="M146.91,131.14c1.06,1.07,4-.15,6.56-2.72s3.78-5.5,2.72-6.56-4,.15-6.57,2.71S145.84,130.08,146.91,131.14Z"/><rect class="cls-1" x="116.58" y="99.72" width="19.26" height="2.89" transform="translate(286.99 83.45) rotate(135)"/><polygon class="cls-1" points="32.73 15.11 25.05 0 40.16 7.68 128.9 96.42 121.47 103.86 32.73 15.11"/><polygon class="cls-2" points="39.16 9.06 126.52 96.42 124 98.95 28.89 3.85 39.16 9.06"/><path class="cls-1" d="M9.12,129.84l-7.43-7.43A139.89,139.89,0,0,0,26.51,97.58L33.94,105A140.56,140.56,0,0,0,9.12,129.84Z"/><path class="cls-1" d="M9.67,131.14c-1.06,1.07-4-.15-6.57-2.72s-3.78-5.5-2.72-6.56,4,.15,6.57,2.71S10.73,130.08,9.67,131.14Z"/><rect class="cls-1" x="20.73" y="99.72" width="19.26" height="2.89" transform="translate(80.43 8.16) rotate(45)"/><polygon class="cls-1" points="123.84 15.11 131.53 0 116.41 7.68 27.67 96.42 35.1 103.86 123.84 15.11"/><polygon class="cls-2" points="117.42 9.06 30.05 96.42 32.58 98.95 127.68 3.85 117.42 9.06"/><path class="cls-3" d="M78.29,131.79h0a97.43,97.43,0,0,1-41.2-79.58V29.66h82.4V52.21A97.46,97.46,0,0,1,78.29,131.79Z"/><path class="cls-2" d="M78.29,132.85l-.5-.35A98.44,98.44,0,0,1,36.23,52.21V28.8h84.12V52.21A98.47,98.47,0,0,1,78.79,132.5ZM38,30.53V52.21a96.72,96.72,0,0,0,40.34,78.52,96.74,96.74,0,0,0,40.33-78.52V30.53Z"/><path class="cls-1" d="M78.29,126.44A93.28,93.28,0,0,1,41.41,52.21V34h73.76V52.21A93.28,93.28,0,0,1,78.29,126.44Z"/><polygon class="cls-1" points="132.69 53.98 134.56 59.73 140.6 59.73 135.71 63.28 137.58 69.03 132.69 65.47 127.8 69.03 129.67 63.28 124.78 59.73 130.82 59.73 132.69 53.98"/><polygon class="cls-1" points="78.29 3.44 81.11 12.13 90.24 12.13 82.85 17.5 85.68 26.18 78.29 20.81 70.9 26.18 73.72 17.5 66.33 12.13 75.47 12.13 78.29 3.44"/><polygon class="cls-1" points="23.89 53.98 22.02 59.73 15.97 59.73 20.86 63.28 19 69.03 23.89 65.47 28.78 69.03 26.91 63.28 31.8 59.73 25.75 59.73 23.89 53.98"/><polygon class="cls-3" points="86.85 102.33 85.33 99.55 84.02 101.95 80.19 101.95 80.19 98.13 82.59 96.81 79.81 95.29 78.29 92.51 76.77 95.29 73.98 96.81 76.38 98.13 76.38 101.95 72.56 101.95 71.25 99.55 69.72 102.33 66.94 103.86 69.72 105.38 71.25 108.16 72.56 105.76 76.38 105.76 76.38 109.59 73.98 110.9 76.77 112.42 78.29 115.2 79.81 112.42 82.59 110.9 80.19 109.59 80.19 105.76 84.02 105.76 85.33 108.16 86.85 105.38 89.63 103.86 86.85 102.33"/><path class="cls-2" d="M78.29,92.51l1.52,2.78,2.78,1.52-2.4,1.31V102H84l1.31-2.4,1.52,2.78,2.78,1.53-2.78,1.52-1.52,2.78L84,105.76H80.19v3.83l2.4,1.31-2.78,1.52-1.52,2.78-1.52-2.78L74,110.9l2.4-1.31v-3.83H72.56l-1.31,2.4-1.53-2.78-2.78-1.52,2.78-1.53,1.53-2.78,1.31,2.4h3.82V98.12L74,96.81l2.79-1.52,1.52-2.78m0-1.8-.76,1.39-1.4,2.56-2.56,1.4-1.39.75,1.39.76,2,1.07v2.45H73.07l-1.07-2-.75-1.39-.76,1.39-1.4,2.56-2.56,1.4-1.39.76,1.39.75,2.56,1.4,1.4,2.56.76,1.39.75-1.39,1.07-1.94h2.45v2.44l-2,1.07-1.39.76,1.39.75,2.56,1.41,1.4,2.56.76,1.38.75-1.38,1.41-2.56L83,111.65l1.38-.75L83,110.14l-2-1.07v-2.44h2.45l1.06,1.94.76,1.39.76-1.39,1.4-2.56,2.56-1.4,1.38-.75-1.38-.76-2.56-1.4-1.4-2.56-.76-1.39-.76,1.39-1.06,2H81.06V98.64l2-1.07,1.38-.76L83,96.06l-2.56-1.4L79,92.1l-.75-1.39Z"/><g id="_Grupo_" data-name="&lt;Grupo&gt;"><path class="cls-3" d="M31.93,111.72v9c-5.95-1.62-10-3.1-10.47-3.92C20.15,114.65,31.93,113.53,31.93,111.72Z"/><path class="cls-1" d="M31.93,111.71h0c0,1.81-11.78,2.93-10.47,5v15.31a44,44,0,0,0-11.88,1.22l6.54-12L9.57,110s12.11-3.28,21.24.75C31.59,111.09,31.92,111.41,31.93,111.71Z"/><path class="cls-1" d="M21.46,139.39V140A.56.56,0,0,1,21.46,139.39Z"/></g><g id="_Grupo_2" data-name="&lt;Grupo&gt;"><path class="cls-3" d="M124.65,111.72v9c5.95-1.62,10-3.1,10.47-3.92C136.42,114.65,124.65,113.53,124.65,111.72Z"/><path class="cls-1" d="M124.65,111.71h0c0,1.81,11.77,2.93,10.47,5v15.31A43.94,43.94,0,0,1,147,133.28l-6.54-12L147,110s-12.11-3.28-21.23.75C125,111.09,124.66,111.41,124.65,111.71Z"/><path class="cls-1" d="M124.65,120.67c-11.9,3.23-31.54,7-46.36,7s-34.47-3.75-46.36-7c-5.95-1.62-10-3.1-10.47-3.92V140c1.52,2.46,34.59,10.91,56.83,10.91s55.31-8.45,56.83-10.91V116.75C134.61,117.57,130.6,119.05,124.65,120.67Z"/><path class="cls-1" d="M135.12,139.39V140A.56.56,0,0,0,135.12,139.39Z"/></g><g id="_Grupo_3" data-name="&lt;Grupo&gt;"><path class="cls-2" d="M31.93,121.53a.91.91,0,0,1-.23,0c-10-2.72-10.74-3.91-11-4.3a1.41,1.41,0,0,1-.13-1.29c.48-1.22,2.6-1.85,6-2.79,1.59-.44,4-1.09,4.46-1.56a.86.86,0,0,1,1.71.16v8.94a.85.85,0,0,1-.34.69A.82.82,0,0,1,31.93,121.53Zm-9.59-5.11c.63.45,3,1.52,8.72,3.11v-6a35.43,35.43,0,0,1-4,1.25A21.74,21.74,0,0,0,22.34,116.42Z"/><path class="cls-2" d="M9.61,134.13a.88.88,0,0,1-.69-.33.87.87,0,0,1-.1-.94l6.31-11.56-6.3-10.87a.85.85,0,0,1-.06-.76.88.88,0,0,1,.58-.5c.5-.14,12.51-3.32,21.8.79.69.3,1.61.8,1.64,1.72v0h0c0,1.43-2,2-5.71,3.06-1.6.44-4.2,1.15-4.81,1.69a.87.87,0,0,1,.05.28v15.31a.87.87,0,0,1-.9.86A43.64,43.64,0,0,0,9.83,134.1.83.83,0,0,1,9.61,134.13Zm1.3-23.55,6,10.27a.88.88,0,0,1,0,.85L11.25,132a45,45,0,0,1,9.34-.85V117a1.44,1.44,0,0,1,0-1c.48-1.22,2.6-1.85,6-2.79a26.69,26.69,0,0,0,4.22-1.39,2.78,2.78,0,0,0-.38-.18C23.3,108.37,14.06,109.91,10.91,110.58Zm20.21,1.35h0Z"/><path class="cls-2" d="M21.46,140.89a.87.87,0,0,1-.73-.4,1.39,1.39,0,0,1,0-1.56.86.86,0,0,1,1.59.46V140a.85.85,0,0,1-.62.82A.67.67,0,0,1,21.46,140.89Zm.5-1.18.22.14a.33.33,0,0,0,0-.29Z"/></g><g id="_Grupo_4" data-name="&lt;Grupo&gt;"><path class="cls-2" d="M124.65,121.53a.85.85,0,0,1-.53-.18.88.88,0,0,1-.34-.69v-8.94a.87.87,0,0,1,.87-.86.85.85,0,0,1,.84.7c.49.47,2.87,1.12,4.46,1.56,3.43.94,5.56,1.57,6,2.79a1.41,1.41,0,0,1-.13,1.29c-.24.39-1,1.58-11,4.3A.83.83,0,0,1,124.65,121.53Zm.86-8v6c5.64-1.58,8-2.65,8.72-3.11a21.49,21.49,0,0,0-4.73-1.64A35.71,35.71,0,0,1,125.51,113.53Zm0-1.81h0Z"/><path class="cls-2" d="M147,134.14l-.21,0a43.32,43.32,0,0,0-11.62-1.19.9.9,0,0,1-.64-.24.85.85,0,0,1-.26-.62V116.75a.86.86,0,0,1,0-.28c-.6-.54-3.21-1.25-4.8-1.69-3.76-1-5.72-1.63-5.72-3.06v0c0-.92,1-1.42,1.65-1.72,9.28-4.11,21.29-.93,21.8-.79a.84.84,0,0,1,.57.5.88.88,0,0,1-.05.76l-6.31,10.87,6.31,11.56a.89.89,0,0,1-.07.94A.86.86,0,0,1,147,134.14Zm-10.29-3a45.57,45.57,0,0,1,8.62.86L139.7,121.7a.86.86,0,0,1,0-.85l6-10.27c-3.15-.67-12.39-2.21-19.55,1-.17.07-.29.14-.39.19a27,27,0,0,0,4.22,1.39c3.43.94,5.56,1.57,6,2.79a1.39,1.39,0,0,1,0,1v14.22Zm-2.31-14.59h0Z"/><path class="cls-2" d="M78.29,151.8c-21.91,0-55.7-8.29-57.57-11.32a.9.9,0,0,1-.13-.45V116.75a.86.86,0,0,1,1.6-.45c.31.35,2.81,1.59,10,3.53,12.75,3.46,32,7,46.14,7s33.38-3.5,46.13-7h0c7.15-1.94,9.66-3.18,10-3.56a.83.83,0,0,1,1-.36.86.86,0,0,1,.62.84V140a.81.81,0,0,1-.13.45C134,143.51,100.19,151.8,78.29,151.8Zm-56-12.11c2.83,2.27,34.35,10.38,56,10.38s53-8.08,56-10.39V118.37a57.22,57.22,0,0,1-9.39,3.13c-12.85,3.49-32.24,7-46.58,7s-33.73-3.52-46.59-7a57,57,0,0,1-9.38-3.13Z"/><path class="cls-2" d="M135.12,140.89a.67.67,0,0,1-.24,0,.85.85,0,0,1-.62-.82v-.64a.86.86,0,0,1,1.59-.46,1.42,1.42,0,0,1,0,1.56A.87.87,0,0,1,135.12,140.89Zm-.73-1.33a.33.33,0,0,0,0,.29l.23-.14Z"/></g><path class="cls-2" d="M97,55.17l9.49-.07s-5,5-14.11,3.31l5.12,2.3s-3.29,2.6-9.71-1.07l2.8,3.13s-1.51,1.55-6.11-2.49l1.72,3.6A5.29,5.29,0,0,1,81.61,63a13.73,13.73,0,0,0,3.76,9.69A3.35,3.35,0,0,0,83.78,75s-2.16-3.74-2.53-6.22A22.82,22.82,0,0,0,83,77.18a3.3,3.3,0,0,0-1,2.63A22.09,22.09,0,0,1,80,72.28a35.76,35.76,0,0,0,1.16,10.1s-2.83,2.79-2.83,4.54c0-1.75-2.83-4.54-2.83-4.54a36.21,36.21,0,0,0,1.18-10.1,22.09,22.09,0,0,1-2.07,7.53,3.3,3.3,0,0,0-1-2.63,23.18,23.18,0,0,0,1.76-8.37C75,71.29,72.78,75,72.78,75a3.32,3.32,0,0,0-1.57-2.37A13.83,13.83,0,0,0,75,63a5.33,5.33,0,0,1-4.6.91l1.73-3.6c-4.6,4-6.11,2.49-6.11,2.49l2.81-3.13c-6.42,3.67-9.72,1.07-9.72,1.07l5.11-2.3c-9.14,1.73-14.1-3.31-14.1-3.31l9.5.07C48.87,53,47.93,46.68,47.93,46.68L59,49.85C47.36,44,47.93,38.63,47.93,38.63L70.22,49.24a2,2,0,0,1,1,2.63,6.31,6.31,0,0,0-.35,3.81c.47,2.12,4.5,1.52,4.5,1.52A7.59,7.59,0,0,0,76.06,53a2.44,2.44,0,0,0-2.66-.32,4.19,4.19,0,0,1,2.28-1.76s.12-1.65,1.64-1.65a3.92,3.92,0,0,1,1,.13c1.65.45,3.81,2.2,2.91,7.79,0,0,4,.6,4.5-1.52a6.25,6.25,0,0,0-.34-3.81,2,2,0,0,1,1-2.63l22.28-10.61s.57,5.32-11.08,11.22l11.08-3.17S107.7,53,97,55.17Z"/><g id="_Grupo_5" data-name="&lt;Grupo&gt;"><path class="cls-3" d="M71.73,89S58,87.48,50,91.34c-1.06-2.29-2-4.62-2.89-7C56.56,82.46,71.73,89,71.73,89Z"/><path class="cls-3" d="M109.42,84.38c-.87,2.37-1.85,4.71-2.92,7C98.52,87.46,84.7,89,84.7,89S100,82.4,109.42,84.38Z"/><path class="cls-2" d="M83.88,89.78l.43-1c2.12-5,7.9-8.94,14-13.13C106,70.4,113.88,65,114.6,57.32l.86.08c-.75,8.06-8.83,13.6-16.65,19-5.58,3.83-10.88,7.47-13.22,11.77,3.65-1.45,15.81-5.89,23.92-4.18l-.18.84c-9.16-1.92-24.3,4.49-24.46,4.56Z"/><path class="cls-2" d="M106.51,91.82h-.1l-.1,0c-7.78-3.83-21.42-2.4-21.56-2.39l-.09-.86c.57-.06,14-1.47,22,2.47l-.18.38Z"/><path class="cls-2" d="M72.55,89.78l-1-.42c-.15-.06-15.16-6.43-24.33-4.58l-.22-.4L46.93,84l.22.4-.09-.42c8.11-1.63,20.15,2.76,23.79,4.21-2.35-4.3-7.65-7.94-13.23-11.77C50.34,71.37,42.81,66.2,41.23,59A10.52,10.52,0,0,1,41,57.41l.86-.09a10.92,10.92,0,0,0,.23,1.48c1.51,6.88,8.9,12,16,16.86,6.11,4.19,11.89,8.16,14,13.13Z"/><path class="cls-2" d="M50.23,91.73l-.5-.73.15-.06c8-3.86,21.33-2.47,21.89-2.41l-.09.86C71.55,89.38,58,88,50.23,91.73Z"/><path class="cls-2" d="M78.29,127.53l-.52-.4A94.41,94.41,0,0,1,49.26,91.7c-1.08-2.32-2.06-4.69-2.92-7A93.19,93.19,0,0,1,40.79,59c-.17-2.18-.25-4.44-.25-6.73V33.11H116V52.22c0,1.67-.05,3.42-.15,5.19a93.83,93.83,0,0,1-5.66,27.27c-.87,2.37-1.86,4.75-2.94,7.07a94.29,94.29,0,0,1-28.48,35.38Zm-36-92.69V52.22c0,2.25.08,4.47.24,6.61A91.63,91.63,0,0,0,48,84.05c.84,2.32,1.81,4.65,2.86,6.92a92.64,92.64,0,0,0,27.47,34.39A92.72,92.72,0,0,0,105.72,91h0c1.07-2.28,2-4.61,2.89-6.94a92,92,0,0,0,5.55-26.76c.1-1.74.15-3.46.15-5.1V34.84Z"/></g></g></g></svg>