<svg xmlns="http://www.w3.org/2000/svg" viewBox="0 0 173.24 143.72"><defs><style>.cls-1{fill:#4A4A4A;}.cls-2{fill:#f9f8f7;}.cls-3{fill:#fff;}</style></defs><title>003</title><g id="Capa_2" data-name="Capa 2"><g id="BACKGROUND"><rect class="cls-1" x="129.35" y="13.8" width="5.02" height="80.34" transform="translate(40.65 -55.48) rotate(27.93)"/><path class="cls-1" d="M171.31,28.13c-10.29,2.36-19.11,1-30.39-5l-3.87,7.3-3.88,7.3c11.29,6,17.36,12.52,21.18,22.36,7.25-2.78,12.37-7,15.24-12.41S173.08,35.69,171.31,28.13Z"/><path class="cls-2" d="M140.92,23.15c7.83,4.15,14.48,6.07,21.25,6.07a40.69,40.69,0,0,0,9.14-1.09c1.77,7.56,1.15,14.16-1.72,19.57s-8,9.63-15.24,12.41c-3.82-9.84-9.89-16.38-21.18-22.36l3.88-7.3,3.87-7.3m-.39-1.26-.44.82L136.22,30l-3.87,7.3-.44.83.83.43c10.95,5.81,17,12.15,20.74,21.88l.34.86.87-.33c7.43-2.84,12.72-7.16,15.73-12.84s3.61-12.48,1.8-20.22L172,27l-.91.21a39.59,39.59,0,0,1-8.93,1.07c-6.61,0-13-1.84-20.82-6l-.82-.43Z"/><path class="cls-2" d="M154.9,57.14a42.44,42.44,0,0,0,6.56-4.9,23.54,23.54,0,0,0,7.32-13.81,42.64,42.64,0,0,0,.37-8.18,22.26,22.26,0,0,1,1.07,8.33,19.71,19.71,0,0,1-7.82,14.76A22.72,22.72,0,0,1,154.9,57.14Z"/><path class="cls-1" d="M154.9,20.64c-.84-1.81-.58-9.06-.58-9.06s-5.86,4.28-7.82,4.6l-1.08,2,8.4,4.45Z"/><path class="cls-2" d="M154.32,11.58s-.26,7.25.58,9.06l-1.08,2-8.4-4.45,1.08-2c2-.32,7.82-4.6,7.82-4.6m1-1.89-1.55,1.14c-2.2,1.6-6.16,4.22-7.42,4.43l-.46.08-.22.41-1.08,2-.43.82L145,19l8.4,4.46.83.43.43-.82,1.08-2,.22-.41-.2-.42c-.54-1.16-.59-5.91-.49-8.63l.07-1.92Z"/><rect class="cls-1" x="38.86" y="13.8" width="5.02" height="80.34" transform="translate(103.21 82.27) rotate(152.07)"/><path class="cls-1" d="M1.93,28.13c10.29,2.36,19.11,1,30.39-5l3.87,7.3,3.87,7.3c-11.28,6-17.35,12.52-21.18,22.36-7.24-2.78-12.36-7-15.23-12.41S.16,35.69,1.93,28.13Z"/><path class="cls-2" d="M32.32,23.15l3.87,7.3,3.87,7.3c-11.28,6-17.35,12.52-21.18,22.36-7.24-2.78-12.36-7-15.23-12.41s-3.49-12-1.72-19.57a40.63,40.63,0,0,0,9.14,1.09c6.77,0,13.42-1.92,21.25-6.07m.39-1.26-.82.43c-7.79,4.13-14.21,6-20.82,6a39.59,39.59,0,0,1-8.93-1.07L1.23,27,1,27.92C-.79,35.66-.19,42.47,2.82,48.14s8.3,10,15.73,12.84l.87.33.33-.86c3.79-9.73,9.8-16.07,20.75-21.88l.83-.43-.44-.83L37,30l-3.87-7.3-.44-.82Z"/><path class="cls-2" d="M18.34,57.14a42.44,42.44,0,0,1-6.56-4.9A23.54,23.54,0,0,1,4.46,38.43a41.85,41.85,0,0,1-.37-8.18A22.47,22.47,0,0,0,3,38.58a19.77,19.77,0,0,0,7.83,14.76A22.72,22.72,0,0,0,18.34,57.14Z"/><path class="cls-1" d="M18.34,20.64c.84-1.81.58-9.06.58-9.06s5.86,4.28,7.82,4.6l1.08,2-8.4,4.45Z"/><path class="cls-2" d="M18.92,11.58s5.86,4.28,7.82,4.6l1.08,2-8.4,4.45-1.08-2c.84-1.81.58-9.06.58-9.06m-1-1.89L18,11.61c.1,2.72.05,7.47-.49,8.63l-.2.42.22.41,1.08,2,.43.82.83-.43L28.26,19l.82-.44-.43-.82-1.08-2-.22-.41-.46-.08c-1.27-.21-5.22-2.83-7.42-4.43L17.92,9.69Z"/><path class="cls-3" d="M86.62,1l-39.57,19a8.77,8.77,0,0,0-5,7.9v74.89a8.77,8.77,0,0,0,5,7.89l39.57,19,39.57-19a8.77,8.77,0,0,0,5-7.89V28a8.77,8.77,0,0,0-5-7.9Z"/><path class="cls-2" d="M86.62,130.85l-.41-.2-39.56-19a9.76,9.76,0,0,1-5.5-8.74V28a9.76,9.76,0,0,1,5.5-8.74L86.62,0l.4.19,39.57,19A9.75,9.75,0,0,1,132.08,28v74.89a9.75,9.75,0,0,1-5.49,8.74Zm0-128.78L47.46,20.92A7.88,7.88,0,0,0,43,28v74.89a7.85,7.85,0,0,0,4.44,7l39.16,18.86,39.16-18.86a7.85,7.85,0,0,0,4.44-7V28a7.88,7.88,0,0,0-4.44-7.06Z"/><path class="cls-1" d="M46.75,102.25V28.6A5.08,5.08,0,0,1,49.63,24l37-17.81,37,17.81a5.08,5.08,0,0,1,2.88,4.58v73.65a5.09,5.09,0,0,1-2.88,4.58l-37,17.8-37-17.8A5.09,5.09,0,0,1,46.75,102.25Z"/><path class="cls-2" d="M86.62,125.67l-.4-.2-37-17.8a6.06,6.06,0,0,1-3.4-5.42V28.6a6,6,0,0,1,3.4-5.42l37.4-18,.4.19,37,17.81a6,6,0,0,1,3.4,5.42v73.65a6.06,6.06,0,0,1-3.4,5.42Zm0-118.42L50,24.86a4.17,4.17,0,0,0-2.34,3.74v73.65A4.16,4.16,0,0,0,50,106L86.62,123.6,123.21,106a4.16,4.16,0,0,0,2.34-3.73V28.6a4.17,4.17,0,0,0-2.34-3.74Z"/><path class="cls-2" d="M86.62,125.67l-.4-.2L49,107.54a5.57,5.57,0,0,1-3.14-5V28.31a5.56,5.56,0,0,1,3.14-5L86.62,5.18l.4.19,37.26,17.94a5.56,5.56,0,0,1,3.14,5v74.23a5.57,5.57,0,0,1-3.14,5Zm0-118.42L49.77,25a3.71,3.71,0,0,0-2.08,3.32v74.23a3.71,3.71,0,0,0,2.08,3.32L86.62,123.6l36.85-17.74a3.71,3.71,0,0,0,2.08-3.32V28.31A3.71,3.71,0,0,0,123.47,25Z"/><g id="_Grupo_" data-name="&lt;Grupo&gt;"><polygon class="cls-3" points="99.8 56.6 86.62 62.09 73.44 56.6 86.62 51.11 99.8 56.6"/><polygon class="cls-2" points="86.62 63.1 46.39 46.35 47.11 44.63 86.62 61.07 126.13 44.63 126.84 46.35 86.62 63.1"/><polygon class="cls-2" points="126.13 68.57 86.62 52.12 47.11 68.57 46.39 66.85 86.62 50.1 126.84 66.85 126.13 68.57"/></g><g id="_Grupo_2" data-name="&lt;Grupo&gt;"><path class="cls-1" d="M36.51,100.4v9.66c-6.43-1.74-10.77-3.34-11.32-4.23C23.78,103.56,36.51,102.35,36.51,100.4Z"/><path class="cls-1" d="M36.51,100.38v0c0,1.95-12.73,3.16-11.32,5.43v16.55a47.71,47.71,0,0,0-12.84,1.31l7.07-13-7.08-12.2s13.1-3.54,23,.82C36.14,99.71,36.5,100.06,36.51,100.38Z"/><path class="cls-1" d="M25.19,130.3V131A.6.6,0,0,1,25.19,130.3Z"/></g><g id="_Grupo_3" data-name="&lt;Grupo&gt;"><path class="cls-1" d="M136.73,100.4v9.66c6.43-1.74,10.77-3.34,11.32-4.23C149.46,103.56,136.73,102.35,136.73,100.4Z"/><path class="cls-1" d="M136.73,100.38v0c0,1.95,12.73,3.16,11.32,5.43v16.55a47.53,47.53,0,0,1,12.83,1.31l-7.06-13,7.08-12.2s-13.1-3.54-23,.82C137.1,99.71,136.74,100.06,136.73,100.38Z"/><path class="cls-1" d="M136.73,110.06c-12.85,3.49-34.09,7.55-50.11,7.55s-37.26-4.06-50.11-7.55c-6.44-1.74-10.77-3.34-11.32-4.23V131c1.64,2.66,37.39,11.79,61.43,11.79s59.79-9.13,61.43-11.79V105.83C147.5,106.72,143.16,108.32,136.73,110.06Z"/><path class="cls-1" d="M148.05,130.3V131A.6.6,0,0,0,148.05,130.3Z"/></g><g id="_Grupo_4" data-name="&lt;Grupo&gt;"><path class="cls-2" d="M36.51,111a1.09,1.09,0,0,1-.25,0c-10.81-2.93-11.6-4.22-11.87-4.64a1.53,1.53,0,0,1-.14-1.39c.52-1.32,2.82-2,6.52-3,1.72-.47,4.3-1.18,4.82-1.68a.93.93,0,0,1,1.85.18v9.66a.92.92,0,0,1-.36.74A.94.94,0,0,1,36.51,111Zm-10.37-5.53c.69.49,3.28,1.65,9.44,3.37v-6.49a36.18,36.18,0,0,1-4.31,1.35A24.25,24.25,0,0,0,26.14,105.47Z"/><path class="cls-2" d="M12.39,124.62a1,1,0,0,1-.75-.36.91.91,0,0,1-.1-1l6.81-12.51L11.54,99a.91.91,0,0,1-.06-.82,1,1,0,0,1,.62-.55c.55-.15,13.53-3.58,23.57.86.74.32,1.74.86,1.77,1.86v.05c0,1.54-2.12,2.19-6.17,3.3-1.73.47-4.55,1.25-5.2,1.83a1,1,0,0,1,.05.3v16.55a.92.92,0,0,1-.29.67.86.86,0,0,1-.68.26,46.3,46.3,0,0,0-12.53,1.28A.85.85,0,0,1,12.39,124.62Zm1.39-25.46,6.45,11.1a.94.94,0,0,1,0,.92l-6.08,11.16a48.7,48.7,0,0,1,10.1-.92V106a1.47,1.47,0,0,1,0-1.11c.52-1.32,2.82-2,6.52-3a28,28,0,0,0,4.56-1.5l-.4-.2C27.17,96.77,17.19,98.43,13.78,99.16Zm21.85,1.46h0Z"/><path class="cls-2" d="M25.19,131.92a.93.93,0,0,1-.79-.43,1.53,1.53,0,0,1,0-1.69.93.93,0,0,1,1.72.5V131a.93.93,0,0,1-.67.9Zm.54-1.27.25.15a.37.37,0,0,0,0-.31Z"/></g><g id="_Grupo_5" data-name="&lt;Grupo&gt;"><path class="cls-2" d="M136.73,111a.94.94,0,0,1-.57-.2.92.92,0,0,1-.36-.74V100.4a.93.93,0,0,1,1.85-.18c.52.5,3.09,1.21,4.82,1.68,3.7,1,6,1.71,6.52,3a1.5,1.5,0,0,1-.15,1.39c-.26.42-1.05,1.71-11.87,4.64A1,1,0,0,1,136.73,111Zm.93-8.65v6.49c6.1-1.71,8.71-2.86,9.43-3.37-.77-.58-3.45-1.31-5.12-1.77A36.18,36.18,0,0,1,137.66,102.35Zm0-1.95h0Z"/><path class="cls-2" d="M160.88,124.63l-.22,0a46.34,46.34,0,0,0-12.57-1.29.91.91,0,0,1-.69-.26,1,1,0,0,1-.28-.67V105.83a.79.79,0,0,1,0-.3c-.65-.58-3.47-1.36-5.2-1.83-4.05-1.11-6.17-1.76-6.17-3.3v-.05c0-1,1-1.54,1.78-1.86,10-4.44,23-1,23.56-.86a1,1,0,0,1,.62.55.91.91,0,0,1-.06.82l-6.81,11.74,6.81,12.51a.94.94,0,0,1-.82,1.38Zm-11.13-3.22a49.49,49.49,0,0,1,9.33.93L153,111.18a.94.94,0,0,1,0-.92l6.44-11.1c-3.4-.73-13.39-2.38-21.13,1a4,4,0,0,0-.41.2,28,28,0,0,0,4.56,1.5c3.7,1,6,1.71,6.52,3a1.47,1.47,0,0,1,0,1.11v15.38Zm-2.49-15.77h0Z"/><path class="cls-2" d="M86.62,143.72c-23.68,0-60.2-9-62.23-12.24a1,1,0,0,1-.13-.49V105.83a.92.92,0,0,1,.67-.9.94.94,0,0,1,1.05.41c.34.39,3,1.72,10.77,3.82,13.78,3.74,34.54,7.52,49.87,7.52s36.09-3.78,49.87-7.52h0c7.73-2.1,10.43-3.43,10.78-3.85a.93.93,0,0,1,1.71.52V131a.87.87,0,0,1-.14.49C146.82,134.76,110.29,143.72,86.62,143.72Zm-60.5-13.09c3.06,2.45,37.13,11.22,60.5,11.22s57.32-8.74,60.5-11.23v-23A62.78,62.78,0,0,1,137,111h0c-13.9,3.78-34.86,7.59-50.36,7.59S50.16,114.74,36.26,111a62.9,62.9,0,0,1-10.14-3.38Z"/><path class="cls-2" d="M148.05,131.92a1.15,1.15,0,0,1-.26,0,.93.93,0,0,1-.67-.9v-.69a.92.92,0,0,1,.67-.89.93.93,0,0,1,1.05.39,1.53,1.53,0,0,1,0,1.69A.94.94,0,0,1,148.05,131.92Zm-.79-1.43a.34.34,0,0,0,0,.31l.25-.15Z"/></g><path class="cls-2" d="M59.82,109.06a5.27,5.27,0,0,1-3.36-2.13c-1.25-1.59-1.64-3.34-1.05-4.7a2.84,2.84,0,0,1,2.4-1.72c1-.09,4.75-2.49,8-5.31a14.91,14.91,0,0,0-2.58-2.79l-.33-.21-.13-.39a7.7,7.7,0,0,1-.32-2.57l.16-.9.94,0h.11a8.12,8.12,0,0,1,2.31.88l.37.21.12.41a12.21,12.21,0,0,0,1.5,2.35C71.4,89.2,85.45,76.87,91.34,72l1.86-1.55c6.27-5.23,12.76-10.65,22.12-11l1.41-.06-.39,1.36c-2.55,9.06-9.36,14.12-16,19l-1.87,1.39c-6.09,4.6-21.38,15.41-25.12,18a12,12,0,0,0,2,2l.33.21.13.39a7.36,7.36,0,0,1,.3,2.59l-.17.9-1-.07a8.42,8.42,0,0,1-2.32-.89l-.38-.21-.11-.41a15.81,15.81,0,0,0-2.1-3.13c-3.5,2.47-6.7,5.54-7,6.51A2.9,2.9,0,0,1,59.82,109.06Z"/><path class="cls-1" d="M115.36,60.46C112.66,70,104.92,75,97.91,80.32S72,98.94,72,98.94l-.06,0a13.67,13.67,0,0,0,2.91,3.1,7.26,7.26,0,0,1,.28,2.14h0a7.92,7.92,0,0,1-2-.77,13.65,13.65,0,0,0-2.33-3.56l-.54-.68c-3.34,2.24-7.68,6-8.2,7.58a1.88,1.88,0,0,1-2.1,1.26,4.19,4.19,0,0,1-2.67-1.75h0c-1.93-2.45-1-4.61.64-4.75s6.32-3.49,9.28-6.21l-.54-.68a13.67,13.67,0,0,0-2.91-3.1,7.78,7.78,0,0,1-.3-2.13h.08a7.73,7.73,0,0,1,1.94.76,13.65,13.65,0,0,0,2.33,3.56l.06,0S85.22,78.39,92,72.82s13.44-11.95,23.37-12.36m2.74-2.16-2.83.11c-9.7.4-16.32,5.93-22.72,11.27l-1.86,1.55c-5.5,4.53-18.1,15.56-22.59,19.5a9,9,0,0,1-.69-1.15l-.16-.94-.82-.25a8.59,8.59,0,0,0-2.68-1h-.21l-1.82-.1-.31,1.8a8.21,8.21,0,0,0,.34,3L62,93l.67.27a12.16,12.16,0,0,1,1.67,1.76c-2.88,2.42-5.85,4.28-6.66,4.42a3.85,3.85,0,0,0-3.22,2.33,5.7,5.7,0,0,0,1.18,5.73,6.24,6.24,0,0,0,4.05,2.52A3.89,3.89,0,0,0,64,107.42c.32-.72,2.82-3.18,5.84-5.42a12.31,12.31,0,0,1,1.33,2l.15.93.83.25a8.75,8.75,0,0,0,2.69,1H75l1.83.13.33-1.8a8,8,0,0,0-.32-3l-.27-1-.66-.27a8.33,8.33,0,0,1-1-.94C79.79,95.93,93.46,86.25,99.14,82L101,80.57c6.73-5,13.68-10.16,16.33-19.55Z"/><path class="cls-2" d="M113.42,109.06a5.23,5.23,0,0,0,3.35-2.13c1.26-1.59,1.65-3.34,1.06-4.7a2.84,2.84,0,0,0-2.4-1.72c-1-.09-4.75-2.49-8-5.31A14.46,14.46,0,0,1,110,92.41l.33-.21.13-.39a7.7,7.7,0,0,0,.32-2.57l-.16-.9-.94,0h-.11a8.12,8.12,0,0,0-2.31.88l-.38.21-.11.41a12.21,12.21,0,0,1-1.5,2.35C101.84,89.2,87.79,76.87,81.9,72L80,70.47c-6.27-5.23-12.75-10.65-22.11-11l-1.41-.06.39,1.36c2.55,9.06,9.36,14.12,15.95,19l1.87,1.39c6.08,4.6,21.38,15.41,25.12,18a12,12,0,0,1-2,2l-.33.21-.13.39a7.36,7.36,0,0,0-.3,2.59l.17.9,1-.07a8.42,8.42,0,0,0,2.32-.89l.38-.21.11-.41a15.17,15.17,0,0,1,2.1-3.13c3.5,2.47,6.7,5.54,7,6.51A2.9,2.9,0,0,0,113.42,109.06Z"/><path class="cls-1" d="M57.88,60.46c9.93.41,16.59,6.78,23.37,12.36S105.4,93.69,105.4,93.69l.06,0a13.65,13.65,0,0,0,2.33-3.56,7.73,7.73,0,0,1,1.94-.76h.07a7.49,7.49,0,0,1-.29,2.13,13.67,13.67,0,0,0-2.91,3.1l-.54.68c3,2.72,7.62,6.07,9.28,6.21s2.57,2.3.64,4.75h0A4.19,4.19,0,0,1,113.3,108a1.88,1.88,0,0,1-2.1-1.26c-.52-1.58-4.86-5.34-8.2-7.58l-.54.68a13.65,13.65,0,0,0-2.33,3.56,7.92,7.92,0,0,1-1.95.77h-.05a7.26,7.26,0,0,1,.28-2.14,13.67,13.67,0,0,0,2.91-3.1l-.06,0S82.33,85.6,75.33,80.32,60.58,70,57.88,60.46m-2,.56c2.65,9.39,9.6,14.56,16.33,19.55L74.1,82c5.68,4.29,19.35,14,24.22,17.41a8.33,8.33,0,0,1-1,.94l-.67.27-.26,1a8,8,0,0,0-.32,3l.33,1.8,1.83-.13h.15a8.75,8.75,0,0,0,2.69-1l.82-.25.16-.93a12.31,12.31,0,0,1,1.33-2c3,2.24,5.52,4.7,5.84,5.42a3.88,3.88,0,0,0,4.28,2.65,6.24,6.24,0,0,0,4-2.52,5.7,5.7,0,0,0,1.18-5.73,3.85,3.85,0,0,0-3.22-2.33c-.81-.14-3.78-2-6.67-4.42a12.52,12.52,0,0,1,1.68-1.76l.67-.27.26-1a8.21,8.21,0,0,0,.34-3l-.31-1.8-1.82.1h-.21a8.59,8.59,0,0,0-2.68,1l-.83.25-.15.94a9,9,0,0,1-.69,1.15c-4.49-3.94-17.09-15-22.59-19.5l-1.86-1.55c-6.4-5.34-13-10.87-22.72-11.27l-2.83-.11Z"/><g id="_Grupo_6" data-name="&lt;Grupo&gt;"><path class="cls-2" d="M78.14,22.75c-.21.33-2.33,3.87-.86,10.1C78.81,39.39,82.73,41,82.73,41S75,45.64,72.91,38.34C70.88,31.25,77.76,23.19,78.14,22.75Z"/><path class="cls-2" d="M95.1,22.75c.38.44,7.26,8.5,5.23,15.59C98.25,45.64,90.5,41,90.5,41s3.93-1.63,5.45-8.17C97.42,26.62,95.31,23.08,95.1,22.75Z"/><path class="cls-2" d="M86.61,43h2.85a6.63,6.63,0,0,1-2.85,4.76A6.72,6.72,0,0,1,83.76,43Z"/><polygon class="cls-3" points="86.61 39.97 89.46 39.97 89.46 42.65 86.61 42.65 83.76 42.65 83.76 39.97 86.61 39.97"/><path class="cls-2" d="M89.46,40v2.68h-5.7V40h5.7M90.4,39H82.83v4.54H90.4V39Z"/><path class="cls-2" d="M86.61,16c3.19,4.48,5.91,11.25,5.69,12.9s-2.84,6.89-2.84,8.85v2h-5.7v-2c0-2-2.61-7.23-2.84-8.87S83.44,20.43,86.61,16Z"/></g><polygon class="cls-2" points="116.46 28.36 117.74 31.98 121.36 33.26 117.74 34.54 116.46 38.16 115.18 34.54 111.56 33.26 115.18 31.98 116.46 28.36"/><polygon class="cls-2" points="105.9 20.91 106.78 23.42 109.29 24.31 106.78 25.19 105.9 27.7 105.01 25.19 102.51 24.31 105.01 23.42 105.9 20.91"/><polygon class="cls-2" points="56.78 28.36 55.5 31.98 51.88 33.26 55.5 34.54 56.78 38.16 58.06 34.54 61.68 33.26 58.06 31.98 56.78 28.36"/><polygon class="cls-2" points="67.34 20.91 66.46 23.42 63.95 24.31 66.46 25.19 67.34 27.7 68.23 25.19 70.73 24.31 68.23 23.42 67.34 20.91"/></g></g></svg>