<svg xmlns="http://www.w3.org/2000/svg" viewBox="0 0 120 145"><defs><style>.cls-1{fill:#227791;}.cls-2{fill:#20617b;}.cls-3{fill:#fcecdb;}.cls-4{fill:#e3c190;}</style></defs><title>003</title><g id="Capa_2" data-name="Capa 2"><g id="OBJECTS"><polygon class="cls-1" points="60 0 60 145 10.8 113.45 0 28.22 60 0"/><polygon class="cls-2" points="60 0 60 145 109.2 113.45 120 28.22 60 0"/><polygon class="cls-3" points="60 5.53 5.42 31.2 15.47 110.5 60 139.06 60 139.06 60 5.53 60 5.53"/><polygon class="cls-4" points="114.58 31.2 60 5.53 60 139.06 104.53 110.5 114.58 31.2"/><polygon class="cls-1" points="60 8.84 8.67 32.99 18.27 108.73 60 135.5 60 135.5 60 8.84 60 8.84"/><polygon class="cls-2" points="111.33 32.99 60 8.84 60 135.5 101.73 108.73 111.33 32.99"/></g></g></svg>