<svg xmlns="http://www.w3.org/2000/svg" viewBox="0 0 130 145"><defs><style>.cls-1{fill:#227791;}.cls-2{fill:#20617b;}.cls-3{fill:#fcecdb;}.cls-4{fill:#e3c190;}</style></defs><title>004</title><g id="Capa_2" data-name="Capa 2"><g id="OBJECTS"><path class="cls-1" d="M65,145V0H26.29S25.58,21.69,0,29.11c0,0,1.16,45.82,15.74,71.94C32.5,131.09,65,145,65,145Z"/><path class="cls-2" d="M65,145V0h38.71s.71,21.69,26.29,29.11c0,0-1.16,45.82-15.74,71.94C97.5,131.09,65,145,65,145Z"/><path class="cls-3" d="M5.17,32.67C5.8,43.89,8.62,78,20.11,98.62,33.49,122.61,57.92,136,65,139.47V5H30.58C28.92,12.29,23.41,25.92,5.17,32.67Z"/><path class="cls-4" d="M65,139.48c7.08-3.48,31.46-16.79,44.9-40.86,11.46-20.55,14.29-54.73,14.93-65.95C106.59,25.92,101.08,12.29,99.42,5H65V139.47Z"/><path class="cls-1" d="M8.3,34.66c.8,12.15,3.86,43.57,14.42,62.5,12.22,21.88,34,34.69,42.28,39V8H32.9C30.58,16,24.45,27.92,8.3,34.66Z"/><path class="cls-2" d="M65,136.12c8.24-4.24,30-17,42.27-39,10.54-18.9,13.61-50.34,14.42-62.5C105.55,27.91,99.42,16,97.1,8H65V136.11Z"/></g></g></svg>