<svg xmlns="http://www.w3.org/2000/svg" viewBox="0 0 147.16 172.42"><defs><style>.cls-1{fill:#59aa46;}.cls-2{fill:#fff;}.cls-3{fill:#f9f8f7;}</style></defs><title>004</title><g id="Capa_2" data-name="Capa 2"><g id="BACKGROUND"><rect class="cls-1" x="73.06" y="7.16" width="1.04" height="30.12"/><path class="cls-1" d="M75.07,11.27a1.49,1.49,0,1,1-1.49-1.49A1.49,1.49,0,0,1,75.07,11.27Z"/><path class="cls-1" d="M75.65,5.16s-.93,2.17-2.07,2.17-2.07-2.17-2.07-2.17L73.58,0Z"/><rect class="cls-1" x="72.45" y="7.93" width="2.26" height="0.82"/><rect class="cls-1" x="57.1" y="8.74" width="1.04" height="30.12" transform="matrix(0.98, -0.2, 0.2, 0.98, -3.54, 11.7)"/><path class="cls-1" d="M56.94,12.76a1.48,1.48,0,0,1-1.17,1.75,1.49,1.49,0,1,1,1.17-1.75Z"/><path class="cls-1" d="M56.31,6.66S55.83,9,54.71,9.19s-2.45-1.72-2.45-1.72l1-5.47Z"/><rect class="cls-1" x="53.78" y="9.77" width="2.26" height="0.82" transform="translate(-0.93 10.91) rotate(-11.25)"/><rect class="cls-1" x="41.74" y="13.39" width="1.04" height="30.12" transform="translate(-7.67 18.34) rotate(-22.5)"/><path class="cls-1" d="M39.45,17.76a1.49,1.49,0,1,1-2-.81A1.5,1.5,0,0,1,39.45,17.76Z"/><path class="cls-1" d="M37.64,11.9s0,2.36-1.08,2.79-2.73-1.21-2.73-1.21l-.07-5.56Z"/><rect class="cls-1" x="35.82" y="15.22" width="2.26" height="0.82" transform="translate(-3.17 15.33) rotate(-22.5)"/><rect class="cls-1" x="27.6" y="20.96" width="1.04" height="30.12" transform="translate(-15.27 21.69) rotate(-33.75)"/><path class="cls-1" d="M23.27,26.08a1.49,1.49,0,1,1-2.48,1.65,1.49,1.49,0,0,1,2.48-1.65Z"/><path class="cls-1" d="M20.36,20.68s.43,2.32-.52,2.95S16.92,23,16.92,23l-1.15-5.44Z"/><rect class="cls-1" x="19.28" y="24.06" width="2.26" height="0.82" transform="translate(-10.16 15.46) rotate(-33.75)"/><rect class="cls-1" x="15.2" y="31.13" width="1.04" height="30.12" transform="translate(-28.06 24.64) rotate(-45)"/><path class="cls-1" d="M9,37.39a1.49,1.49,0,1,1-2.11,0A1.5,1.5,0,0,1,9,37.39Z"/><path class="cls-1" d="M5.11,32.67s.88,2.18.07,3-3-.07-3-.07L0,30.48Z"/><rect class="cls-1" x="4.77" y="35.97" width="2.26" height="0.82" transform="translate(-23.99 14.82) rotate(-45)"/><rect class="cls-1" x="130.93" y="31.13" width="1.04" height="30.12" transform="translate(71.16 -79.42) rotate(45)"/><path class="cls-1" d="M140.25,39.5a1.49,1.49,0,1,1,0-2.11A1.5,1.5,0,0,1,140.25,39.5Z"/><path class="cls-1" d="M145,35.59s-2.19.88-3,.07.07-3,.07-3l5.11-2.19Z"/><rect class="cls-1" x="140.13" y="35.97" width="2.26" height="0.82" transform="translate(67.1 -89.23) rotate(45)"/><rect class="cls-1" x="118.53" y="20.96" width="1.04" height="30.12" transform="translate(40.07 -60.07) rotate(33.75)"/><path class="cls-1" d="M126.37,27.73a1.49,1.49,0,1,1-.41-2.06A1.47,1.47,0,0,1,126.37,27.73Z"/><path class="cls-1" d="M130.24,23s-2,1.29-2.92.65-.51-2.95-.51-2.95l4.58-3.14Z"/><rect class="cls-1" x="125.63" y="24.06" width="2.26" height="0.82" transform="translate(34.96 -66.3) rotate(33.75)"/><rect class="cls-1" x="104.38" y="13.39" width="1.04" height="30.12" transform="translate(18.87 -37.97) rotate(22.5)"/><path class="cls-1" d="M110.47,18.9a1.49,1.49,0,1,1-.81-1.95A1.5,1.5,0,0,1,110.47,18.9Z"/><path class="cls-1" d="M113.33,13.48s-1.68,1.65-2.73,1.21-1.08-2.79-1.08-2.79l3.88-4Z"/><rect class="cls-1" x="109.08" y="15.22" width="2.26" height="0.82" transform="translate(14.37 -40.98) rotate(22.5)"/><rect class="cls-1" x="89.03" y="8.74" width="1.04" height="30.12" transform="translate(6.36 -17.01) rotate(11.25)"/><path class="cls-1" d="M93.15,13.34A1.49,1.49,0,1,1,92,11.59,1.49,1.49,0,0,1,93.15,13.34Z"/><path class="cls-1" d="M94.9,7.47s-1.33,1.94-2.45,1.72-1.6-2.53-1.6-2.53l3-4.66Z"/><rect class="cls-1" x="91.13" y="9.77" width="2.26" height="0.82" transform="translate(3.76 -17.8) rotate(11.25)"/><path class="cls-2" d="M23,36h0V84.76h0a77.63,77.63,0,0,0,44,70l6.62,3.18,6.62-3.18a77.63,77.63,0,0,0,44-69.95h0V36h0A116.59,116.59,0,0,0,23,36Z"/><path class="cls-3" d="M73.58,159.07l-7.08-3.41a79.11,79.11,0,0,1-44.56-70.9V35.3l.6-.29a117.11,117.11,0,0,1,102.08,0l.6.29V84.76a79.11,79.11,0,0,1-44.56,70.9ZM24.06,36.64V84.76a77,77,0,0,0,43.36,69l6.16,3,6.16-3a77,77,0,0,0,43.36-69V36.64A114.89,114.89,0,0,0,24.06,36.64Z"/><path class="cls-1" d="M69.25,149.93A72.72,72.72,0,0,1,28.3,84.76V39.35a111.37,111.37,0,0,1,90.56,0V84.76a72.72,72.72,0,0,1-40.95,65.17L73.58,152Z"/><path class="cls-1" d="M70.45,170.42l-.77-.73c7.25-7.59,21.12-13.58,24.44-14.77a55.73,55.73,0,0,0,36.15-60l1-.14a56.78,56.78,0,0,1-36.84,61.13C91.41,157,77.49,163.06,70.45,170.42Z"/><path class="cls-1" d="M108.76,158.8a7.28,7.28,0,0,1-3.3,1,11.61,11.61,0,0,1-3.95-.31c-2.72-.82-4.52-2.37-5.15-3.9a7.76,7.76,0,0,1,3-.43,14.8,14.8,0,0,1,7.21,1.8A5.78,5.78,0,0,1,108.76,158.8Z"/><path class="cls-1" d="M99.21,142.79a7.06,7.06,0,0,0-1.75,1.84,12,12,0,0,0-1.38,3.05,9.77,9.77,0,0,0-.4,6.18A6.63,6.63,0,0,0,98,152.09a9.73,9.73,0,0,0,1.62-3.16,8.79,8.79,0,0,0,.4-3.41A6.81,6.81,0,0,0,99.21,142.79Z"/><path class="cls-1" d="M118.76,151.44a7.93,7.93,0,0,1-1.34.93,6.94,6.94,0,0,1-1.69.68,12.09,12.09,0,0,1-4,.39,8.92,8.92,0,0,1-3.59-1,5.77,5.77,0,0,1-2.19-1.85,12.34,12.34,0,0,1,6.64-1.25,15.13,15.13,0,0,1,3.65.63A5.82,5.82,0,0,1,118.76,151.44Z"/><path class="cls-1" d="M106.34,137.53a4.12,4.12,0,0,0-.73.93c-.21.38-.41.8-.61,1.24a11.55,11.55,0,0,0-.82,3.22,16.09,16.09,0,0,0,0,3.46,6.51,6.51,0,0,0,.84,2.7c1.49-.88,2.64-3.11,2.94-5.57a8.77,8.77,0,0,0-.29-3.47A6.69,6.69,0,0,0,106.34,137.53Z"/><path class="cls-1" d="M127.2,142.35a9.19,9.19,0,0,1-2.68,2.14,10.74,10.74,0,0,1-3.84,1.13,9.83,9.83,0,0,1-3.67-.25,5.92,5.92,0,0,1-2.51-1.4,9.67,9.67,0,0,1,2.61-1.58,16.55,16.55,0,0,1,3.67-.92C123.41,141.06,125.86,141.37,127.2,142.35Z"/><path class="cls-1" d="M112.38,131a5.42,5.42,0,0,0-.92,2.37,13.86,13.86,0,0,0-.2,3.31,13.72,13.72,0,0,0,.65,3.45,6.78,6.78,0,0,0,1.33,2.48,5.63,5.63,0,0,0,1.44-2.55,8.79,8.79,0,0,0,.39-3.49A8.15,8.15,0,0,0,112.38,131Z"/><path class="cls-1" d="M133.8,131.84a9.06,9.06,0,0,1-2.28,2.58,9.82,9.82,0,0,1-3.53,1.85c-2.69.8-5,.48-6.38-.46a7.44,7.44,0,0,1,2.26-2c.49-.31,1.06-.57,1.61-.86a13.94,13.94,0,0,1,1.79-.75C129.81,131.28,132.31,131.14,133.8,131.84Z"/><path class="cls-1" d="M117.12,123.51a5.36,5.36,0,0,0-.52,2.48,16.52,16.52,0,0,0,.46,3.3,10,10,0,0,0,3,5.45,6.72,6.72,0,0,0,1-2.77,7.34,7.34,0,0,0,0-1.7,9.93,9.93,0,0,0-.36-1.82A7.9,7.9,0,0,0,117.12,123.51Z"/><path class="cls-1" d="M138.23,120.24a6.42,6.42,0,0,1-.62,1.51,10.32,10.32,0,0,1-1.09,1.47,11.87,11.87,0,0,1-3.09,2.49c-2.51,1.29-4.9,1.4-6.41.73a7.65,7.65,0,0,1,1.9-2.4,13.64,13.64,0,0,1,3-2.24C134.33,120.48,136.61,119.83,138.23,120.24Z"/><path class="cls-1" d="M120.28,115.22a4.48,4.48,0,0,0-.1,1.18,5.9,5.9,0,0,0,.1,1.36,11.83,11.83,0,0,0,1.1,3.16,9.75,9.75,0,0,0,4,4.75,6.74,6.74,0,0,0,.47-2.87,10.61,10.61,0,0,0-1-3.41A7.9,7.9,0,0,0,120.28,115.22Z"/><path class="cls-1" d="M140.4,108a7.73,7.73,0,0,1-1.07,3.25,12.26,12.26,0,0,1-2.62,3,10.18,10.18,0,0,1-1.6,1.1,9,9,0,0,1-1.66.67,5.72,5.72,0,0,1-2.86.17,12.16,12.16,0,0,1,3.95-5.49c.54-.43,1.05-.83,1.55-1.18a11.41,11.41,0,0,1,1.52-.88A5.85,5.85,0,0,1,140.4,108Z"/><path class="cls-1" d="M121.82,106.5a6.46,6.46,0,0,0,.52,2.49,11.26,11.26,0,0,0,1.63,2.89,14.77,14.77,0,0,0,1.18,1.4,11.54,11.54,0,0,0,1.19,1.14,6.67,6.67,0,0,0,2.47,1.37c.48-1.65-.25-4.08-1.71-6.06a7.76,7.76,0,0,0-1.24-1.32,9.25,9.25,0,0,0-1.37-1A6.61,6.61,0,0,0,121.82,106.5Z"/><path class="cls-1" d="M140.23,95.61a8.85,8.85,0,0,1-.44,3.39,11.19,11.19,0,0,1-2,3.46,9.84,9.84,0,0,1-2.82,2.36,5.8,5.8,0,0,1-2.79.71,9.5,9.5,0,0,1,.8-2.93,14.86,14.86,0,0,1,2-3.21C136.6,97.28,138.59,95.82,140.23,95.61Z"/><path class="cls-1" d="M129.83,85.47a8.94,8.94,0,0,1,2.08,2.72,11.32,11.32,0,0,1,1,3.88,9.63,9.63,0,0,1-.35,3.66,5.74,5.74,0,0,1-1.48,2.46,10,10,0,0,1-1.5-2.64,15.36,15.36,0,0,1-.8-3.71C128.43,89.21,128.82,86.78,129.83,85.47Z"/><path class="cls-1" d="M121.7,97.63a5.33,5.33,0,0,0,1,2.36,12.76,12.76,0,0,0,2.12,2.53,13.71,13.71,0,0,0,2.86,2,6.55,6.55,0,0,0,2.67.88,5.57,5.57,0,0,0-.72-2.84,9.31,9.31,0,0,0-2.12-2.79A8.21,8.21,0,0,0,121.7,97.63Z"/><path class="cls-1" d="M68,169.59l2.77,2.83s9.11-11.58,23.52-17C94.3,155.41,78.46,158.68,68,169.59Z"/><path class="cls-1" d="M76.71,170.42c-7-7.36-21-13.41-24-14.51A56.78,56.78,0,0,1,15.84,94.78l1.05.14a55.73,55.73,0,0,0,36.15,60c3.32,1.19,17.19,7.18,24.44,14.77Z"/><path class="cls-1" d="M38.4,158.8a7.28,7.28,0,0,0,3.3,1,11.61,11.61,0,0,0,3.95-.31c2.72-.82,4.52-2.37,5.15-3.9a7.76,7.76,0,0,0-3-.43,14.8,14.8,0,0,0-7.21,1.8A5.78,5.78,0,0,0,38.4,158.8Z"/><path class="cls-1" d="M48,142.79a7.21,7.21,0,0,1,1.74,1.84,12,12,0,0,1,1.38,3.05,9.77,9.77,0,0,1,.4,6.18,6.63,6.63,0,0,1-2.31-1.77,9.73,9.73,0,0,1-1.62-3.16,8.79,8.79,0,0,1-.4-3.41A6.65,6.65,0,0,1,48,142.79Z"/><path class="cls-1" d="M28.4,151.44a7.93,7.93,0,0,0,1.34.93,6.94,6.94,0,0,0,1.69.68,12.09,12.09,0,0,0,4,.39,8.92,8.92,0,0,0,3.59-1,5.77,5.77,0,0,0,2.19-1.85,12.34,12.34,0,0,0-6.64-1.25,15.13,15.13,0,0,0-3.65.63A5.82,5.82,0,0,0,28.4,151.44Z"/><path class="cls-1" d="M40.82,137.53a4.12,4.12,0,0,1,.73.93c.21.38.41.8.61,1.24a11.55,11.55,0,0,1,.82,3.22,16.09,16.09,0,0,1,0,3.46,6.51,6.51,0,0,1-.84,2.7c-1.49-.88-2.64-3.11-2.94-5.57a8.77,8.77,0,0,1,.29-3.47A6.83,6.83,0,0,1,40.82,137.53Z"/><path class="cls-1" d="M20,142.35a9.19,9.19,0,0,0,2.68,2.14,10.74,10.74,0,0,0,3.84,1.13,9.83,9.83,0,0,0,3.67-.25,5.92,5.92,0,0,0,2.51-1.4,9.67,9.67,0,0,0-2.61-1.58,16.55,16.55,0,0,0-3.67-.92C23.75,141.06,21.3,141.37,20,142.35Z"/><path class="cls-1" d="M34.78,131a5.42,5.42,0,0,1,.92,2.37,13.88,13.88,0,0,1-.45,6.76,6.64,6.64,0,0,1-1.33,2.48,5.63,5.63,0,0,1-1.44-2.55,8.62,8.62,0,0,1-.38-3.49A8.1,8.1,0,0,1,34.78,131Z"/><path class="cls-1" d="M13.37,131.84a8.86,8.86,0,0,0,2.27,2.58,9.82,9.82,0,0,0,3.53,1.85c2.69.8,5,.48,6.38-.46a7.32,7.32,0,0,0-2.26-2c-.49-.31-1.06-.57-1.61-.86a13.94,13.94,0,0,0-1.79-.75C17.35,131.28,14.85,131.14,13.37,131.84Z"/><path class="cls-1" d="M30,123.51a5.36,5.36,0,0,1,.52,2.48,16.52,16.52,0,0,1-.46,3.3,10,10,0,0,1-3.05,5.45A6.87,6.87,0,0,1,26.1,132a7.34,7.34,0,0,1,0-1.7,9.93,9.93,0,0,1,.36-1.82A7.9,7.9,0,0,1,30,123.51Z"/><path class="cls-1" d="M8.93,120.24a6.42,6.42,0,0,0,.62,1.51,10.32,10.32,0,0,0,1.09,1.47,11.87,11.87,0,0,0,3.09,2.49c2.51,1.29,4.9,1.4,6.41.73a7.5,7.5,0,0,0-1.9-2.4,13.64,13.64,0,0,0-3-2.24C12.83,120.48,10.55,119.83,8.93,120.24Z"/><path class="cls-1" d="M26.88,115.22A4.93,4.93,0,0,1,27,116.4a6.55,6.55,0,0,1-.11,1.36,11.83,11.83,0,0,1-1.1,3.16,9.75,9.75,0,0,1-4,4.75,6.74,6.74,0,0,1-.47-2.87,10.61,10.61,0,0,1,1-3.41A7.9,7.9,0,0,1,26.88,115.22Z"/><path class="cls-1" d="M6.76,108a7.73,7.73,0,0,0,1.07,3.25,12.26,12.26,0,0,0,2.62,3,10.18,10.18,0,0,0,1.6,1.1,9,9,0,0,0,1.66.67,5.72,5.72,0,0,0,2.86.17,12.09,12.09,0,0,0-4-5.49c-.54-.43-1-.83-1.55-1.18a11.41,11.41,0,0,0-1.52-.88A5.85,5.85,0,0,0,6.76,108Z"/><path class="cls-1" d="M25.34,106.5a6.28,6.28,0,0,1-.52,2.49,11.26,11.26,0,0,1-1.63,2.89,14.77,14.77,0,0,1-1.18,1.4,11.54,11.54,0,0,1-1.19,1.14,6.6,6.6,0,0,1-2.47,1.37c-.48-1.65.26-4.08,1.71-6.06a8.18,8.18,0,0,1,1.24-1.32,9.25,9.25,0,0,1,1.37-1A6.61,6.61,0,0,1,25.34,106.5Z"/><path class="cls-1" d="M6.93,95.61A8.85,8.85,0,0,0,7.37,99a11.4,11.4,0,0,0,2,3.46,9.84,9.84,0,0,0,2.82,2.36,5.8,5.8,0,0,0,2.79.71,9.75,9.75,0,0,0-.79-2.93,15.32,15.32,0,0,0-2-3.21C10.56,97.28,8.57,95.82,6.93,95.61Z"/><path class="cls-1" d="M17.33,85.47a8.94,8.94,0,0,0-2.08,2.72,11.32,11.32,0,0,0-1,3.88,9.84,9.84,0,0,0,.35,3.66,5.74,5.74,0,0,0,1.48,2.46,10,10,0,0,0,1.5-2.64,15.36,15.36,0,0,0,.8-3.71C18.73,89.21,18.35,86.78,17.33,85.47Z"/><path class="cls-1" d="M25.46,97.63a5.33,5.33,0,0,1-1,2.36,12.76,12.76,0,0,1-2.12,2.53,13.92,13.92,0,0,1-2.85,2,6.63,6.63,0,0,1-2.68.88,5.67,5.67,0,0,1,.72-2.84,9.48,9.48,0,0,1,2.12-2.79A8.21,8.21,0,0,1,25.46,97.63Z"/><path class="cls-1" d="M79.15,169.59l-2.77,2.83s-9.11-11.58-23.52-17C52.86,155.41,68.7,158.68,79.15,169.59Z"/><g id="_Grupo_" data-name="&lt;Grupo&gt;"><path class="cls-3" d="M73.58,84.76V152l-4.32-2.08a72.73,72.73,0,0,1-41-65.17Z"/><path class="cls-3" d="M118.87,39.35V84.76H73.58v-55A112.26,112.26,0,0,1,118.87,39.35Z"/><rect class="cls-3" x="73.05" y="29.73" width="1.06" height="122.28"/><rect class="cls-3" x="28.3" y="84.23" width="90.57" height="1.06"/><path class="cls-3" d="M73.58,153.18l-4.78-2.29A73.8,73.8,0,0,1,27.24,84.76V38.67l.63-.29a112.47,112.47,0,0,1,91.43,0l.63.28v46.1a73.82,73.82,0,0,1-41.56,66.13ZM29.36,40.05V84.76A71.65,71.65,0,0,0,69.72,149l3.86,1.86L77.45,149a71.65,71.65,0,0,0,40.36-64.21V40.05a110.24,110.24,0,0,0-88.45,0Z"/></g><circle class="cls-1" cx="73.58" cy="84.76" r="20.41"/><path class="cls-3" d="M73.58,106.23A21.48,21.48,0,1,1,95.06,84.76,21.49,21.49,0,0,1,73.58,106.23Zm0-40.83A19.36,19.36,0,1,0,92.94,84.76,19.37,19.37,0,0,0,73.58,65.4Z"/><rect class="cls-3" x="74.73" y="80.12" width="0.93" height="27.08" transform="translate(88.24 -25.74) rotate(45)"/><path class="cls-3" d="M83.11,87.64a1.34,1.34,0,1,1,0-1.9A1.35,1.35,0,0,1,83.11,87.64Z"/><path class="cls-3" d="M87.35,84.12s-2,.79-2.69.07.07-2.69.07-2.69l4.59-2Z"/><rect class="cls-3" x="83.01" y="84.46" width="2.03" height="0.74" transform="translate(84.6 -34.56) rotate(45)"/><rect class="cls-3" x="71.5" y="80.12" width="0.93" height="27.08" transform="translate(189.08 108.99) rotate(135)"/><path class="cls-3" d="M64.05,87.64a1.34,1.34,0,1,0,0-1.9A1.35,1.35,0,0,0,64.05,87.64Z"/><path class="cls-3" d="M59.81,84.12s2,.79,2.69.07-.07-2.69-.07-2.69l-4.59-2Z"/><rect class="cls-3" x="62.13" y="84.46" width="2.03" height="0.74" transform="translate(167.77 100.17) rotate(135)"/><polygon class="cls-3" points="73.58 71.64 75.54 77.67 81.88 77.67 76.75 81.39 78.71 87.42 73.58 83.69 68.45 87.42 70.41 81.39 65.28 77.67 71.62 77.67 73.58 71.64"/><polygon class="cls-2" points="73.58 76.36 74.43 78.98 77.19 78.98 74.96 80.6 75.81 83.23 73.58 81.61 71.35 83.23 72.2 80.6 69.97 78.98 72.73 78.98 73.58 76.36"/><g id="_Grupo_2" data-name="&lt;Grupo&gt;"><path class="cls-3" d="M40.14,48.51c-.18.29-2,3.35-.74,8.74,1.31,5.65,4.7,7.06,4.7,7.06s-6.7,4-8.49-2.31C33.86,55.87,39.81,48.89,40.14,48.51Z"/><path class="cls-3" d="M54.8,48.51c.33.38,6.28,7.36,4.52,13.49-1.8,6.31-8.5,2.31-8.5,2.31s3.4-1.41,4.72-7.06C56.81,51.86,55,48.8,54.8,48.51Z"/><path class="cls-3" d="M47.46,66.79h2.47a5.76,5.76,0,0,1-2.47,4.12A5.81,5.81,0,0,1,45,66.79Z"/><polygon class="cls-3" points="47.46 63.25 49.93 63.25 49.93 65.57 47.46 65.57 44.99 65.57 44.99 63.25 47.46 63.25"/><path class="cls-3" d="M47.46,41.83c2.76,3.87,5.12,9.73,4.92,11.15s-2.45,6-2.45,7.65v1.71H45V60.65c0-1.71-2.26-6.25-2.46-7.67S44.72,45.7,47.46,41.83Z"/></g><polygon class="cls-1" points="108.95 54.32 106.91 50.58 105.14 53.8 100 53.8 100 48.66 103.22 46.89 99.48 44.84 97.43 41.1 95.38 44.84 91.64 46.89 94.86 48.66 94.86 53.8 89.72 53.8 87.95 50.58 85.91 54.32 82.16 56.37 85.91 58.42 87.95 62.16 89.72 58.93 94.86 58.93 94.86 64.08 91.64 65.84 95.38 67.89 97.43 71.64 99.48 67.89 103.22 65.84 100 64.08 100 58.93 105.14 58.93 106.91 62.16 108.95 58.42 112.7 56.37 108.95 54.32"/><g id="_Grupo_3" data-name="&lt;Grupo&gt;"><path class="cls-3" d="M100.9,105.34c.15.25,1.75,2.91.64,7.6-1.15,4.92-4.1,6.15-4.1,6.15s5.84,3.48,7.39-2C106.36,111.74,101.18,105.66,100.9,105.34Z"/><path class="cls-3" d="M88.13,105.34c-.29.32-5.47,6.4-3.94,11.73,1.57,5.5,7.4,2,7.4,2s-3-1.23-4.11-6.15C86.38,108.25,88,105.59,88.13,105.34Z"/><path class="cls-3" d="M94.52,121.25H92.37a5,5,0,0,0,2.15,3.58,5.1,5.1,0,0,0,2.15-3.58Z"/><polygon class="cls-3" points="94.52 118.17 92.37 118.17 92.37 120.18 94.52 120.18 96.67 120.18 96.67 118.17 94.52 118.17"/><path class="cls-3" d="M94.52,99.51c-2.4,3.38-4.45,8.47-4.28,9.71s2.13,5.19,2.13,6.67v1.49h4.3V115.9c0-1.49,2-5.44,2.13-6.68S96.9,102.89,94.52,99.51Z"/></g><polygon class="cls-1" points="40.79 110.39 42.57 107.13 44.11 109.94 48.59 109.94 48.59 105.46 45.78 103.92 49.04 102.14 50.82 98.88 52.6 102.14 55.86 103.92 53.05 105.46 53.05 109.94 57.53 109.94 59.07 107.13 60.85 110.39 64.11 112.17 60.85 113.95 59.07 117.22 57.53 114.41 53.05 114.41 53.05 118.89 55.86 120.42 52.6 122.21 50.82 125.47 49.04 122.21 45.78 120.42 48.59 118.89 48.59 114.41 44.11 114.41 42.57 117.22 40.79 113.95 37.53 112.17 40.79 110.39"/></g></g></svg>