<svg xmlns="http://www.w3.org/2000/svg" viewBox="0 0 123.16 157.69"><defs><style>.cls-1{isolation:isolate;}.cls-2{fill:#3d4f53;}.cls-3{fill:#77823c;}.cls-4{fill:#f8f6e4;}.cls-5{fill:#e8dbc4;mix-blend-mode:multiply;}</style></defs><title>004</title><g class="cls-1"><g id="Capa_2" data-name="Capa 2"><g id="OBJECT"><path class="cls-2" d="M123.16,6.17A310.26,310.26,0,0,0,0,6.17V60.32a108.15,108.15,0,0,0,61.58,97.37h0a108.15,108.15,0,0,0,61.58-97.37V6.17Z"/><path class="cls-3" d="M61.58,151.07a102.9,102.9,0,0,1-39.85-36.45A101.45,101.45,0,0,1,6,60.32V11a304.5,304.5,0,0,1,111.21,0V60.32a101.46,101.46,0,0,1-15.76,54.3A102.76,102.76,0,0,1,61.58,151.07Z"/><path class="cls-2" d="M61.58,5.92V151.07a102.76,102.76,0,0,0,39.85-36.45,101.46,101.46,0,0,0,15.76-54.3V11A305.13,305.13,0,0,0,61.58,5.92Z"/><path class="cls-4" d="M90.92,117.53,76.25,130.66,61.58,117.53,46.91,130.66,32.24,117.53,27,122.2a103.11,103.11,0,0,0,34.55,28.87A103,103,0,0,0,96.13,122.2Z"/><path class="cls-4" d="M37.14,49.3a.43.43,0,0,0,.06-.22C37.19,49.15,37.16,49.22,37.14,49.3Z"/><path class="cls-4" d="M38.68,93.38a1.89,1.89,0,0,0-.79.26,9,9,0,0,1-3.7.89,2.53,2.53,0,0,1,2.19-2c1-.2,2.12-.07,3.16-.28.41-.09.89-.32.91-.74a.89.89,0,0,0-.19-.54,5,5,0,0,0-3.47-1.68.86.86,0,0,1,.32-1.25,2.21,2.21,0,0,1,1.46-.12c2.27.36,4.51,1.35,6.8,1a1.19,1.19,0,0,0,1.05-.6c.35-.9-1.34-1.74-.88-2.59a2,2,0,0,0,2.32.44,1.06,1.06,0,0,0,.63-.58c.21-.53-.21-1.08-.45-1.6-.69-1.43-.06-3.11.57-4.56a4.61,4.61,0,0,1,1.6-2.29,3.9,3.9,0,0,1,1.72-.46,43,43,0,0,1,5.89.27,3.54,3.54,0,0,0,1.91-.29,1.29,1.29,0,0,0,.58-1.66,11.53,11.53,0,0,1-7.46-7.3c-.72.43-1.48,1-2.2,1.44a1.62,1.62,0,0,0-.53.44c-.38.56.37,1.44,1,1.15a3.34,3.34,0,0,1-3,.38c-.67-.25-1.37-.72-2-.47a1,1,0,0,0,.63,2c-.52.71-1.62.49-2.43.14s-1.83-.72-2.51-.16-.48,1.73-.87,2.57c-.11.24-.41.48-.61.3s-.09-.38-.1-.58c0-.65-1-.79-1.54-.41a7.41,7.41,0,0,0-1.13,1.56.78.78,0,0,1-.43.33c-.39.09-.72-.37-.7-.77a4.27,4.27,0,0,1,.36-1.15,1,1,0,0,0-.24-1.11,1.22,1.22,0,0,0-.94,0l-3.47,1a3,3,0,0,1,1.48-2.56c.85-.59,1.85-.92,2.74-1.45a1.21,1.21,0,0,0,.47-.4c.31-.48,0-1.1-.33-1.57l-1.26-1.89c-.32-.48-.65-1.11-.35-1.61s1.27-.45,1.76,0a17.58,17.58,0,0,1,1.19,1.64,3.58,3.58,0,0,0,3.75.88,7.39,7.39,0,0,0,3.28-2.36c.9-1,1.67-2.15,2.64-3.11a6.64,6.64,0,0,0-2.39-3c-1-.55-2.58-.2-2.88.92-.08-1,.45-1.92.5-2.9a3,3,0,0,0-.86-2.23,1,1,0,0,0-.5-.32.83.83,0,0,0-.85.5,2.4,2.4,0,0,0-.18,1A2.41,2.41,0,0,1,40,53.5a4.49,4.49,0,0,0,.39-2.6.47.47,0,0,0-.15-.24.45.45,0,0,0-.46,0,1.77,1.77,0,0,0-.86,1.14c-.46-1.25,1-2.56.64-3.84a.7.7,0,0,0-.17-.33c-.34-.33-.9,0-1.22.39s-.88.72-1.23.39-.15-.66,0-1c.24-.65.47-1.3.7-1.94,0-.11.07-.23,0-.32a.37.37,0,0,0-.34-.1l-2.18.12a2.2,2.2,0,0,1-1.17-.15.76.76,0,0,1-.4-1,1.09,1.09,0,0,1,.71-.43l3.32-1a4.93,4.93,0,0,0-1.4-2,2.72,2.72,0,0,1-.85-2.2l5.08,2.37a.83.83,0,0,0,.57.1.77.77,0,0,0,.37-.44c.52-1.1,1-2.2,1.57-3.29a1.51,1.51,0,0,1,.78,1.49,9.77,9.77,0,0,1-.38,1.75c-.58,2.6.82,5.2,2.22,7.47A17.34,17.34,0,0,0,48,51.23a6.31,6.31,0,0,0,3.68,1.89c1.71.16,3.49-.6,5.12,0a1.82,1.82,0,0,0,0-2.14c-.19-.2-.45-.36-.48-.63s.31-.57.63-.67a8.86,8.86,0,0,1,2-.17c.2,0,.4-.06.6-.1a5,5,0,0,1-1-.15,3.09,3.09,0,0,0-2.12,0,1.71,1.71,0,0,1,.89-.6c-1-.41-2.07.57-3.06.22a3.13,3.13,0,0,1-.66-.38,3.59,3.59,0,0,0-2.4-.48,2.38,2.38,0,0,1,1.18-.4,2.07,2.07,0,0,0-1.73-.37,11.06,11.06,0,0,1-1.8.29,1.55,1.55,0,0,1-1.49-.86,2.82,2.82,0,0,0,2.47-.55,1.27,1.27,0,0,0-.83-.19,2.51,2.51,0,0,1,2.42,0c.4.22.83.58,1.27.42l-.92-.83c1,0,1.8,1,2.78.88-.21-.12-.42-.24-.64-.35a4.94,4.94,0,0,1,1.82.46,2.25,2.25,0,0,0,1.83,0l-.88-.23a2.3,2.3,0,0,1,1.93.23,8.86,8.86,0,0,0,2.21.56,1.83,1.83,0,0,0-.51-.69,3.33,3.33,0,0,0-2.5-.58c-.5.06-1,.18-1.5.19-1.45,0-4.06-2-2.89-3.61a1.61,1.61,0,0,0,1.44.34c1.36-.27,2.14-1.53,2.8-2.64a7.4,7.4,0,0,1,1.52-2,7.3,7.3,0,0,1,3.11-1.27,1.73,1.73,0,0,0-.8,2l2-.67a9.58,9.58,0,0,1,1.57-.42,4.45,4.45,0,0,1,2.92.61,1.56,1.56,0,0,0-1.19,1.07A3.76,3.76,0,0,0,66.66,41a.6.6,0,0,0,.1.32.47.47,0,0,0,.22.17c.71.32,1.5-.18,2.12-.65a9.52,9.52,0,0,1-.9,4.8c-.25.5-.55,1-.75,1.5a4.61,4.61,0,0,0,1.42,5.16c-1,.6-2.3,1.57-2.54,2.73a4,4,0,0,0,0,1c0,.41,0,.82,0,1.23a3.75,3.75,0,0,0,.42,1.87,1.3,1.3,0,0,0,1.67.55c0,.58-.69.94-1.25,1.1a5.79,5.79,0,0,0-1.66.49,2.63,2.63,0,0,0-.81.91,3.14,3.14,0,0,0-.54,2,3.05,3.05,0,0,0,.44,1.15,2,2,0,0,0,.47.61,2.42,2.42,0,0,0,2.2.07,9.4,9.4,0,0,0-.36,3.24,9,9,0,0,0,.9,2.7c.53,1.15,1.08,2.3,1.65,3.43a8.16,8.16,0,0,0,2.1,3,4.57,4.57,0,0,0,4,.76,5.18,5.18,0,0,0,3.15-2.63,3,3,0,0,0,.37-1.73c-.16-1-1.08-1.77-1.7-2.62a5,5,0,0,1-1-2.59,10.69,10.69,0,0,0,1.18.69,3,3,0,0,0,1,.43,1.05,1.05,0,0,0,1.29-1.3,3.21,3.21,0,0,0-.41-1A18.23,18.23,0,0,1,78.29,66,4.51,4.51,0,0,1,78,63.36a2.61,2.61,0,0,0,1.14,1,.92.92,0,0,0,.53.14c.38,0,.6-.47.67-.85A4.78,4.78,0,0,0,80,61.05c-.3-.82-.72-1.6-1-2.43a9.38,9.38,0,0,1-.54-3.6c.22.34.57.48.84.79a1.53,1.53,0,0,0,1.17.66c.55,0,.9-.62,1.06-1.15A4.37,4.37,0,0,0,81,51.86a11.46,11.46,0,0,1-1.69-2.56,1.26,1.26,0,0,0,1.47.27,2,2,0,0,0,.79-1.43,4.36,4.36,0,0,0-.43-3,2.46,2.46,0,0,0-2.64-1.19A2.92,2.92,0,0,0,77,45.14a8.4,8.4,0,0,0-1.22,4.51,41.47,41.47,0,0,1-.17,4.74,6.85,6.85,0,0,0-.15,2.38,7,7,0,0,0,1.09,2A2.82,2.82,0,0,1,77.1,61c-.24-.18-.32-.66-.44-.94s-.33-.56-.63-.58a.83.83,0,0,0-.58.27,3.09,3.09,0,0,0-1.13,2.14A7.33,7.33,0,0,0,75,64.46a7.26,7.26,0,0,1,.09,4.23,4.51,4.51,0,0,0-.93-2.87A14.65,14.65,0,0,1,72.6,63.3c-.95-2.38.24-5,.72-7.53a31.87,31.87,0,0,0,.28-6.33,18.73,18.73,0,0,1,.7-6.29,7.31,7.31,0,0,1,4-4.63,4.09,4.09,0,0,1,3.22,0,4.32,4.32,0,0,1,2.13,2.74,12.85,12.85,0,0,1,.38,3.55c0,3.85.09,7.7.14,11.54a5.51,5.51,0,0,1-.06,1.15c-.09.48.28,1.18.24,1.67V73a15.41,15.41,0,0,1-1.86,7.44,4.77,4.77,0,0,1-.34.57,6.75,6.75,0,0,1-2.94,2.69,7.26,7.26,0,0,1-4.56-.08A25.66,25.66,0,0,1,69,81.37,21.46,21.46,0,0,0,68.63,87,4.75,4.75,0,0,0,69,88.9a1.93,1.93,0,0,0,1.41,1.16c.76.1,1.53-.4,2.28-.2A2.18,2.18,0,0,1,74,91.4a5.06,5.06,0,0,0,.86,1.9c.48.51,1.44.65,1.82.06,0,.67.34,1.25,0,1.84a2.22,2.22,0,0,1-1.57,1.18c-.5.07-1-.07-1.54,0s-1,.49-.94,1a1,1,0,0,0,.73.68,2.82,2.82,0,0,0,2-.05c.07.62-.52,1.09-1.06,1.41a3.15,3.15,0,0,1-1,.44,4.24,4.24,0,0,1-1.33,0,2.39,2.39,0,0,0-1.3.17,1,1,0,0,0-.51,1.11,1.35,1.35,0,0,0,1.09.66,2.8,2.8,0,0,0,1.94-.13,2.54,2.54,0,0,1-1.62,1.29,7.88,7.88,0,0,1-3.06.16A6.32,6.32,0,0,1,72,105.77a23,23,0,0,1-4.28-.79q-1,2.77-1.91,5.55a.48.48,0,0,1-.17.26c-.23.13-.45-.17-.54-.42l-1.29-3.62a6.25,6.25,0,0,0-1.24,1.71,6.63,6.63,0,0,1-4.61,3,18.19,18.19,0,0,1,1.93-4.71,17.59,17.59,0,0,0-6.77,1.53c-.09-1.29,1-2.4,2-3.1a10,10,0,0,1,4.18-1.51c.36,0,.83-.18.83-.54s-.27-.43-.51-.54a9.74,9.74,0,0,0-3.82-.88,1.48,1.48,0,0,1,.65-1.35A3.24,3.24,0,0,1,58,99.82a7.44,7.44,0,0,1,2.16,0c1.61.27,3.2,1.08,4.81.76.2-1.06.51-2.38.72-3.44a6.76,6.76,0,0,0,.17-2.1,2.28,2.28,0,0,0-1.06-1.74A2.51,2.51,0,0,0,63,93.23c-.59.14-1.16.4-1.75.55a5.87,5.87,0,0,1-2.09.12c.29-.18.42-.48.68-.69a3.56,3.56,0,0,0,1.24-1.75,2.08,2.08,0,0,0-.46-2c-.62-.61-1.71-.75-2-1.56A1.77,1.77,0,0,0,61,87.52a2.48,2.48,0,0,0,.44-2.42A2.54,2.54,0,0,0,60,83.45a2.71,2.71,0,0,0-2.6.56,6.71,6.71,0,0,0-1.62,2.24,2.52,2.52,0,0,0-.37,1.4,2.64,2.64,0,0,0,1.08,1.52,2.37,2.37,0,0,0-1.9,1.58A1.48,1.48,0,0,0,54.72,92a.91.91,0,0,0,1.18.28,4.15,4.15,0,0,1-3.27,1.19c-.92,0-2-.13-2.56.64-.69,1,.38,2.32.24,3.53-1.36-.24-1.72-2.48-3.1-2.54a1.94,1.94,0,0,0-1.59,1.12A6.94,6.94,0,0,1,44.54,98a.67.67,0,0,1-.3.18c-.33.06-.56-.34-.56-.68a3.67,3.67,0,0,0,.06-1,1.06,1.06,0,0,0-1-.74,2.47,2.47,0,0,0-1.24.3A7.62,7.62,0,0,0,39,98c-.47.55-1,1.22-1.68,1.28-.23-1.8.75-3.52,1.78-5a.77.77,0,0,0,.18-.4C39.27,93.6,39,93.39,38.68,93.38Z"/><path class="cls-5" d="M123.16,6.17A310.55,310.55,0,0,0,61.58,0V157.69h0a108.15,108.15,0,0,0,61.58-97.37V6.17Z"/></g></g></g></svg>