<svg xmlns="http://www.w3.org/2000/svg" viewBox="0 0 120 145"><defs><style>.cls-1{fill:#227791;}.cls-2{fill:#20617b;}.cls-3{fill:#fcecdb;}.cls-4{fill:#e3c190;}</style></defs><title>005</title><g id="Capa_2" data-name="Capa 2"><g id="OBJECTS"><path class="cls-1" d="M9.08,22C9.87,32.5,0,37.86,0,37.86S5.72,50.18,5.72,72.5s6.71,37.5,19.35,48.93S60,145,60,145V0A88.74,88.74,0,0,1,32.89,16,112.23,112.23,0,0,1,9.08,22Z"/><path class="cls-2" d="M110.92,22c-.79,10.54,9.08,15.9,9.08,15.9s-5.72,12.32-5.72,34.64-6.71,37.5-19.35,48.93S60,145,60,145V0A88.74,88.74,0,0,0,87.11,16,112.08,112.08,0,0,0,110.92,22Z"/><path class="cls-3" d="M13.89,26.29A22.32,22.32,0,0,1,6,39.67c1.84,5.52,4.7,16.73,4.7,32.83,0,19.93,5.63,34.3,17.7,45.22C38.09,126.47,54,135.85,60,139.27V6.5A95.16,95.16,0,0,1,34.59,20.7,126.09,126.09,0,0,1,13.89,26.29Z"/><path class="cls-4" d="M60,139.27c6-3.42,21.91-12.8,31.58-21.55,12.07-10.92,17.7-25.29,17.7-45.22,0-16.1,2.87-27.31,4.7-32.83a22.32,22.32,0,0,1-7.87-13.38,126.09,126.09,0,0,1-20.7-5.59A95.16,95.16,0,0,1,60,6.5h0V139.27Z"/><path class="cls-1" d="M16.42,28.87a25.12,25.12,0,0,1-7,11.72A112,112,0,0,1,13.72,72.5c0,19,5.31,32.68,16.71,43,8.71,7.87,22.64,16.31,29.57,20.31V10.27A98.05,98.05,0,0,1,35.61,23.52,130.37,130.37,0,0,1,16.42,28.87Z"/><path class="cls-2" d="M60,135.81c6.93-4,20.86-12.44,29.57-20.31,11.4-10.32,16.71-24,16.71-43a112,112,0,0,1,4.26-31.91,25.12,25.12,0,0,1-7-11.72,130.37,130.37,0,0,1-19.19-5.35A98.05,98.05,0,0,1,60,10.27h0V135.81Z"/></g></g></svg>