<svg xmlns="http://www.w3.org/2000/svg" viewBox="0 0 122.32 158.21"><defs><style>.cls-1{isolation:isolate;}.cls-2{fill:#00627d;}.cls-3{fill:#ffde75;}.cls-4{fill:#e8dbc4;mix-blend-mode:multiply;}</style></defs><title>005</title><g class="cls-1"><g id="Capa_2" data-name="Capa 2"><g id="OBJECT"><path class="cls-2" d="M122.32,6.19A305.36,305.36,0,0,0,0,6.19V60.52a108.6,108.6,0,0,0,61.16,97.69h0a108.6,108.6,0,0,0,61.16-97.69V6.19Z"/><path class="cls-3" d="M61.16,151.57a102.68,102.68,0,0,1-55.23-91V11.07a299.82,299.82,0,0,1,110.45,0V60.52a102.64,102.64,0,0,1-55.22,91Z"/><polygon class="cls-2" points="15.05 12.05 3.52 30.25 15.05 48.46 26.58 30.25 15.05 12.05"/><polygon class="cls-2" points="38.1 12.05 26.58 30.25 38.1 48.46 49.63 30.25 38.1 12.05"/><polygon class="cls-2" points="61.16 12.05 49.63 30.25 61.16 48.46 72.69 30.25 61.16 12.05"/><polygon class="cls-2" points="84.21 12.05 72.69 30.25 84.21 48.46 95.74 30.25 84.21 12.05"/><polygon class="cls-2" points="107.27 12.05 95.74 30.25 107.27 48.46 118.8 30.25 107.27 12.05"/><path class="cls-2" d="M1.92,52.75C2.22,72.87,8,97.13,18.68,114.21a110.21,110.21,0,0,0,42.48,39.25,110.11,110.11,0,0,0,42.47-39.25c10.7-17.08,16.47-41.34,16.77-61.46Z"/><path class="cls-3" d="M25.58,90.28a9.21,9.21,0,0,0-5,.79,4.31,4.31,0,0,0-1.53,1,4.84,4.84,0,0,0-.7,1.18,12.34,12.34,0,0,0-1,3.42c.77-.68,1.56-1.3,2.32-2a5.14,5.14,0,0,1,1.71-1.16,5.16,5.16,0,0,1,2.41-.06,6.36,6.36,0,0,1,1.88.44c.4.19.77.45,1.17.65a3.64,3.64,0,0,0,1.95.36c-2.24,1.57-5.44.65-7.7,2.18A3.87,3.87,0,0,0,19.46,100c-.11,1.23.37,2.45.25,3.68-.19,2-1.84,3.43-3.36,4.68A9.79,9.79,0,0,0,22.09,106a4,4,0,0,1,.1,3.2A12.3,12.3,0,0,1,20.34,112a7.25,7.25,0,0,0,3.29-1.81,4.16,4.16,0,0,0,1.55-3,16.63,16.63,0,0,0-.28-2.22,6.61,6.61,0,0,1,2.69-6,5.89,5.89,0,0,0,.3,4.79,4.4,4.4,0,0,1,1.76-3.75,32.64,32.64,0,0,0,3.29-2.78,12.23,12.23,0,0,0,1.94-3.7,13.06,13.06,0,0,1,1.89-3.72A4.31,4.31,0,0,1,40.4,88c-1.57,1-2.1,2.89-2.19,4.74s.22,3.72,0,5.56a9.19,9.19,0,0,1-1.45,3.8,4,4,0,0,1-2.34,1.82,10.79,10.79,0,0,0-1.16.19,2.21,2.21,0,0,0-1.3,1.7A6.39,6.39,0,0,0,32,108a18.44,18.44,0,0,1,.27,4c0,.63-.07,1.25-.1,1.88a29.48,29.48,0,0,1-.58,5.22,17.57,17.57,0,0,0-3.19-.74,1.86,1.86,0,0,0-.78,0,1.93,1.93,0,0,0-.73.43,11.82,11.82,0,0,0-3.82,4.33,1,1,0,0,0,0,.95,1.1,1.1,0,0,0,.63.35,42.44,42.44,0,0,0,4.18,1,1.74,1.74,0,0,0,.75,0,1.81,1.81,0,0,0,.52-.26c1.64-1.07,3.23-2.22,4.77-3.43A3.63,3.63,0,0,0,35,120.6a4.07,4.07,0,0,0,.26-1.47,32,32,0,0,1,.72-5l7.1-.2a2.18,2.18,0,0,1,1,.13,1.73,1.73,0,0,1,.64.59,4.45,4.45,0,0,1,.82,2.07c-.69.31-1.48.55-2.17.86a1.28,1.28,0,0,0-.52.36,1.16,1.16,0,0,0,0,1,20.81,20.81,0,0,0,2.23,4.75c.1.16.24.34.43.32s.25-.12.35-.23l1.84-2.13a7.81,7.81,0,0,0,1.38-2,5.63,5.63,0,0,0,.43-2.34,10,10,0,0,0-2.85-6.69,12.9,12.9,0,0,0-6.46-3.52c2-1,4.31-1.62,6.13-2.94s2.71-3.68,3.47-5.86c1.59-.14,3.2.78,4.59,1.55a55,55,0,0,0,8.81,3.91c2.46.85,5.16,1.51,7.61.64a11.13,11.13,0,0,0,2.29,1.65,2.61,2.61,0,0,0,2.23.34c1.22-.45,1.66-1.9,2.49-2.9a8.17,8.17,0,0,1,1.57-1.36l.17-.12c1,1,2.55,2.44,3.56,3.41a2.48,2.48,0,0,1-.35.64,3.59,3.59,0,0,1-1.1.79,17.46,17.46,0,0,0-3.84,2.88c.13-.84-.78-1.64-1.62-1.71a4.18,4.18,0,0,0-2.38.76c-.62.36-1.22.75-1.81,1.17a3.51,3.51,0,0,0-1,1,1.33,1.33,0,0,0-.06,1.37,2,2,0,0,0,1.28.68A43.3,43.3,0,0,0,77,114a2.12,2.12,0,0,0,.94,0,2.61,2.61,0,0,0,.82-.58c2.07-1.79,5.29-2.29,6.64-4.67l.11-.24c.48.57,1,1.15,1.43,1.73a19.71,19.71,0,0,0,2.09,2.29,6.57,6.57,0,0,1,1.29,1.29,1.57,1.57,0,0,1,.1,1.72,3.89,3.89,0,0,1-.92.74,1,1,0,0,0-.48,1,1.18,1.18,0,0,0,.34.46,16.23,16.23,0,0,0,4.41,3c.37.17.84.31,1.13,0a1,1,0,0,0,.21-.7,24.67,24.67,0,0,0-.86-7.6,4.29,4.29,0,0,0-.56-1.36,6.81,6.81,0,0,0-1.67-1.49A16,16,0,0,1,87.53,103c.91-2.07,2-4.09,2.93-6.14a.88.88,0,0,0-.08-1.09c-.72-1.09-1.61-2.29-2.91-2.4a4.47,4.47,0,0,0-1.86.39l-3,1.1c.92-4.06,1.53-8.41,2.45-12.47a10.91,10.91,0,0,1,.81-2.58c.84-1.68,2.46-2.83,3.48-4.4a9.24,9.24,0,0,1,2.54,2.68c.78,1.76.35,3.89,1.15,5.64a7.15,7.15,0,0,0,2.45,2.65c.76.56,1.86,1,2.55.41l1-.26c1.52-1.07,3.21-2.47,3.12-4.33a9,9,0,0,0-.49-2c-.95-3.51,1-7.19.65-10.81a4.4,4.4,0,0,0-.83-2.37l-.11-.12a12.64,12.64,0,0,1,1.91-4.76.85.85,0,0,0-.79-.34,2,2,0,0,0-.84.3,8.25,8.25,0,0,0-3,2.86c-.22-.1-.44-.18-.66-.26a14.22,14.22,0,0,1,1.84-4.13.91.91,0,0,0-.82-.36,2.18,2.18,0,0,0-.88.32,8.86,8.86,0,0,0-3.44,3.48,25.34,25.34,0,0,1-7.62-2.49c-2.82-1.5-6.07-2.72-9.14-1.87a3.17,3.17,0,0,1,2.33.47,1.36,1.36,0,0,1,.56,1.24A3.38,3.38,0,0,1,78,61.05a24.88,24.88,0,0,0-2.64-1.54,7.14,7.14,0,0,0-2.87-.43,6.4,6.4,0,0,1,3.46,2,1.6,1.6,0,0,1,.47,1.32,1.18,1.18,0,0,1-.6.73,2.71,2.71,0,0,1-2.65-.29c-.8-.49-1.47-1.16-2.3-1.59-1.87-1-4.18-.48-6.07.44a8,8,0,0,1,5.14,1.87,1.81,1.81,0,0,1,.58.71,2.87,2.87,0,0,1,.11.83A3.32,3.32,0,0,0,71,66.38a.8.8,0,0,1,.15.43c0,.31-.44.41-.75.38a7.72,7.72,0,0,1-1.89-.66,2.51,2.51,0,0,0-1.95-.12c.43-.16.55.19.81.57a1.42,1.42,0,0,1,.31,1.09c-.14.61-.87.86-1.49,1-1.24.18-2.51.16-3.75.35a5.85,5.85,0,0,0-3.37,1.52,9.29,9.29,0,0,1,5.9.91,1.51,1.51,0,0,1,.69.58,1,1,0,0,1-.06,1,1.82,1.82,0,0,1-.77.63,5.2,5.2,0,0,1-3.44,0,6.41,6.41,0,0,0-3.46-.23,3.48,3.48,0,0,1,1.3.91.83.83,0,0,1,.28.46.86.86,0,0,1-.18.57c-1.06,1.48-3.55,1.2-4.71,2.62A9.1,9.1,0,0,1,58.23,78a4.1,4.1,0,0,1,1.71.66,2.15,2.15,0,0,1,.92,1.54,3.35,3.35,0,0,0,0,.71,1.63,1.63,0,0,0,.93.87,9.05,9.05,0,0,1-6.81.36c-2.28-.64-4.52-1.6-6.89-1.69a7.47,7.47,0,0,0-4.22.83c-1.34.77-2.77,1.68-4.3,1.48A14.67,14.67,0,0,0,38,82.51c-1.28,0-2.27,1.07-3.06,2.08s-1.69,2.13-3,2.26c-1.52.16-2.79-1.19-3.41-2.57s-.92-3-1.84-4.18a4.88,4.88,0,0,0-4.71-1.79,4.53,4.53,0,0,1,1.72.37,3.21,3.21,0,0,1,1.39,2,8.91,8.91,0,0,1,.13,2.53,3,3,0,0,0,.46,2.15,4.31,4.31,0,0,0-3.07-1.18,7.66,7.66,0,0,0-1.14.3,8.42,8.42,0,0,1-4,.18,7.28,7.28,0,0,1,3.8,1.41,12,12,0,0,1,1.79,2.49A3.35,3.35,0,0,0,25.58,90.28Zm58,8.91,1.38-1c-.06.59-.15,1.16-.26,1.73Z"/><polygon class="cls-3" points="61.16 117.05 49.63 135.25 61.16 153.46 72.69 135.25 61.16 117.05"/><path class="cls-3" d="M32.63,132.08q3.18,3.31,6.63,6.34h43.8q3.45-3,6.62-6.34Z"/><path class="cls-4" d="M122.32,6.19A305,305,0,0,0,61.16,0V158.21h0a108.6,108.6,0,0,0,61.16-97.69V6.19Z"/></g></g></g></svg>