<svg xmlns="http://www.w3.org/2000/svg" viewBox="0 0 134.06 165.59"><defs><style>.cls-1{fill:#59aa46;}</style></defs><title>005</title><g id="Capa_2" data-name="Capa 2"><g id="OBJECTS"><path class="cls-1" d="M49.08,48.36a4.5,4.5,0,0,0,4.85-1.66,9.32,9.32,0,0,1,3.45-3l1.8,2.51-.12,20.15a46.56,46.56,0,0,1,8-1h.24l.1-15.74c1.4-1.3,4.65-6.11,6.81-6.27l-1.4,1.9a1.08,1.08,0,0,0-.22.65l-.11,19.95c.69.11,1.43.23,2.19.39l.08-13.76V50.92l0-4.05,1.67-2.76-.07,0,.23-.31A6,6,0,0,1,79,45.67l.2.22c.33.37.68.77,1.06,1.28l1,.9a4.47,4.47,0,0,0,3.54.54,5.89,5.89,0,0,1-1.42-5.88c1.12-3.47,2.88-3.49,3-4.93,0-.64-1.19-2-1.82-1.84-1.25.24-.77,1.83-4.06,3.09-4.23,1.62-9-2.08-9-2.08l.1-2.55.24.08L72,30.66l-.25.08,0-.68.24.11.14-3.82-.24-.15,0-1.28.25-.12.16-4.25-.24-.16,0-1.06.25-.16.22-6.08-.25.17,0-.85,1.1-3.86A6.66,6.66,0,0,0,67.38,0h-.17a6.67,6.67,0,0,0-6.28,8.46l1,3.88.56,24.56s-4.79,3.64-9,2c-3.27-1.31-2.76-2.89-4-3.15-.64-.13-1.88,1.18-1.85,1.82.07,1.44,1.83,1.48,2.9,5A5.9,5.9,0,0,1,49.08,48.36ZM66.7,12.89a20.12,20.12,0,0,1,4.36.54l0,.72-4.25,2.78,4,2.62,0,.67-4.07,2.65,3.88,2.49v.21l-4.15,2,4,1.89-.07,1.73L66,32.6,70.3,34l-.06,1.63-6.39,0-.05-2.27L66,32.6l-2.24-.72-.06-3,2.76-1.32-2.83-1.34,0-1.3,3.14-2L63.51,20.8l0-1.71,3.31-2.16-3.41-2.19,0-1.45A12.85,12.85,0,0,1,66.7,12.89ZM63,38.83l2.38,1a4.31,4.31,0,0,0,3.29,0l2.39-1s4.2,2.78,8.51,2.17l-3,1-3.37-.57a4.32,4.32,0,0,0-3.35.83l-.17.13a4.33,4.33,0,0,1-5.31,0l-.16-.13a4.38,4.38,0,0,0-3.35-.88l-3.37.53,0,0-3-1.08C58.75,41.55,63,38.83,63,38.83Z"/><path class="cls-1" d="M67,102.71v2l4.55,4.41,1-.62-.1-.65Zm43.71-32.32a21.86,21.86,0,0,0,1.89-10.07c-.42-5.6-6.44-13.51-9.44-14.57a1.55,1.55,0,0,0-1.78.3c-.34.36-.58.94-.39,2.19L87.64,43.82l-.53,1.59,14.38,4.75v0c.22.64.48,1.36.85,2.23,4.45,10.49-6.69,18-10.21,20.08l-.28.16-.34,1.14c0,.29-.82,7.26,6.18,9.73l1.07.37.33-.19a27.77,27.77,0,0,0,10.18-10.32l.16,68.29-12.52,5.89V121.15h-.27a22.49,22.49,0,0,1,5.62-3.45l.53-.21v-4l-5.87-6.13-1.21-18-.66-1.07c-1.53-.73-9.17-4.86-8.77-14.37,0-.24,0-.49,0-.73C80,67.23,67,67.09,67,67.09s-12.94.14-19.31,6.07c0,.24,0,.49.05.73.39,9.51-7.24,13.64-8.77,14.37l-.66,1.07-1.21,18-5.87,6.13v4l.53.21a22.49,22.49,0,0,1,5.62,3.45h-.27v26.34L24.62,141.6l.15-68.29A27.87,27.87,0,0,0,35,83.63l.33.19,1.07-.37c7-2.47,6.21-9.44,6.14-9.87l-.3-1-.28-.16c-3.52-2.06-14.66-9.59-10.21-20.08.37-.87.63-1.59.85-2.23v0L47,45.41l-.53-1.59L33,48.24c.19-1.25,0-1.83-.39-2.19a1.56,1.56,0,0,0-1.78-.3c-3,1.06-9,9-9.44,14.58a21.84,21.84,0,0,0,1.89,10.06h-.21l-.17,72.27,43.43,20.43,1.15.08,43.59-20.51L111,70.39ZM23.1,60.45c.42-5.63,6.72-12.66,8.33-13.14,0,.37,0,1.48-1.26,4.37-4.88,11.48,6.54,19.58,10.63,22l.07.23A7.67,7.67,0,0,1,38,80.72c-.42-.29-.82-.6-1.23-.91a6.89,6.89,0,0,0,2.69-3.38l-1.58-.54a5.57,5.57,0,0,1-2.49,2.82c-.37-.3-.74-.62-1.1-.93A4.77,4.77,0,0,0,36.56,75L35,74.42a2.79,2.79,0,0,1-2,2.09v0c-.4-.38-.81-.76-1.2-1.16a31.26,31.26,0,0,1-5.08-6.55A13.41,13.41,0,0,1,24.73,61a20.61,20.61,0,0,1,2.52-8,21,21,0,0,0-3,7.91,13.88,13.88,0,0,0,1.61,8.35,32.17,32.17,0,0,0,4.93,7,49.09,49.09,0,0,0,5.64,5.33c-.22.09-.42.19-.66.27l-.34.12C27.82,77.48,22.52,68.29,23.1,60.45Zm28.6,93.88-12.89-6.05V122.35c6.44,5.8,11.52,14.35,12.89,16.77Zm-18.76-38v-2.18l4.52-4.72,0,.33-2.17,3.91s14.73,9.73,19.51,22l2.3.32,0,2.47H53.3C51.74,135.72,43.14,120.86,32.94,116.37Zm47.75,38.75-12.82,6V121.69a19.35,19.35,0,0,1,4.73.81V115L83.07,106a8.93,8.93,0,0,0,3.25-8.63c-.85-4-4.68-4.88-16-3.57L67,90v2.67l3.63,3.51.23,1.48L67,94v1.45l4.14,4,.24,1.49L67,96.8v1.54l4.68,4.53.26,1.64,0-.16L67,99.71v1.62l5.24,5.08.33,2.13-1.85,1.12L67,106.13v2l2.37,2.3-.86.51L67,109.55v2.34l-5.57-3.35,2.31-14.72c-11.35-1.31-15.18-.41-16,3.57A8.93,8.93,0,0,0,51,106L61.46,115v7.54a19.35,19.35,0,0,1,4.73-.81v39.46l-12.82-6V140.23h5.45v-3.87l0-.05h0l0-20.94-10-8.36a10.08,10.08,0,0,1-3.68-9.79C46.2,92.31,51.25,87.07,67,90c15.78-2.91,20.83,2.33,21.87,7.25A10.08,10.08,0,0,1,85.22,107l-10,8.36v20.94h0v3.91h5.45ZM77,138.55l0-2.47,2.3-.32c2.47-10.33,19.5-22,19.5-22l-2.16-3.91,0-.33,4.52,4.72v2.18c-10.2,4.49-18.8,19.35-20.36,22.18Zm18.23,9.72-12.89,6.06V139.12c1.37-2.42,6.45-11,12.89-16.77ZM98.6,82l-.34-.12c-.24-.08-.44-.18-.66-.27a49.09,49.09,0,0,0,5.64-5.33,32.17,32.17,0,0,0,4.93-7,13.88,13.88,0,0,0,1.61-8.35,21,21,0,0,0-3-7.91,20.61,20.61,0,0,1,2.52,8,13.41,13.41,0,0,1-1.93,7.9,31.26,31.26,0,0,1-5.08,6.55c-.4.4-.8.78-1.2,1.16v0a2.79,2.79,0,0,1-2-2.09L97.5,75a4.77,4.77,0,0,0,2.28,2.81c-.37.32-.73.63-1.1.93a5.57,5.57,0,0,1-2.49-2.82l-1.58.54a6.89,6.89,0,0,0,2.69,3.38c-.41.31-.81.62-1.23.91a7.7,7.7,0,0,1-2.91-6.65l.11-.37c4.09-2.46,15.49-10.55,10.62-22-1.23-2.89-1.3-4-1.27-4.37,1.62.48,7.92,7.51,8.34,13.14C111.54,68.29,106.24,77.48,98.6,82Zm-62,2.25-.56.19-.31,1.08,2,1.57.09-.15.25-.1a13.43,13.43,0,0,0,8-12.87c0-.13,0-.26,0-.39L44.56,73l-1.24.47,0,0C43.38,73.69,44.31,81.54,36.64,84.24Zm54.1-10.82L89.49,73l-1.5.62L88,74a13.45,13.45,0,0,0,8,12.87l.25.1.09.15,2-1.57L98,84.43l-.56-.19c-7.67-2.7-6.74-10.55-6.7-10.77Z"/><path class="cls-1" d="M83.86,60.24l2,4.19,2-4.19,4.41-.5-3.14-3.4.67-4.19-4,1.78-4-1.78.68,4.19-3.14,3.4Zm-42.17-.5,4.41.5,2,4.19,2-4.19,4.41-.5-3.14-3.4.68-4.19-4,1.78-4-1.78.67,4.19Z"/><path class="cls-1" d="M40.87,150.8l-16.6-8.44-.82-25.58S12.14,109,7.54,118.17c0,0,4.46-7,14,5.59l-.84-.28s-7.82-3.35-10.61-2.24-7,8.38-10,4.19c0,0,5,12.56,12.28,8.65s8.66-2.51,8.66-2.51-8.66,3.35-9.22,9.77-.83,8.66-5.58,9.49c0,0,8.74,6,12.52,1.9l.11.19s0-.08-.09-.21a5.07,5.07,0,0,0,.58-.76,26.18,26.18,0,0,0,2.14-4.43,19.16,19.16,0,0,1,6.05-1.72l-.49.45s-5,3.91-5.28,6.13,3,7.58-.87,8.09c0,0,10,1.23,10.08-4.93S32.36,149,32.36,149s-.92,6.87,3.08,9.55,5.36,3.66,4.21,7.07c0,0,7.89-4,5.45-8.19S40.52,152.74,40.87,150.8ZM12.28,91.37c7.26-3.9,8.66-2.51,8.66-2.51s-8.66,3.35-9.22,9.77-.83,8.66-5.58,9.49c0,0,9.77,6.7,13.12,1.12s2.51-8.38,5-9.21l-.84-26s-10.89-7.82-7-19c0,0-7.82,9.22,1.68,21.78l2.51,3.91s-7.82-3.35-10.61-2.24-7,8.38-10,4.19C0,82.72,5,95.28,12.28,91.37ZM124,121.24c-2.79-1.11-10.61,2.24-10.61,2.24l-.84.28c9.5-12.57,14-5.59,14-5.59-4.6-9.14-15.91-1.39-15.91-1.39l-.83,25.58L93.19,150.8c.35,1.94-1.78,2.4-4.23,6.6s5.45,8.19,5.45,8.19c-1.16-3.41.21-4.4,4.21-7.07S101.7,149,101.7,149s1.41.42,1.47,6.57,10.08,4.93,10.08,4.93c-3.85-.51-.6-5.86-.88-8.09s-5.27-6.13-5.27-6.13l-.49-.45a19.16,19.16,0,0,1,6,1.72A26.18,26.18,0,0,0,114.8,152a4.48,4.48,0,0,0,.58.76c0,.13-.09.21-.09.21l.11-.19c3.78,4.09,12.52-1.9,12.52-1.9-4.75-.83-5-3.07-5.59-9.49s-9.21-9.77-9.21-9.77,1.4-1.39,8.66,2.51,12.28-8.65,12.28-8.65C131,129.62,126.8,122.36,124,121.24Zm-9.21-12c3.35,5.58,13.12-1.12,13.12-1.12-4.75-.83-5-3.07-5.59-9.49s-9.21-9.77-9.21-9.77,1.4-1.39,8.66,2.51,12.28-8.65,12.28-8.65c-3.07,4.19-7.26-3.07-10-4.19s-10.61,2.24-10.61,2.24l2.51-3.91c9.5-12.56,1.68-21.78,1.68-21.78,3.91,11.17-7,19-7,19l-.84,26C112.28,100.86,111.45,103.66,114.8,109.24Z"/></g></g></svg>