<svg xmlns="http://www.w3.org/2000/svg" viewBox="0 0 138.53 165.59"><defs><style>.cls-1{fill:#4A4A4A;}</style></defs><title>006</title><g id="Capa_2" data-name="Capa 2"><g id="OBJECTS"><path class="cls-1" d="M68.25,54.45V75.94H57.39a3,3,0,0,0-.54,5.87l-7.21,2.12V81.1c0-9.55,0-16.44,8.06-21.18l10.55-5.47m1-1.67L57.21,59c-9.07,5.31-8.58,13.1-8.58,23.62v2.64L65.8,80.24l-8.26.6h-.15a2,2,0,0,1-1.94-1.95h0A1.94,1.94,0,0,1,57.39,77H69.26V52.78Z"/><path class="cls-1" d="M53.54,104.3A47,47,0,0,0,68.25,114v16.53c-7.85-2.48-20.57-7.81-28.75-18q.51,0,1.08,0c9,0,12-4.54,13-8.27m-.66-2.13c-.77,8.11-7.91,9.38-12.3,9.38a23.19,23.19,0,0,1-3.27-.23c8.67,12.21,23.76,18.13,32,20.56V113.31a46,46,0,0,1-16.38-11.14Z"/><path class="cls-1" d="M35.92,113.89c4.18,5.74,13.52,15.12,32.33,20.68v6c-5.26-1.2-26.46-6.92-36.62-22.51l4.29-4.18m.15-1.55-5.74,5.58c11.74,18.93,38.93,23.92,38.93,23.92v-8c-8.13-2.33-24.34-8.4-33.19-21.47Z"/><path class="cls-1" d="M68.25,82V85.5a2.3,2.3,0,0,0-4.18,1.31v15.46a2.76,2.76,0,0,0,1.67,2.54l1.53.63,1,.38v2.92C55.08,102.85,49.68,93.8,48.89,92.36V88.05l19.36-6m-5.4,21.49V88.15a2.29,2.29,0,0,0-4.58,0V99.31a2.72,2.72,0,0,0,1.31,2.36c.59.36,1.18.7,1.77,1l1.5.81m-5.68-3.33V89.47a2.28,2.28,0,0,0-2.29-2.29,3.05,3.05,0,0,0-.52,0,2.3,2.3,0,0,0-1.77,2.24v5.66a2.8,2.8,0,0,0,.91,2.06c.62.56,1.3,1.13,2,1.71l1.64,1.28M69.26,80.65,47.87,87.31v5.3s5.48,11.11,21.39,17.67V80.65ZM67.65,104.5c-.52-.21-1-.41-1.52-.62a1.74,1.74,0,0,1-1-1.61V86.81a1.28,1.28,0,0,1,1-1.25,1.43,1.43,0,0,1,.29,0,1.28,1.28,0,0,1,1.28,1.28V104.5Zm-5.81-2.69c-.61-.34-1.19-.67-1.73-1a1.73,1.73,0,0,1-.83-1.5V88.15a1.27,1.27,0,0,1,1-1.24,1,1,0,0,1,.29,0,1.28,1.28,0,0,1,1.28,1.28v13.66ZM56.16,98.1c-.74-.58-1.4-1.14-2-1.66a1.78,1.78,0,0,1-.59-1.31V89.47a1.28,1.28,0,0,1,1-1.25l.29,0a1.28,1.28,0,0,1,1.28,1.28V98.1Z"/><path class="cls-1" d="M69.27,77H81.14a1.94,1.94,0,0,1,1.94,1.94h0A2,2,0,0,1,81,80.84l-8.26-.6L89.9,85.29V82.65c0-10.52.49-18.31-8.59-23.62l-12-6.25V77Z"/><path class="cls-1" d="M69.27,131.88V113.31a46,46,0,0,0,16.38-11.14c1,11.08,14,9.4,15.57,9.15C92.55,123.53,77.46,129.45,69.27,131.88Z"/><path class="cls-1" d="M102.46,112.34l5.74,5.58c-11.74,18.93-38.93,23.92-38.93,23.92v-8C77.4,131.48,93.61,125.41,102.46,112.34Z"/><path class="cls-1" d="M69.27,80.65v29.63c15.9-6.56,21.38-17.67,21.38-17.67v-5.3Zm4.17,21.62a1.74,1.74,0,0,1-1,1.61c-.49.21-1,.41-1.52.62V86.81a1.28,1.28,0,1,1,2.56,0Zm5.81-3a1.76,1.76,0,0,1-.83,1.5c-.55.33-1.12.66-1.73,1V88.15a1.28,1.28,0,0,1,2.56,0Zm5.68-4.18a1.78,1.78,0,0,1-.59,1.31c-.57.52-1.23,1.08-2,1.66V89.47a1.28,1.28,0,1,1,2.56,0Z"/><path class="cls-1" d="M52.54,31c-8.9-.13-11.17,5.11-11.17,5.11s8.69-5.3,9.42-1.7-8-.19-12.7,7.57-2.21,15.15,2,18.75c.76.65-1.61-5.94-.35-12,1.29-6.18,6-7.89,6.12-7.54.4,1-9.09,3-4.07,21.49a7.69,7.69,0,0,1-3.41,9S50,70.39,49,59.22s.88-13.35,6.72-13.35c0,0-4.34,2.87-3.51,3.88,2.11,2.56,8.53-5.11,13.26-.19,2,2.11,3.1,3.22,2.08-3.4C67.5,46.16,65.42,31.2,52.54,31ZM96.78,62.72c5-18.46-4.47-20.53-4.07-21.49.15-.35,4.83,1.36,6.12,7.54,1.26,6-1.11,12.62-.35,12,4.17-3.6,6.63-11,2-18.75S87,38,87.74,34.42s9.42,1.7,9.42,1.7S94.89,30.88,86,31c-12.88.19-15,15.15-15,15.15-1,6.62.06,5.51,2.08,3.4,4.73-4.92,11.15,2.75,13.25.19.83-1-3.5-3.88-3.5-3.88,5.84,0,7.74,2.18,6.72,13.35s10.61,12.5,10.61,12.5A7.69,7.69,0,0,1,96.78,62.72ZM80.87,29.24c10.35-3.66.89-10.73.89-10.73s1.51,2.43.25,4.17-3.54-1.32-5.3-6.19-7.35-5.28-7.44-5.28h0c-.09,0-5.69.45-7.44,5.28s-4,7.93-5.3,6.19.25-4.17.25-4.17-9.47,7.07.89,10.73,11.5,15.06,11.6,18v.14a1.34,1.34,0,0,1,0,.19v-.33C69.37,44.3,70.43,32.93,80.87,29.24Z"/><path class="cls-1" d="M26.33,3.93l1.31,2.5a5.63,5.63,0,0,0-3.79,1.43C19.75,12,20.43,23.1,20.43,23.1L35,36.78s-1.73-7.91,4.13-8.46l2.68,5.14a9.5,9.5,0,0,1,4.78-3L31.59.48S28.14-1.89,26.33,3.93Zm30.24,46.6a4.92,4.92,0,0,0-2.75,7l.88,1.67a9.44,9.44,0,0,1,4.77-3L56.65,50.5ZM8.31,23.27l3.28,2.95C8.93,29-2.27,41.24.41,46.84,3.45,53.17,10,57.73,7,62s-4.63,7.6-1.52,10.89c4.31,4.57,7.12,4.56,7.86,9.13,1,6.33-5.65,12.55-2.79,11.65,4.81-1.52,10.89-20.52,9.88-24.32S5.73,52.16,5.73,52.16l11.15,9.37s-4.23-12.81,10.65-21l7.13,6.4A15.23,15.23,0,0,1,37,41.51L12,18.2S8,17.19,8.31,23.27Zm118.63,2.95,3.28-2.95c.34-6.08-3.72-5.07-3.72-5.07l-25,23.31a15.13,15.13,0,0,1,2.33,5.41l7.13-6.4c14.88,8.2,10.65,21,10.65,21l11.15-9.37s-13.69,13.43-14.7,17.23,5.07,22.8,9.88,24.32c2.86.9-3.8-5.32-2.79-11.65.73-4.57,3.55-4.56,7.86-9.13,3.11-3.29,1.52-6.58-1.52-10.89s3.55-8.87,6.59-15.2C140.8,41.24,129.6,29,126.94,26.22ZM103.57,36.78,118.1,23.1s.68-11.07-3.42-15.24a5.63,5.63,0,0,0-3.79-1.43l1.31-2.5c-1.81-5.82-5.26-3.45-5.26-3.45l-15,30a9.5,9.5,0,0,1,4.78,3l2.68-5.14C105.29,28.87,103.57,36.78,103.57,36.78ZM82,50.53l-.08,0-2.82,5.65a9.44,9.44,0,0,1,4.77,3l.88-1.67A4.92,4.92,0,0,0,82,50.53Z"/><path class="cls-1" d="M114.71,72.55V68.7L87.57,104a6.62,6.62,0,0,0,1.2,2.3Z"/><path class="cls-1" d="M104.22,73.7A15.09,15.09,0,0,1,101,74l-7.91,10.3v3.85Z"/><path class="cls-1" d="M95.19,73a15.05,15.05,0,0,1-2.1-1v3.77Z"/><path class="cls-1" d="M114.71,78.8V75l-24.9,32.37a9.09,9.09,0,0,0,2,1.22Z"/><path class="cls-1" d="M111.29,110.63l-3.22,4.18,1,1A54.16,54.16,0,0,0,111.29,110.63Z"/><path class="cls-1" d="M114.71,85.05V81.19L93.28,109.06a17.76,17.76,0,0,0,2.55.54Z"/><path class="cls-1" d="M112.67,106.44a54.08,54.08,0,0,0,1.26-5.5l-8.62,11.22,1.7,1.64Z"/><path class="cls-1" d="M114.71,87.44,97.54,109.76c.9.06,1.88.07,2.94,0l14.23-18.51Z"/><path class="cls-1" d="M114.71,62.45,93.09,90.57v1.79l-5.66,8.28a6.31,6.31,0,0,0-.14,1.32l27.42-35.65Z"/><path class="cls-1" d="M46.88,94.46,33.37,112l2.44-2.34c.79.06,1.52.1,2.23.12L48.27,96.5Z"/><path class="cls-1" d="M114.66,93.76,102.4,109.7l.32,0,1.53,1.47L114.36,98C114.52,96.59,114.61,95.17,114.66,93.76Z"/><path class="cls-1" d="M99.25,70.07a8.86,8.86,0,0,0,1.69,1.65l13.77-17.91V50Z"/><path class="cls-1" d="M98.44,68.73l16.27-21.16V45.06l-2.27,1.6-14.61,19A7,7,0,0,0,98.44,68.73Z"/><path class="cls-1" d="M114.71,56.21,102.17,72.52a16.15,16.15,0,0,0,2.19,1l10.35-13.46Z"/><path class="cls-1" d="M103.76,55.56l4.66-6.06-3.76,2.66A13.9,13.9,0,0,1,103.76,55.56Z"/><path class="cls-1" d="M99.23,73.94a15.54,15.54,0,0,1-2.57-.51l-3.57,4.65v3.85Z"/><path class="cls-1" d="M45.44,75.19V71.92c-.25.15-.51.28-.76.41L24.29,98.85c.14,1.06.31,2.12.52,3.17Z"/><path class="cls-1" d="M45.44,81.43V77.58L25.2,103.91c.22,1,.47,1.92.75,2.87Z"/><path class="cls-1" d="M45.44,87.68V83.83L26.49,108.47c.29.89.6,1.76.94,2.63Z"/><path class="cls-1" d="M42,73.39a15.2,15.2,0,0,1-3.43.6L23.86,93.16c0,1.2.09,2.4.2,3.59Z"/><path class="cls-1" d="M46,93.19l-.57-.83V90.07L28.06,112.68c.35.81.72,1.61,1.11,2.41Z"/><path class="cls-1" d="M51.2,101.32l-5.94,7.74C51.14,107.3,51.36,103,51.2,101.32Z"/><path class="cls-1" d="M50.53,99.8l-1.39-2-9.27,12a26.38,26.38,0,0,0,3.17-.26Z"/><polygon class="cls-1" points="27.94 47.97 26.02 46.62 23.82 49.48 23.82 53.34 27.94 47.97"/><path class="cls-1" d="M36.74,74a14,14,0,0,1-2.68-.37L23.82,87v3.85Z"/><polygon class="cls-1" points="31.06 50.17 29.14 48.81 23.82 55.73 23.82 59.58 31.06 50.17"/><polygon class="cls-1" points="23.82 47.09 24.83 45.77 23.82 45.06 23.82 47.09"/><path class="cls-1" d="M33.94,52.66c0-.31-.07-.5-.07-.5L32.25,51,23.82,62v3.85Z"/><path class="cls-1" d="M40.66,65.07l-6.52,8.47C40.17,71.26,40.92,67.5,40.66,65.07Z"/><path class="cls-1" d="M35.41,57a17.76,17.76,0,0,1-1-2.52L23.82,68.22v3.86Z"/><path class="cls-1" d="M40.24,63.21c-.11-.31-.2-.5-.2-.5a14.41,14.41,0,0,1-1.4-1.27L23.82,80.72v3.85Z"/><path class="cls-1" d="M37.63,60.36a18.62,18.62,0,0,1-1.44-2L23.82,74.47v3.85Z"/><rect class="cls-1" x="3.22" y="160.18" width="132.1" height="5.41"/><path class="cls-1" d="M3.22,130.2s19.42,11.82,59,14.19c0,0-40.37-11.15-58.95-29.06Zm73.14,14.19c39.53-2.37,59-14.19,59-14.19V115.33C116.73,133.24,76.36,144.39,76.36,144.39Z"/></g></g></svg>