<svg xmlns="http://www.w3.org/2000/svg" viewBox="0 0 130 145"><defs><style>.cls-1{fill:#227791;}.cls-2{fill:#20617b;}.cls-3{fill:#fcecdb;}.cls-4{fill:#e3c190;}</style></defs><title>006</title><g id="Capa_2" data-name="Capa 2"><g id="OBJECTS"><path class="cls-1" d="M65,145V0H18.55L0,18.35s11,15,11,31.26-7,28-3.89,45.61,10.41,24.28,29.66,31.64C60,135.77,65,145,65,145Z"/><path class="cls-2" d="M65,145V0h46.45L130,18.35s-11,15-11,31.26,7,28,3.89,45.61-10.41,24.28-29.66,31.64C70,135.77,65,145,65,145Z"/><path class="cls-3" d="M6.41,19C9.89,24.82,16,36.72,16,49.61c0,7.2-1.26,13.45-2.46,19.49-1.63,8.13-3.16,15.8-1.5,25.26,2.65,15.07,8.1,20.79,26.52,27.83,14.28,5.47,22.24,11.18,26.49,15.19V5H20.61Z"/><path class="cls-4" d="M65,137.38c4.25-4,12.21-9.72,26.5-15.19,18.41-7,23.86-12.76,26.51-27.83,1.67-9.46.13-17.13-1.5-25.26-1.21-6-2.46-12.29-2.46-19.49,0-12.89,6.06-24.79,9.54-30.57L109.39,5H65V137.38Z"/><path class="cls-1" d="M10.17,19.54C13.9,26.18,19,37.42,19,49.61c0,7.49-1.28,13.89-2.52,20.09-1.57,7.83-3,15.23-1.49,24.14,2.45,13.9,7.28,18.91,24.64,25.55,12.8,4.9,20.71,10,25.42,14V8H21.84Z"/><path class="cls-2" d="M65,133.37c4.71-3.93,12.62-9.08,25.42-14,17.36-6.64,22.19-11.65,24.64-25.55,1.56-8.91.08-16.31-1.49-24.16-1.24-6.18-2.52-12.58-2.52-20.07,0-12.19,5-23.43,8.78-30.07L108.16,8H65V133.37Z"/></g></g></svg>