<svg xmlns="http://www.w3.org/2000/svg" viewBox="0 0 122.32 158.21"><defs><style>.cls-1{isolation:isolate;}.cls-2{fill:#3d4f53;}.cls-3{fill:#62aec9;}.cls-4{fill:#f8f6e4;}.cls-5{fill:#e8dbc4;mix-blend-mode:multiply;}</style></defs><title>006</title><g class="cls-1"><g id="Capa_2" data-name="Capa 2"><g id="OBJECT"><path class="cls-2" d="M122.32,6.19A305.36,305.36,0,0,0,0,6.19V60.52a108.6,108.6,0,0,0,61.16,97.69h0a108.6,108.6,0,0,0,61.16-97.69V6.19Z"/><path class="cls-3" d="M61.16,151.57a102.68,102.68,0,0,1-55.23-91V11.07a299.82,299.82,0,0,1,110.45,0V60.52a102.64,102.64,0,0,1-55.22,91Z"/><polygon class="cls-2" points="48.83 126.12 61.8 122.59 93.94 88.29 86.66 81.01 52.36 113.15 48.83 126.12"/><polygon class="cls-4" points="50.92 124.03 89.27 85.69 86.63 83.05 53.66 113.94 50.92 124.03"/><rect class="cls-2" x="80.52" y="83.74" width="18.32" height="2.96" transform="translate(92.84 208.9) rotate(-135)"/><circle class="cls-2" cx="95.39" cy="92.46" r="2.56"/><circle class="cls-2" cx="82.44" cy="79.51" r="2.56"/><rect class="cls-2" x="96.53" y="71.15" width="10.99" height="3.46" transform="translate(81.41 -50.8) rotate(45)"/><circle class="cls-2" cx="98.73" cy="68.4" r="2.57"/><circle class="cls-2" cx="106.5" cy="76.17" r="2.57"/><rect class="cls-2" x="92.48" y="71.54" width="6.96" height="14.8" transform="translate(108 202.62) rotate(-135)"/><polygon class="cls-4" points="90.45 81.34 94.55 83.46 93.28 84.74 89.17 82.62 90.45 81.34"/><polygon class="cls-4" points="93.17 78.62 97.28 80.74 96 82.02 91.89 79.9 93.17 78.62"/><polygon class="cls-4" points="95.89 75.9 100 78.02 98.72 79.3 94.61 77.18 95.89 75.9"/><polygon class="cls-4" points="98.61 73.18 102.72 75.3 101.44 76.58 97.34 74.45 98.61 73.18"/><path class="cls-4" d="M116.38,33.23V11.07a299.82,299.82,0,0,0-110.45,0V60.52a102.54,102.54,0,0,0,14.76,53Z"/><path class="cls-2" d="M19.66,25.33a.45.45,0,0,0,.07-.23A2,2,0,0,1,19.66,25.33Z"/><path class="cls-2" d="M21.21,69.41a1.89,1.89,0,0,0-.79.26,9.11,9.11,0,0,1-3.7.89,2.51,2.51,0,0,1,2.18-2c1-.2,2.13-.07,3.16-.29.42-.08.89-.31.92-.73a.9.9,0,0,0-.2-.54,4.92,4.92,0,0,0-3.47-1.68.87.87,0,0,1,.33-1.25A2.18,2.18,0,0,1,21.09,64c2.28.36,4.52,1.35,6.8,1A1.21,1.21,0,0,0,29,64.4c.34-.9-1.34-1.74-.88-2.59a2,2,0,0,0,2.32.44,1.09,1.09,0,0,0,.63-.58c.21-.53-.21-1.08-.46-1.6-.68-1.43,0-3.11.57-4.56a4.73,4.73,0,0,1,1.6-2.29,4,4,0,0,1,1.72-.46,43.16,43.16,0,0,1,5.9.27,3.49,3.49,0,0,0,1.9-.29,1.3,1.3,0,0,0,.59-1.66,11.53,11.53,0,0,1-7.47-7.31c-.72.43-1.47,1-2.19,1.45a1.51,1.51,0,0,0-.53.44c-.38.56.36,1.43,1,1.15a3.34,3.34,0,0,1-3,.38c-.68-.25-1.37-.72-2.05-.47a1,1,0,0,0,.64,2c-.52.71-1.63.49-2.44.14s-1.82-.72-2.5-.16-.48,1.73-.87,2.57c-.11.24-.42.48-.62.3s-.08-.38-.09-.58c-.05-.65-1-.8-1.54-.41A7.11,7.11,0,0,0,20,52.13a.76.76,0,0,1-.42.33c-.39.09-.72-.37-.71-.77a4.89,4.89,0,0,1,.37-1.16,1,1,0,0,0-.24-1.1,1.22,1.22,0,0,0-.94,0l-3.47,1a3,3,0,0,1,1.48-2.56c.85-.59,1.85-.93,2.74-1.45a1.31,1.31,0,0,0,.47-.4c.31-.48,0-1.1-.33-1.57l-1.26-1.89c-.33-.48-.66-1.11-.36-1.61s1.28-.45,1.77,0a19.51,19.51,0,0,1,1.18,1.64,3.6,3.6,0,0,0,3.76.88,7.42,7.42,0,0,0,3.27-2.36C28.24,40.1,29,39,30,38a6.57,6.57,0,0,0-2.38-3c-1-.55-2.59-.2-2.89.92-.07-1,.46-1.92.5-2.9a3.06,3.06,0,0,0-.85-2.24,1.06,1.06,0,0,0-.5-.31A.84.84,0,0,0,23,31a2.54,2.54,0,0,0-.17,1,2.39,2.39,0,0,1-.32-2.5,4.48,4.48,0,0,0,.38-2.6.53.53,0,0,0-.14-.24.45.45,0,0,0-.46,0,1.82,1.82,0,0,0-.87,1.14c-.45-1.25,1-2.56.65-3.85a.71.71,0,0,0-.17-.32c-.35-.33-.9,0-1.23.39s-.87.72-1.22.39-.16-.66,0-1l.69-1.94c0-.11.08-.23,0-.32s-.21-.11-.34-.1l-2.18.12a2.23,2.23,0,0,1-1.17-.15.78.78,0,0,1-.4-1,1.12,1.12,0,0,1,.71-.43l3.33-1a5.22,5.22,0,0,0-1.4-2.05,2.68,2.68,0,0,1-.85-2.19l5.08,2.37a.81.81,0,0,0,.56.1.78.78,0,0,0,.38-.45l1.56-3.28a1.5,1.5,0,0,1,.79,1.49,9.77,9.77,0,0,1-.38,1.75c-.59,2.6.82,5.2,2.22,7.47a18,18,0,0,0,2.5,3.38,6.36,6.36,0,0,0,3.69,1.89c1.71.16,3.49-.6,5.11,0a1.82,1.82,0,0,0,0-2.14c-.18-.2-.44-.36-.47-.63s.31-.57.63-.67a9.45,9.45,0,0,1,2-.18,3.94,3.94,0,0,0,.6-.09,5,5,0,0,1-1-.15,3.12,3.12,0,0,0-2.13,0,1.78,1.78,0,0,1,.9-.6c-1-.41-2.08.57-3.06.22a3.64,3.64,0,0,1-.66-.38,3.61,3.61,0,0,0-2.4-.48,2.29,2.29,0,0,1,1.18-.4,2.07,2.07,0,0,0-1.73-.37,11.36,11.36,0,0,1-1.81.29,1.54,1.54,0,0,1-1.48-.87,2.76,2.76,0,0,0,2.47-.55,1.34,1.34,0,0,0-.83-.18,2.51,2.51,0,0,1,2.42,0c.4.22.83.58,1.26.42l-.91-.83c1,0,1.79,1,2.77.88-.21-.13-.42-.24-.63-.35a4.66,4.66,0,0,1,1.81.46,2.25,2.25,0,0,0,1.83,0l-.87-.23c.58-.33,1.3,0,1.93.23a8.86,8.86,0,0,0,2.21.56,2.07,2.07,0,0,0-.51-.69,3.33,3.33,0,0,0-2.5-.58c-.51.06-1,.18-1.51.19-1.45,0-4.05-2-2.89-3.62a1.63,1.63,0,0,0,1.44.35c1.37-.27,2.15-1.53,2.8-2.64a7.4,7.4,0,0,1,1.52-2,7.34,7.34,0,0,1,3.12-1.27,1.72,1.72,0,0,0-.8,2c.72-.24,1.26-.44,2-.67a8.46,8.46,0,0,1,1.57-.42,4.47,4.47,0,0,1,2.92.61,1.57,1.57,0,0,0-1.2,1.07A3.76,3.76,0,0,0,49.19,17a.7.7,0,0,0,.09.32.52.52,0,0,0,.22.17c.71.32,1.51-.18,2.13-.66a9.65,9.65,0,0,1-.9,4.81c-.26.5-.55,1-.76,1.5a4.65,4.65,0,0,0,1.42,5.16c-1,.59-2.29,1.57-2.53,2.73a4.45,4.45,0,0,0,0,1l.06,1.22a3.76,3.76,0,0,0,.42,1.88,1.29,1.29,0,0,0,1.66.55c0,.58-.69.94-1.25,1.1a5.79,5.79,0,0,0-1.66.49,2.84,2.84,0,0,0-.81.91,3.07,3.07,0,0,0-.53,2,3.21,3.21,0,0,0,.43,1.15,2.32,2.32,0,0,0,.47.61,2.44,2.44,0,0,0,2.21.07,9.16,9.16,0,0,0-.36,3.24,9,9,0,0,0,.9,2.7c.53,1.15,1.08,2.29,1.64,3.43a8.4,8.4,0,0,0,2.1,3,4.58,4.58,0,0,0,4,.76,5.15,5.15,0,0,0,3.15-2.63,2.86,2.86,0,0,0,.37-1.73c-.15-1-1.07-1.77-1.7-2.62a5.16,5.16,0,0,1-1-2.59,10,10,0,0,0,1.19.69,2.86,2.86,0,0,0,1,.43,1.05,1.05,0,0,0,1.3-1.3,3.14,3.14,0,0,0-.42-1A19.58,19.58,0,0,1,60.81,42a4.51,4.51,0,0,1-.28-2.61,2.63,2.63,0,0,0,1.15,1,.9.9,0,0,0,.53.14c.38,0,.59-.47.67-.85a4.87,4.87,0,0,0-.33-2.58c-.3-.82-.72-1.6-1-2.43a9.2,9.2,0,0,1-.54-3.6c.22.33.57.48.83.79A1.53,1.53,0,0,0,63,32.5c.55,0,.9-.62,1-1.15a4.33,4.33,0,0,0-.49-3.46C63,27,62.15,26.3,61.88,25.33a1.26,1.26,0,0,0,1.47.27,1.93,1.93,0,0,0,.78-1.43,4.36,4.36,0,0,0-.42-3A2.47,2.47,0,0,0,61.06,20a2.9,2.9,0,0,0-1.51,1.21,8.4,8.4,0,0,0-1.22,4.51,44,44,0,0,1-.17,4.74A6.62,6.62,0,0,0,58,32.8a7,7,0,0,0,1.08,2.05,2.78,2.78,0,0,1,.54,2.2c-.24-.18-.32-.66-.44-.94s-.33-.56-.63-.58a.87.87,0,0,0-.59.27,3.08,3.08,0,0,0-1.12,2.14,7.53,7.53,0,0,0,.67,2.55,7.34,7.34,0,0,1,.1,4.23,4.57,4.57,0,0,0-.93-2.87,14.7,14.7,0,0,1-1.57-2.52c-.95-2.38.25-5,.73-7.53a31.2,31.2,0,0,0,.27-6.34,19.23,19.23,0,0,1,.7-6.28,7.37,7.37,0,0,1,4-4.63,4.14,4.14,0,0,1,3.22,0,4.38,4.38,0,0,1,2.14,2.75,12.84,12.84,0,0,1,.37,3.55l.15,11.54a6.34,6.34,0,0,1-.06,1.15c-.09.48.28,1.18.24,1.67V49.06a15.41,15.41,0,0,1-1.86,7.44,6.61,6.61,0,0,1-.34.57,6.75,6.75,0,0,1-2.94,2.69,7.3,7.3,0,0,1-4.57-.08,25.78,25.78,0,0,1-5.67-2.28,21.89,21.89,0,0,0-.4,5.66,5.13,5.13,0,0,0,.35,1.87,2,2,0,0,0,1.42,1.16c.76.1,1.53-.4,2.27-.2a2.19,2.19,0,0,1,1.3,1.54,5.06,5.06,0,0,0,.86,1.9c.47.51,1.44.64,1.81.06.06.67.34,1.25,0,1.84a2.19,2.19,0,0,1-1.56,1.18c-.51.07-1-.07-1.54,0s-1,.49-.95,1a1.06,1.06,0,0,0,.73.68,2.9,2.9,0,0,0,2,0c.07.62-.53,1.09-1.06,1.41a3.42,3.42,0,0,1-.95.44,4.24,4.24,0,0,1-1.33,0A2.33,2.33,0,0,0,53.2,76a.94.94,0,0,0-.5,1.11,1.32,1.32,0,0,0,1.09.66,2.8,2.8,0,0,0,1.94-.13A2.56,2.56,0,0,1,54.11,79a7.9,7.9,0,0,1-3.06.16,6.29,6.29,0,0,1,3.51,2.67A23.2,23.2,0,0,1,50.28,81q-.95,2.77-1.91,5.54a.39.39,0,0,1-.17.27c-.22.13-.45-.17-.53-.42-.43-1.21-.87-2.41-1.3-3.62a6.43,6.43,0,0,0-1.23,1.71,6.63,6.63,0,0,1-4.61,3,17.85,17.85,0,0,1,1.93-4.71,17.55,17.55,0,0,0-6.77,1.53,3.71,3.71,0,0,1,2-3.1,10,10,0,0,1,4.18-1.51c.36,0,.83-.18.82-.54s-.27-.43-.5-.54a9.75,9.75,0,0,0-3.83-.88,1.51,1.51,0,0,1,.66-1.36,3.22,3.22,0,0,1,1.48-.5,7.45,7.45,0,0,1,2.16,0c1.61.27,3.2,1.08,4.8.76.21-1.06.52-2.38.72-3.44a6.8,6.8,0,0,0,.18-2.1,2.25,2.25,0,0,0-1.07-1.74,2.5,2.5,0,0,0-1.79-.11c-.59.14-1.15.4-1.74.55a5.89,5.89,0,0,1-2.09.12c.28-.18.42-.48.68-.69a3.63,3.63,0,0,0,1.24-1.75,2.1,2.1,0,0,0-.46-2c-.62-.61-1.71-.75-2-1.56a1.77,1.77,0,0,0,2.34-.35,2.68,2.68,0,0,0-1-4.07,2.71,2.71,0,0,0-2.6.56,6.58,6.58,0,0,0-1.61,2.24,2.52,2.52,0,0,0-.37,1.4A2.63,2.63,0,0,0,39,65.2a2.38,2.38,0,0,0-1.91,1.58,1.48,1.48,0,0,0,.17,1.28.93.93,0,0,0,1.19.28,4.16,4.16,0,0,1-3.27,1.19c-.92,0-2-.13-2.57.63-.69,1,.38,2.33.24,3.54-1.36-.24-1.71-2.48-3.09-2.54a1.92,1.92,0,0,0-1.59,1.12A7.48,7.48,0,0,1,27.06,74a.65.65,0,0,1-.3.18c-.32.06-.56-.34-.55-.68a4.12,4.12,0,0,0,.06-1,1.07,1.07,0,0,0-1-.74,2.51,2.51,0,0,0-1.25.3,7.69,7.69,0,0,0-2.57,2c-.47.55-.95,1.22-1.68,1.28-.23-1.8.76-3.52,1.79-5a.78.78,0,0,0,.18-.39C21.79,69.63,21.49,69.42,21.21,69.41Z"/><path class="cls-2" d="M96.09,37.67a5.3,5.3,0,0,0-3.25-1.51L87,30.34l8.61-8.61L96.28,23l2.18-5.31-5.3,2.18,1.24.66-8.61,8.61L77.17,20.5l1.24-.66-5.3-2.18L75.29,23,76,21.73l8.61,8.61-5.82,5.82a5.25,5.25,0,0,0-3.25,1.51l-2.68,2.68h2l0,.24a.6.6,0,0,0,.14.21l.28.28a.7.7,0,0,0,.49.2v2l2.67-2.67A5.23,5.23,0,0,0,80,37.36l5.8-5.8,5.59,5.6.2.2a5.23,5.23,0,0,0,1.52,3.3l2.67,2.67v-2a.68.68,0,0,0,.51-.2l.25-.26a.62.62,0,0,0,.15-.22l0-.06s0,0,0-.06v-.13h2Z"/><path class="cls-5" d="M122.32,6.19A305,305,0,0,0,61.16,0V158.21h0a108.6,108.6,0,0,0,61.16-97.69V6.19Z"/></g></g></g></svg>