<svg xmlns="http://www.w3.org/2000/svg" viewBox="0 0 130 145"><defs><style>.cls-1{fill:#227791;}.cls-2{fill:#20617b;}.cls-3{fill:#fcecdb;}.cls-4{fill:#e3c190;}</style></defs><title>007</title><g id="Capa_2" data-name="Capa 2"><g id="OBJECTS"><path class="cls-1" d="M0,20.54s1.16,54.39,15.74,80.51C32.5,131.09,65,145,65,145V0S55.72,12.47,33.87,18.16C18.32,22.21,0,20.54,0,20.54Z"/><path class="cls-2" d="M130,20.54s-1.16,54.39-15.74,80.51C97.5,131.09,65,145,65,145V0s9.28,12.47,31.13,18.16C111.68,22.21,130,20.54,130,20.54Z"/><path class="cls-3" d="M65,7.28C60.07,11.87,50.43,19,35.13,23,26,25.38,16,25.88,9.26,25.88c-1.48,0-2.84,0-4-.06C6,40,8.92,78.58,20.11,98.62,33.49,122.61,57.92,136,65,139.47V7.28Z"/><path class="cls-4" d="M109.9,98.62c11.18-20,14.15-58.63,14.88-72.8-1.2,0-2.56.06-4,.06-6.75,0-16.71-.5-25.87-2.88C79.57,19,69.93,11.87,65,7.28V139.47h0C72.08,136,96.46,122.69,109.9,98.62Z"/><path class="cls-1" d="M65,11.29A73.19,73.19,0,0,1,35.88,25.9c-9.45,2.46-19.7,3-26.62,3H8.4c.91,14.6,4.11,50,14.33,68.28,12.21,21.88,34,34.69,42.27,39V11.29Z"/><path class="cls-2" d="M107.28,97.16c10.21-18.3,13.41-53.68,14.32-68.28h-.86c-6.92,0-17.16-.52-26.62-3A73.19,73.19,0,0,1,65,11.29V136.11h0C73.25,131.88,95,119.12,107.28,97.16Z"/></g></g></svg>