<svg xmlns="http://www.w3.org/2000/svg" viewBox="0 0 167.61 156.87"><defs><style>.cls-1{fill:#59aa46;}</style></defs><title>007</title><g id="Capa_2" data-name="Capa 2"><g id="OBJECTS"><path class="cls-1" d="M50.17,155.46l33.63-23.2-7.71-5.32L35.25,155.15C38.9,157.71,44.7,157.06,50.17,155.46ZM166.42,65.18a1.3,1.3,0,0,0-.1-.15,7.13,7.13,0,0,0-11.27-.3L152.29,68l-.73.54v-.32l-5.24,3.86v.32l-.91.67-.29-.12-3.67,2.71,0,.29-1.09.81-.28-.12-3.3,2.43.25.14-.59.44-.08-.27-3.32,2.44.22.17-2.2,1.62s-6.13-2-7.24-6.69c-.87-3.67.83-4.19.29-5.45-.28-.63-2.19-.92-2.74-.5-1.21.95-.17,2.51-2.57,5.6a6.32,6.32,0,0,1-6.06,2.28,4.78,4.78,0,0,0,2.4,2.72h0v8.74l1.43-1v-7.3a4.07,4.07,0,0,0,.61.06,11.69,11.69,0,0,1,3.17.53v4.1l.48-.32.95-2.73v-.46h0s.1,0,.14.07l-1.09,3.12L83.8,112,52.21,90.2V81.7a4.78,4.78,0,0,0,2.62-2.81,6.31,6.31,0,0,1-6.06-2.28c-2.4-3.09-1.36-4.65-2.58-5.6-.55-.42-2.45-.13-2.73.5-.54,1.26,1.16,1.78.29,5.45-1.11,4.72-7.25,6.69-7.25,6.69L34.31,82l.21-.17-3.31-2.44-.08.27-.59-.44.25-.14-3.3-2.43-.28.12L26.11,76l.05-.29L22.48,73l-.28.12-.91-.67v-.32l-5.25-3.86v.32L15.32,68l-2.76-3.31A7.13,7.13,0,0,0,1.29,65l-.11.15A7.13,7.13,0,0,0,4.89,75.83L9,77.24,31,91.56s.33,6.43-3.69,9.14c-3.13,2.1-4.22.7-5.2,1.65-.5.48-.09,2.37.5,2.73,1.31.81,2.4-.72,6.14.43a6.33,6.33,0,0,1,4.28,4.87,4.82,4.82,0,0,0,1.45-5.29,10,10,0,0,1-.56-4.86l3.3-.08,32.28,22.27-.42-.29-19.5,13.45s-14.77,8.54-14.36,19.57A140.1,140.1,0,0,1,43,143l28.14-19.41,46.26,31.9c5.47,1.6,11.27,2.25,14.91-.31L45.25,95c-.3-2-2.61-7.79-1.44-9.8l.83,2.39a1.23,1.23,0,0,0,.45.58L124.56,143a137.59,137.59,0,0,1,7.79,12.18c.41-11-14.35-19.57-14.35-19.57L98.5,122.13l31.86-22,3.3.08a9.87,9.87,0,0,1-.57,4.86,4.84,4.84,0,0,0,1.46,5.29,6.33,6.33,0,0,1,4.27-4.87c3.74-1.15,4.84.38,6.15-.43.59-.36,1-2.25.5-2.73-1-.95-2.07.45-5.2-1.65-4-2.71-3.7-9.14-3.7-9.14l22.08-14.32,4.07-1.41A7.13,7.13,0,0,0,166.42,65.18ZM30.65,89.6l-2-1.32.7-2.38-2,1.55-2.71-1.76.51-3.24-2.89,1.69-1.17-.75.08-4L17.36,81l-1.53-1,.08-4.23-4,1.69-1.3-.84a13.6,13.6,0,0,1,1.67-3.22,21.51,21.51,0,0,1,3.1-3.53l.62.46-.1,5.44,4.76-2,.58.43-.11,5.19,4.54-1.93.19.14-.75,4.86L29.2,80l1.5,1.11L29.31,85.9l3.82-3,1.41,1ZM44,82.29l-2.53,2.63a4.62,4.62,0,0,0-1.29,3.47l0,.23a4.6,4.6,0,0,1-.82,2.89A4.51,4.51,0,0,1,37,93.29l-.21.07A4.59,4.59,0,0,0,34,95.79l-1.57,3.3v0l-2.76,2c3.19-3.41,3.34-8.8,3.34-8.8l2.32-1.5a4.62,4.62,0,0,0,2-2.89l.59-2.71s5-2,7-6.22Zm1.75,1.41-.14-.39s.09,0,.14-.07Zm5,5.52-3.57-2.47V82.64a11.79,11.79,0,0,1,3.18-.52,2.58,2.58,0,0,0,.39,0ZM122.36,95,90.77,116.8l-4.89-3.38,36.64-25.27a1.15,1.15,0,0,0,.44-.58l.84-2.39C125,87.19,122.66,93,122.36,95Zm15.57,6.14-2.76-2v0l-1.56-3.3a4.62,4.62,0,0,0-2.8-2.43l-.21-.07a4.57,4.57,0,0,1-2.43-1.78,4.66,4.66,0,0,1-.81-2.89v-.23a4.62,4.62,0,0,0-1.28-3.47l-2.53-2.63L122.64,79c2.06,4.18,7,6.22,7,6.22l.59,2.71a4.58,4.58,0,0,0,2,2.89l2.32,1.5S134.75,97.71,137.93,101.12Zm17.76-23.66-4-1.69.08,4.23-1.53,1-3.78-1.61.08,4-1.17.75-2.89-1.69.5,3.24-2.7,1.76-2-1.55.7,2.38-2,1.32L133.07,84l1.4-1,3.83,3-1.39-4.75,1.5-1.11,4.08,2.41-.75-4.86.18-.14,4.55,1.93-.11-5.19.58-.43,4.76,2-.11-5.44.63-.46a22,22,0,0,1,3.1,3.53A13.6,13.6,0,0,1,157,76.62Zm-26.15-2.58a11.2,11.2,0,0,0,2.85-.06l-3.33-5.54,4.27,4a32.44,32.44,0,0,0-.29-4c-1.44-5.88-8.16-5.51-8.16-5.32C124.74,64,125.25,73.53,129.54,74.88Zm0-25.49a11.2,11.2,0,0,0,2.85-.06l-3.33-5.54,4.27,4.05a32.44,32.44,0,0,0-.29-4c-1.44-5.88-8.16-5.51-8.16-5.32C124.74,38.54,125.25,48,129.54,49.39Zm0,12.74a11.32,11.32,0,0,0,2.85-.05l-3.33-5.54,4.27,4a32.56,32.56,0,0,0-.29-4c-1.44-5.88-8.16-5.51-8.16-5.31C124.74,51.28,125.25,60.78,129.54,62.13Zm8.38,12.6c4.26-1.51,4.61-11,4.47-11,0-.2-6.73-.32-8.07,5.61a32.62,32.62,0,0,0-.21,4l4.19-4.2-3.22,5.66A11.33,11.33,0,0,0,137.92,74.73Zm4.47-23.79c0-.19-6.73-.32-8.07,5.61a32.76,32.76,0,0,0-.21,4l4.19-4.2L135.08,62a11,11,0,0,0,2.84-.05C142.18,60.47,142.53,51,142.39,50.94Zm-8.07-19.88a32.76,32.76,0,0,0-.21,4l4.19-4.2-3.22,5.66a11.45,11.45,0,0,0,2.84,0c4.26-1.51,4.61-11,4.47-11C142.38,25.25,135.66,25.13,134.32,31.06Zm-1.39-3.41.7-7.21.72,7.2a21.07,21.07,0,0,0,1.91-3c2.14-5.44-2.53-12.29-2.63-12.17-.11-.12-4.77,6.74-2.62,12.18A21.84,21.84,0,0,0,132.93,27.65Zm-3.39,9a11.2,11.2,0,0,0,2.85-.06L129.06,31l4.27,4.05a32.44,32.44,0,0,0-.29-4c-1.44-5.88-8.16-5.51-8.16-5.31C124.74,25.79,125.25,35.29,129.54,36.64Zm12.85,1.55c0-.19-6.73-.32-8.07,5.62a32.54,32.54,0,0,0-.21,4l4.19-4.2-3.22,5.66a11.33,11.33,0,0,0,2.84,0C142.18,47.73,142.53,38.22,142.39,38.19ZM34.66,31.06a32.76,32.76,0,0,0-.21,4l4.19-4.2-3.23,5.66a11.54,11.54,0,0,0,2.85,0c4.26-1.51,4.6-11,4.47-11C42.72,25.25,36,25.13,34.66,31.06Zm3.6,43.67c4.26-1.51,4.6-11,4.47-11,0-.2-6.73-.32-8.07,5.61a32.62,32.62,0,0,0-.21,4l4.19-4.2-3.23,5.66A11.41,11.41,0,0,0,38.26,74.73Zm4.47-23.79c0-.19-6.73-.32-8.07,5.61a32.76,32.76,0,0,0-.21,4l4.19-4.2L35.41,62A11.05,11.05,0,0,0,38.26,62C42.52,60.47,42.86,51,42.73,50.94Zm0-12.75c0-.19-6.73-.32-8.07,5.62a32.54,32.54,0,0,0-.21,4l4.19-4.2-3.23,5.66a11.41,11.41,0,0,0,2.85,0C42.52,47.73,42.86,38.22,42.73,38.19ZM29.88,62.13a11.32,11.32,0,0,0,2.85-.05L29.4,56.54l4.26,4a32.07,32.07,0,0,0-.28-4c-1.44-5.88-8.16-5.51-8.17-5.31C25.08,51.28,25.59,60.78,29.88,62.13Zm0-25.49a11.2,11.2,0,0,0,2.85-.06L29.4,31l4.26,4.05a32,32,0,0,0-.28-4c-1.44-5.88-8.16-5.51-8.17-5.31C25.08,25.79,25.59,35.29,29.88,36.64Zm3.39-9,.7-7.21.71,7.2a20.9,20.9,0,0,0,1.92-3C38.74,19.23,34.07,12.38,34,12.5c-.11-.12-4.77,6.74-2.62,12.18A20.9,20.9,0,0,0,33.27,27.65ZM29.88,74.88a11.2,11.2,0,0,0,2.85-.06L29.4,69.28l4.26,4a32,32,0,0,0-.28-4c-1.44-5.88-8.16-5.51-8.17-5.32C25.08,64,25.59,73.53,29.88,74.88Zm0-25.49a11.2,11.2,0,0,0,2.85-.06L29.4,43.79l4.26,4.05a32,32,0,0,0-.28-4c-1.44-5.88-8.16-5.51-8.17-5.32C25.08,38.54,25.59,48,29.88,49.39ZM58.1,75.56a1.81,1.81,0,0,0-1.81,1.82v4.15a1.82,1.82,0,1,0,3.63,0V77.38A1.81,1.81,0,0,0,58.1,75.56Zm46.48-.32V71.08a1.82,1.82,0,1,0-3.63,0v4.16a1.82,1.82,0,0,0,3.63,0Zm3.11,2.14v4.15a1.82,1.82,0,1,0,3.63,0V77.38a1.82,1.82,0,1,0-3.63,0Zm10.63-22.2a1.45,1.45,0,0,0,.25-1,1.48,1.48,0,0,0-.25-1l0,0c-1.3-4.16-3.27-5.54-4.68-6,.26-4.05-.4-7-2-8.76a5.15,5.15,0,0,0-3.85-1.74,4.43,4.43,0,0,0-.73.06,1.43,1.43,0,0,0-.78,2.37c1.88,2,.65,5-.07,6.36L92,43.93V32.65l.29-.85c.74-.74,2.46-2.14,4-2.14a2.92,2.92,0,0,1,2.4,1.58,1.45,1.45,0,0,0,1.19.64,1.86,1.86,0,0,0,.33,0,1.44,1.44,0,0,0,1.09-1.22,9.66,9.66,0,0,0-2-6.93,8.61,8.61,0,0,0-6.75-2.63,16,16,0,0,0-1.66.09c-.36-2-1.64-5.24-6.08-7.5a1.54,1.54,0,0,0-.57-.44,1.39,1.39,0,0,0-.57-.12,1.4,1.4,0,0,0-.78.24,1.77,1.77,0,0,0-.17.12,1.71,1.71,0,0,0-.18.2c-4.42,2.25-5.57,5.47-5.83,7.49-.54-.05-1.07-.08-1.57-.08a8.59,8.59,0,0,0-6.75,2.63,9.61,9.61,0,0,0-2,6.93,1.43,1.43,0,0,0,1.09,1.22,1.86,1.86,0,0,0,.33,0,1.45,1.45,0,0,0,1.19-.64,2.91,2.91,0,0,1,2.4-1.58c1.43,0,3,1.21,3.83,2V43.93L61.42,45.46c-.72-1.36-1.94-4.35-.08-6.36a1.43,1.43,0,0,0-.77-2.37,4.43,4.43,0,0,0-.73-.06A5.13,5.13,0,0,0,56,38.41c-1.58,1.77-2.25,4.71-2,8.76-1.41.44-3.38,1.82-4.69,6l0,0a1.45,1.45,0,0,0-.26,1,1.41,1.41,0,0,0,.26,1l0,0a20.56,20.56,0,0,0,1.46,3.27v18a6.07,6.07,0,0,0,1.43.52V60.18a4.92,4.92,0,0,0,1.8,1c-.27,4.06.4,7,2,8.76a5.12,5.12,0,0,0,3.85,1.75,4.43,4.43,0,0,0,.73-.06,1.43,1.43,0,0,0,1.08-1,1.45,1.45,0,0,0-.31-1.42c-2.1-2.27-.25-5.81.33-6.8l.13-.07L75.17,64V83.83c-.82.77-2.39,2-3.83,2a2.91,2.91,0,0,1-2.4-1.58,1.42,1.42,0,0,0-1.19-.64,1.24,1.24,0,0,0-.33,0,1.42,1.42,0,0,0-1.09,1.22,9.59,9.59,0,0,0,2,6.92,8.57,8.57,0,0,0,6.75,2.63,14.24,14.24,0,0,0,1.57-.08c.26,2,1.41,5.25,5.83,7.5a1.62,1.62,0,0,0,.18.19l.17.13a1.5,1.5,0,0,0,.34.16h0a1.31,1.31,0,0,0,.44.07h0a1.52,1.52,0,0,0,.42-.06h0a1.37,1.37,0,0,0,.37-.17l.16-.13a1.7,1.7,0,0,0,.19-.19c4.44-2.27,5.72-5.51,6.08-7.5.57,0,1.13.08,1.66.08a8.57,8.57,0,0,0,6.75-2.63,9.59,9.59,0,0,0,2-6.92,1.43,1.43,0,0,0-1.09-1.22,1.24,1.24,0,0,0-.33,0,1.42,1.42,0,0,0-1.19.64,2.92,2.92,0,0,1-2.4,1.58c-1.55,0-3.29-1.42-4-2.14L92,82.81V64l13.84-1.57.12.07c.59,1,2.44,4.53.33,6.8a1.43,1.43,0,0,0,.78,2.38,4.43,4.43,0,0,0,.73.06A5.13,5.13,0,0,0,111.62,70c1.58-1.76,2.24-4.7,2-8.76a4.75,4.75,0,0,0,1.58-.85V77.07a5.65,5.65,0,0,0,1.43-.46V58.82h0a12.83,12.83,0,0,0,1.68-3.59ZM83.63,100.77c-6.4-3-5.56-8.09-5.56-8.09a16.6,16.6,0,0,1-3,.28C66.78,93,67.75,85,67.75,85a4.23,4.23,0,0,0,3.59,2.21c2.73,0,5.25-2.8,5.25-2.8V62.69L61.51,60.92l-.85.48s-3.65,5.31-.37,8.85a2.86,2.86,0,0,1-.45,0c-1.38,0-5.34-.81-4.28-10.36a1.48,1.48,0,0,1-.37,0c-.89,0-3.18-.53-4.64-5.6h-.1a1,1,0,0,0,0-.16,1.09,1.09,0,0,0,0-.17h.1c1.46-5.08,3.75-5.6,4.64-5.6a2,2,0,0,1,.37,0c-1.06-9.54,2.9-10.35,4.28-10.35a2.86,2.86,0,0,1,.45,0C57,41.67,60.66,47,60.66,47l15.93-1.77V31s-2.52-2.81-5.25-2.81a4.25,4.25,0,0,0-3.59,2.22s-1-8,7.35-8a16.68,16.68,0,0,1,3,.29s-.84-5.12,5.56-8.1ZM116,51.34a13.41,13.41,0,0,1,.63,1.44l-8.12,12.37a9.55,9.55,0,0,0-.5-1.64Zm-5.73-12.25-1.61,2.45a5.48,5.48,0,0,0-.37-1.84h0l.86-1.3A3.7,3.7,0,0,1,110.28,39.09Zm-2.51-1a4.4,4.4,0,0,1,.57,0l-.47.71a5.26,5.26,0,0,0-.56-.73A3.09,3.09,0,0,1,107.77,38.1Zm-7.91-7.65a5.66,5.66,0,0,0-.44-.59h0l.46-.7A8.56,8.56,0,0,1,99.86,30.45Zm-.14-2.54-.88,1.35h0a4,4,0,0,0-1.11-.72h0l1.48-2.26A7.82,7.82,0,0,1,99.72,27.91Zm-1-2.45-1.86,2.83h0a4.62,4.62,0,0,0-.64-.06,4.52,4.52,0,0,0-1,.12h0l2.62-4A5.5,5.5,0,0,1,98.77,25.46ZM85.15,16.55l.46-.71a11.42,11.42,0,0,1,1,.82L85.15,19Zm0,3.9,2.1-3.21a9.08,9.08,0,0,1,.87,1.07l-3,4.54Zm0,3.9,3.45-5.27a8.26,8.26,0,0,1,.62,1.46l-4.07,6.21Zm0,3.89,4.32-6.59a5.89,5.89,0,0,1,.07,1.13l.84-.12-5.23,8Zm0,3.9,6.29-9.6-1.06.12a16.73,16.73,0,0,1,2.13-.17c.19,0,.34,0,.52,0l-7.88,12Zm0,3.9L94,22.58a8.79,8.79,0,0,1,1.38.3L85.15,38.44Zm0,3.9,11-16.77a5.68,5.68,0,0,1,1.14.66l-3.26,5A11.11,11.11,0,0,0,91,31l-.47,1.37v1.7l-5.39,8.23Zm0,3.89,5.39-8.22V38l-5.39,8.23Zm0,3.9,5.39-8.23v2.41l-5.39,8.22Zm0,3.9,5.39-8.23v1.81l1.13.12-.77-.08L85.15,54Zm0,3.9,6.67-10.18,1.47.16L85.15,57.93Zm0,3.89,9.06-13.81,1.47.15L85.15,61.83Zm0,3.9L96.59,45.86,96,45.8l2.06.22L85.15,65.72Zm0,3.9L99,46.12,98.13,46l2.32.25L85.15,69.62Zm0,3.9,5.39-8.23v2.4l-5.39,8.23Zm0,3.89,5.39-8.22v2.4l-5.39,8.23Zm0,3.9,5.39-8.23v2.41l-5.39,8.22Zm0,3.9,5.39-8.23V77l-5.39,8.22Zm0,3.9,5.39-8.23v2.4l-5.39,8.23Zm0,3.89,5.39-8.22v.67l.39,1.13L85.15,93Zm1.07,8.57A9.6,9.6,0,0,0,88,97.28,9.6,9.6,0,0,1,86.22,99.17Zm11-7.49L99.61,88A6.28,6.28,0,0,1,97.22,91.68ZM99.86,85a8,8,0,0,1,0,1.12l-4.13,6.29a8,8,0,0,1-1.88.46l3.94-6h0A5.05,5.05,0,0,0,99.86,85Zm-3.59,2.21.35,0-3.77,5.74.33,0c-.23,0-.43,0-.67,0s-.79,0-1.21,0l3.83-5.85a5.05,5.05,0,0,1-.55-.18A4.85,4.85,0,0,0,96.27,87.22Zm-1.94-.42-3.93,6c-.29,0-.56-.06-.86-.11a5.94,5.94,0,0,1-.17,1.68l-3.16,4.81a11.62,11.62,0,0,1-1.06.77V98.4l8-12.22h0A8.1,8.1,0,0,0,94.33,86.8Zm-1.85-1.08L85.15,96.9V94.5l6.31-9.63h0C91.71,85.1,92.07,85.41,92.48,85.72Zm-1.8-23,10.69-16.3,2.15.23-.68-.07L92.38,62.48h0Zm2.76-.32,10.31-15.72,2.38.25-.9-.1L95.14,62.17Zm2.76-.31,9.94-15.16L107,47a11.69,11.69,0,0,0,1.56-3.69h0l2.33-3.57a6.28,6.28,0,0,1,.7,1.35L97.9,61.86Zm2.15-.24.61-.07,12.89-19.66a12,12,0,0,1,.32,1.92l-11.5,17.54Zm3.12-.36.26,0,10.49-16a24.85,24.85,0,0,1-.13,2.61l-8.66,13.21,1-.12ZM107,61.4l-.85-.48-1.61.19,8.3-12.66A3.18,3.18,0,0,1,114,49l-7.88,12,.72.4,7.79-11.89a6.29,6.29,0,0,1,.88,1.07l-7.92,12.07h0A10.6,10.6,0,0,0,107,61.4Zm1.85,8.73,3.28-5C111.6,68.62,110,69.77,108.8,70.13Zm3.28-5a14.35,14.35,0,0,0,.13-1.7A14.35,14.35,0,0,1,112.08,65.12Zm-4.36,5.16-.41,0a5.17,5.17,0,0,0,1.36-3.83h0l3.48-5.31q.09,1.28.06,2.31Zm9.43-15.93h-.1c-1.46,5.07-3.75,5.6-4.63,5.6a3,3,0,0,0,.53-.06l4-6.14a2.58,2.58,0,0,1,.08.26h.1a1.09,1.09,0,0,1-.05.17A1,1,0,0,1,117.15,54.35ZM71.28,82a1.81,1.81,0,0,0,1.82-1.82V76a1.82,1.82,0,0,0-3.64,0v4.15A1.82,1.82,0,0,0,71.28,82Zm-24.07-10V16.56a5.58,5.58,0,0,0,6.4-.83l4.83-4.6a4.14,4.14,0,0,1,5.64,0l4.59,4.37a5.58,5.58,0,0,0,7.6,0l4.6-4.37a4.12,4.12,0,0,1,5.63,0l4.83,4.6a5.6,5.6,0,0,0,7.61,0l4.83-4.6a4.12,4.12,0,0,1,5.63,0L114,15.5a5.57,5.57,0,0,0,6.39.84V71.93c.38-1.28.27-2.11,1-2.7a1,1,0,0,1,.41-.15V13.58a49,49,0,0,0-.62-8.06,1.46,1.46,0,0,0-.91-1.1C115.07,2.48,97.37,0,83.8,0S52.53,2.48,47.32,4.42a1.44,1.44,0,0,0-.91,1.1,49,49,0,0,0-.62,8.06v55.5a.86.86,0,0,1,.4.15C47,69.82,46.83,70.65,47.21,71.93Zm70.05-61a1.55,1.55,0,1,1-1.55,1.55A1.55,1.55,0,0,1,117.26,11ZM95,10.24a1.55,1.55,0,1,1-1.55,1.55A1.54,1.54,0,0,1,95,10.24Zm-22.31,0a1.55,1.55,0,1,1-1.55,1.55A1.54,1.54,0,0,1,72.65,10.24ZM50.34,11A1.55,1.55,0,1,1,48.8,12.5,1.55,1.55,0,0,1,50.34,11Zm54.42,81.29a1.82,1.82,0,0,0,1.82-1.81V86.27a1.82,1.82,0,0,0-3.64,0v4.16A1.82,1.82,0,0,0,104.76,92.24ZM94.51,76v4.15a1.82,1.82,0,1,0,3.63,0V76a1.82,1.82,0,1,0-3.63,0ZM61,86.27v4.16a1.82,1.82,0,0,0,3.63,0V86.27a1.82,1.82,0,0,0-3.63,0Zm5.63-11V71.08a1.82,1.82,0,1,0-3.63,0v4.16a1.82,1.82,0,0,0,3.63,0Z"/></g></g></svg>