<svg xmlns="http://www.w3.org/2000/svg" viewBox="0 0 115 145"><defs><style>.cls-1{fill:#227791;}.cls-2{fill:#20617b;}.cls-3{fill:#fcecdb;}.cls-4{fill:#e3c190;}</style></defs><title>1</title><g id="Capa_2" data-name="Capa 2"><g id="OBJECTS"><path class="cls-1" d="M57.5,0V145a86.82,86.82,0,0,1-39.58-23C0,103.61,0,89.15,0,72.5V0S12,10.47,28.75,10.75,57.5,0,57.5,0Z"/><path class="cls-2" d="M57.5,0V145a86.82,86.82,0,0,0,39.58-23C115,103.61,115,89.15,115,72.5V0S103,10.47,86.25,10.75,57.5,0,57.5,0Z"/><path class="cls-3" d="M29.37,15.75h-.7A52,52,0,0,1,5,9.28V72.5c0,16.25,0,29.08,16.5,46a83.26,83.26,0,0,0,36,21.35V6.34C52.48,9.9,42.26,15.75,29.37,15.75Z"/><path class="cls-4" d="M93.5,118.49C110,101.58,110,88.75,110,72.5V9.28a52,52,0,0,1-23.67,6.47h-.7c-12.89,0-23.11-5.85-28.13-9.41h0v133.5h0A82.93,82.93,0,0,0,93.5,118.49Z"/><path class="cls-1" d="M29.37,18.75h-.75A54.08,54.08,0,0,1,8,14.08V72.5c0,16.17,0,27.86,15.65,43.9A80.18,80.18,0,0,0,57.5,136.73V10C51.79,13.69,41.75,18.75,29.37,18.75Z"/><path class="cls-2" d="M91.35,116.4C107,100.36,107,88.67,107,72.5V14.08a54.08,54.08,0,0,1-20.62,4.67h-.75c-12.38,0-22.42-5.06-28.13-8.78h0V136.73h0A79.58,79.58,0,0,0,91.35,116.4Z"/></g></g></svg>