<svg xmlns="http://www.w3.org/2000/svg" viewBox="0 0 122.32 158.21"><defs><style>.cls-1{isolation:isolate;}.cls-2{fill:#8f4139;}.cls-3{fill:#ffde75;}.cls-4{fill:#e8dbc4;mix-blend-mode:multiply;}</style></defs><title>1</title><g class="cls-1"><g id="Capa_2" data-name="Capa 2"><g id="OBJECT"><path class="cls-2" d="M122.32,6.19A305.36,305.36,0,0,0,0,6.19V60.52a108.6,108.6,0,0,0,61.16,97.69h0a108.6,108.6,0,0,0,61.16-97.69V6.19Z"/><path class="cls-3" d="M61.16,151.57a102.68,102.68,0,0,1-55.23-91V11.07a299.82,299.82,0,0,1,110.45,0V60.52a102.64,102.64,0,0,1-55.22,91Z"/><path class="cls-2" d="M81,108.42a1.48,1.48,0,0,0-1.66-.3l-2.53-2.53a1.48,1.48,0,1,0-2.4.44l.83.82-5.82,5.81.52.53h0l-2.84-2.84a1.48,1.48,0,1,0-.17,2.23l.59.6L48.7,130.82l-2,7.49,7.49-2,17.64-18.83.56.56a1.49,1.49,0,0,0,.15,1.92,1.48,1.48,0,0,0,2.09-2.09L70,113.19h0l2.32,2.32,5.82-5.82.82.82a1.48,1.48,0,1,0,2.1-2.09Z"/><path class="cls-2" d="M52.36,113.19h0l-4.63,4.64A1.48,1.48,0,1,0,50,118l.57-.56L55.77,123l4.77-4.47-5.75-5.38.59-.6a1.48,1.48,0,1,0-.17-2.23l-2.85,2.84h0l.53-.53-5.82-5.81.82-.82a1.48,1.48,0,1,0-2.39-.44L43,108.12a1.48,1.48,0,1,0,.44,2.39l.82-.82L50,115.51Z"/><polygon class="cls-2" points="66.59 124.23 61.74 129.41 68.17 136.27 75.66 138.31 73.62 130.82 66.59 124.23"/><path class="cls-2" d="M89,60.64a13.33,13.33,0,0,0,10.28,4,16.4,16.4,0,0,1-7.42-7.72,32.74,32.74,0,0,1-2.47-10.15,10.61,10.61,0,0,0,9.48,1.8,8.44,8.44,0,0,1-5.28-4.15c-1.17-1.87-1.74-4.36-3.26-6a2,2,0,0,0,1,.14,30.59,30.59,0,0,0,6.12-.76,10.08,10.08,0,0,1-6-5.07,6.93,6.93,0,0,0,4.93-4c-1.53,1.06-3.76.87-5.57.24s-3.43-1.65-5.29-2.19-4.15-.44-5.42.86a5.11,5.11,0,0,0-1,1.52A11.23,11.23,0,0,0,78,35.48L78.37,34a2.28,2.28,0,0,1,.86-1.56,2.54,2.54,0,0,1,2.33.12c.87.4,1.72,1.13,1.58,2a2.46,2.46,0,0,1-.76,1.18,16.77,16.77,0,0,1-1.44,1.35,2.91,2.91,0,0,1,2.2.45,1.49,1.49,0,0,1,.06,1.9,5.18,5.18,0,0,1-1.69,1.37A22.16,22.16,0,0,1,77.07,43a9.22,9.22,0,0,1-5.28.16,4.58,4.58,0,0,1-2.74,2.35,9,9,0,0,1-1.88.45,6.49,6.49,0,0,1-1.27-1.6,6.27,6.27,0,0,0,3.13.13,3.9,3.9,0,0,1-2.11-2.13,2.72,2.72,0,0,0,1.87.14,4.44,4.44,0,0,1-2.27-3,4.11,4.11,0,0,0,1.55.51,3.35,3.35,0,0,1-.82-2.72c1.77-.73,1.5-.31,3.45-.41l.18-.24c-1.64-1.07-1.49-1.67-3.52-1.72A6.1,6.1,0,0,0,63,29.77,7.4,7.4,0,0,0,56,31.23a4.71,4.71,0,0,1-2.06,1.5,5.51,5.51,0,0,0,2.7.73A5,5,0,0,0,54.69,36a3.41,3.41,0,0,1-2.44,2.06,4.65,4.65,0,0,0,3.74-.3,4.19,4.19,0,0,1-3.08,4.39,6.48,6.48,0,0,0,3.59.5,6.57,6.57,0,0,1-2,2.89l-.06,0a4.58,4.58,0,0,1-2.74-2.35A9.26,9.26,0,0,1,46.4,43,22.35,22.35,0,0,1,42,40.79a5.18,5.18,0,0,1-1.69-1.37,1.48,1.48,0,0,1,.06-1.9,2.9,2.9,0,0,1,2.19-.45,16.64,16.64,0,0,1-1.43-1.35,2.39,2.39,0,0,1-.76-1.18c-.14-.86.71-1.59,1.57-2a2.54,2.54,0,0,1,2.33-.12A2.29,2.29,0,0,1,45.11,34l.35,1.49a11.23,11.23,0,0,0-1.1-6.39,5.11,5.11,0,0,0-1-1.52c-1.28-1.3-3.57-1.39-5.43-.86s-3.47,1.56-5.28,2.19-4,.82-5.58-.24a7,7,0,0,0,4.94,4,10.08,10.08,0,0,1-6,5.07,30.59,30.59,0,0,0,6.12.76,2,2,0,0,0,1-.14c-1.52,1.67-2.09,4.16-3.26,6a8.47,8.47,0,0,1-5.28,4.15,10.62,10.62,0,0,0,9.48-1.8,32.74,32.74,0,0,1-2.47,10.15,16.38,16.38,0,0,1-7.43,7.72,13.35,13.35,0,0,0,10.29-4,26,26,0,0,0,5.94-9.37A29.12,29.12,0,0,1,38.85,63a17.65,17.65,0,0,1-8,9.25c5.36.08,10.22-3.34,13.11-7.33s4.4-8.61,6.54-13a17.62,17.62,0,0,1-.33,6.47,44.84,44.84,0,0,1-1.74,5.21A14.09,14.09,0,0,0,54.31,59a40.13,40.13,0,0,0,3.84-6.41c.06,1.47.34,3.07.4,4.53a5.8,5.8,0,0,1-.45,3.14,5.8,5.8,0,0,1-2.19,2c-1.53.9-3.21,1.58-4.74,2.48a8.24,8.24,0,0,0-3.59,3.59,7.33,7.33,0,0,1,2.51.35A33.16,33.16,0,0,1,42.18,78c-.49-.54-1.2-1.09-1.69-1.63a2,2,0,0,0-2-.79,6.45,6.45,0,0,0-5.73,4.86,2.8,2.8,0,0,1,2.79-1.48,4.62,4.62,0,0,1,2.95,1.4,3.86,3.86,0,0,0-2.67,3.35A7.52,7.52,0,0,0,37.28,88c.1-.71.22-1.43.32-2.14a1.53,1.53,0,0,1,.39-1,2.49,2.49,0,0,1,.82-.39,4.89,4.89,0,0,0,1.74-1.09c.73-.73,1.29-1.75,2.37-2A20,20,0,0,0,43.43,86a1.68,1.68,0,0,0,.77,1.26c.9-1.13,1.84-2.36,1.84-3.74,0-1-.5-2-.28-3a1.4,1.4,0,0,1,1.48-1,4.92,4.92,0,0,1,1.72.84,2.36,2.36,0,0,0,1.84.42A7.14,7.14,0,0,0,52.06,80a2.09,2.09,0,0,1,2.08.13c-.46-.55-.13-1.56-.68-2.12a2.14,2.14,0,0,0-1-.45,41.07,41.07,0,0,0-4.13-.75,17.27,17.27,0,0,1,5.53-5.76,10.31,10.31,0,0,0,1,1.66,61.15,61.15,0,0,1,3.68-5.15c0,.75,0,1.56,0,2.31a3.81,3.81,0,0,1-.35,1.66,4.83,4.83,0,0,1-2.56,1.77,13.45,13.45,0,0,0,3,1.69,2.65,2.65,0,0,1-3.33,1.25,4.56,4.56,0,0,0,2.93,3A9.64,9.64,0,0,1,50,82.5a9.07,9.07,0,0,0,6.91,1.31,5.57,5.57,0,0,1-4.47,3.31c-1.08.11-2.18-.05-3.24.13-2.29.37-3.92,2.16-5,4,.67-.83,2.31-.91,3.47-1s2.3.16,3.45.19a10.61,10.61,0,0,0,7.19-2.59,15.57,15.57,0,0,1-4.13,3.49,6.59,6.59,0,0,1-4,1.4,7.49,7.49,0,0,0,4.86,0,12.68,12.68,0,0,0,4.74-3.46A18.89,18.89,0,0,0,60.34,93,6.41,6.41,0,0,0,62,96.2c1-.88.78-2,1.13-3.23a18.89,18.89,0,0,0,.64-3.64,12.65,12.65,0,0,0,4.73,3.46,7.52,7.52,0,0,0,4.87,0,6.57,6.57,0,0,1-4-1.4,15.78,15.78,0,0,1-4.14-3.49,10.62,10.62,0,0,0,7.19,2.59c1.16,0,2.31-.23,3.46-.19s2.8.13,3.47,1c-1.08-1.81-2.71-3.6-5-4-1.06-.18-2.16,0-3.24-.13a5.57,5.57,0,0,1-4.47-3.31,9.07,9.07,0,0,0,6.91-1.31,9.66,9.66,0,0,1-8.3-3.3,4.55,4.55,0,0,0,2.94-3A2.65,2.65,0,0,1,64.82,75a13.17,13.17,0,0,0,3-1.69,4.91,4.91,0,0,1-2.56-1.77A4,4,0,0,1,65,69.88c0-.75,0-1.56,0-2.31a61.15,61.15,0,0,1,3.68,5.15,10.31,10.31,0,0,0,1-1.66,17.37,17.37,0,0,1,5.53,5.76,40.07,40.07,0,0,0-4.13.75A2.14,2.14,0,0,0,70,78c-.55.56-.23,1.57-.68,2.12A2.09,2.09,0,0,1,71.42,80a7.44,7.44,0,0,0,1.25.78,2.37,2.37,0,0,0,1.85-.42,4.84,4.84,0,0,1,1.72-.84,1.39,1.39,0,0,1,1.47,1c.23,1-.28,2-.28,3,0,1.38.95,2.61,1.85,3.74A1.71,1.71,0,0,0,80.05,86a20.51,20.51,0,0,0,.51-4.62c1.08.22,1.63,1.24,2.37,2a4.89,4.89,0,0,0,1.74,1.09,2.49,2.49,0,0,1,.82.39,1.58,1.58,0,0,1,.39,1c.1.71.21,1.43.31,2.14a7.46,7.46,0,0,0,1.48-4.32A3.86,3.86,0,0,0,85,80.31a4.59,4.59,0,0,1,2.94-1.4,2.8,2.8,0,0,1,2.8,1.48A6.45,6.45,0,0,0,85,75.53a2.44,2.44,0,0,0-1.2.12,2.33,2.33,0,0,0-.82.67c-.49.54-1.21,1.09-1.69,1.63a33.16,33.16,0,0,1-7.91-9.29,7.33,7.33,0,0,1,2.51-.35,8.24,8.24,0,0,0-3.59-3.59c-1.53-.9-3.22-1.58-4.75-2.48a5.84,5.84,0,0,1-2.18-2,5.8,5.8,0,0,1-.45-3.14c.06-1.46.33-3.06.4-4.53A40.13,40.13,0,0,0,69.17,59,14.09,14.09,0,0,0,75,63.6a43,43,0,0,1-1.74-5.21,17.62,17.62,0,0,1-.33-6.47c2.14,4.34,3.64,9,6.53,13s7.75,7.41,13.12,7.33a17.65,17.65,0,0,1-8-9.25A28.94,28.94,0,0,1,83.1,51.27,26,26,0,0,0,89,60.64Z"/><path class="cls-4" d="M122.32,6.19A305,305,0,0,0,61.16,0V158.21h0a108.6,108.6,0,0,0,61.16-97.69V6.19Z"/></g></g></g></svg>