<svg xmlns="http://www.w3.org/2000/svg" viewBox="0 0 123.16 157.69"><defs><style>.cls-1{isolation:isolate;}.cls-2{fill:#3d4f53;}.cls-3{fill:#77823c;}.cls-4{fill:#f8f6e4;}.cls-5{fill:#e8dbc4;mix-blend-mode:multiply;}</style></defs><title>003</title><g class="cls-1"><g id="Capa_2" data-name="Capa 2"><g id="OBJECT"><path class="cls-2" d="M123.16,6.17A310.26,310.26,0,0,0,0,6.17V60.32a108.15,108.15,0,0,0,61.58,97.37h0a108.15,108.15,0,0,0,61.58-97.37V6.17Z"/><path class="cls-3" d="M61.58,151.07a102.9,102.9,0,0,1-39.85-36.45A101.45,101.45,0,0,1,6,60.32V11a304.5,304.5,0,0,1,111.21,0V60.32a101.46,101.46,0,0,1-15.76,54.3A102.76,102.76,0,0,1,61.58,151.07Z"/><path class="cls-2" d="M61.58,5.92V151.07a102.76,102.76,0,0,0,39.85-36.45,101.46,101.46,0,0,0,15.76-54.3V11A305.13,305.13,0,0,0,61.58,5.92Z"/><path class="cls-4" d="M24.33,88a8.59,8.59,0,0,0-5.91,3.75,7.59,7.59,0,0,1,7.19-7.29A2.5,2.5,0,0,0,27,84.26c.91-.58.38-2.17-.64-2.54a4.44,4.44,0,0,0-3.14.46,5.18,5.18,0,0,1,4.67-2.38,12.85,12.85,0,0,1,5.23,1.54,1.9,1.9,0,0,0,1.59.25c.92-.43.53-1.83,0-2.71a5.28,5.28,0,0,1,3.21,2.91,10.89,10.89,0,0,0,.83,1.95,2.72,2.72,0,0,0,2.54,1.13,6.41,6.41,0,0,1,.11-.88,9.93,9.93,0,0,1,1-2.51c.63-1.18,1.31-2.34,2-3.46,4.24-6.55,8.83-12.85,12.89-19.51a7.25,7.25,0,0,0-2.48-.82,3.58,3.58,0,0,0-3.76,1.89c.17-1.6.25-3.45-.93-4.55a3.1,3.1,0,0,0-2.89-.6,4.46,4.46,0,0,0-2.4,1.83c-.13-2.24,2-4,2.44-6.18.12-.63-.08-1.5-.72-1.53-.45,0-.78.4-1,.77a13,13,0,0,1-3.76,3.51c.86-.5.85-1.71,1-2.7a5.61,5.61,0,0,1,1.82-3.34c1-.83,2.33-1.64,2.18-2.9a.51.51,0,0,0-.3-.46.6.6,0,0,0-.46.1L43.11,45c1.52-1.45,2.11-3.7,3.69-5.08A5.92,5.92,0,0,1,48,39.15,14.82,14.82,0,0,0,46,35.81a2.09,2.09,0,0,0-.86-.73,2.14,2.14,0,0,0-1.15,0l-5.16,1c-.67.13-1.66,0-1.63-.68s1.06-.7,1.76-.62a4.58,4.58,0,0,0,3.8-1.41,8.66,8.66,0,0,0-2.72-2A4,4,0,0,0,37,30.68,4.94,4.94,0,0,0,35,32.35a2.54,2.54,0,0,1-2.21,1.08c-.2,0-.43-.16-.44-.37a.59.59,0,0,1,.2-.4,19.9,19.9,0,0,1,2.8-2.55c-.05-.55-.74-.8-1.28-.71a12.67,12.67,0,0,1-1.59.38c-1,0-1.86-.8-2.81-.63s-1.35,1-2.16,1.23a.71.71,0,0,1-.41,0,.77.77,0,0,1-.52-.74c0-.84.85-1.44,1.67-1.58s1.69,0,2.5-.19,1.62-.95,1.42-1.76a2,2,0,0,0-.64-.92,11.63,11.63,0,0,0-2.63-1.87.55.55,0,0,1-.3-.26c-.1-.28.28-.49.58-.53a4.33,4.33,0,0,1,4.46,2.67,3.27,3.27,0,0,0,.46,1,.7.7,0,0,0,.95.16c.27-.24.2-.67.11-1l-.63-2.45a3.12,3.12,0,0,1,2.08,2A10.82,10.82,0,0,0,38,27.48a9.23,9.23,0,0,0,3.1,1.89c2.61,1.33,4.59,3.62,6.49,5.85a2.61,2.61,0,0,0,1.79-2.28,7,7,0,0,0-.52-3c.45-.27.94.3,1.16.78.56,1.21,1.13,2.6.65,3.84-.2.51-.56.94-.8,1.43a3.37,3.37,0,0,0-.18,2.42l1-.37a9.93,9.93,0,0,1,2-1.79c0-.25,0-.52,0-.77a14.62,14.62,0,0,0-.3-4.8,2,2,0,0,0-.47-1,2.1,2.1,0,0,0-1-.47l-5.1-1.26c-.66-.16-1.51-.69-1.2-1.29s1.25-.19,1.86.17a4.57,4.57,0,0,0,4,.3,8.61,8.61,0,0,0-1.65-2.93,4,4,0,0,0-2.52-2,5.11,5.11,0,0,0-2.45.72,2.54,2.54,0,0,1-2.46.07c-.16-.13-.32-.33-.24-.53a.56.56,0,0,1,.35-.28,20.5,20.5,0,0,1,3.61-1.15c.18-.52-.34-1-.87-1.18a13.88,13.88,0,0,1-1.61-.31c-.89-.38-1.35-1.51-2.29-1.75s-1.65.35-2.47.22a.84.84,0,0,1-.38-.15.77.77,0,0,1-.16-.9,1.8,1.8,0,0,1,2.17-.73c.81.21,1.53.7,2.35.87s1.87-.19,2-1a2,2,0,0,0-.2-1.1,12.26,12.26,0,0,0-1.61-2.81.5.5,0,0,1-.16-.35c0-.3.45-.33.74-.24a4.34,4.34,0,0,1,3,4.28,3,3,0,0,0,0,1.07.71.71,0,0,0,.8.54c.34-.1.46-.52.52-.88l.45-2.49a3.11,3.11,0,0,1,1.07,2.65,11.33,11.33,0,0,0,.11,3,9.69,9.69,0,0,0,2,3c1.82,2.3,2.66,5.2,3.46,8a2.59,2.59,0,0,0,2.57-1.33,6.83,6.83,0,0,0,.79-3c.53-.05.73.67.73,1.19,0,1.34-.05,2.84-1,3.77a15.9,15.9,0,0,1-1.32,1,3.48,3.48,0,0,0-1.21,2.82,7.05,7.05,0,0,1,1.11-.32.64.64,0,0,0,.42-.35L57,33a7,7,0,0,1,1-1.52A6.72,6.72,0,0,1,61.84,30a2.22,2.22,0,0,0-1.16,1.26,17,17,0,0,0-1.58,5.12h.23a2.34,2.34,0,0,1,1.65.83c.45.45.8,1,1.26,1.42a8,8,0,0,0,3.57,1.66,3.33,3.33,0,0,1,1.73.85,3.3,3.3,0,0,1,.53,2.21,2.5,2.5,0,0,1-.16,1.09,2.26,2.26,0,0,1-2,1c-2.45.15-5.08-.83-7.26.3,1.28,1.39,3.16,1.78,5.05,1.92a19.49,19.49,0,0,1,5.62.74A9.92,9.92,0,0,1,72,50.05a18,18,0,0,1,4.22,4.85c1.71-1.08,3.76-1.62,5.47-2.71a4.77,4.77,0,0,1,1.67-.76,4.54,4.54,0,0,1,1.86.2l10.93,2.69a4.88,4.88,0,0,1,4.08,3.26,1.14,1.14,0,0,1,.18,1A1.06,1.06,0,0,1,100,59a7.26,7.26,0,0,1-4.16,1.25,6.38,6.38,0,0,0-1.83-3,4,4,0,0,0-.72-.42.86.86,0,0,1-.44.1c-.33,0-.63-.13-1-.17a4.63,4.63,0,0,0-1.55.26,1.84,1.84,0,0,1-1.53-.17l.76-.39a.92.92,0,0,0-1-.61,5.23,5.23,0,0,0-1.21.3,1.33,1.33,0,0,1-1.2-.15,1.06,1.06,0,0,0,.53-.09.38.38,0,0,0,.21-.45.47.47,0,0,0-.25-.23,1.75,1.75,0,0,0-1.59.32,5.14,5.14,0,0,1-1.44.86,4.79,4.79,0,0,1,.58-1,.91.91,0,0,0,.08-.83,4.57,4.57,0,0,0-1.24,1.53,33.49,33.49,0,0,1-6.93,8.17c2.13,1.17,4.49,2.56,6.62,3.73a4.93,4.93,0,0,1,1.49,1.06,5.16,5.16,0,0,1,1,2.58q.84,4.82,1.36,9.69a3,3,0,0,1-2.15,3.91,1.57,1.57,0,0,1-2.65-.91,4.84,4.84,0,0,1-.42-1.86,1.59,1.59,0,0,1,1-1.49c0-.1.07-.21.11-.32l-.27-.34a1.79,1.79,0,0,1-.46-1.46l.66.54a.91.91,0,0,0,.16-1.14,5.6,5.6,0,0,0-.77-1,1.32,1.32,0,0,1-.35-1.15,1.12,1.12,0,0,0,.3.44.39.39,0,0,0,.5,0,.46.46,0,0,0,.1-.32A1.73,1.73,0,0,0,81.39,75,5,5,0,0,1,80,74a4.84,4.84,0,0,1,1.12.14.82.82,0,0,0,.85-.41,1.8,1.8,0,0,0-.49-.5,2.14,2.14,0,0,0-.66-.22l-6.45-1.53A21.38,21.38,0,0,1,70.8,77.6a9.29,9.29,0,0,1-6.32,3.1,20.46,20.46,0,0,1,4.08.87,5.9,5.9,0,0,1,2,.9,2.61,2.61,0,0,1,1.12,1.85,3.82,3.82,0,0,1-.46,1.83,35.3,35.3,0,0,1-6.33,9.46,11.64,11.64,0,0,0,5.61,2.9,38.86,38.86,0,0,1,6.38,1.85A7.67,7.67,0,0,1,81.35,105a.9.9,0,0,1,0,.56c-.1.27-.41.39-.69.48a22,22,0,0,1-4.53.88,2,2,0,0,1-.88-.05c-.81-.29-1-1.35-1-2.21l-1.23-.6a2.66,2.66,0,0,0-.38-.1,4.68,4.68,0,0,0-1.57.2,1.83,1.83,0,0,1-1.52-.23l.77-.36a.92.92,0,0,0-.95-.65,5.88,5.88,0,0,0-1.22.25A1.31,1.31,0,0,1,67,103a1.05,1.05,0,0,0,.53-.07.39.39,0,0,0,.23-.44.45.45,0,0,0-.25-.24,1.74,1.74,0,0,0-1.59.25,5.31,5.31,0,0,1-1.47.81,4.15,4.15,0,0,1,.61-1c.2-.32.26-.82,0-1a.8.8,0,0,0-.59-.07,2.85,2.85,0,0,0-1.91,1.23,1.79,1.79,0,0,1,.18-2.07,3.38,3.38,0,0,1,.26-.27c-.8-.22-1.7-.53-2-1.31a2.63,2.63,0,0,1-.05-1.25l.85-6.9a28.33,28.33,0,0,1-11,9.37,2.77,2.77,0,0,0-.75.43,2.65,2.65,0,0,0-.58.82,29.2,29.2,0,0,0-3.22,14c.47.67,1,1.22,1.44,1.89.69,1,1.42,2.21,1,3.33a1,1,0,0,1-.48.57,1.5,1.5,0,0,1-.73.06l-4.25-.36a1,1,0,0,1-.51-.14,1,1,0,0,1-.28-.88l.06-3.18-.26-.38a1.82,1.82,0,0,1-.36-1.49l.62.58s0,0,0,0l0-1.47c-.16-.23-.34-.44-.51-.67a1.39,1.39,0,0,1-.27-1.18,1.16,1.16,0,0,0,.27.47.4.4,0,0,0,.5,0l0-.06c0-.23,0-.47,0-.7a2.19,2.19,0,0,0-.77-.94,5.55,5.55,0,0,1-1.3-1.05,3.89,3.89,0,0,1,1.11.21c.38.06.85-.07.93-.44a.86.86,0,0,0-.15-.58,2.87,2.87,0,0,0-1.87-1.29,1.79,1.79,0,0,1,2-.62,2.42,2.42,0,0,1,.56.25c.52-2.08,1.47-4,2-6.11a17.18,17.18,0,0,0,.54-6,6.84,6.84,0,0,1-3.47-3.79,11.8,11.8,0,0,1-.71-3,11.69,11.69,0,0,0-2-.23c-2.36.07-4.77,1.93-6.86.85a2.2,2.2,0,0,0,1.86-2.29c-1.46-.37-2.8.94-3.58,2.23s-1.51,2.81-2.92,3.33c-1.64.59-3.38-.45-4.74-1.52a4.4,4.4,0,0,0,2.34-.13,1.5,1.5,0,0,0,.84-1.94A2,2,0,0,0,24.33,88Z"/><path class="cls-4" d="M90.92,117.53,76.25,130.66,61.58,117.53,46.91,130.66,32.24,117.53,27,122.2a103.11,103.11,0,0,0,34.55,28.87A103,103,0,0,0,96.13,122.2Z"/><path class="cls-5" d="M123.16,6.17A310.55,310.55,0,0,0,61.58,0V157.69h0a108.15,108.15,0,0,0,61.58-97.37V6.17Z"/></g></g></g></svg>