<?xml version="1.0" encoding="UTF-8"?>
<svg width="39px" height="39px" viewBox="0 0 39 39" version="1.1" xmlns="http://www.w3.org/2000/svg" xmlns:xlink="http://www.w3.org/1999/xlink">
    <!-- Generator: Sketch 49.3 (51167) - http://www.bohemiancoding.com/sketch -->
    <title>base</title>
    <desc>Created with Sketch.</desc>
    <defs></defs>
    <g id="Symbols" stroke="none" stroke-width="1" fill="none" fill-rule="evenodd">
        <g id="Footer" transform="translate(-342.000000, -13.000000)">
            <g id="Group-2" transform="translate(189.000000, 14.000000)">
                <g id="base" transform="translate(154.000000, 0.000000)">
                    <circle id="Oval-Copy" stroke="#FFFFFF" cx="18.3206107" cy="18.3206107" r="18.3206107"></circle>
                    <path d="M24.9957228,26.8463707 L22.6344314,21.8224707 C22.5873098,21.7222257 22.5056604,21.6454145 22.4077441,21.6035079 L21.233028,21.0775116 L23.2684913,17.646238 C23.2733538,17.6380044 23.2779366,17.6296653 23.2823094,17.6211503 C23.6869883,16.8266844 23.8921963,15.9681799 23.8921963,15.0696336 C23.8921963,13.5580759 23.3028792,12.1409928 22.232796,11.0794647 C21.1628878,10.0181829 19.7454623,9.44496692 18.2417347,9.4662193 C16.7812806,9.48659202 15.4061841,10.076627 14.3696842,11.1277048 C13.3332894,12.1787122 12.7577554,13.5665557 12.7490797,15.0356791 C12.7437624,15.9334512 12.9546725,16.8274585 13.3588616,17.6211151 C13.3631995,17.629595 13.3677822,17.6379693 13.3726448,17.6462028 L15.4080731,21.0774412 L14.2265704,21.6063228 C14.1299134,21.6495665 14.0519022,21.7262369 14.0067046,21.8224356 L11.6454832,26.8463707 C11.5664575,27.0143841 11.599796,27.2141706 11.7290217,27.3470683 C11.8582125,27.479966 12.0559342,27.5180373 12.2247953,27.4424577 L15.1828551,26.1178435 L18.1409148,27.4424577 C18.2553429,27.4936534 18.386003,27.4936534 18.5004311,27.4424577 L21.4584909,26.1178435 L24.4165506,27.4424577 C24.4743419,27.4683194 24.5355265,27.480916 24.5961864,27.480916 C24.7127134,27.480916 24.8273515,27.4345408 24.9123242,27.3471035 C25.0414451,27.2141706 25.0747485,27.0144545 24.9957228,26.8463707 Z M14.1392538,17.2032807 C13.7988729,16.5301012 13.6285426,15.8026999 13.6330554,15.0409922 C13.6480279,12.4925014 15.7210276,10.3904514 18.2540486,10.3551598 C19.5192298,10.3380593 20.7120319,10.8195805 21.6121345,11.712497 C22.512517,12.6056246 23.0083256,13.7978689 23.0083256,15.0696688 C23.0083256,15.8212077 22.8379952,16.5389328 22.5020222,17.2032807 L18.7001819,23.6123501 C18.5841095,23.8079846 18.396113,23.8290962 18.3206555,23.8290962 C18.245163,23.8290962 18.0571664,23.8079846 17.9411291,23.6123501 L14.1392538,17.2032807 Z M21.6381616,25.2251733 C21.5237335,25.1739776 21.3930734,25.1739776 21.2786453,25.2251733 L18.3205855,26.5497875 L15.3625258,25.2251733 C15.2480976,25.1739776 15.1174376,25.1739776 15.0030095,25.2251733 L12.953798,26.1428256 L14.7357423,22.3515634 L15.8642114,21.8464324 L17.1819365,24.0678336 C17.4234564,24.4750066 17.8491249,24.7181071 18.3205156,24.7181071 C18.7919063,24.7181071 19.2175747,24.4750066 19.4590946,24.0678688 L20.7768197,21.8464676 L21.9053938,22.3517745 L23.6872331,26.1428608 L21.6381616,25.2251733 Z" id="Shape" fill="#FFFFFF" fill-rule="nonzero"></path>
                    <path d="M18.3206292,13.129771 C17.1420234,13.129771 16.1832061,14.0885966 16.1832061,15.2671756 C16.1832061,16.4457545 17.1420234,17.4045802 18.3206292,17.4045802 C19.4991979,17.4046172 20.4580153,16.4457545 20.4580153,15.2671756 C20.4580153,14.0885966 19.4991979,13.129771 18.3206292,13.129771 Z M18.3206292,16.4679597 C17.6585207,16.4679967 17.1198185,15.929364 17.1198185,15.2671756 C17.1198185,14.6050613 17.6584836,14.0663915 18.3206292,14.0663915 C18.9827377,14.0663915 19.5214029,14.6050613 19.5214029,15.2671756 C19.5214029,15.9292898 18.9827377,16.4679597 18.3206292,16.4679597 Z" id="Shape" fill="#FFFFFF" fill-rule="nonzero"></path>
                </g>
            </g>
        </g>
    </g>
</svg>