<?xml version="1.0" encoding="UTF-8"?>
<svg width="15px" height="15px" viewBox="0 0 15 15" version="1.1" xmlns="http://www.w3.org/2000/svg" xmlns:xlink="http://www.w3.org/1999/xlink">
    <!-- Generator: Sketch 49.3 (51167) - http://www.bohemiancoding.com/sketch -->
    <title>cronograma</title>
    <desc>Created with Sketch.</desc>
    <defs></defs>
    <g id="Page-1" stroke="none" stroke-width="1" fill="none" fill-rule="evenodd">
        <g id="Agregar-Actividad-" transform="translate(-818.000000, -128.000000)" fill="#FFFFFF" fill-rule="nonzero">
            <g id="Ligth-box" transform="translate(124.000000, 103.000000)">
                <g id="cronograma" transform="translate(694.000000, 25.000000)">
                    <path d="M4.24804688,6.15234375 C4.24804688,6.47595703 3.98572266,6.73828125 3.66210938,6.73828125 C3.33849609,6.73828125 3.07617188,6.47595703 3.07617188,6.15234375 C3.07617188,5.82873047 3.33849609,5.56640625 3.66210938,5.56640625 C3.98572266,5.56640625 4.24804688,5.82873047 4.24804688,6.15234375 Z M8.75976562,6.73828125 C9.08337891,6.73828125 9.34570312,6.47595703 9.34570312,6.15234375 C9.34570312,5.82873047 9.08337891,5.56640625 8.75976562,5.56640625 C8.43615234,5.56640625 8.17382812,5.82873047 8.17382812,6.15234375 C8.17382812,6.47595703 8.43618164,6.73828125 8.75976562,6.73828125 Z M11.8945312,6.15234375 C11.8945312,5.82873047 11.632207,5.56640625 11.3085938,5.56640625 C10.9849805,5.56640625 10.7226562,5.82873047 10.7226562,6.15234375 C10.7226562,6.47595703 10.9849805,6.73828125 11.3085938,6.73828125 C11.632207,6.73828125 11.8945312,6.47595703 11.8945312,6.15234375 Z M4.24804688,8.70117188 C4.24804688,8.37755859 3.98572266,8.11523438 3.66210938,8.11523438 C3.33849609,8.11523438 3.07617188,8.37755859 3.07617188,8.70117188 C3.07617188,9.02478516 3.33849609,9.28710938 3.66210938,9.28710938 C3.98572266,9.28710938 4.24804688,9.02478516 4.24804688,8.70117188 Z M3.66210938,10.6640625 C3.33849609,10.6640625 3.07617188,10.9263867 3.07617188,11.25 C3.07617188,11.5736133 3.33849609,11.8359375 3.66210938,11.8359375 C3.98572266,11.8359375 4.24804688,11.5736133 4.24804688,11.25 C4.24804688,10.9263867 3.98572266,10.6640625 3.66210938,10.6640625 Z M6.2109375,5.56640625 C5.88732422,5.56640625 5.625,5.82873047 5.625,6.15234375 C5.625,6.47595703 5.88732422,6.73828125 6.2109375,6.73828125 C6.53455078,6.73828125 6.796875,6.47595703 6.796875,6.15234375 C6.796875,5.82873047 6.53455078,5.56640625 6.2109375,5.56640625 Z M6.2109375,8.11523438 C5.88732422,8.11523438 5.625,8.37755859 5.625,8.70117188 C5.625,9.02478516 5.88732422,9.28710938 6.2109375,9.28710938 C6.53455078,9.28710938 6.796875,9.02478516 6.796875,8.70117188 C6.796875,8.37755859 6.53455078,8.11523438 6.2109375,8.11523438 Z M6.2109375,10.6640625 C5.88732422,10.6640625 5.625,10.9263867 5.625,11.25 C5.625,11.5736133 5.88732422,11.8359375 6.2109375,11.8359375 C6.53455078,11.8359375 6.796875,11.5736133 6.796875,11.25 C6.796875,10.9263867 6.53455078,10.6640625 6.2109375,10.6640625 Z M8.17382812,8.70117188 C8.17382812,9.02478516 8.43615234,9.28710938 8.75976562,9.28710938 C9.08337891,9.28710938 9.34570312,9.02478516 9.34570312,8.70117188 C9.34570312,8.37755859 9.08337891,8.11523438 8.75976562,8.11523438 C8.43615234,8.11523438 8.17382812,8.37755859 8.17382812,8.70117188 Z M12.65625,1.17187729 L11.8945312,1.17187729 L11.8945312,0.585938644 C11.8945312,0.262324731 11.632207,0 11.3085938,0 C10.9849805,0 10.7226562,0.262324731 10.7226562,0.585938644 L10.7226562,1.17187729 L8.05664062,1.17187729 L8.05664062,0.585938644 C8.05664062,0.262324731 7.79431641,0 7.47070312,0 C7.14708984,0 6.88476562,0.262324731 6.88476562,0.585938644 L6.88476562,1.17187729 L4.24804688,1.17187729 L4.24804688,0.585938644 C4.24804688,0.262324731 3.98572266,0 3.66210938,0 C3.33849609,0 3.07617188,0.262324731 3.07617188,0.585938644 L3.07617188,1.17187729 L2.34375,1.17187729 C1.05140625,1.17187729 0,2.22328559 0,3.51563187 L0,12.6562747 C0,13.948621 1.05140625,15.0000293 2.34375,15.0000293 L5.91796875,15.0000293 C6.24158203,15.0000293 6.50390625,14.7377046 6.50390625,14.4140907 C6.50390625,14.0904767 6.24158203,13.828152 5.91796875,13.828152 L2.34375,13.828152 C1.69757813,13.828152 1.171875,13.3024479 1.171875,12.6562747 L1.171875,3.51563187 C1.171875,2.86945873 1.69757813,2.34375458 2.34375,2.34375458 L3.07617188,2.34375458 L3.07617188,2.92969322 C3.07617188,3.25330714 3.33849609,3.51563187 3.66210938,3.51563187 C3.98572266,3.51563187 4.24804688,3.25330714 4.24804688,2.92969322 L4.24804688,2.34375458 L6.88476562,2.34375458 L6.88476562,2.92969322 C6.88476562,3.25330714 7.14708984,3.51563187 7.47070312,3.51563187 C7.79431641,3.51563187 8.05664062,3.25330714 8.05664062,2.92969322 L8.05664062,2.34375458 L10.7226562,2.34375458 L10.7226562,2.92969322 C10.7226562,3.25330714 10.9849805,3.51563187 11.3085938,3.51563187 C11.632207,3.51563187 11.8945312,3.25330714 11.8945312,2.92969322 L11.8945312,2.34375458 L12.65625,2.34375458 C13.3024219,2.34375458 13.828125,2.86945873 13.828125,3.51563187 L13.828125,6.15235577 C13.828125,6.47596968 14.0904492,6.73829441 14.4140625,6.73829441 C14.7376758,6.73829441 15,6.47596968 15,6.15235577 L15,3.51563187 C15,2.22328559 13.948623,1.17187729 12.65625,1.17187729 Z M14.485166,8.48358398 C15.1705371,9.16898437 15.1705371,10.2841406 14.485166,10.969541 L11.2750195,14.173623 C11.2035352,14.2449902 11.1148242,14.2966113 11.0175,14.3235937 L8.65250977,14.9787305 C8.60085937,14.9930273 8.54827148,15.0000293 8.49612305,15.0000293 C8.34035156,15.0000293 8.18850586,14.937832 8.07667969,14.823252 C7.92744141,14.670293 7.87333008,14.4482227 7.93543945,14.2437891 L8.63601562,11.9373926 C8.66408203,11.8450488 8.71447266,11.7610547 8.78279297,11.6928809 L11.9996777,8.48311523 C12.6846387,7.79827148 13.7997949,7.79827148 14.485166,8.48358398 Z M12.7139648,11.0816602 L11.8851855,10.2528809 L9.71460938,12.4186523 L9.36641602,13.5649805 L10.5562207,13.2353906 L12.7139648,11.0816602 Z M13.6565332,9.31224609 C13.4280762,9.08375977 13.0563574,9.08375977 12.8279004,9.31224609 L12.7147559,9.42512695 L13.543418,10.2537891 L13.6569434,10.140498 C13.8849609,9.91242187 13.8849609,9.54070312 13.6565332,9.31224609 Z" id="Shape"></path>
                </g>
            </g>
        </g>
    </g>
</svg>