<?xml version="1.0" encoding="UTF-8"?>
<svg width="39px" height="39px" viewBox="0 0 39 39" version="1.1" xmlns="http://www.w3.org/2000/svg" xmlns:xlink="http://www.w3.org/1999/xlink">
    <!-- Generator: Sketch 49.3 (51167) - http://www.bohemiancoding.com/sketch -->
    <title>cumbre</title>
    <desc>Created with Sketch.</desc>
    <defs></defs>
    <g id="Symbols" stroke="none" stroke-width="1" fill="none" fill-rule="evenodd">
        <g id="Footer" transform="translate(-799.000000, -13.000000)">
            <g id="Group-2" transform="translate(189.000000, 14.000000)">
                <g id="cumbre" transform="translate(611.000000, 0.000000)">
                    <circle id="Oval-Copy-4" stroke="#FFFFFF" cx="18.3206107" cy="18.3206107" r="18.3206107"></circle>
                    <path d="M9.03075783,27.2429952 C8.88767066,27.1312581 8.68491418,27.1615221 8.57766264,27.3106676 L7.08754721,29.3838827 C6.98042335,29.5330281 7.0094068,29.7444766 7.15245141,29.8562136 C7.21071624,29.9016983 7.27876989,29.9236641 7.34627027,29.9236641 C7.44471186,29.9236641 7.54191921,29.8770257 7.60550405,29.7885413 L9.09561948,27.7152374 C9.20282846,27.5661807 9.17375989,27.3546879 9.03075783,27.2429952 Z" id="Shape" fill="#FFFFFF" fill-rule="nonzero"></path>
                    <path d="M29.8552402,29.3791687 L22.1737809,19.1923243 C22.1091116,19.1065728 22.0075592,19.0560886 21.899747,19.0560886 L21.4032886,19.0560886 L21.4032886,13.2823156 C21.5153791,13.3011577 21.6343597,13.2645477 21.7157818,13.1741864 C21.841968,13.0341911 21.8300789,12.8190515 21.6891665,12.6936018 C21.5889201,12.6043593 21.4925467,12.5483254 21.4032886,12.5145798 L21.4032886,11.1933974 C22.0631766,10.991013 22.7449512,11.1361551 23.4627082,11.2890846 C23.9536724,11.3936782 24.4541388,11.5002859 24.9646479,11.5002859 C25.3516729,11.5002859 25.7444172,11.4390156 26.1431961,11.2691237 C26.2472704,11.224771 26.3225678,11.1321271 26.3443194,11.0216705 C26.366071,10.9112139 26.3314846,10.7971769 26.2518639,10.7171541 C25.9644549,10.4279888 25.6552042,10.0486859 25.3100161,9.56170132 C25.6743888,9.03260179 26.0027791,8.4945064 26.3102284,7.92333669 C26.3788607,7.79587302 26.3589105,7.63927353 26.2606006,7.53280019 C26.1622907,7.42623734 26.0069673,7.39311827 25.8733504,7.45009202 C25.1489283,7.7586812 24.3996022,7.59912784 23.6063677,7.43013107 C22.8905922,7.27764908 22.1545512,7.12127335 21.3967136,7.29684919 C21.3656399,7.14069724 21.2272044,7.02290076 21.0608927,7.02290076 C20.8717485,7.02290076 20.7184517,7.17529324 20.7184517,7.36322159 L20.7184517,7.76288822 L20.7184517,10.9563722 L20.7184517,12.66281 C20.619151,12.7576469 20.5311089,12.8872141 20.4550009,13.0507954 C20.1890282,13.6229945 19.9393129,13.8155327 19.8074974,13.8065368 C19.6644234,13.7968249 19.44353,13.5606501 19.2969884,13.1391428 C19.1579224,12.5741493 18.7894065,12.0980403 18.2954701,11.8137534 C18.5918409,11.5420875 18.7789585,11.1543706 18.782201,10.7237779 L19.0238552,10.7237779 C19.1332886,10.7237779 19.236192,10.671772 19.3006812,10.5838275 C19.3651253,10.4958829 19.3834092,10.3826067 19.3498136,10.2790425 L18.888482,8.85684693 C19.5319774,8.66372695 20.0020457,8.06928438 20.0020457,7.36760763 C20.0020457,7.17967928 19.8487489,7.0272868 19.6596047,7.0272868 L17.1520936,7.0272868 C16.2890559,7.0272868 15.5869258,7.72506982 15.5869258,8.582809 L15.5869258,9.5294326 L15.5869258,9.53381864 L15.5869258,10.6737413 C15.5869258,11.1395565 15.7980467,11.5573491 16.130445,11.8395326 C16.0945527,11.8613732 16.059606,11.8845118 16.0251548,11.9083218 C15.852268,11.9479751 15.3832806,12.062773 14.9079433,12.241974 C13.9947823,12.5861886 13.550879,12.9840202 13.550879,13.4580257 C13.550879,13.9818889 14.0296839,14.2741871 14.4144122,14.5090639 C14.9716669,14.8492505 14.9909416,14.9311978 14.9056916,15.0962113 C14.8193157,15.2634179 14.8856963,15.4685771 15.0538995,15.5544182 C15.1039777,15.5799736 15.1573884,15.5920575 15.2100335,15.5920575 C15.2584004,15.5920575 15.3059566,15.58154 15.34973,15.5621609 C15.4317825,16.0222922 15.5314435,16.5077999 15.6433988,16.9652906 C15.8755958,17.9143757 16.1131969,18.6026706 16.3706131,19.0561781 L16.3327392,19.0561781 L14.8899296,19.0561781 C14.7821174,19.0561781 14.68052,19.1066623 14.6158957,19.1924138 L9.22870994,26.336824 C9.11535855,26.4872472 9.14602693,26.7005072 9.29738728,26.8132463 C9.44874764,26.9259854 9.66333619,26.8954174 9.77682268,26.7449942 L10.4958407,25.7914335 L15.595077,23.202999 L18.1573048,28.2956828 C18.215354,28.4109729 18.3338843,28.4837901 18.4635832,28.4837901 C18.593282,28.4837901 18.7118574,28.4109729 18.7698616,28.2956828 L20.0254635,25.8000265 C20.110083,25.6319249 20.0414958,25.4274817 19.8723469,25.3434756 C19.7031529,25.2593801 19.4974361,25.3275427 19.4129067,25.4956891 L18.4635832,27.3825363 L16.053076,22.5915941 C16.0122299,22.5104077 15.9404452,22.4487793 15.8536641,22.4204939 C15.766973,22.3921189 15.6723108,22.3994588 15.5910239,22.4407234 L11.4294022,24.553183 L15.0611951,19.7367302 L21.7283464,19.7367302 L25.3494662,24.5389508 L21.339475,22.4426031 C21.2579629,22.3999958 21.1626703,22.3918056 21.0751686,22.4198673 C20.9875318,22.447929 20.9149364,22.5097811 20.8738201,22.5915941 L19.9698011,24.3884828 C19.8851816,24.5565844 19.9537689,24.7610276 20.1229629,24.8450336 C20.2922018,24.9290845 20.4978736,24.8609666 20.582403,24.6928202 L21.3301079,23.206669 L26.3068508,25.8084853 L29.3071725,29.7873836 C29.3744538,29.8765813 29.4773572,29.9236641 29.5814765,29.9236641 C29.652901,29.9236641 29.725046,29.9015101 29.7865628,29.8556358 C29.9379232,29.7428967 29.9686366,29.5295919 29.8552402,29.3791687 Z M21.4033337,7.99977909 C22.0631315,7.79739471 22.7449962,7.94267107 23.4627532,8.09555586 C24.065988,8.22400415 24.6835436,8.35558532 25.316411,8.2887206 C25.0964633,8.65580522 24.8636809,9.01219328 24.6132,9.36576174 C24.5309223,9.48190226 24.5299316,9.63666679 24.610588,9.75388144 C24.8876392,10.1562334 25.1451004,10.4972703 25.3890063,10.7845559 C24.8154492,10.8811383 24.2241035,10.7551963 23.6063227,10.6235703 C23.1153585,10.5189767 22.614892,10.4123691 22.104428,10.4123691 C21.8728165,10.4123691 21.6391334,10.4343441 21.4032886,10.488364 L21.4032886,7.99977909 L21.4033337,7.99977909 Z M15.112219,13.6402254 C15.112219,13.7702401 15.1247385,13.9548118 15.1478411,14.1772019 C15.0200788,14.0801272 14.8864169,13.9983141 14.7728854,13.9290326 C14.533573,13.7829059 14.235716,13.6011091 14.235716,13.4579362 C14.235716,13.3973373 14.4026582,13.1612073 15.1444185,12.8806798 C15.1876064,12.864344 15.2308394,12.8486796 15.2738922,12.8334627 C15.169953,13.0821243 15.112219,13.3545958 15.112219,13.6402254 Z M18.4398501,10.0430915 C18.2507059,10.0430915 18.0974091,10.195484 18.0974091,10.3834123 L18.0974091,10.7121862 C18.0974091,11.1634112 17.7280376,11.5304958 17.2740016,11.5304958 L17.1438073,11.5304958 C16.6629759,11.5304958 16.2717627,11.1461356 16.2717627,10.673607 L16.2717627,9.82799655 C16.7134143,9.70787279 17.0621601,9.36209179 17.1829422,8.92312983 L18.190405,8.92312983 L18.5536969,10.0431362 L18.4398501,10.0431362 L18.4398501,10.0430915 Z M16.2717177,8.58276424 L16.2717627,8.58276424 C16.2717627,8.10038945 16.6666687,7.70788371 17.1520486,7.70788371 L19.2477658,7.70788371 C19.1138788,8.02175404 18.8008002,8.24244341 18.4367878,8.24244341 L16.886211,8.24244341 C16.6970669,8.24244341 16.54377,8.3948359 16.54377,8.58276424 C16.54377,8.79360741 16.4356876,8.97983505 16.2716726,9.08966505 L16.2716726,8.58276424 L16.2717177,8.58276424 Z M15.797146,13.6402254 C15.797146,12.8522153 16.4422176,12.2110927 17.2351369,12.2110927 C18.0280563,12.2110927 18.6731279,12.8521705 18.6731279,13.6402254 C18.6731279,13.8257369 18.6386766,14.1928216 18.5728364,14.6586368 L15.8974825,14.6586368 C15.8316423,14.1927768 15.797146,13.8256922 15.797146,13.6402254 Z M17.2351369,15.9739562 C17.0459928,15.9739562 16.8926959,16.1263487 16.8926959,16.3142771 L16.8926959,18.5750117 C16.7205748,18.2207271 16.5061213,17.6338035 16.2821656,16.6934009 C16.1718766,16.2303157 16.0790158,15.7654851 16.0050244,15.3392785 L18.4652945,15.3392785 C18.3913031,15.7653956 18.2984423,16.230271 18.1881983,16.6934009 C17.9641976,17.6337588 17.7497441,18.2207719 17.577623,18.5750117 L17.577623,16.3142771 C17.5775779,16.126304 17.4242811,15.9739562 17.2351369,15.9739562 Z M20.7184517,19.0560886 L18.1376248,19.0560886 L18.0996158,19.0560886 C18.357032,18.6025363 18.5946331,17.9141967 18.8268751,16.9651563 C19.0496148,16.0548294 19.2242129,15.0333299 19.3064456,14.3229258 C19.4480785,14.4187921 19.6011502,14.4747365 19.7609319,14.4855673 C19.7812875,14.4869547 19.8015529,14.4876708 19.8217283,14.4876708 C20.1477768,14.4876708 20.4477954,14.3070824 20.7184517,13.9496202 L20.7184517,19.0560886 Z" id="Shape" fill="#FFFFFF" fill-rule="nonzero"></path>
                </g>
            </g>
        </g>
    </g>
</svg>