<?xml version="1.0" encoding="UTF-8"?>
<svg width="98px" height="70px" viewBox="0 0 98 70" version="1.1" xmlns="http://www.w3.org/2000/svg" xmlns:xlink="http://www.w3.org/1999/xlink">
    <!-- Generator: Sketch 49.3 (51167) - http://www.bohemiancoding.com/sketch -->
    <title>005-school</title>
    <desc>Created with Sketch.</desc>
    <defs></defs>
    <g id="Page-1" stroke="none" stroke-width="1" fill="none" fill-rule="evenodd">
        <g id="Dashboard" transform="translate(-294.000000, -182.000000)" fill="#E0E4E6" fill-rule="nonzero">
            <g id="005-school" transform="translate(294.000000, 182.000000)">
                <path d="M92,61.5018655 L91.61,61.5018655 C93.6831875,58.4043862 92.852,54.2131164 89.75375,52.1404446 C86.6555,50.0677728 82.4631875,50.8987535 80.39,53.9962329 C78.8699375,56.2674178 78.8699375,59.2306806 80.39,61.5018655 L80,61.5018655 C76.6863125,61.5018655 74,64.1875098 74,67.5003731 C74,68.3285421 74.671625,69 75.5,69 C76.328375,69 77,68.3285421 77,67.5003731 C77,65.8438477 78.3430625,64.5011193 80,64.5011193 L92,64.5011193 C93.6569375,64.5011193 95,65.8438477 95,67.5003731 C95,68.3285421 95.671625,69 96.5,69 C97.328375,69 98,68.3285421 98,67.5003731 C98,64.1875098 95.3136875,61.5018655 92,61.5018655 Z M86,61.5018655 C83.928875,61.5018655 82.25,59.8234081 82.25,57.7527983 C82.25,55.6821884 83.928875,54.003731 86,54.003731 C88.071125,54.003731 89.75,55.6821884 89.75,57.7527983 C89.75,59.8234081 88.071125,61.5018655 86,61.5018655 Z" id="Shape"></path>
                <path d="M66.1637788,51.0000011 C62.3862054,50.997939 59.3220807,54.0177472 59.3199907,57.7448455 C59.3192307,59.0823793 59.72127,60.3899193 60.4751887,61.5015626 L60.0799894,61.5015626 C56.7221253,61.5015626 54,64.1873154 54,67.5003125 C54,68.3285149 54.6805788,69 55.5199973,69 C56.3594159,69 57.0399947,68.3285149 57.0399947,67.5003125 C57.0399947,65.8437202 58.4009623,64.5009376 60.0799894,64.5009376 L69.1999735,64.5009376 C70.039392,64.5009376 70.7199708,63.8294525 70.7199708,63.0012501 C70.7271908,62.9264532 70.7271908,62.8510939 70.7199708,62.776297 C72.1755583,61.502125 73.0060468,59.6723188 72.9999668,57.7523439 C73.0020568,54.0250582 69.9413522,51.0020631 66.1637788,51.0000011 Z M66.1599788,61.5013752 C64.0612424,61.5013752 62.3599854,59.8228499 62.3599854,57.7521565 C62.3599854,55.681463 64.0612424,54.0029378 66.1599788,54.0029378 C68.2587151,54.0029378 69.9599722,55.681463 69.9599722,57.7521565 C69.9599722,59.8228499 68.2587151,61.5013752 66.1599788,61.5013752 Z" id="Shape"></path>
                <path d="M17.375,11.875 L14.125,11.875 L14.125,8.625 C14.125,7.72759375 13.3974063,7 12.5,7 C11.6025937,7 10.875,7.72759375 10.875,8.625 L10.875,11.875 L7.625,11.875 C6.72759375,11.875 6,12.6025937 6,13.5 C6,14.3974063 6.72759375,15.125 7.625,15.125 L10.875,15.125 L10.875,18.375 C10.875,19.2724063 11.6025938,20 12.5,20 C13.3974063,20 14.125,19.2724063 14.125,18.375 L14.125,15.125 L17.375,15.125 C18.2724063,15.125 19,14.3974063 19,13.5 C19,12.6025937 18.2724063,11.875 17.375,11.875 Z" id="Shape"></path>
                <path d="M17.375,28 L7.625,28 C6.72759375,28 6,28.44775 6,29 C6,29.55225 6.72759375,30 7.625,30 L17.375,30 C18.2724063,30 19,29.55225 19,29 C19,28.44775 18.2724063,28 17.375,28 Z" id="Shape"></path>
                <path d="M34.5360311,15.5437221 C34.5330319,15.5408394 34.5298327,15.5381369 34.5268335,15.5354343 L32.2554188,13.503119 L34.5268335,11.4708036 C35.1540718,10.9056109 35.1540718,9.98926733 34.5268335,9.42407467 C33.8995951,8.858882 32.8826572,8.858882 32.2554188,9.42407467 L30,11.4706234 L27.7445812,9.4238945 C27.1173428,8.85870183 26.1004049,8.85870183 25.4731665,9.4238945 C24.8459282,9.98908716 24.8459282,10.9054308 25.4731665,11.4706234 L27.7445812,13.5029388 L25.4731665,15.5352541 C24.8459282,16.0957624 24.8417293,17.0085026 25.4639689,17.5736953 C25.4669681,17.576578 25.4701673,17.5792805 25.4731665,17.5819831 C25.7750887,17.8516973 26.1837834,18.0021391 26.6088739,17.999977 C27.0339643,18.0021391 27.442659,17.8516973 27.7445812,17.5819831 L30,15.5352541 L32.2554188,17.5819831 C32.557341,17.8516973 32.9660357,18.0021391 33.3911261,17.999977 C33.8162166,18.0021391 34.2249113,17.8516973 34.5268335,17.5819831 C35.1540718,17.0214748 35.1582707,16.1089148 34.5360311,15.5437221 Z" id="Shape"></path>
                <rect id="Rectangle-path" x="75" y="18" width="2" height="2"></rect>
                <rect id="Rectangle-path" x="62" y="11" width="2" height="2"></rect>
                <path d="M89.5714286,18 L82.4285714,18 C81.6396429,18 81,18.44775 81,19 C81,19.55225 81.6396429,20 82.4285714,20 L89.5714286,20 C90.3603571,20 91,19.55225 91,19 C91,18.44775 90.3603571,18 89.5714286,18 Z" id="Shape"></path>
                <path d="M89.5714286,34 L82.4285714,34 C81.6396429,34 81,34.44775 81,35 C81,35.55225 81.6396429,36 82.4285714,36 L89.5714286,36 C90.3603571,36 91,35.55225 91,35 C91,34.44775 90.3603571,34 89.5714286,34 Z" id="Shape"></path>
                <path d="M89.5714286,5 L82.4285714,5 C81.6396429,5 81,5.44775 81,6 C81,6.55225 81.6396429,7 82.4285714,7 L89.5714286,7 C90.3603571,7 91,6.55225 91,6 C91,5.44775 90.3603571,5 89.5714286,5 Z" id="Shape"></path>
                <path d="M90.5,11 L69.5,11 C68.671625,11 68,11.44775 68,12 C68,12.55225 68.671625,13 69.5,13 L90.5,13 C91.328375,13 92,12.55225 92,12 C92,11.44775 91.328375,11 90.5,11 Z" id="Shape"></path>
                <path d="M96.46875,0 L1.53125,0 C0.685617188,0 0,0.671625 0,1.5 L0,46.5 C0,47.328375 0.685617188,48 1.53125,48 L96.46875,48 C97.3143828,48 98,47.328375 98,46.5 L98,1.5 C98,0.671625 97.3143828,0 96.46875,0 Z M94.9375,45 L3.0625,45 L3.0625,43.5 L94.9375,43.5 L94.9375,45 Z M94.9375,40.5 L3.0625,40.5 L3.0625,3 L94.9375,3 L94.9375,40.5 Z" id="Shape"></path>
                <path d="M52.5,53 L1.5,53 C0.671625,53 0,53.6919773 0,54.5454545 L0,60.7272727 C0,61.58075 0.671625,62.2727273 1.5,62.2727273 L3,62.2727273 L3,68.4545455 C3,69.3080227 3.671625,70 4.5,70 C5.328375,70 6,69.3080227 6,68.4545455 L6,62.2727273 L9,62.2727273 L9,68.4545455 C9,69.3080227 9.671625,70 10.5,70 C11.328375,70 12,69.3080227 12,68.4545455 L12,62.2727273 L42,62.2727273 L42,68.4545455 C42,69.3080227 42.671625,70 43.5,70 C44.328375,70 45,69.3080227 45,68.4545455 L45,62.2727273 L48,62.2727273 L48,68.4545455 C48,69.3080227 48.671625,70 49.5,70 C50.328375,70 51,69.3080227 51,68.4545455 L51,62.2727273 L52.5,62.2727273 C53.328375,62.2727273 54,61.58075 54,60.7272727 L54,54.5454545 C54,53.6919773 53.328375,53 52.5,53 Z M51,59.1818182 L3,59.1818182 L3,56.0909091 L51,56.0909091 L51,59.1818182 Z" id="Shape"></path>
                <path d="M35.375,28 L25.625,28 C24.7275937,28 24,28.44775 24,29 C24,29.55225 24.7275937,30 25.625,30 L35.375,30 C36.2724063,30 37,29.55225 37,29 C37,28.44775 36.2724063,28 35.375,28 Z" id="Shape"></path>
                <rect id="Rectangle-path" x="29" y="24" width="2" height="2"></rect>
                <rect id="Rectangle-path" x="29" y="33" width="2" height="2"></rect>
            </g>
        </g>
    </g>
</svg>