<?xml version="1.0" encoding="UTF-8"?>
<svg width="39px" height="39px" viewBox="0 0 39 39" version="1.1" xmlns="http://www.w3.org/2000/svg" xmlns:xlink="http://www.w3.org/1999/xlink">
    <!-- Generator: Sketch 49.3 (51167) - http://www.bohemiancoding.com/sketch -->
    <title>dos</title>
    <desc>Created with Sketch.</desc>
    <defs></defs>
    <g id="Symbols" stroke="none" stroke-width="1" fill="none" fill-rule="evenodd">
        <g id="Footer" transform="translate(-647.000000, -13.000000)">
            <g id="Group-2" transform="translate(189.000000, 14.000000)">
                <g id="dos" transform="translate(459.000000, 0.000000)">
                    <circle id="Oval-Copy-3" stroke="#FFFFFF" cx="18.3206107" cy="18.3206107" r="18.3206107"></circle>
                    <path d="M18.6748092,11.1150213 L18.6748092,10.7043291 C19.2843847,10.5470203 19.7374046,10.0008384 19.7374046,9.34661664 C19.7374046,8.57027817 19.1019725,7.9389313 18.3206107,7.9389313 C17.5392489,7.9389313 16.9038168,8.57027817 16.9038168,9.34661664 C16.9038168,10.0008384 17.3568366,10.5470203 17.9664122,10.7043291 L17.9664122,11.1150213 C13.247426,11.3008358 9.46564885,15.1709147 9.46564885,19.9042567 C9.46564885,24.7554923 13.4379847,28.7022901 18.3206107,28.7022901 C23.2032366,28.7022901 27.1755725,24.7554923 27.1755725,19.9042567 C27.1755725,15.1709147 23.3937954,11.3008358 18.6748092,11.1150213 Z M17.6122137,9.34661664 C17.6122137,8.95844741 17.9299298,8.64277397 18.3206107,8.64277397 C18.7112916,8.64277397 19.0290076,8.95844741 19.0290076,9.34661664 C19.0290076,9.73478587 18.7112916,10.0504593 18.3206107,10.0504593 C17.9299298,10.0504593 17.6122137,9.73478587 17.6122137,9.34661664 Z M18.3206107,27.9984474 C13.8283115,27.9984474 10.1740458,24.367675 10.1740458,19.9042567 C10.1740458,15.4408384 13.8283115,11.810066 18.3206107,11.810066 C22.8129099,11.810066 26.4671756,15.4408384 26.4671756,19.9042567 C26.4671756,24.367675 22.8129099,27.9984474 18.3206107,27.9984474 Z" id="Shape" fill="#FFFFFF" fill-rule="nonzero"></path>
                    <path d="M22.7215591,14.9763285 L16.6822344,17.9960563 C16.6729815,18.0006828 16.6676433,18.0102919 16.6587462,18.0159861 C16.6345462,18.0305776 16.6160403,18.0490839 16.595755,18.0690137 C16.5758256,18.0889436 16.5573197,18.1078058 16.5427285,18.1320063 C16.5373903,18.1409035 16.5277815,18.1462419 16.5227991,18.155495 L13.5031368,24.1949506 C13.4348074,24.3319683 13.4614986,24.4974573 13.5700427,24.6056479 C13.6383721,24.6739788 13.729478,24.7099237 13.8216516,24.7099237 C13.8757457,24.7099237 13.9301957,24.6978234 13.980731,24.6725552 L20.0200556,21.6528274 C20.0293086,21.6482008 20.0346468,21.6385918 20.0435439,21.6328976 C20.0677439,21.6183061 20.0862498,21.5997998 20.1065351,21.5798699 C20.1264645,21.5599401 20.1449704,21.5410779 20.1595615,21.5168774 C20.1648998,21.5079801 20.1745086,21.5026418 20.179491,21.4933886 L23.1991533,15.453933 C23.2674827,15.3169153 23.2407915,15.1514264 23.1322474,15.0432358 C23.0237032,14.9350452 22.8589297,14.9079976 22.7215591,14.9763285 Z M14.6177605,23.5579073 L16.9391815,18.9153205 L19.2598908,21.2360801 L14.6177605,23.5579073 Z M19.7634644,20.7332073 L17.4427552,18.4124477 L22.0852413,16.0909764 L19.7634644,20.7332073 Z" id="Shape" fill="#FFFFFF" fill-rule="nonzero"></path>
                </g>
            </g>
        </g>
    </g>
</svg>