<?xml version="1.0" encoding="UTF-8"?>
<svg width="2004px" height="526px" viewBox="0 0 2004 526" version="1.1" xmlns="http://www.w3.org/2000/svg" xmlns:xlink="http://www.w3.org/1999/xlink">
    <!-- Generator: Sketch 49.3 (51167) - http://www.bohemiancoding.com/sketch -->
    <title>Falda</title>
    <desc>Created with Sketch.</desc>
    <defs>
        <polygon id="path-1" points="0 0.368791508 118.373811 0.368791508 118.373811 525.376249 0 525.376249"></polygon>
        <polygon id="path-3" points="0.178379171 0.368791508 69.3585196 0.368791508 69.3585196 525.376249 0.178379171 525.376249"></polygon>
    </defs>
    <g id="Page-1" stroke="none" stroke-width="1" fill="none" fill-rule="evenodd">
        <g id="Mountain" transform="translate(-32.000000, -1010.000000)">
            <g id="Falda" transform="translate(32.000000, 1010.000000)">
                <path d="M825.706794,441.28568 L771.381714,496.515667 L759.951371,508.137561 L759.662517,508.428628 L246.957968,508.428628 C246.957968,508.428628 460.678569,368.789176 476.23539,363.102972 C491.792212,357.406372 486.974549,359.786885 490.420158,363.102972 C490.420158,363.102972 486.29368,414.7362 555.061432,419.341298 C623.839501,423.936 713.672922,378.675063 713.672922,378.675063 C713.672922,378.675063 715.323513,377.968185 717.232009,378.039913 C720.760148,378.176091 725.134214,381.013995 721.327539,396.1183 C716.520192,415.172801 709.082216,460.922316 772.877562,454.113424 C786.825057,452.625863 804.176896,448.62473 825.706794,441.28568" id="Fill-1" fill="#00836B"></path>
                <path d="M1504.66215,363.432316 C1504.66215,363.432316 1572.65059,440.027459 1630.09035,413.874868 C1687.52907,387.722277 1728.14563,421.042767 1749.82101,410.802911 C1771.49639,400.563056 1804.56889,429.981136 1842.19941,431.282622 C1879.82994,432.583084 1968.12304,506.545559 1968.12304,506.545559 L1711.63106,506.545559 C1711.63106,506.545559 1495.35103,460.955675 1504.66215,363.432316" id="Fill-3" fill="#2D8A7A"></path>
                <path d="M1505.58939,380.494194 C1494.21329,356.338579 1491.06831,383.327524 1494.45012,403.69654 C1497.83296,424.065555 1468.87251,425.542308 1462.67047,421.171118 C1456.46842,416.799927 1448.55583,423.274218 1452.76912,436.40103 C1456.98242,449.526824 1448.14939,496.375558 1494.45012,504.523164 C1540.75188,512.67077 1741.902,505.541615 1741.902,505.541615 L1741.902,439.696737 C1741.902,439.696737 1554.19636,474.348505 1505.58939,380.494194" id="Fill-5" fill="#96C2B1"></path>
                <path d="M1261.91221,482.627365 C1263.45804,483.513831 1291.3574,448.71033 1304.79043,446.663065 C1318.22346,444.6158 1315.12353,405.717769 1321.32339,403.670505 C1327.52325,401.62324 1345.08951,435.403109 1365.75571,437.450373 C1386.4219,439.497638 1374.02219,371.937901 1379.18874,367.843371 C1389.09714,362.457018 1403.08816,391.872118 1424.13771,416.519138 C1434.91823,429.141549 1455.2548,436.250676 1461.85352,445.639432 C1496.77319,495.328596 1570.35105,506.545559 1570.35105,506.545559 L1253.64159,506.545559 L1261.91221,482.627365 Z" id="Fill-7" fill="#2D8A7A"></path>
                <path d="M1295.11545,506.545559 L1130.19847,506.249389 L723.907326,505.524281 C723.907326,505.524281 785.882892,420.758134 813.771896,407.481509 C841.6609,394.204884 909.834022,349.268613 917.064504,349.268613 C924.294987,349.268613 930.492543,363.566518 940.821804,363.566518 C950.706907,363.566518 1020.1402,328.046439 1036.99755,327.658353 C1037.76192,327.637927 1038.41266,327.688991 1038.94978,327.821757 C1051.3449,330.885594 1084.39853,357.438844 1101.95827,359.481402 C1119.51802,361.52396 1144.30824,392.162326 1146.3741,400.332557 C1148.43995,408.502788 1217.64599,437.098596 1222.81063,447.311385 C1227.97526,457.524174 1295.11545,506.545559 1295.11545,506.545559" id="Fill-9" fill="#2D8A7A"></path>
                <path d="M1295.11545,506.545559 L1129.61146,506.249389 C1122.28268,498.508095 1108.25745,488.816158 1099.19754,485.098703 C1086.75831,479.992309 1086.75831,455.481616 1086.75831,438.119875 C1086.75831,420.758134 1044.2576,395.226163 1037.00138,386.034653 C1029.74516,376.843143 1044.2576,365.609075 1043.221,352.33245 C1042.6716,345.306051 1039.21971,335.409859 1036.0788,327.658353 C1036.84589,327.637927 1037.49895,327.688991 1038.03798,327.821757 C1050.47722,330.885594 1083.6485,357.438844 1101.27075,359.481402 C1118.89299,361.52396 1143.77146,392.162326 1145.84466,400.332557 C1147.91787,408.502788 1217.37025,437.098596 1222.55326,447.311385 C1227.73628,457.524174 1295.11545,506.545559 1295.11545,506.545559" id="Fill-11" fill="#96C2B1"></path>
                <path d="M846.935196,438.935352 L833.222706,449.261832 L833.760152,449.765307 L818.166093,461.351904 L838.062767,440.698943 L838.600213,441.202418 L844.693976,433.974834 C844.693976,433.974834 855.601385,431.714429 855.8696,434.484972 L846.935196,438.935352 Z" id="Fill-13" fill="#00806C"></path>
                <path d="M907.773308,484.295743 L892.370737,494.882605 L892.933403,495.446712 L876.606528,508.428628 L897.436854,485.287461 L898.000584,485.851568 L904.380297,477.753599 C904.380297,477.753599 915.914409,474.706997 916.19521,477.811183 L907.773308,484.295743 Z" id="Fill-15" fill="#00806C"></path>
                <path d="M898.347432,392.026215 L882.94486,402.612105 L883.507526,403.176217 L867.180652,416.158248 L888.010978,393.016876 L888.574707,393.580988 L894.95442,385.484014 C894.95442,385.484014 906.488532,382.436319 906.769333,385.540532 L898.347432,392.026215 Z" id="Fill-17" fill="#00806C"></path>
                <path d="M913.427771,376.961073 L898.025199,387.548288 L898.587865,388.112413 L882.262054,401.093696 L903.091317,377.952824 L903.655046,378.51695 L910.034759,370.418711 C910.034759,370.418711 921.568871,367.372007 921.850736,370.476296 L913.427771,376.961073 Z" id="Fill-19" fill="#00806C"></path>
                <path d="M924.738823,390.142555 L909.336251,400.729771 L909.898917,401.293896 L893.573106,414.275179 L914.402369,391.134307 L914.966098,391.698433 L921.345811,383.600194 C921.345811,383.600194 932.879923,380.55349 933.161788,383.657779 L924.738823,390.142555 Z" id="Fill-21" fill="#00806C"></path>
                <path d="M1013.95096,370.46875 L999.776618,381.871577 L1000.33757,382.436803 L984.061522,395.444489 L1004.82729,372.257387 L1005.3893,372.822613 L1011.74957,364.709638 C1011.74957,364.709638 1021.48402,361.742467 1021.76503,364.852814 L1013.95096,370.46875 Z" id="Fill-23" fill="#00806C"></path>
                <path d="M1112.25344,394.2629 L1102.48454,395.444489 L1100.21696,393.905393 L1081.19137,390.306092 L1081.08206,391.054431 L1061.35371,386.029144 L1091.662,388.703372 L1091.55164,389.450702 L1101.62352,389.697119 C1101.62352,389.697119 1111.8651,391.362452 1112.25344,394.2629" id="Fill-25" fill="#2D8A7A"></path>
                <path d="M1338.47448,478.999995 L1328.70557,480.182593 L1326.438,478.643498 L1307.41241,475.043187 L1307.30309,475.791526 L1287.57475,470.767249 L1317.88304,473.440467 L1317.77268,474.188807 L1327.84456,474.434214 C1327.84456,474.434214 1338.08614,476.099547 1338.47448,478.999995" id="Fill-27" fill="#00806C"></path>
                <path d="M1477.97746,480.884074 L1468.20855,482.065662 L1465.94097,480.526567 L1446.91539,476.927265 L1446.80607,477.675605 L1427.07772,472.650318 L1457.38602,475.324546 L1457.27566,476.072886 L1467.34754,476.318293 C1467.34754,476.318293 1477.58912,477.983626 1477.97746,480.884074" id="Fill-29" fill="#00806C"></path>
                <path d="M1381.83352,452.637029 L1372.06357,453.819628 L1369.79703,452.280532 L1350.77145,448.680221 L1350.66213,449.42856 L1330.93378,444.404283 L1361.24208,447.077501 L1361.13172,447.825841 L1371.20359,448.071248 C1371.20359,448.071248 1381.44518,449.736581 1381.83352,452.637029" id="Fill-31" fill="#00806C"></path>
                <path d="M1123.5645,462.152546 L1113.7744,463.234973 L1111.51659,461.725066 L1092.49408,458.104232 L1092.37942,458.829772 L1072.66476,453.819628 L1102.98987,456.616876 L1102.87312,457.343396 L1112.95509,457.648319 C1112.95509,457.648319 1123.19653,459.333727 1123.5645,462.152546" id="Fill-33" fill="#2D8A7A"></path>
                <path d="M1018.93017,459.214347 L1004.73764,469.28868 L1005.2738,469.820761 L989.717048,482.065662 L1009.56612,460.238275 L1010.10228,460.770356 L1016.18248,453.133134 C1016.18248,453.133134 1027.15197,450.348008 1027.42055,453.275961 L1018.93017,459.214347 Z" id="Fill-35" fill="#00806C"></path>
                <path d="M1013.5958,359.263569 L1016.73842,329.399993 L1015.48078,329.399993 L1019.25074,295.641832 L1021.76503,346.279583 L1020.50838,346.279583 L1021.76503,365.755562 C1021.76503,365.755562 1016.10911,369.002068 1012.33915,365.755562 L1013.5958,359.263569 Z" id="Fill-37" fill="#003227"></path>
                <path d="M1371.77912,445.884743 L1374.92173,416.021167 L1373.66409,416.021167 L1377.43405,382.263006 L1379.94834,432.900756 L1378.69169,432.900756 L1379.94834,452.376736 C1379.94834,452.376736 1374.29242,455.623242 1370.52246,452.376736 L1371.77912,445.884743 Z" id="Fill-39" fill="#003227"></path>
                <path d="M1019.50295,442.748955 L1023.27263,408.170488 L1021.76435,408.170488 L1026.29019,369.081523 L1029.30573,427.714971 L1027.79745,427.714971 L1029.30573,450.266452 C1029.30573,450.266452 1022.51849,454.024192 1017.99468,450.266452 L1019.50295,442.748955 Z" id="Fill-41" fill="#003227"></path>
                <path d="M902.621948,470.99499 L906.392298,436.416523 L904.884158,436.416523 L909.408579,397.327558 L912.424859,455.961006 L910.916719,455.961006 L912.424859,478.512487 C912.424859,478.512487 905.638228,482.270227 901.113807,478.512487 L902.621948,470.99499 Z" id="Fill-43" fill="#003227"></path>
                <path d="M836.135808,486.179074 L820.733651,496.76629 L821.296301,497.329349 L804.969866,510.311697 L825.799632,487.170826 L826.363346,487.734951 L832.742888,479.636713 C832.742888,479.636713 844.276691,476.590009 844.558548,479.694298 L836.135808,486.179074 Z" id="Fill-45" fill="#00806C"></path>
                <path d="M836.640811,470.99499 L840.411162,436.416523 L838.903022,436.416523 L843.427442,397.327558 L846.443723,455.961006 L844.935583,455.961006 L846.443723,478.512487 C846.443723,478.512487 839.657092,482.270227 835.132671,478.512487 L836.640811,470.99499 Z" id="Fill-47" fill="#003227"></path>
                <path d="M895.081246,374.958472 L898.851597,340.380004 L897.343457,340.380004 L901.867878,301.291039 L904.884158,359.924487 L903.376018,359.924487 L904.884158,382.475968 C904.884158,382.475968 898.097527,386.233708 893.573106,382.475968 L895.081246,374.958472 Z" id="Fill-49" fill="#003227"></path>
                <path d="M1100.81708,387.30539 L1105.21509,349.583483 L1103.45633,349.583483 L1108.73482,306.940246 L1112.25344,370.904065 L1110.49358,370.904065 L1112.25344,395.505534 C1112.25344,395.505534 1104.33571,399.605088 1099.05722,395.505534 L1100.81708,387.30539 Z" id="Fill-51" fill="#003227"></path>
                <path d="M1545.84377,443.695103 L1539.33024,444.404283 L1537.81956,443.481697 L1525.13626,441.32061 L1525.06259,441.77072 L1511.91061,438.755076 L1532.11634,440.359816 L1532.04268,440.808062 L1538.75692,440.956235 C1538.75692,440.956235 1545.58434,441.955237 1545.84377,443.695103" id="Fill-53" fill="#2D8A7A"></path>
                <path d="M1539.30771,437.93098 L1541.82128,413.56902 L1540.81664,413.56902 L1543.83253,386.029144 L1545.84377,427.338957 L1544.83815,427.338957 L1545.84377,443.227506 C1545.84377,443.227506 1541.31896,445.875254 1538.30307,443.227506 L1539.30771,437.93098 Z" id="Fill-55" fill="#003227"></path>
                <path d="M1545.84377,466.291931 L1539.33024,467.001111 L1537.81956,466.078525 L1525.13626,463.918369 L1525.06259,464.367548 L1511.91061,461.351904 L1532.11634,462.956644 L1532.04268,463.40489 L1538.75692,463.553063 C1538.75692,463.553063 1545.58434,464.552065 1545.84377,466.291931" id="Fill-57" fill="#2D8A7A"></path>
                <path d="M1539.30771,462.410991 L1541.82128,438.048431 L1540.81664,438.048431 L1543.83253,410.509041 L1545.84377,451.818126 L1544.83815,451.818126 L1545.84377,467.707423 C1545.84377,467.707423 1541.31896,470.355125 1538.30307,467.707423 L1539.30771,462.410991 Z" id="Fill-59" fill="#003227"></path>
                <path d="M1521.33649,453.110448 L1514.82296,453.819628 L1513.31228,452.897042 L1500.62898,450.736886 L1500.55532,451.186065 L1487.40333,448.170421 L1507.60906,449.775161 L1507.5354,450.224339 L1514.24965,450.37158 C1514.24965,450.37158 1521.07706,451.370582 1521.33649,453.110448" id="Fill-61" fill="#2D8A7A"></path>
                <path d="M1512.91526,447.346325 L1515.42883,422.984365 L1514.42418,422.984365 L1517.44007,395.444489 L1519.45132,436.754302 L1518.44569,436.754302 L1519.45132,452.642851 C1519.45132,452.642851 1514.9265,455.290599 1511.91061,452.642851 L1512.91526,447.346325 Z" id="Fill-63" fill="#003227"></path>
                <path d="M1114.01331,455.095873 L1118.41131,417.373967 L1116.65256,417.373967 L1121.93105,374.73073 L1125.44967,438.694549 L1123.6898,438.694549 L1125.44967,463.296018 C1125.44967,463.296018 1117.53194,467.395572 1112.25344,463.296018 L1114.01331,455.095873 Z" id="Fill-65" fill="#003227"></path>
                <path d="M1694.77262,462.152546 L1684.98357,463.234973 L1682.72472,461.725066 L1663.70325,458.104232 L1663.58754,458.829772 L1643.87289,453.819628 L1674.198,456.616876 L1674.08125,457.343396 L1684.16321,457.648319 C1684.16321,457.648319 1694.40466,459.333727 1694.77262,462.152546" id="Fill-67" fill="#2D8A7A"></path>
                <path d="M1683.33626,453.212804 L1687.73537,415.490898 L1685.97551,415.490898 L1691.254,372.847661 L1694.77262,436.81148 L1693.01387,436.81148 L1694.77262,461.412949 C1694.77262,461.412949 1686.85488,465.512503 1681.57639,461.412949 L1683.33626,453.212804 Z" id="Fill-69" fill="#003227"></path>
                <path d="M1655.18394,464.252593 L1647.5699,465.118042 L1645.81369,463.911569 L1631.01903,461.013853 L1630.92887,461.594784 L1615.59526,457.585766 L1639.18125,459.824233 L1639.09108,460.405164 L1646.93258,460.650028 C1646.93258,460.650028 1654.89807,461.998264 1655.18394,464.252593" id="Fill-71" fill="#2D8A7A"></path>
                <path d="M1648.89975,460.94883 L1652.04205,431.085339 L1650.78553,431.085339 L1654.55608,397.327558 L1657.06911,447.964749 L1655.8126,447.964749 L1657.06911,467.441389 C1657.06911,467.441389 1651.41379,470.687668 1647.64324,467.441389 L1648.89975,460.94883 Z" id="Fill-73" fill="#003227"></path>
                <path d="M1666.49499,488.73249 L1658.88096,489.597938 L1657.12371,488.391466 L1642.33009,485.49375 L1642.23992,486.074681 L1626.90631,482.065662 L1650.4923,484.30413 L1650.40213,484.885061 L1658.24261,485.129925 C1658.24261,485.129925 1666.20912,486.478161 1666.49499,488.73249" id="Fill-75" fill="#2D8A7A"></path>
                <path d="M1660.21081,483.545658 L1663.3531,453.682167 L1662.09558,453.682167 L1665.86613,419.924386 L1668.38017,470.561576 L1667.12365,470.561576 L1668.38017,490.038217 C1668.38017,490.038217 1662.72484,493.284496 1658.95429,490.038217 L1660.21081,483.545658 Z" id="Fill-77" fill="#003227"></path>
                <path d="M1328.9233,473.926563 L1333.3213,436.204657 L1331.56254,436.204657 L1336.84104,393.56142 L1340.35966,457.525239 L1338.59979,457.525239 L1340.35966,482.126708 C1340.35966,482.126708 1332.44192,486.226261 1327.16343,482.126708 L1328.9233,473.926563 Z" id="Fill-79" fill="#003227"></path>
                <path d="M1464.65592,473.926563 L1469.05392,436.204657 L1467.29517,436.204657 L1472.57366,393.56142 L1476.09228,457.525239 L1474.33242,457.525239 L1476.09228,482.126708 C1476.09228,482.126708 1468.17455,486.226261 1462.89606,482.126708 L1464.65592,473.926563 Z" id="Fill-81" fill="#003227"></path>
                <path d="M844.433092,428.732907 L848.831834,391.011001 L847.072115,391.011001 L852.350161,348.367764 L855.8696,412.331583 L854.10988,412.331583 L855.8696,436.933052 C855.8696,436.933052 847.95253,441.032606 842.673372,436.933052 L844.433092,428.732907 Z" id="Fill-83" fill="#003227"></path>
                <path d="M908.529053,364.708562 L912.927795,326.986655 L911.168076,326.986655 L916.446122,284.343418 L919.965561,348.307237 L918.205841,348.307237 L919.965561,372.908706 C919.965561,372.908706 912.048491,377.00826 906.769333,372.908706 L908.529053,364.708562 Z" id="Fill-85" fill="#003227"></path>
                <path d="M923.610455,376.006976 L928.009198,338.285069 L926.249478,338.285069 L931.527525,295.641832 L935.046963,359.605651 L933.287244,359.605651 L935.046963,384.20712 C935.046963,384.20712 927.129894,388.306674 921.850736,384.20712 L923.610455,376.006976 Z" id="Fill-87" fill="#003227"></path>
                <path d="M582.519177,505.516666 C582.519177,505.516666 720.389971,465.832249 812.510567,406.742903 L812.510567,506.545559 L582.519177,505.516666 Z" id="Fill-89" fill="#2D8A7A"></path>
                <path d="M789.928776,446.199812 L779.660549,453.67265 L780.035531,454.071754 L769.151534,463.234973 L783.038243,446.899001 L783.413225,447.298105 L787.667463,441.582334 C787.667463,441.582334 795.356498,439.431215 795.543989,441.622749 L789.928776,446.199812 Z" id="Fill-91" fill="#00806C"></path>
                <path d="M801.239828,434.901398 L790.971601,442.374236 L791.346583,442.77334 L780.462586,451.936559 L794.349295,435.600587 L794.724277,435.999691 L798.978515,430.28392 C798.978515,430.28392 806.66755,428.132801 806.855041,430.324335 L801.239828,434.901398 Z" id="Fill-93" fill="#00806C"></path>
                <path d="M808.780529,446.199812 L798.512302,453.67265 L798.887284,454.071754 L788.003288,463.234973 L801.889996,446.899001 L802.264978,447.298105 L806.519216,441.582334 C806.519216,441.582334 814.208251,439.431215 814.395742,441.622749 L808.780529,446.199812 Z" id="Fill-95" fill="#00806C"></path>
                <path d="M789.259544,433.538393 L792.401879,406.819389 L791.144493,406.819389 L794.915522,376.613799 L797.429164,421.921662 L796.172908,421.921662 L797.429164,439.347281 C797.429164,439.347281 791.773186,442.251725 788.003288,439.347281 L789.259544,433.538393 Z" id="Fill-97" fill="#003227"></path>
                <path d="M809.996787,433.120615 L813.138746,404.829037 L811.882175,404.829037 L815.651886,372.847661 L818.166093,420.820246 L816.908457,420.820246 L818.166093,439.271321 C818.166093,439.271321 812.509927,442.346674 808.740216,439.271321 L809.996787,433.120615 Z" id="Fill-99" fill="#003227"></path>
                <path d="M800.319428,424.959091 L802.833672,401.382978 L801.827568,401.382978 L804.843849,374.73073 L806.855041,414.708066 L805.848937,414.708066 L806.855041,430.083567 C806.855041,430.083567 802.33062,432.646841 799.31434,430.083567 L800.319428,424.959091 Z" id="Fill-101" fill="#003227"></path>
                <path d="M691.899658,485.745023 L681.631432,493.217526 L682.006414,493.615602 L671.122417,502.779421 L685.009125,486.444181 L685.384107,486.843266 L689.638345,481.12674 C689.638345,481.12674 697.327381,478.975718 697.514872,481.167154 L691.899658,485.745023 Z" id="Fill-103" fill="#00806C"></path>
                <path d="M692.864434,475.801954 L695.378679,452.224805 L694.372574,452.224805 L697.388855,425.573593 L699.400047,465.550929 L698.393943,465.550929 L699.400047,480.92643 C699.400047,480.92643 694.875626,483.489704 691.859346,480.92643 L692.864434,475.801954 Z" id="Fill-105" fill="#003227"></path>
                <path d="M710.751412,478.212995 L700.483185,485.685833 L700.858167,486.083927 L689.974171,495.247145 L703.860879,478.911174 L704.235861,479.310278 L708.489147,473.594507 C708.489147,473.594507 716.179134,471.443388 716.366625,473.634922 L710.751412,478.212995 Z" id="Fill-107" fill="#00806C"></path>
                <path d="M711.716187,470.15171 L714.229416,446.575598 L713.224328,446.575598 L716.240608,419.924386 L718.2518,459.900686 L717.245696,459.900686 L718.2518,475.277223 C718.2518,475.277223 713.72738,477.840497 710.711099,475.277223 L711.716187,470.15171 Z" id="Fill-109" fill="#003227"></path>
                <path d="M741.877879,474.88066 L726.475308,485.466809 L727.037974,486.030935 L710.711099,499.013283 L731.541426,475.871345 L732.104091,476.435471 L738.484868,468.338299 C738.484868,468.338299 750.01898,465.291595 750.299781,468.395884 L741.877879,474.88066 Z" id="Fill-111" fill="#00806C"></path>
                <path d="M740.496869,459.696576 L744.26722,425.118109 L742.75908,425.118109 L747.283501,386.029144 L750.299781,444.661584 L748.791641,444.661584 L750.299781,467.214073 C750.299781,467.214073 743.51315,470.971813 738.988729,467.214073 L740.496869,459.696576 Z" id="Fill-113" fill="#003227"></path>
                <path d="M584.444665,449.96595 L574.176438,457.438788 L574.55142,457.837892 L563.667423,467.001111 L577.554132,450.665139 L577.929114,451.064243 L582.1824,445.348472 C582.1824,445.348472 589.872387,443.197353 590.059878,445.388887 L584.444665,449.96595 Z" id="Fill-115" fill="#00785E"></path>
                <path d="M587.294616,440.023131 L589.807844,416.447259 L588.802756,416.447259 L591.819036,389.795282 L593.830229,429.772211 L592.824124,429.772211 L593.830229,445.148591 C593.830229,445.148591 589.305808,447.710803 586.289527,445.148591 L587.294616,440.023131 Z" id="Fill-117" fill="#003227"></path>
                <path d="M603.297167,444.316743 L593.027619,451.789581 L593.403566,452.188685 L582.519177,461.351904 L596.406386,445.015932 L596.781381,445.415036 L601.034821,439.699265 C601.034821,439.699265 608.724134,437.548146 608.911631,439.73968 L603.297167,444.316743 Z" id="Fill-119" fill="#00785E"></path>
                <path d="M604.261193,434.374436 L606.775438,410.798323 L605.769334,410.798323 L608.785614,384.146075 L610.796807,424.123411 L609.791719,424.123411 L610.796807,439.498912 C610.796807,439.498912 606.272386,442.062186 603.256105,439.498912 L604.261193,434.374436 Z" id="Fill-121" fill="#003227"></path>
                <path d="M573.134362,480.095816 L562.864813,487.568319 L563.240761,487.966395 L552.356371,497.130214 L566.24358,480.794974 L566.618576,481.193049 L570.872016,475.477534 C570.872016,475.477534 578.56228,473.326511 578.748826,475.517947 L573.134362,480.095816 Z" id="Fill-123" fill="#00785E"></path>
                <path d="M574.099269,470.15171 L576.612159,446.575598 L575.607206,446.575598 L578.62308,419.924386 L580.634001,459.900686 L579.628033,459.900686 L580.634001,475.277223 C580.634001,475.277223 576.11019,477.840497 573.0933,475.277223 L574.099269,470.15171 Z" id="Fill-125" fill="#003227"></path>
                <path d="M634.421822,437.219018 L619.019251,447.805881 L619.581916,448.369987 L603.256105,461.351904 L624.085368,438.210736 L624.649097,438.774843 L631.02881,430.676874 C631.02881,430.676874 642.562923,427.630272 642.844787,430.734458 L634.421822,437.219018 Z" id="Fill-127" fill="#00785E"></path>
                <path d="M633.041876,422.034798 L636.812226,387.456518 L635.304086,387.456518 L639.828507,348.367764 L642.844787,407.000895 L641.336647,407.000895 L642.844787,429.552254 C642.844787,429.552254 636.058156,433.310982 631.533735,429.552254 L633.041876,422.034798 Z" id="Fill-129" fill="#003227"></path>
                <path d="M679.66603,450.400763 L664.263459,460.986912 L664.826124,461.551038 L648.500313,474.533387 L669.329576,451.391449 L669.893305,451.955574 L676.273018,443.858402 C676.273018,443.858402 687.807131,440.811698 688.088995,443.915987 L679.66603,450.400763 Z" id="Fill-131" fill="#00785E"></path>
                <path d="M676.400908,431.450653 L680.171259,396.872606 L678.663119,396.872606 L683.187539,357.783109 L686.20382,416.415844 L684.69568,416.415844 L686.20382,438.968058 C686.20382,438.968058 679.417189,442.725753 674.892768,438.968058 L676.400908,431.450653 Z" id="Fill-133" fill="#003227"></path>
                <path d="M770.155509,493.71135 L754.752938,504.297499 L755.315604,504.861624 L738.988729,517.843973 L759.819055,494.702035 L760.382785,495.266161 L766.762498,487.168989 C766.762498,487.168989 778.29661,484.122285 778.577411,487.226574 L770.155509,493.71135 Z" id="Fill-135" fill="#00806C"></path>
                <path d="M577.355124,433.673762 L563.642634,444.689689 L564.181096,445.226729 L548.586021,457.585766 L568.482695,435.554926 L569.020141,436.091966 L575.113904,428.383558 C575.113904,428.383558 586.021312,425.97246 586.289527,428.927705 L577.355124,433.673762 Z" id="Fill-137" fill="#00785E"></path>
                <path d="M576.738343,423.082664 L581.137456,385.360757 L579.377588,385.360757 L584.656079,342.718557 L588.174703,406.682376 L586.415947,406.682376 L588.174703,431.283845 C588.174703,431.283845 580.256966,435.383399 574.978475,431.283845 L576.738343,423.082664 Z" id="Fill-139" fill="#003227"></path>
                <path d="M520.349453,438.668096 L510.079904,446.140688 L510.455851,446.538769 L499.571462,455.702697 L513.458671,439.367262 L513.833667,439.766353 L518.087106,434.05077 C518.087106,434.05077 525.777371,431.898712 525.963917,434.090174 L520.349453,438.668096 Z" id="Fill-141" fill="#00806C"></path>
                <path d="M529.775329,429.252953 L519.505781,436.725457 L519.881728,437.123532 L508.997339,446.287352 L522.884548,429.952111 L523.259543,430.350186 L527.512983,424.634671 C527.512983,424.634671 535.202296,422.483648 535.389794,424.675084 L529.775329,429.252953 Z" id="Fill-143" fill="#00785E"></path>
                <path d="M539.201206,438.668298 L528.931657,446.140802 L529.307605,446.538877 L518.423216,455.702697 L532.310425,439.367456 L532.68542,439.766542 L536.93886,434.050016 C536.93886,434.050016 544.628172,431.898993 544.81567,434.090429 L539.201206,438.668298 Z" id="Fill-145" fill="#00785E"></path>
                <path d="M542.302032,427.471524 L545.444346,399.180381 L544.187634,399.180381 L547.957771,367.198454 L550.471196,415.170301 L549.214484,415.170301 L550.471196,433.622135 C550.471196,433.622135 544.815457,436.697441 541.04532,433.622135 L542.302032,427.471524 Z" id="Fill-147" fill="#003227"></path>
                <path d="M534.510587,419.309884 L537.023477,395.732735 L536.018524,395.732735 L539.034398,369.081523 L541.04532,409.05886 L540.039351,409.05886 L541.04532,424.43436 C541.04532,424.43436 536.521508,426.997634 533.504618,424.43436 L534.510587,419.309884 Z" id="Fill-149" fill="#003227"></path>
                <path d="M490.186648,412.30457 L479.918051,419.777408 L480.293046,420.176512 L469.408657,429.339731 L483.295866,413.003759 L483.670862,413.402863 L487.924301,407.687092 C487.924301,407.687092 495.614566,405.535974 495.801112,407.727508 L490.186648,412.30457 Z" id="Fill-151" fill="#00785E"></path>
                <path d="M493.03673,404.24482 L495.549619,380.668948 L494.544667,380.668948 L497.560541,354.016971 L499.571462,393.9939 L498.565493,393.9939 L499.571462,409.37028 C499.571462,409.37028 495.047651,411.932492 492.030761,409.37028 L493.03673,404.24482 Z" id="Fill-153" fill="#003227"></path>
                <path d="M467.564544,401.006918 L457.294995,408.479422 L457.670942,408.877497 L446.786553,418.041317 L460.673762,401.706076 L461.048758,402.104151 L465.302197,396.388636 C465.302197,396.388636 472.99151,394.237614 473.179008,396.42905 L467.564544,401.006918 Z" id="Fill-155" fill="#00785E"></path>
                <path d="M468.52857,391.063849 L471.042814,367.4867 L470.03671,367.4867 L473.052991,340.835488 L475.064183,380.812825 L474.058079,380.812825 L475.064183,396.188325 C475.064183,396.188325 470.539762,398.751599 467.523482,396.188325 L468.52857,391.063849 Z" id="Fill-157" fill="#003227"></path>
                <path d="M537.315281,508.341851 L527.047055,515.814354 L527.422037,516.21243 L516.53804,525.376249 L530.424748,509.041009 L530.79973,509.440094 L535.053968,503.723568 C535.053968,503.723568 542.743004,501.572546 542.930495,503.763982 L537.315281,508.341851 Z" id="Fill-159" fill="#00785E"></path>
                <path d="M540.165232,500.28185 L542.678461,476.704702 L541.673373,476.704702 L544.689653,450.05349 L546.700846,490.030826 L545.694741,490.030826 L546.700846,505.406326 C546.700846,505.406326 542.176425,507.969601 539.160144,505.406326 L540.165232,500.28185 Z" id="Fill-161" fill="#003227"></path>
                <path d="M474.182983,469.232257 L458.780411,479.818053 L459.343077,480.38216 L443.016202,493.364076 L463.846529,470.222909 L464.410258,470.787016 L470.789971,462.689047 C470.789971,462.689047 482.324083,459.642445 482.604884,462.746631 L474.182983,469.232257 Z" id="Fill-163" fill="#00785E"></path>
                <path d="M469.031757,454.047979 L472.801433,419.469698 L471.294169,419.469698 L475.817984,380.379937 L478.834534,439.013068 L477.32727,439.013068 L478.834534,461.564427 C478.834534,461.564427 472.048307,465.323155 467.523482,461.564427 L469.031757,454.047979 Z" id="Fill-165" fill="#003227"></path>
                <path d="M500.575437,488.062947 L485.172866,498.648743 L485.735531,499.21285 L469.408657,512.194766 L490.238983,489.053599 L490.802713,489.617706 L497.182425,481.519737 C497.182425,481.519737 508.716538,478.473135 508.997339,481.577321 L500.575437,488.062947 Z" id="Fill-167" fill="#00806C"></path>
                <path d="M766.889324,478.527266 L770.659675,443.948799 L769.151534,443.948799 L773.675955,404.859834 L776.692236,463.492274 L775.184095,463.492274 L776.692236,486.044763 C776.692236,486.044763 769.905605,489.802503 765.381184,486.044763 L766.889324,478.527266 Z" id="Fill-169" fill="#003227"></path>
                <path d="M1649.52841,473.450847 L1639.73832,474.533387 L1637.48051,473.024303 L1618.458,469.402112 L1618.34229,470.127727 L1598.62868,465.118042 L1628.95275,467.914601 L1628.83704,468.641197 L1638.919,468.947132 C1638.919,468.947132 1649.16045,470.631735 1649.52841,473.450847" id="Fill-171" fill="#2D8A7A"></path>
                <path d="M1639.97612,470.160016 L1644.37523,432.438301 L1642.61536,432.438301 L1647.89385,389.795282 L1651.41359,453.758775 L1649.65372,453.758775 L1651.41359,478.360118 C1651.41359,478.360118 1643.49585,482.460688 1638.21736,478.360118 L1639.97612,470.160016 Z" id="Fill-173" fill="#003227"></path>
                <path d="M1604.28421,480.884074 L1594.5153,482.065662 L1592.24772,480.526567 L1573.22318,476.927265 L1573.11282,477.675605 L1553.38447,472.650318 L1583.69381,475.324546 L1583.58241,476.071876 L1593.65428,476.318293 C1593.65428,476.318293 1603.89586,477.983626 1604.28421,480.884074" id="Fill-175" fill="#2D8A7A"></path>
                <path d="M1596.6182,473.926563 L1601.01731,436.204657 L1599.25744,436.204657 L1604.53593,393.56142 L1608.05456,457.525239 L1606.2958,457.525239 L1608.05456,482.126708 C1608.05456,482.126708 1600.13682,486.226261 1594.85833,482.126708 L1596.6182,473.926563 Z" id="Fill-177" fill="#003227"></path>
                <path d="M1560.92517,490.298409 L1551.15542,491.481007 L1548.88893,489.941912 L1529.86374,486.341601 L1529.75442,487.08994 L1510.02544,482.065662 L1540.33415,484.738881 L1540.2238,485.487221 L1550.29547,485.732628 C1550.29547,485.732628 1560.53684,487.397961 1560.92517,490.298409" id="Fill-179" fill="#2D8A7A"></path>
                <path d="M1553.25805,483.341499 L1557.65716,445.619784 L1555.8973,445.619784 L1561.17579,402.976765 L1564.69552,466.940258 L1562.93566,466.940258 L1564.69552,491.541601 C1564.69552,491.541601 1556.77779,495.642171 1551.4993,491.541601 L1553.25805,483.341499 Z" id="Fill-181" fill="#003227"></path>
                <path d="M516.53804,462.292818 C516.53804,463.852887 520.336136,465.118042 525.020805,465.118042 C529.706522,465.118042 533.504618,463.852887 533.504618,462.292818 C533.504618,460.73275 529.706522,459.468835 525.020805,459.468835 C520.336136,459.468835 516.53804,460.73275 516.53804,462.292818" id="Fill-183" fill="#00785E"></path>
                <path d="M859.70566,402.436583 C860.250735,403.509357 864.039721,402.934388 868.167592,401.153961 C872.295464,399.371651 875.20151,397.05766 874.655414,395.984887 C874.11136,394.912113 870.322374,395.486141 866.194502,397.26751 C862.066631,399.048878 859.160585,401.362869 859.70566,402.436583" id="Fill-185" fill="#00806C"></path>
                <path d="M169.66578,514.077835 L131.049649,514.077835 C131.049649,514.077835 136.469659,493.286733 135.791503,485.910182 L126.306747,485.910182 C126.306747,485.910182 137.823875,461.764404 138.502032,441.643613 L131.049649,441.643613 C131.049649,441.643613 141.421144,419.899961 145.953367,374.690182 C146.197587,372.262115 146.420844,369.767639 146.631523,367.198454 C146.631523,367.198454 147.985739,456.39879 166.278142,464.447729 L155.438122,464.447729 C155.438122,464.447729 157.471543,512.066898 169.66578,514.077835" id="Fill-187" fill="#004D42"></path>
                <path d="M145.1585,374.73073 L145.1585,512.194766 L130.856754,512.194766 C130.856754,512.194766 136.057481,491.690591 135.407767,484.41584 L126.306747,484.41584 C126.306747,484.41584 137.357914,460.603285 138.007627,440.760172 L130.856754,440.760172 C130.856754,440.760172 140.809643,419.316592 145.1585,374.73073" id="Fill-189" fill="#004035"></path>
                <path d="M124.421572,514.077835 L85.8043929,514.077835 C85.8043929,514.077835 91.224403,493.286733 90.5472948,485.910182 L81.0625392,485.910182 C81.0625392,485.910182 92.5796675,461.764404 93.2578239,441.643613 L85.8043929,441.643613 C85.8043929,441.643613 96.1769359,419.899961 100.709159,374.690182 C100.953379,372.262115 101.176636,369.767639 101.386267,367.198454 C101.386267,367.198454 102.741531,456.39879 121.033934,464.447729 L110.193914,464.447729 C110.193914,464.447729 112.226287,512.066898 124.421572,514.077835" id="Fill-191" fill="#004D42"></path>
                <path d="M99.9142925,374.73073 L99.9142925,512.194766 L85.6133092,512.194766 C85.6133092,512.194766 90.8137582,491.690591 90.1640792,484.41584 L81.0625392,484.41584 C81.0625392,484.41584 92.1141218,460.603285 92.7638008,440.760172 L85.6133092,440.760172 C85.6133092,440.760172 95.5656672,419.316592 99.9142925,374.73073" id="Fill-193" fill="#004035"></path>
                <path d="M286.54665,514.077835 L247.930519,514.077835 C247.930519,514.077835 253.350529,493.286733 252.672373,485.910182 L243.187617,485.910182 C243.187617,485.910182 254.705794,461.764404 255.382902,441.643613 L247.930519,441.643613 C247.930519,441.643613 258.303062,419.899961 262.835285,374.690182 C263.078457,372.262115 263.302762,369.767639 263.512393,367.198454 C263.512393,367.198454 264.867658,456.39879 283.160061,464.447729 L272.320041,464.447729 C272.320041,464.447729 274.352413,512.066898 286.54665,514.077835" id="Fill-195" fill="#004D42"></path>
                <path d="M262.039371,374.73073 L262.039371,512.194766 L247.738387,512.194766 C247.738387,512.194766 252.938836,491.690591 252.288152,484.41584 L243.187617,484.41584 C243.187617,484.41584 254.2392,460.603285 254.888879,440.760172 L247.738387,440.760172 C247.738387,440.760172 257.690745,419.316592 262.039371,374.73073" id="Fill-197" fill="#004035"></path>
                <path d="M335.561209,514.077835 L296.945078,514.077835 C296.945078,514.077835 302.365088,493.286733 301.686932,485.910182 L292.202176,485.910182 C292.202176,485.910182 303.719304,461.764404 304.397461,441.643613 L296.945078,441.643613 C296.945078,441.643613 307.316573,419.899961 311.848795,374.690182 C312.093016,372.262115 312.317321,369.767639 312.526952,367.198454 C312.526952,367.198454 313.881168,456.39879 332.173571,464.447729 L321.334599,464.447729 C321.334599,464.447729 323.366972,512.066898 335.561209,514.077835" id="Fill-199" fill="#004D42"></path>
                <path d="M311.053929,374.73073 L311.053929,512.194766 L296.752183,512.194766 C296.752183,512.194766 301.95291,491.690591 301.303196,484.41584 L292.202176,484.41584 C292.202176,484.41584 303.253343,460.603285 303.903056,440.760172 L296.752183,440.760172 C296.752183,440.760172 306.705072,419.316592 311.053929,374.73073" id="Fill-201" fill="#004035"></path>
                <path d="M384.575767,515.960904 L352.67524,515.960904 C352.67524,515.960904 357.152152,498.368092 356.593044,492.126541 L348.757436,492.126541 C348.757436,492.126541 358.271379,471.695913 358.8315,454.671075 L352.67524,454.671075 C352.67524,454.671075 361.243157,436.273034 364.98776,398.017474 C365.189322,395.963319 365.373665,393.851647 365.546867,391.678351 C365.546867,391.678351 366.666095,467.155203 381.777191,473.965755 L372.822355,473.965755 C372.822355,473.965755 374.501703,514.259037 384.575767,515.960904" id="Fill-203" fill="#004D42"></path>
                <path d="M365.724014,397.327558 L365.724014,515.960904 L352.852963,515.960904 C352.852963,515.960904 357.53296,498.265182 356.94849,491.987121 L348.757436,491.987121 C348.757436,491.987121 358.702959,471.436983 359.288488,454.312557 L352.852963,454.312557 C352.852963,454.312557 361.809546,435.806895 365.724014,397.327558" id="Fill-205" fill="#004035"></path>
                <path d="M476.949358,515.960904 L445.048831,515.960904 C445.048831,515.960904 449.525743,498.368092 448.966635,492.126541 L441.131027,492.126541 C441.131027,492.126541 450.645983,471.695913 451.205091,454.671075 L445.048831,454.671075 C445.048831,454.671075 453.616749,436.273034 457.361351,398.017474 C457.562913,395.963319 457.747257,393.851647 457.920458,391.678351 C457.920458,391.678351 459.040699,467.155203 474.150782,473.965755 L465.195946,473.965755 C465.195946,473.965755 466.875294,514.259037 476.949358,515.960904" id="Fill-207" fill="#004D42"></path>
                <path d="M458.097605,397.327558 L458.097605,515.960904 L445.226554,515.960904 C445.226554,515.960904 449.906551,498.265182 449.322081,491.987121 L441.131027,491.987121 C441.131027,491.987121 451.077609,471.436983 451.66208,454.312557 L445.226554,454.312557 C445.226554,454.312557 454.183137,435.806895 458.097605,397.327558" id="Fill-209" fill="#004035"></path>
                <path d="M1934.18989,512.194766 L1853.12735,512.194766 C1853.12735,512.194766 1872.32634,477.473839 1872.85903,468.79335 L1868.59349,466.623743 C1868.59349,466.623743 1886.7261,418.882082 1885.6587,390.12912 L1880.32576,386.874709 C1880.32576,386.874709 1894.41056,310.726234 1898.45837,268.682625 C1899.07106,262.324213 1899.45488,256.747725 1899.52577,252.331245 C1899.52577,252.331245 1908.05787,345.6429 1911.79072,353.238585 L1905.39139,355.409223 C1905.39139,355.409223 1910.72434,417.255391 1918.19005,430.275095 L1911.25702,432.987619 C1911.25702,432.987619 1924.59039,500.801753 1934.18989,512.194766" id="Fill-211" fill="#004035"></path>
                <path d="M1934.18989,512.194766 L1898.37156,512.194766 L1898.37156,268.682625 C1898.98574,262.324213 1899.37049,256.747725 1899.44155,252.331245 C1899.44155,252.331245 1907.99438,345.6429 1911.7363,353.238585 L1905.32143,355.409223 C1905.32143,355.409223 1910.66733,417.255391 1918.15118,430.275095 L1911.20131,432.987619 C1911.20131,432.987619 1924.56707,500.801753 1934.18989,512.194766" id="Fill-213" fill="#004D42"></path>
                <path d="M1822.96454,512.194766 L1741.902,512.194766 C1741.902,512.194766 1761.10124,477.473839 1761.63393,468.79335 L1757.36834,466.623743 C1757.36834,466.623743 1775.50016,418.882082 1774.43376,390.12912 L1769.10075,386.874709 C1769.10075,386.874709 1783.18573,310.726234 1787.23359,268.682625 C1787.84629,262.324213 1788.23011,256.747725 1788.29999,252.331245 C1788.29999,252.331245 1796.83219,345.6429 1800.56611,353.238585 L1794.16569,355.409223 C1794.16569,355.409223 1799.49971,417.255391 1806.96552,430.275095 L1800.0324,432.987619 C1800.0324,432.987619 1813.36493,500.801753 1822.96454,512.194766" id="Fill-215" fill="#004035"></path>
                <path d="M1822.96454,512.194766 L1787.14621,512.194766 L1787.14621,268.682625 C1787.76041,262.324213 1788.14517,256.747725 1788.21522,252.331245 C1788.21522,252.331245 1796.76829,345.6429 1800.51134,353.238585 L1794.09526,355.409223 C1794.09526,355.409223 1799.44233,417.255391 1806.92639,430.275095 L1799.97633,432.987619 C1799.97633,432.987619 1813.34145,500.801753 1822.96454,512.194766" id="Fill-217" fill="#004D42"></path>
                <path d="M366.63967,490.090433 L371.756575,506.545559 L313.423864,506.545559 L326.727816,434.554383 L307.283579,434.554383 C307.283579,434.554383 329.797958,380.046778 325.704435,330.681401 L317.517388,330.681401 C317.517388,330.681401 334.218964,315.645529 332.929504,242.029409 C332.91927,241.08324 332.888569,240.116501 332.868101,239.149762 C332.868101,239.149762 355.382481,387.245896 372.779956,388.274341 L359.476004,388.274341 C359.476004,388.274341 361.522766,480.834425 378.920241,490.090433 L366.63967,490.090433 Z" id="Fill-219" fill="#004D42"></path>
                <path d="M1016.1095,508.428628 L957.345053,508.428628 C957.345053,508.428628 965.592695,476.442251 964.56174,465.092246 L950.128366,465.092246 C950.128366,465.092246 967.654605,427.946776 968.685561,396.992217 L957.345053,396.992217 C957.345053,396.992217 973.128978,363.540657 980.026068,293.985763 C980.397212,290.25058 980.737428,286.412214 981.057024,282.460349 C981.057024,282.460349 983.118934,419.692226 1010.95473,432.07405 L994.459442,432.07405 C994.459442,432.07405 997.552308,505.333173 1016.1095,508.428628" id="Fill-221" fill="#004D42"></path>
                <path d="M1077.0635,491.552067 L1080.20546,510.311697 L1042.50196,510.311697 C1042.50196,510.311697 1054.02247,457.15941 1051.92783,440.484183 L1044.5966,440.484183 C1044.5966,440.484183 1059.34286,380.22408 1063.44835,354.158616 C1064.10816,349.948121 1064.49567,346.633919 1064.49567,344.601626 C1064.49567,344.601626 1073.92155,473.834638 1089.63134,491.552067 L1077.0635,491.552067 Z" id="Fill-223" fill="#004035"></path>
                <path d="M1175.02978,452.789269 C1172.95609,475.457156 1185.39825,508.428628 1185.39825,508.428628 L1134.59277,508.428628 L1139.777,492.973251 L1127.33485,492.973251 C1143.92439,477.517873 1143.92439,420.848155 1143.92439,420.848155 L1127.33485,420.848155 C1141.8507,360.057004 1153.25601,235.383624 1153.25601,235.383624 C1157.40339,287.931908 1176.06663,316.781946 1176.06663,316.781946 L1165.69816,316.781946 C1163.62447,362.117721 1189.54563,421.878514 1189.54563,421.878514 L1173.99294,421.878514 C1173.99294,431.15174 1185.39825,452.789269 1185.39825,452.789269 L1175.02978,452.789269 Z" id="Fill-225" fill="#004035"></path>
                <path d="M1432.60324,494.946946 L1436.76363,508.428628 L1393.07956,508.428628 L1399.32014,474.205896 L1383.71869,474.205896 C1383.71869,474.205896 1403.48053,448.279584 1402.44043,426.501482 L1393.07956,422.353272 C1393.07956,422.353272 1412.8414,335.240863 1411.8013,293.758763 C1411.8013,293.758763 1412.56057,299.991449 1413.8815,309.31455 C1417.64665,336.049764 1425.92582,388.161651 1433.64333,391.241697 L1422.20227,391.241697 C1422.20227,391.241697 1436.76363,480.428211 1444.0443,494.946946 L1432.60324,494.946946 Z" id="Fill-227" fill="#004035"></path>
                <path d="M1779.60551,442.560798 L1770.24464,445.648352 C1770.24464,445.648352 1773.36493,500.19515 1779.60551,508.428628 L1719.2799,508.428628 C1719.2799,508.428628 1733.84125,423.006285 1732.80116,379.780521 L1724.48038,379.780521 C1724.48038,379.780521 1744.24222,319.058615 1743.20213,293.328994 L1729.68087,293.328994 C1729.68087,293.328994 1745.28232,228.490348 1746.32242,165.710071 C1746.32242,165.710071 1747.45612,176.259216 1749.44271,192.242457 C1755.02803,237.361921 1767.31157,325.738025 1779.60551,341.700682 L1768.16445,341.700682 C1768.16445,341.700682 1772.32483,429.181395 1779.60551,442.560798" id="Fill-229" fill="#004D42"></path>
                <path d="M1907.79743,508.428628 L1749.44271,508.428628 C1749.44271,508.428628 1786.94777,442.50942 1787.98958,426.029618 L1779.65512,421.909667 C1779.65512,421.909667 1815.07657,331.270755 1812.99296,276.681411 L1802.57488,270.501485 C1802.57488,270.501485 1830.08902,125.932421 1837.99634,46.1083792 C1839.19441,34.0369242 1839.94452,23.4486513 1840.07995,15.064552 C1840.07995,15.064552 1856.74887,192.222425 1864.04152,206.642252 L1851.53983,210.762202 C1851.53983,210.762202 1861.95791,328.180793 1876.54321,352.900496 L1862.99971,358.050434 C1862.99971,358.050434 1889.0449,486.798888 1907.79743,508.428628" id="Fill-231" fill="#004035"></path>
                <path d="M337.307095,508.428628 L313.635522,508.428628 L327.398064,436.166222 L307.283579,436.166222 C307.283579,436.166222 330.574036,381.453257 326.339407,331.901892 L317.87015,331.901892 C317.87015,331.901892 335.147435,316.809373 333.813527,242.9159 C339.583208,299.683182 353.726867,458.371427 337.307095,508.428628" id="Fill-233" fill="#004035"></path>
                <path d="M980.291171,293.758763 L980.291171,508.428628 L957.409043,508.428628 C957.409043,508.428628 965.729817,476.408392 964.68972,465.046372 L950.128366,465.046372 C950.128366,465.046372 967.81001,427.861581 968.850107,396.874255 L957.409043,396.874255 C957.409043,396.874255 973.332924,363.387285 980.291171,293.758763" id="Fill-235" fill="#004035"></path>
                <path d="M454.327254,510.311697 L361.983184,510.311697 C361.983184,510.311697 374.944281,460.199984 373.323756,442.418442 L350.642611,442.418442 C350.642611,442.418442 378.184297,384.223928 379.803788,335.728155 L361.983184,335.728155 C361.983184,335.728155 386.78642,283.320485 397.624392,174.351784 C398.207657,168.499931 398.742316,162.486071 399.244917,156.294727 C399.244917,156.294727 402.484933,371.29124 446.226698,390.689755 L420.305537,390.689755 C420.305537,390.689755 425.166078,505.462842 454.327254,510.311697" id="Fill-237" fill="#004D42"></path>
                <path d="M397.771994,173.242347 L397.771994,508.428628 L362.018812,508.428628 C362.018812,508.428628 375.019592,458.43231 373.393976,440.691714 L350.642611,440.691714 C350.642611,440.691714 378.269787,382.631208 379.895403,334.247109 L362.018812,334.247109 C362.018812,334.247109 386.899973,281.96115 397.771994,173.242347" id="Fill-239" fill="#004035"></path>
                <path d="M326.135332,508.428628 L267.370882,508.428628 C267.370882,508.428628 275.618524,476.442251 274.587569,465.092246 L260.154195,465.092246 C260.154195,465.092246 277.680435,427.946776 278.71139,396.992217 L267.370882,396.992217 C267.370882,396.992217 283.154807,363.540657 290.051898,293.985763 C290.423042,290.25058 290.763257,286.412214 291.082853,282.460349 C291.082853,282.460349 293.144764,419.692226 320.980556,432.07405 L304.485272,432.07405 C304.485272,432.07405 307.578137,505.333173 326.135332,508.428628" id="Fill-241" fill="#004D42"></path>
                <path d="M290.317001,293.758763 L290.317001,508.428628 L267.434873,508.428628 C267.434873,508.428628 275.755646,476.408392 274.71555,465.046372 L260.154195,465.046372 C260.154195,465.046372 277.83584,427.861581 278.875937,396.874255 L267.434873,396.874255 C267.434873,396.874255 283.358754,363.387285 290.317001,293.758763" id="Fill-243" fill="#004035"></path>
                <path d="M162.125078,515.960904 L103.360629,515.960904 C103.360629,515.960904 111.608271,483.974527 110.577315,472.624522 L96.1439418,472.624522 C96.1439418,472.624522 113.670181,435.479051 114.701136,404.524493 L103.360629,404.524493 C103.360629,404.524493 119.144554,371.072933 126.041644,301.518039 C126.412788,297.782856 126.753003,293.94449 127.0726,289.992625 C127.0726,289.992625 129.13451,427.224502 156.970302,439.606326 L140.475018,439.606326 C140.475018,439.606326 143.567884,512.865449 162.125078,515.960904" id="Fill-245" fill="#004D42"></path>
                <path d="M126.306747,301.291039 L126.306747,515.960904 L103.424619,515.960904 C103.424619,515.960904 111.745393,483.940668 110.705296,472.578648 L96.1439418,472.578648 C96.1439418,472.578648 113.825586,435.393857 114.865683,404.406531 L103.424619,404.406531 C103.424619,404.406531 119.3485,370.919561 126.306747,301.291039" id="Fill-247" fill="#004035"></path>
                <path d="M1075.98267,491.552067 L1078.92354,510.311697 L1063.23889,510.311697 L1063.23889,354.158616 C1063.85647,349.948121 1064.21918,346.633919 1064.21918,344.601626 C1064.21918,344.601626 1073.0418,473.834638 1087.74617,491.552067 L1075.98267,491.552067 Z" id="Fill-249" fill="#004D42"></path>
                <path d="M1177.10348,452.789269 C1175.05671,475.457156 1187.33728,508.428628 1187.33728,508.428628 L1155.61248,508.428628 L1155.61248,235.383624 C1159.706,287.931908 1178.12686,316.781946 1178.12686,316.781946 L1167.89305,316.781946 C1165.84629,362.117721 1191.43081,421.878514 1191.43081,421.878514 L1176.08009,421.878514 C1176.08009,431.15174 1187.33728,452.789269 1187.33728,452.789269 L1177.10348,452.789269 Z" id="Fill-251" fill="#004D42"></path>
                <g id="Group-255">
                    <mask id="mask-2" fill="white">
                        <use xlink:href="#path-1"></use>
                    </mask>
                    <g id="Clip-254"></g>
                    <path d="M90.7535381,418.393503 C86.8076386,461.979169 110.482012,525.376969 110.482012,525.376969 L13.8105458,525.376969 L23.6742707,495.658768 L-0.000102384522,495.658768 C31.5660697,465.941596 31.5660697,356.977945 31.5660697,356.977945 L-0.000102384522,356.977945 C27.6201702,240.088412 49.3226173,0.368791508 49.3226173,0.368791508 C57.2144163,101.407589 92.7264878,156.880535 92.7264878,156.880535 L72.9969904,156.880535 C69.0510909,244.051867 118.373811,358.95813 118.373811,358.95813 L88.7805883,358.95813 C88.7805883,376.789051 110.482012,418.393503 110.482012,418.393503 L90.7535381,418.393503 Z" id="Fill-253" fill="#004035" mask="url(#mask-2)"></path>
                </g>
                <g id="Group-258" transform="translate(49.014559, 0.000000)">
                    <mask id="mask-4" fill="white">
                        <use xlink:href="#path-3"></use>
                    </mask>
                    <g id="Clip-257"></g>
                    <path d="M41.6866686,418.393503 C37.7334005,461.979169 61.4519834,525.376969 61.4519834,525.376969 L0.178379171,525.376969 L0.178379171,0.368791508 C8.08491539,101.407589 43.6633026,156.880535 43.6633026,156.880535 L23.8969621,156.880535 C19.943694,244.051867 69.3585196,358.95813 69.3585196,358.95813 L39.7100345,358.95813 C39.7100345,376.789051 61.4519834,418.393503 61.4519834,418.393503 L41.6866686,418.393503 Z" id="Fill-256" fill="#004D42" mask="url(#mask-4)"></path>
                </g>
                <path d="M1430.71806,495.041185 L1434.87845,508.428628 L1411.99632,508.428628 L1411.99632,310.706384 C1415.76147,337.254715 1424.04064,389.002333 1431.75816,392.060849 L1420.3171,392.060849 C1420.3171,392.060849 1434.87845,480.623938 1442.15913,495.041185 L1430.71806,495.041185 Z" id="Fill-259" fill="#004D42"></path>
                <path d="M1907.79743,508.428628 L1838.04595,508.428628 L1838.04595,46.1083792 C1839.24317,34.0369242 1839.99274,23.4486513 1840.12808,15.064552 C1840.12808,15.064552 1856.78515,192.222425 1864.07262,206.642252 L1851.57982,210.762202 C1851.57982,210.762202 1861.99049,328.180793 1876.56542,352.900496 L1863.03155,358.050434 C1863.03155,358.050434 1889.05823,486.798888 1907.79743,508.428628" id="Fill-261" fill="#004D42"></path>
                <path d="M2003.94138,515.960904 L1883.29015,515.960904 C1883.29015,515.960904 1911.86566,464.382637 1912.65982,451.488845 L1906.30959,448.265655 C1906.30959,448.265655 1933.29678,377.34515 1931.71049,334.632203 L1923.77297,329.796385 C1923.77297,329.796385 1944.73573,216.679801 1950.76015,154.22146 C1951.67242,144.777246 1952.24462,136.491851 1952.34745,129.931761 C1952.34745,129.931761 1965.0479,268.547515 1970.60397,279.830746 L1961.07812,283.053936 C1961.07812,283.053936 1969.01666,374.927241 1980.12879,394.269479 L1969.81082,398.298982 C1969.81082,398.298982 1989.65464,499.037609 2003.94138,515.960904" id="Fill-263" fill="#004035"></path>
                <path d="M2003.94138,515.960904 L1949.27129,515.960904 L1949.27129,154.22146 C1950.2091,144.777246 1950.79732,136.491851 1950.90303,129.931761 C1950.90303,129.931761 1963.95904,268.547515 1969.67065,279.830746 L1959.87812,283.053936 C1959.87812,283.053936 1968.03891,374.927241 1979.46214,394.269479 L1968.85531,398.298982 C1968.85531,398.298982 1989.25467,499.037609 2003.94138,515.960904" id="Fill-265" fill="#004D42"></path>
                <path d="M277.120773,508.428628 L118.766046,508.428628 C118.766046,508.428628 156.271113,442.50942 157.31292,426.029618 L148.978461,421.909667 C148.978461,421.909667 184.399913,331.270755 182.316298,276.681411 L171.898224,270.501485 C171.898224,270.501485 199.412358,125.932421 207.319676,46.1083792 C208.517755,34.0369242 209.267856,23.4486513 209.403291,15.064552 C209.403291,15.064552 226.07221,192.222425 233.364862,206.642252 L220.863173,210.762202 C220.863173,210.762202 231.281247,328.180793 245.866551,352.900496 L232.323054,358.050434 C232.323054,358.050434 258.36824,486.798888 277.120773,508.428628" id="Fill-267" fill="#004035"></path>
                <path d="M279.005949,508.428628 L209.254462,508.428628 L209.254462,46.1083792 C210.451689,34.0369242 211.201257,23.4486513 211.336596,15.064552 C211.336596,15.064552 227.993667,192.222425 235.281136,206.642252 L222.788332,210.762202 C222.788332,210.762202 233.199002,328.180793 247.77394,352.900496 L234.240069,358.050434 C234.240069,358.050434 260.266743,486.798888 279.005949,508.428628" id="Fill-269" fill="#004D42"></path>
                <path d="M1749.44271,192.242457 L1749.44271,508.428628 L1719.2799,508.428628 C1719.2799,508.428628 1733.84125,423.006285 1732.80116,379.780521 L1724.48038,379.780521 C1724.48038,379.780521 1744.24222,319.058615 1743.20213,293.328994 L1729.68087,293.328994 C1729.68087,293.328994 1745.28232,228.490348 1746.32242,165.710071 C1746.32242,165.710071 1747.45612,176.259216 1749.44271,192.242457" id="Fill-271" fill="#004035"></path>
            </g>
        </g>
    </g>
</svg>