<?xml version="1.0" encoding="UTF-8"?>
<svg width="1055px" height="263px" viewBox="0 0 1055 263" version="1.1" xmlns="http://www.w3.org/2000/svg" xmlns:xlink="http://www.w3.org/1999/xlink">
    <!-- Generator: Sketch 49.3 (51167) - http://www.bohemiancoding.com/sketch -->
    <title>Footer Copy</title>
    <desc>Created with Sketch.</desc>
    <defs>
        <path d="M301.048359,9.69649446 L210.968831,1039.60313 L145.87633,1033.90665 L15.3357745,1019.41809 C5.11192485,993.669131 -1.83416581e-16,976.455846 0,967.778238 C-2.75124872e-16,954.761826 34.487532,877.709706 34.487532,871.982485 C34.487532,868.164337 31.7114872,861.048699 26.1593976,850.635569 C21.9953304,828.767997 19.9132968,815.751585 19.9132968,811.586333 C19.9132968,807.421081 16.269738,802.561621 8.98262041,797.007952 C1.3484972,785.206405 2.91002241,772.710649 13.667196,759.520685 C24.4243696,746.330721 27.3739172,729.322609 22.5158388,708.49635 L48.5412588,639.769695 C48.8882644,636.99286 54.2668512,636.298652 64.6770193,637.687069 C75.0871873,639.075486 86.1913665,633.695369 97.9895569,621.546718 C88.9674113,613.563319 81.1597853,612.348454 74.5666789,617.902123 C67.9735725,623.455792 63.1154941,626.232626 59.9924436,626.232626 C61.7274717,617.902123 65.1975277,609.224515 70.4026117,600.199802 C78.2102377,586.662734 103.715149,536.159056 108.920233,536.159056 C114.125317,536.159056 115.686842,539.803651 119.85091,539.803651 C122.626954,539.803651 116.380854,550.043228 101.112607,570.522383 L112.043284,583.538795 C117.942379,561.324119 125.750005,546.745737 135.466162,539.803651 C150.040397,529.390521 143.794296,501.275071 143.794296,499.192445 C143.794296,497.10982 141.191754,486.69669 169.819716,483.572751 C188.905024,481.490125 202.091237,474.200934 209.378355,461.705179 C206.255304,457.887031 200.182706,455.457301 191.160561,454.415988 C182.138415,453.374675 176.759828,450.771393 175.0248,446.606141 C154.204464,469.862131 143.794296,481.490125 143.794296,481.490125 C143.794296,481.490125 147.437855,448.688767 156.286498,445.564828 C165.135141,442.440889 160.450565,427.862508 160.450565,429.945134 C160.450565,431.333551 172.422258,423.523704 196.365645,406.515592 C176.933331,393.672732 172.075253,377.358829 181.791409,357.573883 C196.365645,327.896464 188.558019,311.756113 181.791409,304.987579 C175.0248,298.219045 169.819716,299.260357 172.942767,284.16132 C176.065817,269.062282 164.614632,257.087183 160.450565,250.318648 C156.286498,243.550114 158.368531,228.451076 160.450565,225.847794 C162.532599,223.244512 169.819716,224.806481 171.381241,225.847794 C172.422258,226.542003 179.015365,219.599916 191.160561,205.021535 C187.690505,190.790258 188.03751,179.509367 192.201577,171.178864 C198.447678,158.683108 211.460388,153.476543 211.460388,125.361093 C211.460388,97.2456435 217.185981,78.5020103 223.95259,59.758377 C230.719199,41.0147438 217.185981,35.808179 222.391065,25.3950494 C227.596149,14.9819198 231.239707,0.403538413 231.239707,0.403538413 C231.239707,0.403538413 254.509258,3.50119043 301.048359,9.69649446 Z" id="path-1"></path>
        <filter x="-4.8%" y="-1.2%" width="109.6%" height="102.8%" filterUnits="objectBoundingBox" id="filter-2">
            <feOffset dx="0" dy="2" in="SourceAlpha" result="shadowOffsetOuter1"></feOffset>
            <feGaussianBlur stdDeviation="4.5" in="shadowOffsetOuter1" result="shadowBlurOuter1"></feGaussianBlur>
            <feColorMatrix values="0 0 0 0 0   0 0 0 0 0   0 0 0 0 0  0 0 0 0.0773324275 0" type="matrix" in="shadowBlurOuter1"></feColorMatrix>
        </filter>
        <path d="M10.0029134,15.8230547 L3.54426344,15.8230547 C2.73230167,15.8230547 2.05263003,15.2167272 1.89496609,14.4128731 L1.58686635,14.4128731 C1.08074552,14.4128731 0.669117647,13.980843 0.669117647,13.4498125 L0.669117647,10.3921013 C0.669117647,9.86107094 1.08082082,9.42904084 1.58686635,9.42904084 L1.86048181,9.42904084 L1.86048181,6.32700468 C1.51563899,6.19000026 1.26980672,5.83982517 1.26980672,5.43055013 L1.26980672,2.75264301 C1.26980672,2.22429896 1.67940168,1.79448116 2.18288725,1.79448116 L2.91744762,1.79448116 L2.91744762,1.48681378 C2.91744762,1.05841817 3.24956589,0.709902307 3.65788086,0.709902307 L4.96971413,0.709902307 C5.37795381,0.709902307 5.71007208,1.05841817 5.71007208,1.48681378 L5.71007208,1.79448116 L7.72296024,1.79448116 L7.72296024,0.838847647 C7.72296024,0.410452037 8.05507851,0.0619361693 8.46331819,0.0619361693 L9.77515146,0.0619361693 C10.1834664,0.0619361693 10.5155847,0.410452037 10.5155847,0.838847647 L10.5155847,1.79448116 L11.3642895,1.79448116 C11.8677751,1.79448116 12.2773701,2.22429896 12.2773701,2.75264301 L12.2773701,5.43055013 C12.2773701,5.83982517 12.0315378,6.19000026 11.686695,6.32700468 L11.686695,9.42904084 L11.9866631,9.42904084 C12.4927839,9.42904084 12.9044118,9.86107094 12.9044118,10.3921013 L12.9044118,13.4498125 C12.9044118,13.980843 12.4927086,14.4128731 11.9866631,14.4128731 L11.6522107,14.4128731 C11.4944715,15.2167272 10.8148751,15.8230547 10.0029134,15.8230547 L10.0029134,15.8230547 Z M2.25193111,14.2645701 C2.34792993,14.9224916 2.89086913,15.4280016 3.54418814,15.4280016 L10.0028381,15.4280016 C10.7236951,15.4280016 11.3101537,14.8125088 11.3101537,14.0560611 L11.3101537,6.38871198 L7.60602992,6.38871198 L7.60602992,6.79688087 C7.60602992,7.25530052 7.25057076,7.62823067 6.81379496,7.62823067 L6.73330654,7.62823067 C6.29645545,7.62823067 5.94107159,7.25530052 5.94107159,6.79688087 L5.94107159,6.38871198 L2.23687247,6.38871198 L2.23687247,9.53594222 C2.25027466,9.56312187 2.25780398,9.59393601 2.25780398,9.6265674 L2.25780398,14.2154255 C2.25780398,14.2323338 2.25577106,14.248847 2.25193111,14.2645701 L2.25193111,14.2645701 Z M11.6921161,14.0178199 L11.9866631,14.0178199 C12.2851253,14.0178199 12.5279458,13.7630107 12.5279458,13.4498125 L12.5279458,10.3921013 C12.5279458,10.0789032 12.28505,9.82409397 11.9866631,9.82409397 L11.6921161,9.82409397 L11.6921161,14.0178199 L11.6921161,14.0178199 Z M1.58679106,9.82409397 C1.28832885,9.82409397 1.04550831,10.0789032 1.04550831,10.3921013 L1.04550831,13.4498125 C1.04550831,13.7630107 1.28840414,14.0178199 1.58679106,14.0178199 L1.86040651,14.0178199 L1.86040651,9.82401495 L1.58679106,9.82401495 L1.58679106,9.82409397 Z M6.31746225,6.28852651 L6.31746225,6.79688087 C6.31746225,7.03746823 6.50403877,7.23317754 6.73323125,7.23317754 L6.81371967,7.23317754 C7.04298743,7.23317754 7.22948867,7.03738921 7.22948867,6.79688087 L7.22948867,6.28852651 L6.96167079,6.28852651 L6.96167079,6.55581945 C6.96167079,6.66493313 6.87741771,6.75334602 6.77343781,6.75334602 C6.66945791,6.75334602 6.58520483,6.66493313 6.58520483,6.55581945 L6.58520483,6.28852651 L6.31746225,6.28852651 L6.31746225,6.28852651 Z M7.60610521,5.99365886 L11.3642895,5.99365886 C11.6601918,5.99365886 11.9009041,5.74106189 11.9009041,5.43055013 L11.9009041,2.75264301 C11.9009041,2.44213125 11.6601918,2.18953428 11.3642895,2.18953428 L2.18281196,2.18953428 C1.88690972,2.18953428 1.64619739,2.44213125 1.64619739,2.75264301 L1.64619739,5.43055013 C1.64619739,5.74106189 1.88690972,5.99365886 2.18281196,5.99365886 L5.94099629,5.99365886 L5.94099629,5.58548997 C5.94099629,5.12707032 6.29645545,4.75414017 6.73323125,4.75414017 L6.81371967,4.75414017 C7.25057076,4.75414017 7.60595462,5.12707032 7.60595462,5.58548997 L7.60595462,5.99365886 L7.60610521,5.99365886 Z M7.22963926,5.98773306 L7.22963926,5.58501179 C7.22963926,5.34468812 7.04306273,5.14919329 6.81387025,5.14919329 L6.73338183,5.14919329 C6.50411407,5.14919329 6.31761283,5.34476704 6.31761283,5.58501179 L6.31761283,5.98773306 L6.7735884,5.98773306 L7.22963926,5.98773306 Z M8.0993509,1.79448116 L10.1390434,1.79448116 L10.1390434,0.838847647 C10.1390434,0.628284331 9.97573252,0.456989295 9.77507616,0.456989295 L8.4632429,0.456989295 C8.26258654,0.456989295 8.0993509,0.628284331 8.0993509,0.838847647 L8.0993509,1.79448116 L8.0993509,1.79448116 Z M3.29383828,1.79448116 L5.33353083,1.79448116 L5.33353083,1.48681378 C5.33353083,1.27625047 5.17029519,1.10495543 4.96963884,1.10495543 L3.65780557,1.10495543 C3.45714922,1.10495543 3.29383828,1.27625047 3.29383828,1.48681378 L3.29383828,1.79448116 L3.29383828,1.79448116 Z M8.78195897,14.6233574 L4.76514253,14.6233574 C4.22551623,14.6233574 3.78655693,14.1627254 3.78655693,13.5965353 L3.78655693,9.64197447 C3.78655693,9.00546488 4.2800285,8.48762924 4.88659045,8.48762924 L8.66043576,8.48762924 C9.267073,8.48762924 9.76046928,9.00546488 9.76046928,9.64197447 L9.76046928,13.5965353 C9.76054458,14.1627254 9.32158527,14.6233574 8.78195897,14.6233574 L8.78195897,14.6233574 Z M4.16302288,11.0470994 L4.16302288,13.5965353 C4.16302288,13.9448931 4.43317485,14.2283042 4.76514253,14.2283042 L8.78195897,14.2283042 C9.11392665,14.2283042 9.38407862,13.9448931 9.38407862,13.5965353 L9.38407862,11.0470994 L4.16302288,11.0470994 L4.16302288,11.0470994 Z M4.16302288,10.6520463 L9.38407862,10.6520463 L9.38407862,9.64197447 C9.38407862,9.22329717 9.05941438,8.88268237 8.66051106,8.88268237 L4.88659045,8.88268237 C4.48761183,8.88268237 4.16302288,9.22329717 4.16302288,9.64197447 L4.16302288,10.6520463 L4.16302288,10.6520463 Z" id="path-3"></path>
    </defs>
    <g id="Page-1" stroke="none" stroke-width="1" fill="none" fill-rule="evenodd">
        <g id="Footer-Copy" transform="translate(0.000000, -126.000000)">
            <g id="Mapa" transform="translate(532.000000, 252.000000) scale(1, -1) rotate(-90.000000) translate(-532.000000, -252.000000) translate(280.500000, -279.500000)">
                <g transform="translate(273.199385, 531.509232) rotate(-5.000000) translate(-273.199385, -531.509232) translate(122.199385, 11.509232)" id="Path-3-Copy" opacity="0.960484601">
                    <g>
                        <use fill="black" fill-opacity="1" filter="url(#filter-2)" xlink:href="#path-1"></use>
                        <use fill="#FFFFFF" fill-rule="evenodd" xlink:href="#path-1"></use>
                    </g>
                </g>
                <g id="Ruta" transform="translate(251.522762, 536.136757) scale(1, -1) rotate(-16.000000) translate(-251.522762, -536.136757) translate(133.522762, 38.136757)">
                    <g id="Group-8" transform="translate(79.336767, 32.841819)">
                        <path d="M7.09243277,951.499526 L2.10792573,897.669132 L32.5956612,862.533896 L38.1833829,807.200991 L27.7297914,748.217031 L59.9612402,695.853249 C57.0541076,665.946098 55.6005414,650.992523 55.6005414,650.992523 C55.6005414,650.992523 64.0721796,641.46421 81.0154562,622.407584 L58.7959065,569.892372 L98.1448524,562.653285 L126.070142,500.616243 L97.9928734,433.157415 L73.9168645,357.349585 L107.772003,314.614481 L91.2646429,264.735787 L155.213955,205.994778 L146.296834,145.444574 L119.320424,118.391166 L123.689343,82.0802471 L107.850665,56.3602153 L87.1987613,6.21723221" id="Path-4" stroke="#59AA46"></path>
                        <ellipse id="Oval-5" fill="#68C951" cx="27.3439476" cy="747.347175" rx="11.3439476" ry="11.3471748"></ellipse>
                        <ellipse id="Oval-5-Copy" fill="#006131" cx="27.3439476" cy="747.345752" rx="6.34394762" ry="6.3457524"></ellipse>
                        <ellipse id="Oval-5-Copy-5" fill="#68C951" cx="6.34394762" cy="951.345752" rx="6.34394762" ry="6.3457524"></ellipse>
                        <ellipse id="Oval-5-Copy-2" fill="#68C951" cx="58.3573878" cy="569.289714" rx="6.34394762" ry="6.3457524"></ellipse>
                        <ellipse id="Oval-5-Copy-3" fill="#68C951" cx="84.8386622" cy="263.036093" rx="6.34394762" ry="6.3457524"></ellipse>
                        <ellipse id="Oval-5-Copy-4" fill="#68C951" cx="84.8386622" cy="6.3457524" rx="6.34394762" ry="6.3457524"></ellipse>
                    </g>
                    <g id="Campamento-Base" transform="translate(50.886698, 765.133729) rotate(-75.000000) translate(-50.886698, -765.133729) translate(20.886698, 720.617600)">
                        <path d="M28.1198165,87.0023984 C28.1198165,75.8252747 12.4270212,55.1618343 7.5720412,49.0393335 C6.60124152,47.8221502 5.96614809,47.050905 5.74136232,46.777014 C1.94061777,41.581985 0,35.5998904 0,29.3201741 C0,13.1526981 13.0542618,0 29.1014137,0 C45.1515104,0 58.2096986,13.1526981 58.2096986,29.3201741 C58.2096986,35.5998904 56.2680992,41.581985 52.5959439,46.6207874 C52.5733672,46.6514395 52.4496859,46.7977783 52.4496859,46.7977783 C52.2111578,47.0884785 51.5848988,47.8508247 50.6857557,48.983962 C45.7728614,55.1736996 30.083011,75.8341737 30.083011,87.0023984 C30.083011,87.3669272 29.7558119,87.6965191 29.1014137,87.9911744 C28.4470155,87.6965191 28.1198165,87.3669272 28.1198165,87.0023984 Z" id="Fill-1" stroke="#006131" fill="#59AA46"></path>
                        <g id="Icono/Campamento-base" transform="translate(11.906529, 14.887396)" fill="#FFFFFF">
                            <path d="M35.7634393,19.9393644 C35.4687835,19.9393644 35.2299939,20.1799425 35.2299939,20.4765871 L35.2299939,20.7627804 C29.388379,15.5209514 25.794315,8.36319081 25.0789162,0.488286645 L25.0345918,0 L11.2581223,0 L11.2137979,0.488286645 C10.4985931,8.36123727 6.90608091,15.5174351 1.06689076,20.758971 L1.06689076,20.4765871 C1.06689076,20.1799425 0.828101213,19.9393644 0.533445382,19.9393644 C0.238789551,19.9393644 0,20.1799425 0,20.4765871 L0,23.1138625 C0,23.4105071 0.238789551,23.6510852 0.533445382,23.6510852 C0.828101213,23.6510852 1.06689076,23.4105071 1.06689076,23.1138625 L1.06689076,22.1809508 C1.79703201,21.5626562 2.49574847,20.9167191 3.16139131,20.2445069 L3.16139131,21.8762966 C3.16139131,22.1729413 3.40018087,22.4135194 3.6948367,22.4135194 L32.9858377,22.4135194 C33.2804935,22.4135194 33.5192831,22.1729413 33.5192831,21.8762966 L33.5192831,20.6293538 C34.0683438,21.1654044 34.6388394,21.6840685 35.2299939,22.1845648 L35.2299939,23.1138625 C35.2299939,23.4105071 35.4687835,23.6510852 35.7634393,23.6510852 C36.0580951,23.6510852 36.2968847,23.4105071 36.2968847,23.1138625 L36.2968847,20.4765871 C36.2968847,20.1798448 36.0580951,19.9393644 35.7634393,19.9393644 L35.7634393,19.9393644 Z M11.212052,21.3390739 L4.22828208,21.3390739 L4.22828208,19.1128228 C7.51382068,15.4573638 9.89240514,11.1251995 11.212052,6.40037422 L11.212052,21.3390739 L11.212052,21.3390739 Z M19.6792851,21.3390739 L12.2789428,21.3390739 L12.2789428,6.38503895 C12.6975519,7.87910427 13.223917,9.34240137 13.8569712,10.7667254 C15.2990196,14.0115508 17.258122,16.9699877 19.6792851,19.565555 L19.6792851,21.3390739 L19.6792851,21.3390739 Z M14.8307515,10.3276679 C13.5249742,7.38945015 12.68698,4.27922343 12.335876,1.07444551 L24.0645941,1.07444551 C24.768257,7.72340735 27.4619622,13.8578075 31.7850036,18.7967404 C30.5676813,18.7941032 20.5118478,18.7922473 20.4230049,18.7932241 C18.0990259,16.2939661 16.2174185,13.44776 14.8307515,10.3276679 L14.8307515,10.3276679 Z M32.4523923,21.3390739 L20.7461759,21.3390739 L20.7461759,19.8647393 C22.4602814,19.8545809 28.2153811,19.8625904 32.4523923,19.8726511 L32.4523923,21.3390739 L32.4523923,21.3390739 Z" id="Shape"></path>
                        </g>
                    </g>
                    <g id="Campamento-2" transform="translate(135.063564, 287.049099) rotate(-75.000000) translate(-135.063564, -287.049099) translate(119.563564, 264.049099)">
                        <path d="M14.5285718,44.9512392 C14.5285718,39.1763919 6.42062762,28.5002811 3.91222128,25.336989 C3.41064145,24.708111 3.08250985,24.3096342 2.96637053,24.1681239 C1.00265251,21.4840256 0,18.3932767 0,15.1487566 C0,6.79556067 6.74470195,0 15.0357304,0 C23.3282804,0 30.0750109,6.79556067 30.0750109,15.1487566 C30.0750109,18.3932767 29.0718513,21.4840256 27.174571,24.0874068 C27.1629064,24.1032437 27.0990044,24.1788521 27.0990044,24.1788521 C26.9757649,24.3290472 26.6521977,24.7229261 26.1876404,25.3083804 C23.6493117,28.5064115 15.542889,39.1809898 15.542889,44.9512392 C15.542889,45.139579 15.3738361,45.3098682 15.0357304,45.4621068 C14.6976247,45.3098682 14.5285718,45.139579 14.5285718,44.9512392 Z" id="Fill-1" stroke="#006131" fill="#59AA46"></path>
                        <g id="Icono/campamento-dos" transform="translate(4.613780, 5.384275)" stroke="#FFFFFF">
                            <g id="compass">
                                <path d="M10.8888889,3.11111111 L10.8888889,3.90883191 M18.6666667,10.8888889 L17.8689459,10.8888889 M10.8888889,18.6666667 L10.8888889,17.8689459 M3.11111111,10.8888889 L3.90883191,10.8888889" id="Line" stroke-width="2" stroke-linecap="round"></path>
                                <circle id="base" stroke-width="2" cx="10.5" cy="10.5" r="9.5"></circle>
                                <g id="direction" transform="translate(10.500000, 11.666667) rotate(45.000000) translate(-10.500000, -11.666667) translate(7.777778, 5.444444)">
                                    <path d="M2.73540872,1.35447613 C2.57354972,0.947773285 2.63215495,0.947654519 2.47024869,1.35447613 L1.06170295,4.89372668 C0.779664661,5.60240381 0.780054559,6.81713108 1.06170295,7.52482852 L2.47024869,11.0640791 C2.63210769,11.4707819 2.57350245,11.4709007 2.73540872,11.0640791 L4.14395446,7.52482852 C4.42599274,6.81615138 4.42560284,5.60142411 4.14395446,4.89372668 L2.73540872,1.35447613 Z" id="Path-5"></path>
                                    <path d="M0.799965401,5.88329161 L4.44685905,5.88329161" id="Line" stroke-linecap="round"></path>
                                </g>
                            </g>
                        </g>
                    </g>
                    <g id="Campamento-Uno" transform="translate(106.518873, 592.670720) rotate(-75.000000) translate(-106.518873, -592.670720) translate(91.018873, 569.670720)">
                        <path d="M14.5285718,44.9512392 C14.5285718,39.1763919 6.42062762,28.5002811 3.91222128,25.336989 C3.41064145,24.708111 3.08250985,24.3096342 2.96637053,24.1681239 C1.00265251,21.4840256 0,18.3932767 0,15.1487566 C0,6.79556067 6.74470195,0 15.0357304,0 C23.3282804,0 30.0750109,6.79556067 30.0750109,15.1487566 C30.0750109,18.3932767 29.0718513,21.4840256 27.174571,24.0874068 C27.1629064,24.1032437 27.0990044,24.1788521 27.0990044,24.1788521 C26.9757649,24.3290472 26.6521977,24.7229261 26.1876404,25.3083804 C23.6493117,28.5064115 15.542889,39.1809898 15.542889,44.9512392 C15.542889,45.139579 15.3738361,45.3098682 15.0357304,45.4621068 C14.6976247,45.3098682 14.5285718,45.139579 14.5285718,44.9512392 Z" id="Fill-1" stroke="#006131" fill="#59AA46"></path>
                        <g id="Icono/Campamento-uno" transform="translate(4.613780, 9.230185)">
                            <g id="binoculars">
                                <path d="M19.932818,3.00192334 C19.9329902,2.99778397 19.9334638,2.99372822 19.9334638,2.98954704 L19.9334638,2.65505226 C19.9334638,1.74439024 19.1705675,1.00348432 18.2328767,1.00348432 L16.2384971,1.00348432 C15.7211742,0.372250871 14.933953,0 14.0998043,0 C13.2656556,0 12.4784775,0.372250871 11.9611115,1.00348432 L10.0388454,1.00348432 C9.5215225,0.372250871 8.73430137,0 7.90015264,0 C7.06600391,0 6.27882583,0.372250871 5.76145988,1.00348432 L3.76712329,1.00348432 C2.82943249,1.00348432 2.0665362,1.74439024 2.0665362,2.65505226 L2.0665362,2.98954704 C2.0665362,2.99372822 2.06700978,2.99778397 2.067182,3.00192334 C0.813052838,3.91396516 0,5.36826481 0,7.00348432 C0,9.75859233 2.30793346,12 5.14481409,12 C7.98169472,12 10.2896282,9.75859233 10.2896282,7.00348432 C10.2896282,6.82816725 10.2801996,6.65498258 10.2619452,6.48426481 C10.4853033,6.58921254 10.7356986,6.64808362 11,6.64808362 C11.2643014,6.64808362 11.5146967,6.58917073 11.7380548,6.48426481 C11.7198004,6.65498258 11.7103718,6.82816725 11.7103718,7.00348432 C11.7103718,9.75859233 14.0183053,12 16.8551859,12 C19.6920665,12 22,9.75859233 22,7.00348432 C22,5.36826481 21.1869472,3.91396516 19.932818,3.00192334 L19.932818,3.00192334 Z M14.0998043,0.6271777 C14.53791,0.6271777 14.9587515,0.762439024 15.3077378,1.00348432 L12.8919139,1.00348432 C13.2408571,0.762439024 13.6616986,0.6271777 14.0998043,0.6271777 L14.0998043,0.6271777 Z M7.90019569,0.6271777 C8.33830137,0.6271777 8.75914286,0.762439024 9.10812916,1.00348432 L6.69230528,1.00348432 C7.04124853,0.762439024 7.46209002,0.6271777 7.90019569,0.6271777 L7.90019569,0.6271777 Z M5.14481409,11.3728223 C2.66402348,11.3728223 0.645792564,9.41276655 0.645792564,7.00348432 C0.645792564,4.59420209 2.66402348,2.63414634 5.14481409,2.63414634 C7.6256047,2.63414634 9.64383562,4.59420209 9.64383562,7.00348432 C9.64383562,9.41276655 7.6256047,11.3728223 5.14481409,11.3728223 L5.14481409,11.3728223 Z M9.94520548,4.99651568 C9.94520548,4.43167944 10.4183992,3.97212544 11,3.97212544 C11.5816008,3.97212544 12.0547945,4.43167944 12.0547945,4.99651568 C12.0547945,5.56135192 11.5816008,6.02090592 11,6.02090592 C10.4183992,6.02090592 9.94520548,5.56135192 9.94520548,4.99651568 L9.94520548,4.99651568 Z M11,3.34494774 C10.3223483,3.34494774 9.7361409,3.732 9.46305675,4.2903554 C8.54517025,2.91721254 6.95247358,2.00696864 5.14481409,2.00696864 C4.26606262,2.00696864 3.43819961,2.22221603 2.71379256,2.60098955 C2.74285323,2.06119861 3.20416438,1.63066202 3.76712329,1.63066202 L5.91795695,1.63066202 L5.91808611,1.63066202 L9.87713894,1.63066202 L9.87748337,1.63066202 L9.87778474,1.63066202 L12.1176086,1.63066202 L12.1177378,1.63066202 L16.0767906,1.63066202 L16.077135,1.63066202 L16.0774364,1.63066202 L18.2328767,1.63066202 C18.7958356,1.63066202 19.2571468,2.06119861 19.2862074,2.60098955 C18.5618004,2.22221603 17.7339374,2.00696864 16.8551859,2.00696864 C15.0475264,2.00696864 13.4548297,2.91721254 12.5369432,4.2903554 C12.2638591,3.732 11.6776517,3.34494774 11,3.34494774 L11,3.34494774 Z M16.8551859,11.3728223 C14.3743953,11.3728223 12.3561644,9.41276655 12.3561644,7.00348432 C12.3561644,4.59420209 14.3743953,2.63414634 16.8551859,2.63414634 C19.3359765,2.63414634 21.3542074,4.59420209 21.3542074,7.00348432 C21.3542074,9.41276655 19.3359765,11.3728223 16.8551859,11.3728223 L16.8551859,11.3728223 Z" id="Shape" stroke="#FFFFFF" stroke-width="0.3" fill="#FFFFFF"></path>
                                <path d="M16.8928571,3 C14.9432441,3 13.3571429,4.51400571 13.3571429,6.375 C13.3571429,8.23599429 14.9432441,9.75 16.8928571,9.75 C18.8424702,9.75 20.4285714,8.23599429 20.4285714,6.375 C20.4285714,4.51400571 18.8424702,3 16.8928571,3 L16.8928571,3 Z M16.8928571,9.17142857 C15.27746,9.17142857 13.9632653,7.91697 13.9632653,6.375 C13.9632653,4.83303 15.27746,3.57857143 16.8928571,3.57857143 C18.5082543,3.57857143 19.822449,4.83303 19.822449,6.375 C19.822449,7.91697 18.5082543,9.17142857 16.8928571,9.17142857 L16.8928571,9.17142857 Z" id="Shape" stroke="#FFFFFF" stroke-width="0.3" fill="#FFFFFF"></path>
                                <path d="M5.10714286,3 C3.1575298,3 1.57142857,4.51400571 1.57142857,6.375 C1.57142857,8.23599429 3.1575298,9.75 5.10714286,9.75 C7.05675592,9.75 8.64285714,8.23599429 8.64285714,6.375 C8.64285714,4.51400571 7.05675592,3 5.10714286,3 L5.10714286,3 Z M5.10714286,9.17142857 C3.49174571,9.17142857 2.17755102,7.91697 2.17755102,6.375 C2.17755102,4.83303 3.49174571,3.57857143 5.10714286,3.57857143 C6.72254,3.57857143 8.03673469,4.83303 8.03673469,6.375 C8.03673469,7.91697 6.72254,9.17142857 5.10714286,9.17142857 L5.10714286,9.17142857 Z" id="Shape" stroke="#FFFFFF" stroke-width="0.3" fill="#FFFFFF"></path>
                                <path d="M16.7806122,4.5 C16.6256395,4.5 16.5,4.61992857 16.5,4.76785714 C16.5,4.91578571 16.6256395,5.03571429 16.7806122,5.03571429 C17.6161633,5.03571429 18.2959184,5.68457143 18.2959184,6.48214286 C18.2959184,6.63007143 18.4215578,6.75 18.5765306,6.75 C18.7315034,6.75 18.8571429,6.63007143 18.8571429,6.48214286 C18.8571429,5.38917857 17.9256224,4.5 16.7806122,4.5 L16.7806122,4.5 Z" id="Shape" stroke="#68C951" fill="#434F5E"></path>
                                <path d="M4.99489796,4.5 C4.83992517,4.5 4.71428571,4.61992857 4.71428571,4.76785714 C4.71428571,4.91578571 4.83992517,5.03571429 4.99489796,5.03571429 C5.83044898,5.03571429 6.51020408,5.68457143 6.51020408,6.48214286 C6.51020408,6.63007143 6.63584354,6.75 6.79081633,6.75 C6.94578912,6.75 7.07142857,6.63007143 7.07142857,6.48214286 C7.07142857,5.38917857 6.13990816,4.5 4.99489796,4.5 L4.99489796,4.5 Z" id="Shape" stroke="#68C951" fill="#434F5E"></path>
                            </g>
                        </g>
                    </g>
                    <g id="Alistamiento" transform="translate(47.592926, 974.498674) rotate(-74.000000) translate(-47.592926, -974.498674) translate(32.092926, 951.121625)">
                        <path d="M14.9352533,46.2095072 C14.9352533,40.2730113 6.60035281,29.2980564 4.02173156,26.0462179 C3.50611159,25.3997365 3.16879498,24.9901057 3.04940471,24.8446342 C1.0307186,22.085403 0,18.9081384 0,15.5727982 C0,6.98578093 6.93349858,0 15.4566082,0 C23.9812819,0 30.9168659,6.98578093 30.9168659,15.5727982 C30.9168659,18.9081384 29.8856259,22.085403 27.9352373,24.7616577 C27.9232462,24.7779379 27.8575554,24.8556627 27.8575554,24.8556627 C27.7308662,25.010062 27.3982418,25.4149664 26.9206807,26.0168086 C24.3112995,29.3043584 15.9779631,40.2777378 15.9779631,46.2095072 C15.9779631,46.403119 15.8041781,46.5781749 15.4566082,46.7346749 C15.1090383,46.5781749 14.9352533,46.403119 14.9352533,46.2095072 Z" id="Fill-1" stroke="#006131" fill="#59AA46"></path>
                        <g id="Icono/Alistamiento" transform="translate(8.695369, 7.116416)">
                            <g id="Shape">
                                <use fill="#FFFFFF" fill-rule="evenodd" xlink:href="#path-3"></use>
                                <path stroke="#FFFFFF" stroke-width="0.4" d="M1.73728,14.6128731 L1.58686635,14.6128731 C0.968098552,14.6128731 0.469117647,14.0892264 0.469117647,13.4498125 L0.469117647,10.3921013 C0.469117647,9.75271235 0.968150521,9.22904084 1.58686635,9.22904084 L1.66048181,9.22904084 L1.66048181,6.45316155 C1.30229474,6.25475907 1.06980672,5.86423518 1.06980672,5.43055013 L1.06980672,2.75264301 C1.06980672,2.11594038 1.56673139,1.59448116 2.18288725,1.59448116 L2.71744762,1.59448116 L2.71744762,1.48681378 C2.71744762,0.95004439 3.13691055,0.509902307 3.65788086,0.509902307 L4.96971413,0.509902307 C5.4906241,0.509902307 5.91007208,0.950059591 5.91007208,1.48681378 L5.91007208,1.59448116 L7.52296024,1.59448116 L7.52296024,0.838847647 C7.52296024,0.302093454 7.94240821,-0.138063831 8.46331819,-0.138063831 L9.77515146,-0.138063831 C10.2961218,-0.138063831 10.7155847,0.302078253 10.7155847,0.838847647 L10.7155847,1.59448116 L11.3642895,1.59448116 C11.9804454,1.59448116 12.4773701,2.11594038 12.4773701,2.75264301 L12.4773701,5.43055013 C12.4773701,5.86423518 12.2448821,6.25475907 11.886695,6.45316155 L11.886695,9.22904084 L11.9866631,9.22904084 C12.6054309,9.22904084 13.1044118,9.75268748 13.1044118,10.3921013 L13.1044118,13.4498125 C13.1044118,14.0892015 12.6053789,14.6128731 11.9866631,14.6128731 L11.8098847,14.6128731 C11.5773264,15.435755 10.8480108,16.0230547 10.0029134,16.0230547 L3.54426344,16.0230547 C2.69914684,16.0230547 1.9697783,15.4357348 1.73728,14.6128731 Z M2.45461049,14.2658128 C2.54934569,14.8190787 3.00850814,15.2280016 3.54418814,15.2280016 L10.0028381,15.2280016 C10.6110067,15.2280016 11.1101537,14.7041686 11.1101537,14.0560611 L11.1101537,6.58871198 L7.80602992,6.58871198 L7.80602992,6.79688087 C7.80602992,7.36363461 7.36326396,7.82823067 6.81379496,7.82823067 L6.73330654,7.82823067 C6.18378515,7.82823067 5.74107159,7.3636591 5.74107159,6.79688087 L5.74107159,6.58871198 L2.43552409,6.58871198 L2.41625051,9.44749156 C2.44347719,9.50270729 2.45780398,9.56383819 2.45780398,9.6265674 L2.45780398,14.2154255 C2.45780398,14.2346464 2.45712154,14.2482424 2.45461049,14.2658128 Z M11.8921161,13.8178199 L11.9866631,13.8178199 C12.172455,13.8178199 12.3279458,13.6546521 12.3279458,13.4498125 L12.3279458,10.3921013 C12.3279458,10.1872931 12.1724102,10.024094 11.9866631,10.024094 L11.8921161,10.024094 L11.8921161,13.8178199 Z M1.66040651,13.8178199 L1.66040651,10.024015 L1.58679106,10.024015 L1.58679106,10.024094 C1.40099914,10.024094 1.24550831,10.1872618 1.24550831,10.3921013 L1.24550831,13.4498125 C1.24550831,13.6546208 1.40104393,13.8178199 1.58679106,13.8178199 L1.66040651,13.8178199 Z M6.38520483,6.42078392 L6.31746225,6.48852651 L6.38520483,6.48852651 L6.38520483,6.55581945 C6.38520483,6.6782764 6.43960909,6.78886914 6.52582938,6.86213117 C6.52038961,6.84146684 6.51746225,6.81958834 6.51746225,6.79688087 L6.51746225,6.48852651 L6.58520483,6.48852651 L6.51746225,6.42078392 L6.51746225,6.28852651 L6.45133354,6.35465522 L6.38520483,6.28852651 L6.38520483,6.42078392 Z M7.02114265,6.86204922 C7.10730708,6.78878669 7.16167079,6.67823076 7.16167079,6.55581945 L7.16167079,6.48852651 L7.22948867,6.48852651 L7.16167079,6.42070863 L7.16167079,6.28852651 L7.09557973,6.35461757 L7.02948867,6.28852651 L7.02948867,6.42070863 L6.96167079,6.48852651 L7.02948867,6.48852651 L7.02948867,6.79688087 C7.02948867,6.81955774 7.02656892,6.84140852 7.02114265,6.86204922 Z M7.80595462,5.79365886 L11.3642895,5.79365886 C11.5475215,5.79365886 11.7009041,5.6327033 11.7009041,5.43055013 L11.7009041,2.75264301 C11.7009041,2.55048984 11.5475215,2.38953428 11.3642895,2.38953428 L2.18281196,2.38953428 C1.99958001,2.38953428 1.84619739,2.55048984 1.84619739,2.75264301 L1.84619739,5.43055013 C1.84619739,5.6327033 1.99958001,5.79365886 2.18281196,5.79365886 L5.74099629,5.79365886 L5.74099629,5.58548997 C5.74099629,5.01873623 6.18376225,4.55414017 6.73323125,4.55414017 L6.81371967,4.55414017 C7.36324106,4.55414017 7.80595462,5.01871174 7.80595462,5.58548997 L7.80595462,5.79365886 Z M7.02963926,5.78773306 L7.02963926,5.58501179 C7.02963926,5.45312562 6.93047586,5.34919329 6.81387025,5.34919329 L6.73338183,5.34919329 C6.61676466,5.34919329 6.51761283,5.45313948 6.51761283,5.58501179 L6.51761283,5.78773306 L7.02963926,5.78773306 Z M8.2993509,1.59448116 L9.93904345,1.59448116 L9.93904345,0.838847647 C9.93904345,0.736670025 9.86308999,0.656989295 9.77507616,0.656989295 L8.4632429,0.656989295 C8.37525684,0.656989295 8.2993509,0.736642914 8.2993509,0.838847647 L8.2993509,1.59448116 Z M3.49383828,1.59448116 L5.13353083,1.59448116 L5.13353083,1.48681378 C5.13353083,1.38460905 5.0576249,1.30495543 4.96963884,1.30495543 L3.65780557,1.30495543 C3.56979174,1.30495543 3.49383828,1.38463616 3.49383828,1.48681378 L3.49383828,1.59448116 Z M8.78195897,14.8233574 L4.76514253,14.8233574 C4.11286009,14.8233574 3.58655693,14.2710985 3.58655693,13.5965353 L3.58655693,9.64197447 C3.58655693,8.89710629 4.16735821,8.28762924 4.88659045,8.28762924 L8.66043576,8.28762924 C9.37971953,8.28762924 9.96046928,8.89708102 9.96046928,9.64197447 L9.96046928,13.5965087 C9.96055899,14.2710733 9.43425979,14.8233574 8.78195897,14.8233574 Z M4.36302288,11.2470994 L4.36302288,13.5965353 C4.36302288,13.8365122 4.54582269,14.0283042 4.76514253,14.0283042 L8.78195897,14.0283042 C9.00127881,14.0283042 9.18407862,13.8365122 9.18407862,13.5965353 L9.18407862,11.2470994 L4.36302288,11.2470994 Z M4.36302288,10.4520463 L9.18407862,10.4520463 L9.18407862,9.64197447 C9.18407862,9.33168606 8.94677346,9.08268237 8.66051106,9.08268237 L4.88659045,9.08268237 C4.60028212,9.08268237 4.36302288,9.33165575 4.36302288,9.64197447 L4.36302288,10.4520463 Z"></path>
                            </g>
                        </g>
                    </g>
                    <g id="Icono/Cumbre" transform="translate(144.856861, 19.233573) rotate(-75.000000) translate(-144.856861, -19.233573) translate(130.759200, -0.508768)" fill="#68C951">
                        <g id="flag">
                            <path d="M27.5997273,2.0449 C27.3076364,1.92465 20.3712727,-0.8489 14.9742727,2.07415 C10.6979091,4.3927 3.19136364,2.6533 1.27272727,2.1502 L1.27272727,0.65 C1.27272727,0.29055 0.988272727,0 0.636363636,0 C0.284454545,0 0,0.29055 0,0.65 L0,2.6 C0.00339393939,2.62253333 0.00339393939,8.90586667 0,21.45 L0,22.1481 L0,38.35 C0,38.70945 0.284454545,39 0.636363636,39 C0.988272727,39 1.27272727,38.70945 1.27272727,38.35 L1.27272727,22.99375 C2.71918182,23.3623 5.87172727,24.05455 9.14327273,24.05455 C11.4068182,24.05455 13.7250909,23.7224 15.5711818,22.7227 C20.4406364,20.08305 27.0613636,22.7253 27.1275455,22.75195 C27.3241818,22.83255 27.5456364,22.80785 27.7206364,22.68565 C27.895,22.5654 28,22.3639 28,22.1481 L28,2.6481 C28,2.38225 27.8415455,2.1437 27.5997273,2.0449 Z" id="Shape" fill-rule="nonzero"></path>
                        </g>
                    </g>
                </g>
            </g>
            <g id="Regla" transform="translate(526.000000, 358.500000) rotate(-270.000000) translate(-526.000000, -358.500000) translate(494.500000, -109.500000)">
                <g id="Group-5" opacity="0.54908288" transform="translate(20.688889, 10.366523)" stroke="#BBBBBB" stroke-linecap="square">
                    <g id="Group-4" transform="translate(4.433333, 889.418610)">
                        <path d="M36.2055556,31.9774249 L21.4277778,31.9774249" id="Line"></path>
                        <path d="M36.2055556,26.0281366 L21.4277778,26.0281366" id="Line-Copy"></path>
                        <path d="M36.2055556,20.0788482 L21.4277778,20.0788482" id="Line-Copy-2"></path>
                        <path d="M36.2055556,14.1295599 L21.4277778,14.1295599" id="Line-Copy-3"></path>
                        <path d="M36.2055556,8.1802715 L21.4277778,8.1802715" id="Line-Copy-4"></path>
                        <path d="M36.2055556,2.23098314 L0.738888889,2.23098314" id="Line-Copy-5"></path>
                    </g>
                    <g id="Group-4-Copy" transform="translate(4.433333, 855.210202)">
                        <path d="M36.2055556,31.9774249 L21.4277778,31.9774249" id="Line"></path>
                        <path d="M36.2055556,26.0281366 L21.4277778,26.0281366" id="Line-Copy"></path>
                        <path d="M36.2055556,20.0788482 L21.4277778,20.0788482" id="Line-Copy-2"></path>
                        <path d="M36.2055556,14.1295599 L21.4277778,14.1295599" id="Line-Copy-3"></path>
                        <path d="M36.2055556,8.1802715 L21.4277778,8.1802715" id="Line-Copy-4"></path>
                        <path d="M36.2055556,2.23098314 L0.738888889,2.23098314" id="Line-Copy-5"></path>
                    </g>
                    <g id="Group-4-Copy-2" transform="translate(4.433333, 821.001794)">
                        <path d="M36.2055556,31.9774249 L21.4277778,31.9774249" id="Line"></path>
                        <path d="M36.2055556,26.0281366 L21.4277778,26.0281366" id="Line-Copy"></path>
                        <path d="M36.2055556,20.0788482 L21.4277778,20.0788482" id="Line-Copy-2"></path>
                        <path d="M36.2055556,14.1295599 L21.4277778,14.1295599" id="Line-Copy-3"></path>
                        <path d="M36.2055556,8.1802715 L21.4277778,8.1802715" id="Line-Copy-4"></path>
                        <path d="M36.2055556,2.23098314 L0.738888889,2.23098314" id="Line-Copy-5"></path>
                    </g>
                    <g id="Group-4-Copy-3" transform="translate(4.433333, 786.793386)">
                        <path d="M36.2055556,31.9774249 L21.4277778,31.9774249" id="Line"></path>
                        <path d="M36.2055556,26.0281366 L21.4277778,26.0281366" id="Line-Copy"></path>
                        <path d="M36.2055556,20.0788482 L21.4277778,20.0788482" id="Line-Copy-2"></path>
                        <path d="M36.2055556,14.1295599 L21.4277778,14.1295599" id="Line-Copy-3"></path>
                        <path d="M36.2055556,8.1802715 L21.4277778,8.1802715" id="Line-Copy-4"></path>
                        <path d="M36.2055556,2.23098314 L0.738888889,2.23098314" id="Line-Copy-5"></path>
                    </g>
                    <g id="Group-4-Copy-4" transform="translate(4.433333, 752.584978)">
                        <path d="M36.2055556,31.9774249 L21.4277778,31.9774249" id="Line"></path>
                        <path d="M36.2055556,26.0281366 L21.4277778,26.0281366" id="Line-Copy"></path>
                        <path d="M36.2055556,20.0788482 L21.4277778,20.0788482" id="Line-Copy-2"></path>
                        <path d="M36.2055556,14.1295599 L21.4277778,14.1295599" id="Line-Copy-3"></path>
                        <path d="M36.2055556,8.1802715 L21.4277778,8.1802715" id="Line-Copy-4"></path>
                        <path d="M36.2055556,2.23098314 L0.738888889,2.23098314" id="Line-Copy-5"></path>
                    </g>
                    <g id="Group-4-Copy-5" transform="translate(4.433333, 718.376570)">
                        <path d="M36.2055556,31.9774249 L21.4277778,31.9774249" id="Line"></path>
                        <path d="M36.2055556,26.0281366 L21.4277778,26.0281366" id="Line-Copy"></path>
                        <path d="M36.2055556,20.0788482 L21.4277778,20.0788482" id="Line-Copy-2"></path>
                        <path d="M36.2055556,14.1295599 L21.4277778,14.1295599" id="Line-Copy-3"></path>
                        <path d="M36.2055556,8.1802715 L21.4277778,8.1802715" id="Line-Copy-4"></path>
                        <path d="M36.2055556,2.23098314 L0.738888889,2.23098314" id="Line-Copy-5"></path>
                    </g>
                    <g id="Group-4-Copy-6" transform="translate(4.433333, 684.168162)">
                        <path d="M36.2055556,31.9774249 L21.4277778,31.9774249" id="Line"></path>
                        <path d="M36.2055556,26.0281366 L21.4277778,26.0281366" id="Line-Copy"></path>
                        <path d="M36.2055556,20.0788482 L21.4277778,20.0788482" id="Line-Copy-2"></path>
                        <path d="M36.2055556,14.1295599 L21.4277778,14.1295599" id="Line-Copy-3"></path>
                        <path d="M36.2055556,8.1802715 L21.4277778,8.1802715" id="Line-Copy-4"></path>
                        <path d="M36.2055556,2.23098314 L0.738888889,2.23098314" id="Line-Copy-5"></path>
                    </g>
                    <g id="Group-4-Copy-7" transform="translate(4.433333, 649.959754)">
                        <path d="M36.2055556,31.9774249 L21.4277778,31.9774249" id="Line"></path>
                        <path d="M36.2055556,26.0281366 L21.4277778,26.0281366" id="Line-Copy"></path>
                        <path d="M36.2055556,20.0788482 L21.4277778,20.0788482" id="Line-Copy-2"></path>
                        <path d="M36.2055556,14.1295599 L21.4277778,14.1295599" id="Line-Copy-3"></path>
                        <path d="M36.2055556,8.1802715 L21.4277778,8.1802715" id="Line-Copy-4"></path>
                        <path d="M36.2055556,2.23098314 L0.738888889,2.23098314" id="Line-Copy-5"></path>
                    </g>
                    <g id="Group-4-Copy-8" transform="translate(4.433333, 615.751346)">
                        <path d="M36.2055556,31.9774249 L21.4277778,31.9774249" id="Line"></path>
                        <path d="M36.2055556,26.0281366 L21.4277778,26.0281366" id="Line-Copy"></path>
                        <path d="M36.2055556,20.0788482 L21.4277778,20.0788482" id="Line-Copy-2"></path>
                        <path d="M36.2055556,14.1295599 L21.4277778,14.1295599" id="Line-Copy-3"></path>
                        <path d="M36.2055556,8.1802715 L21.4277778,8.1802715" id="Line-Copy-4"></path>
                        <path d="M36.2055556,2.23098314 L0.738888889,2.23098314" id="Line-Copy-5"></path>
                    </g>
                    <g id="Group-4-Copy-9" transform="translate(4.433333, 581.542937)">
                        <path d="M36.2055556,31.9774249 L21.4277778,31.9774249" id="Line"></path>
                        <path d="M36.2055556,26.0281366 L21.4277778,26.0281366" id="Line-Copy"></path>
                        <path d="M36.2055556,20.0788482 L21.4277778,20.0788482" id="Line-Copy-2"></path>
                        <path d="M36.2055556,14.1295599 L21.4277778,14.1295599" id="Line-Copy-3"></path>
                        <path d="M36.2055556,8.1802715 L21.4277778,8.1802715" id="Line-Copy-4"></path>
                        <path d="M36.2055556,2.23098314 L0.738888889,2.23098314" id="Line-Copy-5"></path>
                    </g>
                    <g id="Group-4-Copy-10" transform="translate(4.433333, 547.334529)">
                        <path d="M36.2055556,31.9774249 L21.4277778,31.9774249" id="Line"></path>
                        <path d="M36.2055556,26.0281366 L21.4277778,26.0281366" id="Line-Copy"></path>
                        <path d="M36.2055556,20.0788482 L21.4277778,20.0788482" id="Line-Copy-2"></path>
                        <path d="M36.2055556,14.1295599 L21.4277778,14.1295599" id="Line-Copy-3"></path>
                        <path d="M36.2055556,8.1802715 L21.4277778,8.1802715" id="Line-Copy-4"></path>
                        <path d="M36.2055556,2.23098314 L0.738888889,2.23098314" id="Line-Copy-5"></path>
                    </g>
                    <g id="Group-4-Copy-11" transform="translate(4.433333, 513.126121)">
                        <path d="M36.2055556,31.9774249 L21.4277778,31.9774249" id="Line"></path>
                        <path d="M36.2055556,26.0281366 L21.4277778,26.0281366" id="Line-Copy"></path>
                        <path d="M36.2055556,20.0788482 L21.4277778,20.0788482" id="Line-Copy-2"></path>
                        <path d="M36.2055556,14.1295599 L21.4277778,14.1295599" id="Line-Copy-3"></path>
                        <path d="M36.2055556,8.1802715 L21.4277778,8.1802715" id="Line-Copy-4"></path>
                        <path d="M36.2055556,2.23098314 L0.738888889,2.23098314" id="Line-Copy-5"></path>
                    </g>
                    <g id="Group-4-Copy-12" transform="translate(4.433333, 478.917713)">
                        <path d="M36.2055556,31.9774249 L21.4277778,31.9774249" id="Line"></path>
                        <path d="M36.2055556,26.0281366 L21.4277778,26.0281366" id="Line-Copy"></path>
                        <path d="M36.2055556,20.0788482 L21.4277778,20.0788482" id="Line-Copy-2"></path>
                        <path d="M36.2055556,14.1295599 L21.4277778,14.1295599" id="Line-Copy-3"></path>
                        <path d="M36.2055556,8.1802715 L21.4277778,8.1802715" id="Line-Copy-4"></path>
                        <path d="M36.2055556,2.23098314 L0.738888889,2.23098314" id="Line-Copy-5"></path>
                    </g>
                    <g id="Group-4-Copy-13" transform="translate(4.433333, 444.709305)">
                        <path d="M36.2055556,31.9774249 L21.4277778,31.9774249" id="Line"></path>
                        <path d="M36.2055556,26.0281366 L21.4277778,26.0281366" id="Line-Copy"></path>
                        <path d="M36.2055556,20.0788482 L21.4277778,20.0788482" id="Line-Copy-2"></path>
                        <path d="M36.2055556,14.1295599 L21.4277778,14.1295599" id="Line-Copy-3"></path>
                        <path d="M36.2055556,8.1802715 L21.4277778,8.1802715" id="Line-Copy-4"></path>
                        <path d="M36.2055556,2.23098314 L0.738888889,2.23098314" id="Line-Copy-5"></path>
                    </g>
                    <g id="Group-4-Copy-14" transform="translate(4.433333, 410.500897)">
                        <path d="M36.2055556,31.9774249 L21.4277778,31.9774249" id="Line"></path>
                        <path d="M36.2055556,26.0281366 L21.4277778,26.0281366" id="Line-Copy"></path>
                        <path d="M36.2055556,20.0788482 L21.4277778,20.0788482" id="Line-Copy-2"></path>
                        <path d="M36.2055556,14.1295599 L21.4277778,14.1295599" id="Line-Copy-3"></path>
                        <path d="M36.2055556,8.1802715 L21.4277778,8.1802715" id="Line-Copy-4"></path>
                        <path d="M36.2055556,2.23098314 L0.738888889,2.23098314" id="Line-Copy-5"></path>
                    </g>
                    <g id="Group-4-Copy-15" transform="translate(4.433333, 376.292489)">
                        <path d="M36.2055556,31.9774249 L21.4277778,31.9774249" id="Line"></path>
                        <path d="M36.2055556,26.0281366 L21.4277778,26.0281366" id="Line-Copy"></path>
                        <path d="M36.2055556,20.0788482 L21.4277778,20.0788482" id="Line-Copy-2"></path>
                        <path d="M36.2055556,14.1295599 L21.4277778,14.1295599" id="Line-Copy-3"></path>
                        <path d="M36.2055556,8.1802715 L21.4277778,8.1802715" id="Line-Copy-4"></path>
                        <path d="M36.2055556,2.23098314 L0.738888889,2.23098314" id="Line-Copy-5"></path>
                    </g>
                    <g id="Group-4-Copy-16" transform="translate(4.433333, 342.084081)">
                        <path d="M36.2055556,31.9774249 L21.4277778,31.9774249" id="Line"></path>
                        <path d="M36.2055556,26.0281366 L21.4277778,26.0281366" id="Line-Copy"></path>
                        <path d="M36.2055556,20.0788482 L21.4277778,20.0788482" id="Line-Copy-2"></path>
                        <path d="M36.2055556,14.1295599 L21.4277778,14.1295599" id="Line-Copy-3"></path>
                        <path d="M36.2055556,8.1802715 L21.4277778,8.1802715" id="Line-Copy-4"></path>
                        <path d="M36.2055556,2.23098314 L0.738888889,2.23098314" id="Line-Copy-5"></path>
                    </g>
                    <g id="Group-4-Copy-17" transform="translate(4.433333, 307.875673)">
                        <path d="M36.2055556,31.9774249 L21.4277778,31.9774249" id="Line"></path>
                        <path d="M36.2055556,26.0281366 L21.4277778,26.0281366" id="Line-Copy"></path>
                        <path d="M36.2055556,20.0788482 L21.4277778,20.0788482" id="Line-Copy-2"></path>
                        <path d="M36.2055556,14.1295599 L21.4277778,14.1295599" id="Line-Copy-3"></path>
                        <path d="M36.2055556,8.1802715 L21.4277778,8.1802715" id="Line-Copy-4"></path>
                        <path d="M36.2055556,2.23098314 L0.738888889,2.23098314" id="Line-Copy-5"></path>
                    </g>
                    <g id="Group-4-Copy-18" transform="translate(4.433333, 273.667265)">
                        <path d="M36.2055556,31.9774249 L21.4277778,31.9774249" id="Line"></path>
                        <path d="M36.2055556,26.0281366 L21.4277778,26.0281366" id="Line-Copy"></path>
                        <path d="M36.2055556,20.0788482 L21.4277778,20.0788482" id="Line-Copy-2"></path>
                        <path d="M36.2055556,14.1295599 L21.4277778,14.1295599" id="Line-Copy-3"></path>
                        <path d="M36.2055556,8.1802715 L21.4277778,8.1802715" id="Line-Copy-4"></path>
                        <path d="M36.2055556,2.23098314 L0.738888889,2.23098314" id="Line-Copy-5"></path>
                    </g>
                    <g id="Group-4-Copy-20" transform="translate(4.433333, 205.250449)">
                        <path d="M36.2055556,31.9774249 L21.4277778,31.9774249" id="Line"></path>
                        <path d="M36.2055556,26.0281366 L21.4277778,26.0281366" id="Line-Copy"></path>
                        <path d="M36.2055556,20.0788482 L21.4277778,20.0788482" id="Line-Copy-2"></path>
                        <path d="M36.2055556,14.1295599 L21.4277778,14.1295599" id="Line-Copy-3"></path>
                        <path d="M36.2055556,8.1802715 L21.4277778,8.1802715" id="Line-Copy-4"></path>
                        <path d="M36.2055556,2.23098314 L0.738888889,2.23098314" id="Line-Copy-5"></path>
                    </g>
                    <g id="Group-4-Copy-21" transform="translate(4.433333, 171.042040)">
                        <path d="M36.2055556,31.9774249 L21.4277778,31.9774249" id="Line"></path>
                        <path d="M36.2055556,26.0281366 L21.4277778,26.0281366" id="Line-Copy"></path>
                        <path d="M36.2055556,20.0788482 L21.4277778,20.0788482" id="Line-Copy-2"></path>
                        <path d="M36.2055556,14.1295599 L21.4277778,14.1295599" id="Line-Copy-3"></path>
                        <path d="M36.2055556,8.1802715 L21.4277778,8.1802715" id="Line-Copy-4"></path>
                        <path d="M36.2055556,2.23098314 L0.738888889,2.23098314" id="Line-Copy-5"></path>
                    </g>
                    <g id="Group-4-Copy-22" transform="translate(4.433333, 136.833632)">
                        <path d="M36.2055556,31.9774249 L21.4277778,31.9774249" id="Line"></path>
                        <path d="M36.2055556,26.0281366 L21.4277778,26.0281366" id="Line-Copy"></path>
                        <path d="M36.2055556,20.0788482 L21.4277778,20.0788482" id="Line-Copy-2"></path>
                        <path d="M36.2055556,14.1295599 L21.4277778,14.1295599" id="Line-Copy-3"></path>
                        <path d="M36.2055556,8.1802715 L21.4277778,8.1802715" id="Line-Copy-4"></path>
                        <path d="M36.2055556,2.23098314 L0.738888889,2.23098314" id="Line-Copy-5"></path>
                    </g>
                    <g id="Group-4-Copy-23" transform="translate(4.433333, 102.625224)">
                        <path d="M36.2055556,31.9774249 L21.4277778,31.9774249" id="Line"></path>
                        <path d="M36.2055556,26.0281366 L21.4277778,26.0281366" id="Line-Copy"></path>
                        <path d="M36.2055556,20.0788482 L21.4277778,20.0788482" id="Line-Copy-2"></path>
                        <path d="M36.2055556,14.1295599 L21.4277778,14.1295599" id="Line-Copy-3"></path>
                        <path d="M36.2055556,8.1802715 L21.4277778,8.1802715" id="Line-Copy-4"></path>
                        <path d="M36.2055556,2.23098314 L0.738888889,2.23098314" id="Line-Copy-5"></path>
                    </g>
                    <g id="Group-4-Copy-24" transform="translate(4.433333, 68.416816)">
                        <path d="M36.2055556,31.9774249 L21.4277778,31.9774249" id="Line"></path>
                        <path d="M36.2055556,26.0281366 L21.4277778,26.0281366" id="Line-Copy"></path>
                        <path d="M36.2055556,20.0788482 L21.4277778,20.0788482" id="Line-Copy-2"></path>
                        <path d="M36.2055556,14.1295599 L21.4277778,14.1295599" id="Line-Copy-3"></path>
                        <path d="M36.2055556,8.1802715 L21.4277778,8.1802715" id="Line-Copy-4"></path>
                        <path d="M36.2055556,2.23098314 L0.738888889,2.23098314" id="Line-Copy-5"></path>
                    </g>
                    <g id="Group-4-Copy-25" transform="translate(4.433333, 34.208408)">
                        <path d="M36.2055556,31.9774249 L21.4277778,31.9774249" id="Line"></path>
                        <path d="M36.2055556,26.0281366 L21.4277778,26.0281366" id="Line-Copy"></path>
                        <path d="M36.2055556,20.0788482 L21.4277778,20.0788482" id="Line-Copy-2"></path>
                        <path d="M36.2055556,14.1295599 L21.4277778,14.1295599" id="Line-Copy-3"></path>
                        <path d="M36.2055556,8.1802715 L21.4277778,8.1802715" id="Line-Copy-4"></path>
                        <path d="M36.2055556,2.23098314 L0.738888889,2.23098314" id="Line-Copy-5"></path>
                    </g>
                    <g id="Group-4-Copy-26" transform="translate(4.433333, 0.000000)">
                        <path d="M36.2055556,31.9774249 L21.4277778,31.9774249" id="Line"></path>
                        <path d="M36.2055556,26.0281366 L21.4277778,26.0281366" id="Line-Copy"></path>
                        <path d="M36.2055556,20.0788482 L21.4277778,20.0788482" id="Line-Copy-2"></path>
                        <path d="M36.2055556,14.1295599 L21.4277778,14.1295599" id="Line-Copy-3"></path>
                        <path d="M36.2055556,8.1802715 L21.4277778,8.1802715" id="Line-Copy-4"></path>
                        <path d="M36.2055556,2.23098314 L0.738888889,2.23098314" id="Line-Copy-5"></path>
                    </g>
                    <g id="Group-4-Copy-19" transform="translate(0.000000, 239.458857)">
                        <path d="M36.2055556,31.9774249 L21.4277778,31.9774249" id="Line"></path>
                        <path d="M36.2055556,26.0281366 L21.4277778,26.0281366" id="Line-Copy"></path>
                        <path d="M36.2055556,20.0788482 L21.4277778,20.0788482" id="Line-Copy-2"></path>
                        <path d="M36.2055556,14.1295599 L21.4277778,14.1295599" id="Line-Copy-3"></path>
                        <path d="M36.2055556,8.1802715 L21.4277778,8.1802715" id="Line-Copy-4"></path>
                        <path d="M36.2055556,2.23098314 L0.738888889,2.23098314" id="Line-Copy-5"></path>
                    </g>
                </g>
                <g id="Group-6" transform="translate(0.000000, -0.000000)" fill="#8D8B8B" font-family="Roboto-Light, Roboto" font-size="8" font-weight="300" letter-spacing="1">
                    <text id="1000-mts">
                        <tspan x="24.0767361" y="898.272455">1000</tspan>
                        <tspan x="29.1001736" y="907.272455">mts</tspan>
                    </text>
                    <text id="4000-mts">
                        <tspan x="23.7767361" y="760.902045">4000</tspan>
                        <tspan x="28.8001736" y="769.902045">mts</tspan>
                    </text>
                    <text id="8000-mts">
                        <tspan x="24.0767361" y="555.707511">8000</tspan>
                        <tspan x="29.1001736" y="564.707511">mts</tspan>
                    </text>
                    <text id="15.000-mts">
                        <tspan x="15.7329861" y="282.52111">15.000</tspan>
                        <tspan x="29.1001736" y="291.52111">mts</tspan>
                    </text>
                    <text id="30.000-mts">
                        <tspan x="15.7329861" y="7.84738668">30.000</tspan>
                        <tspan x="29.1001736" y="16.8473867">mts</tspan>
                    </text>
                </g>
            </g>
        </g>
    </g>
</svg>