<?xml version="1.0" encoding="UTF-8"?>
<svg width="84px" height="217px" viewBox="0 0 84 217" version="1.1" xmlns="http://www.w3.org/2000/svg" xmlns:xlink="http://www.w3.org/1999/xlink">
    <!-- Generator: Sketch 49.3 (51167) - http://www.bohemiancoding.com/sketch -->
    <title>Page 1</title>
    <desc>Created with Sketch.</desc>
    <defs></defs>
    <g id="Page-1" stroke="none" stroke-width="1" fill="none" fill-rule="evenodd">
        <g id="Dash-board--2" transform="translate(-51.000000, -397.000000)">
            <g id="Page-1" transform="translate(52.000000, 398.000000)">
                <polygon id="Stroke-1" stroke="#FFFFFF" points="0 215 82 215 82 0 0 0"></polygon>
                <path d="M56.8205457,160.774893 C56.3625421,163.202423 54.8018794,165.162537 52.5390492,166.152266 L49.4632104,167.498048 L47.2725314,165.307885 L51.3830608,163.509328 C53.3368955,162.65449 53.8545022,160.938018 53.9862567,160.240554 C54.1180111,159.542044 54.2612679,157.755512 52.7534115,156.247128 C51.2450323,154.738745 49.457982,154.882002 48.7599972,155.013757 C48.0620123,155.145512 46.3455448,155.66312 45.4907094,157.617483 L43.6926796,161.727501 L41.5020006,159.537339 L42.8477781,156.460969 C43.8380277,154.198132 45.7976136,152.637465 48.2251369,152.179983 C48.6967341,152.090578 49.1667629,152.047183 49.6315633,152.047183 C51.5582105,152.047183 53.3855192,152.800067 54.7929912,154.20702 C56.5392604,155.953817 57.2785492,158.347363 56.8205457,160.774893 Z M45.2496824,163.285031 L47.3697787,158.439382 C47.8324877,157.381161 48.7620885,157.10092 49.1400983,157.029292 C49.2493708,157.008901 49.407267,156.987988 49.5970561,156.987988 C50.0644707,156.987988 50.7216744,157.116083 51.303067,157.696954 C52.1197354,158.514148 52.041833,159.481395 51.9707274,159.859929 C51.899099,160.238462 51.6188594,161.167543 50.5606412,161.630776 L45.7155285,163.750355 L45.2496824,163.285031 Z M42.5858377,173.649742 L35.350323,166.414207 L37.157241,164.607284 L42.6365527,170.086611 L44.0863744,168.636263 L38.6075855,163.156936 L40.4145036,161.350013 L47.6500183,168.585547 L42.5858377,173.649742 Z M37.2848128,171.2494 L37.7506588,171.715247 L35.6305626,176.560373 C35.1678535,177.619117 34.2382527,177.898834 33.860243,177.970463 C33.4822332,178.041569 32.5144655,178.119471 31.6972742,177.302278 C30.8806058,176.48613 30.9585083,175.517837 31.0296138,175.139826 C31.1012422,174.761815 31.380959,173.832212 32.4397001,173.369502 L37.2848128,171.2494 Z M40.1525632,178.538786 C39.1623136,180.801623 37.2027277,182.36229 34.7752044,182.820295 C34.3036071,182.909177 33.8335784,182.953095 33.368778,182.953095 C31.4421307,182.953095 29.6148221,182.199688 28.2073501,180.792212 C26.4610809,179.045938 25.7217921,176.651869 26.1797956,174.224862 C26.6377991,171.797332 28.1984619,169.837741 30.4612921,168.847489 L33.5371309,167.501707 L35.7278099,169.692392 L31.6172805,171.489904 C29.6634458,172.345265 29.145839,174.061214 29.0140846,174.759724 C28.8823302,175.457711 28.7390733,177.244766 30.2469297,178.753149 C31.3203101,179.82601 32.5338104,180.062855 33.3964883,180.062855 C33.7467878,180.062855 34.0390526,180.023642 34.2403441,179.985475 C34.9383289,179.85372 36.6547965,179.336635 37.5096319,177.382795 L39.3076617,173.272254 L41.4983407,175.462939 L40.1525632,178.538786 Z M58.6227582,156.748529 C58.1783484,155.234917 57.3778879,153.89175 56.2433357,152.757195 C55.1082608,151.622117 53.7650974,150.821654 52.2514899,150.377243 C50.834084,149.961065 49.3105425,149.887868 47.8450358,150.164448 C46.379529,150.440506 44.9872192,151.064773 43.8186828,151.968234 C42.5711983,152.933913 41.6123188,154.16833 40.9687088,155.63907 L39.2140742,159.649749 L33.6500633,165.213775 L29.6393954,166.968937 C28.1686603,167.612026 26.9337238,168.570908 25.9685702,169.818396 C25.0645884,170.986936 24.4408461,172.379249 24.1642664,173.84476 C23.8876866,175.310271 23.9614064,176.833816 24.3775831,178.251749 C24.8214701,179.764838 25.6224534,181.108005 26.7575284,182.243083 C27.8920805,183.377638 29.2352438,184.178624 30.7488514,184.622512 C31.6042096,184.873474 32.4977348,185 33.3943969,185 C33.9836321,185 34.5744357,184.945102 35.1553055,184.835829 C36.6208122,184.558726 38.013122,183.935505 39.1816585,183.030998 C40.429143,182.066364 41.3880225,180.830902 42.0311097,179.360685 L43.1740272,176.749117 C43.7711048,177.083732 44.4147148,177.336262 45.0881264,177.494682 C45.6465143,177.626437 46.214836,177.692314 46.7826349,177.692314 C47.571593,177.692314 48.3584598,177.565788 49.1144794,177.31378 L48.4661639,175.368306 C47.010591,175.853498 45.4629991,175.68985 44.1747335,174.962062 L49.350278,169.785457 L53.3609459,168.031341 C54.8311582,167.387729 56.0666175,166.428847 57.0312482,165.181359 C57.9352301,164.012819 58.5594951,162.620506 58.8355521,161.155518 C59.1121318,159.690007 59.0389349,158.165938 58.6227582,156.748529 Z" id="Fill-3" fill="#FFFFFF"></path>
                <path d="M59.0662829,114.266632 L37.6137208,114.266632 C37.1665229,110.240292 33.960569,107.034228 29.9331995,106.587087 L29.9331995,98.7998965 L30.6718007,98.7998965 C32.374155,98.7998965 33.9041517,97.8543793 34.6650093,96.3323399 C35.0966796,95.4696267 35.9641608,94.9334713 36.928949,94.9334713 L41.5349844,94.9334713 L41.5349844,96.8664252 L38.6344088,96.8664252 C38.1007732,96.8664252 37.6675502,97.2995931 37.6675502,97.8331608 C37.6675502,98.3667285 38.1007732,98.7998965 38.6344088,98.7998965 L42.0184137,98.7998965 L43.4687015,100.733368 L40.5681259,100.733368 C40.0339727,100.733368 39.6012673,101.166536 39.6012673,101.700104 C39.6012673,102.233671 40.0339727,102.666839 40.5681259,102.666839 L44.9189893,102.666839 L46.3687595,104.599793 L42.5018429,104.599793 C41.9676898,104.599793 41.5349844,105.032961 41.5349844,105.566529 C41.5349844,106.100614 41.9676898,106.533782 42.5018429,106.533782 L48.3024766,106.533782 L54.2325078,106.533782 C56.8980975,106.533782 59.0662829,108.701692 59.0662829,111.366425 L59.0662829,114.266632 Z M59.0662829,117.166839 C59.0662829,117.699889 58.6325423,118.133575 58.0994244,118.133575 C57.5657889,118.133575 57.1325658,118.566743 57.1325658,119.100311 C57.1325658,119.633361 56.6988252,120.067046 56.1657073,120.067046 C55.6325894,120.067046 55.1988488,119.633361 55.1988488,119.100311 C55.1988488,118.566743 54.7661433,118.133575 54.2325078,118.133575 L50.2361937,118.133575 C49.7020406,118.133575 49.2693351,118.566743 49.2693351,119.100311 C49.2693351,119.633361 48.8355945,120.067046 48.3024766,120.067046 C47.7693587,120.067046 47.335618,119.633361 47.335618,119.100311 C47.335618,118.566743 46.9029126,118.133575 46.3687595,118.133575 L42.5018429,118.133575 C41.9676898,118.133575 41.5349844,118.566743 41.5349844,119.100311 C41.5349844,119.633361 41.1012438,120.067046 40.5681259,120.067046 C40.0350079,120.067046 39.6012673,119.633361 39.6012673,119.100311 C39.6012673,118.566743 39.1685619,118.133575 38.6344088,118.133575 L34.7674922,118.133575 C34.2333391,118.133575 33.8006337,118.566743 33.8006337,119.100311 C33.8006337,119.633361 33.366893,120.067046 32.8337751,120.067046 C32.3006572,120.067046 31.8669166,119.633361 31.8669166,119.100311 C31.8669166,118.566743 31.4342111,118.133575 30.900058,118.133575 C30.3669401,118.133575 29.9331995,117.699889 29.9331995,117.166839 L29.9331995,116.200104 L59.0662829,116.200104 L59.0662829,117.166839 Z M29.9331995,108.535566 C32.8927804,108.960454 35.2400521,111.307427 35.6655112,114.266632 L29.9331995,114.266632 L29.9331995,108.535566 Z M54.2325078,104.599793 L48.7859059,104.599793 L43.4687015,97.5112606 L43.4687015,93.9662181 C43.4687015,93.4326504 43.0354785,93 42.5018429,93 L36.928949,93 C35.2271123,93 33.6971156,93.9449996 32.9357404,95.4675566 C32.5045877,96.3307874 31.6365889,96.8664252 30.6718007,96.8664252 L28.966341,96.8664252 C28.4327054,96.8664252 28,97.2995931 28,97.8331608 L28,117.166839 C28,118.473071 28.8679988,119.581091 30.0579387,119.942323 C30.4197343,121.132111 31.5273774,122 32.8337751,122 C34.0941073,122 35.1696598,121.192144 35.5687219,120.067046 L37.8336967,120.067046 C38.2327588,121.192144 39.3077937,122 40.5681259,122 C41.8284581,122 42.9040105,121.192144 43.3030726,120.067046 L45.5680474,120.067046 C45.9671095,121.192144 47.0421444,122 48.3029942,122 C49.5633264,122 50.6383613,121.192144 51.0374233,120.067046 L53.4312781,120.067046 C53.8303402,121.192144 54.9053751,122 56.1662249,122 C57.4726226,122 58.5802657,121.132111 58.9420613,119.942323 C60.1314836,119.581091 61,118.473071 61,117.166839 L61,115.233368 L61,111.366425 C61,107.635591 57.9638157,104.599793 54.2325078,104.599793 Z" id="Fill-4" fill="#FFFFFF"></path>
                <path d="M17,137 L71,137" id="Stroke-5" stroke="#FFFFFF"></path>
                <path d="M17,78 L71,78" id="Stroke-6" stroke="#FFFFFF"></path>
                <path d="M52.0079491,53.6906561 C48.9252141,57.1058422 45.6077584,59.8666946 43.9997386,61.1392169 C42.3917188,59.8666946 39.0747859,57.1058422 35.9915282,53.6906561 C31.5757469,48.7988338 29.2416089,44.3253387 29.2416089,40.7538779 C29.2416089,36.632798 32.5391996,33.2803344 36.5921832,33.2803344 C39.2593213,33.2803344 41.7225818,34.7580336 43.0195575,37.1372356 L44.0002614,38.9354574 L44.9804425,37.1372356 C46.2774182,34.7580336 48.7406787,33.2803344 51.4078168,33.2803344 C55.4608004,33.2803344 58.7583911,36.632798 58.7583911,40.7538779 C58.7583911,44.3253387 56.4242531,48.7988338 52.0079491,53.6906561 M51.4078168,31 C48.5132766,31 45.8037946,32.332587 44.0002614,34.5656138 C42.1956826,32.332587 39.4867234,31 36.5921832,31 C31.3028644,31 27,35.3756906 27,40.7538779 C27,44.9653206 29.4695337,49.8364125 34.340119,55.2316093 C38.0888544,59.3840504 42.1658851,62.5988435 43.3264195,63.485463 L43.9997386,64 L44.6730577,63.485463 C45.8330694,62.599375 49.9111456,59.3840504 53.6593582,55.2316093 C58.5304663,49.8364125 61,44.9653206 61,40.7538779 C61,35.3756906 56.6971356,31 51.4078168,31" id="Fill-7" fill="#FFFFFF"></path>
                <polygon id="Fill-8" fill="#FFFFFF" points="34 46 54 46 44.2632647 57"></polygon>
            </g>
        </g>
    </g>
</svg>