<?xml version="1.0" encoding="UTF-8"?>
<svg width="425px" height="272px" viewBox="0 0 425 272" version="1.1" xmlns="http://www.w3.org/2000/svg" xmlns:xlink="http://www.w3.org/1999/xlink">
    <!-- Generator: Sketch 49.3 (51167) - http://www.bohemiancoding.com/sketch -->
    <title>Group</title>
    <desc>Created with Sketch.</desc>
    <defs></defs>
    <g id="Symbols" stroke="none" stroke-width="1" fill="none" fill-rule="evenodd">
        <g id="Loader" transform="translate(-44.000000, -231.000000)" fill="#FFFFFF">
            <g id="Group" transform="translate(44.000000, 231.000000)">
                <path d="M212.291347,107.7455 C194.968475,90.6015746 171.153197,80 144.905508,80 C107.947223,80 74.9249896,100.638395 58.7249574,133.859487 C58.6540155,134.004547 58.5863353,134.151236 58.5219168,134.297926 L1.09893073,255.299632 C-1.59115364,260.96918 0.827394474,267.745419 6.50030048,270.433911 C12.1732065,273.124033 18.9526431,270.706917 21.6435429,265.036553 L79.2214596,143.708056 C79.2524457,143.643675 79.2826164,143.579295 79.3119717,143.513285 C91.7235431,118.34463 116.825561,102.724645 144.905508,102.724645 C165.817876,102.724645 184.707993,111.549647 198.042625,125.66688 C189.049311,140.249444 183.85669,157.413743 183.85669,175.765411 C183.85669,191.435107 196.611555,204.183238 212.291347,204.183238 C227.970323,204.183238 240.726819,191.435107 240.726819,175.765411 C240.726819,157.413743 235.534197,140.249444 226.540884,125.66688 C239.875516,111.549647 258.765632,102.724645 279.678001,102.724645 C307.659281,102.724645 332.709928,118.257431 345.160639,143.287546 C345.201411,143.378004 345.242182,143.469278 345.285399,143.559736 L402.93915,265.045518 C404.883122,269.143859 408.963504,271.542232 413.218388,271.541417 C414.850867,271.541417 416.50944,271.188547 418.082393,270.442876 C423.755299,267.754384 426.173032,260.978145 423.482947,255.308596 L366.032237,134.250659 C365.952325,134.060778 365.866706,133.872526 365.773747,133.686719 C349.54436,100.572384 316.554744,80 279.678001,80 C253.430312,80 229.615033,90.6015746 212.291347,107.7455 Z" id="Path"></path>
                <path d="M147.744445,58.9216057 C164.171991,58.9216057 177.489706,45.7310695 177.489706,29.4603989 C177.489706,13.1897284 164.171991,0 147.744445,0 C131.316899,0 118,13.1897284 118,29.4603989 C118,45.7310695 131.316899,58.9216057 147.744445,58.9216057" id="Fill-1"></path>
                <path d="M282.744445,58.9216057 C299.171991,58.9216057 312.489706,45.7310695 312.489706,29.4603989 C312.489706,13.1897284 299.171991,0 282.744445,0 C266.316899,0 253,13.1897284 253,29.4603989 C253,45.7310695 266.316899,58.9216057 282.744445,58.9216057" id="Fill-3"></path>
            </g>
        </g>
    </g>
</svg>