<?xml version="1.0" encoding="UTF-8"?>
<svg width="73px" height="73px" viewBox="0 0 73 73" version="1.1" xmlns="http://www.w3.org/2000/svg" xmlns:xlink="http://www.w3.org/1999/xlink">
    <!-- Generator: Sketch 49.3 (51167) - http://www.bohemiancoding.com/sketch -->
    <title>001-tasks</title>
    <desc>Created with Sketch.</desc>
    <defs></defs>
    <g id="Page-1" stroke="none" stroke-width="1" fill="none" fill-rule="evenodd">
        <g id="Dashboard" transform="translate(-646.000000, -182.000000)" fill="#E0E4E6" fill-rule="nonzero">
            <g id="001-tasks" transform="translate(646.000000, 182.000000)">
                <path d="M19.2280582,9 L32.7719418,9 C33.4502298,9 34,8.32867392 34,7.5 C34,6.67132608 33.4500779,6 32.7719418,6 L19.2280582,6 C18.5497703,6 18,6.67132608 18,7.5 C17.9998481,8.32867392 18.5497703,9 19.2280582,9 Z" id="Shape"></path>
                <path d="M19.1638832,14 L44.8361168,14 C45.4791032,14 46,13.3284884 46,12.5 C46,11.6715116 45.4789593,11 44.8361168,11 L19.1638832,11 C18.5210407,11 18,11.6715116 18,12.5 C18,13.3284884 18.5210407,14 19.1638832,14 Z" id="Shape"></path>
                <path d="M19.2280582,29 L32.7719418,29 C33.4502298,29 34,28.3286739 34,27.5 C34,26.6713261 33.4500779,26 32.7719418,26 L19.2280582,26 C18.5497703,26 18,26.6713261 18,27.5 C17.9998481,28.3284884 18.5497703,29 19.2280582,29 Z" id="Shape"></path>
                <path d="M19.1757507,34 L44.8242493,34 C45.4737919,34 46,33.3286739 46,32.5 C46,31.6713261 45.4736465,31 44.8242493,31 L19.1757507,31 C18.5263535,31 18,31.6715116 18,32.5 C17.9998546,33.3283028 18.5263535,34 19.1757507,34 Z" id="Shape"></path>
                <path d="M19.2280582,51 L32.7719418,51 C33.4502298,51 34,50.3286739 34,49.5 C34,48.6713261 33.4500779,48 32.7719418,48 L19.2280582,48 C18.5497703,48 18,48.6713261 18,49.5 C17.9998481,50.3284884 18.5497703,51 19.2280582,51 Z" id="Shape"></path>
                <path d="M44.8163323,53 L19.1835213,53 C18.5298322,53 18,53.6713261 18,54.5 C18,55.3284884 18.5299786,56 19.1835213,56 L44.8164787,56 C45.4703142,56 46,55.3283028 46,54.5 C45.9998536,53.6716972 45.4701678,53 44.8163323,53 Z" id="Shape"></path>
                <path d="M67.536253,57.4438916 L60.8402009,54.71064 L60.8402009,53.2138249 C62.6847377,52.1929194 64.0838595,50.4422567 64.6671478,48.3463091 C66.905201,48.3344077 68.7225053,46.4782292 68.7225053,44.1973749 C68.7225053,42.8265401 68.0657892,41.6094072 67.0559064,40.8533798 L67.0559064,37.7376879 C67.0559064,31.9388172 62.4213954,27.2209394 56.7248178,27.2209394 L55.9598847,27.2209394 C55.1056975,27.2209394 54.2763189,27.3289226 53.4820146,27.5287785 L53.4820146,21.1733011 C53.4820146,20.5251117 52.9661659,20 52.3294108,20 L48.9061033,20 C48.2693482,20 47.7534995,20.5252569 47.7534995,21.1733011 C47.7534995,21.8213452 48.2693482,22.3466021 48.9061033,22.3466021 L51.1769496,22.3466021 L51.1769496,28.4203654 C48.1521487,30.035904 46.0062012,33.1315668 45.6751341,36.7568407 L2.30520763,36.7568407 L2.30520763,22.3466021 L45.0480743,22.3466021 C45.6848295,22.3466021 46.2006781,21.8213452 46.2006781,21.1733011 C46.2006781,20.5252569 45.6848295,20 45.0480743,20 L1.15260381,20 C0.515991242,20 0,20.5252569 0,21.1733011 L0,37.9301417 C0,38.5783311 0.516133821,39.1034428 1.15260381,39.1034428 L45.6286536,39.1034428 L45.6286536,40.841043 C45.4385966,40.9818275 45.2609439,41.1390127 45.097549,41.3105666 L1.15260381,41.3105666 C0.515991242,41.3105666 0,41.8356784 0,42.4838677 L0,59.2407084 C0,59.8888977 0.516133821,60.4140094 1.15260381,60.4140094 L41.2440825,60.4140094 C40.2701294,61.777297 39.5415538,63.6144624 39.5415538,65.9908179 L39.5415538,71.8249573 C39.5415538,72.4730015 40.057545,72.9997097 40.6941576,72.9997097 L45.0483595,72.9997097 C45.6851146,72.9997097 46.2009633,72.474598 46.2009633,71.8264087 C46.2009633,71.1783645 45.6851146,70.6531076 45.0483595,70.6531076 L41.8467614,70.6531076 L41.8467614,65.9909631 C41.8467614,61.1116911 45.6188157,59.711248 45.7728003,59.6565307 C45.7906226,59.6504349 45.8084449,59.6439036 45.8258395,59.6367918 L52.1355042,57.1216837 C52.1641624,57.1576781 52.1945316,57.1928017 52.2280376,57.2261836 L55.5378526,60.5076239 C55.753146,60.7211229 56.0417247,60.8404269 56.3419948,60.8404269 C56.3479831,60.8404269 56.354114,60.8404269 56.3601023,60.8402817 C56.6667884,60.8354922 56.9590741,60.7061736 57.1718011,60.4813538 L60.4089012,57.0627574 L66.7067318,59.6335988 C66.7227006,59.64013 66.7456558,59.6486932 66.7617671,59.6544988 C66.9223104,59.7115383 70.6947924,61.1118362 70.6947924,65.9912533 L70.6947924,70.6533979 L61.2146117,70.6533979 L53.0321798,70.6533979 L51.325944,70.6533979 L49.8940291,70.6533979 L48.7362925,70.6533979 C48.0995373,70.6533979 47.5836886,71.1787999 47.5836886,71.8266989 C47.5836886,72.4748883 48.0995373,73 48.7362925,73 L49.8940291,73 L51.325944,73 L53.0321798,73 L61.2146117,73 L71.8473962,73 C72.4841513,73 73,72.4632772 73,71.815233 L73,65.9911082 C73.0001426,60.7394104 69.4460907,58.1134163 67.536253,57.4438916 Z M64.9659921,42.4256671 C65.7902379,42.5796592 66.4172977,43.3149318 66.4172977,44.19752 C66.4172977,45.0801083 65.7902379,45.8150906 64.9659921,45.9692279 L64.9659921,42.4256671 Z M47.9337186,37.737833 C47.9338612,33.2328736 51.5343936,29.5676867 55.9600273,29.5676867 L56.7249604,29.5676867 C61.1504515,29.5676867 64.7508413,33.2328736 64.7508413,37.737833 L64.7508413,39.6539538 C64.7492729,39.6517767 64.747562,39.6498899 64.7462788,39.6477128 C64.735728,39.6327635 64.7250346,39.6178143 64.7136283,39.6033004 C64.7026498,39.5893671 64.6913861,39.5760143 64.6796947,39.5628067 C64.6664349,39.5472769 64.6531751,39.5321824 64.6390598,39.5172332 C64.6280813,39.5057672 64.6165325,39.4948818 64.6051262,39.4837061 C64.5894426,39.4686117 64.5737589,39.4538076 64.5572198,39.4394388 C64.545671,39.4295694 64.5336944,39.4204257 64.5218604,39.4108465 C64.5046084,39.3970583 64.4872138,39.3834153 64.4691064,39.3706431 C64.4559892,39.3613542 64.4425868,39.3529362 64.4290419,39.344373 C64.4115047,39.332907 64.393825,39.3215862 64.375575,39.3111362 C64.3596062,39.3018474 64.3427819,39.2937196 64.3263854,39.2853016 C64.3099889,39.2770287 64.2935924,39.2686106 64.2769107,39.2610634 C64.2568071,39.2519197 64.2359907,39.2443725 64.2154594,39.236535 C64.201059,39.2310197 64.186516,39.2252141 64.171973,39.2204246 C64.1487327,39.2125871 64.1247795,39.2063461 64.1011115,39.2001052 C64.0904181,39.1970572 64.0800099,39.1935739 64.069174,39.1908163 C61.5609347,38.6099713 60.7757554,35.3089373 60.7689117,35.2794741 C60.6688216,34.8296893 60.319362,34.4813565 59.8755154,34.3890483 C59.431954,34.2960144 58.9759882,34.4771475 58.7106498,34.8508796 C55.6780072,39.1189726 49.0030566,39.1616434 48.9108084,39.1616434 C48.9108084,39.1616434 48.9105233,39.1616434 48.9103807,39.1616434 C48.9088123,39.1616434 48.9073865,39.1616434 48.9061033,39.1616434 C48.8664665,39.1616434 48.8271149,39.1638205 48.7884761,39.1677392 C48.776357,39.1690455 48.7646656,39.1715128 48.7525464,39.1732545 C48.726312,39.1767378 48.699935,39.180076 48.6742708,39.1854462 C48.6578743,39.1889295 48.6419056,39.1940093 48.625509,39.1980732 C48.6049777,39.2032982 48.5840187,39.2076524 48.5640577,39.2141836 C48.54538,39.2201343 48.5274151,39.2278266 48.5091651,39.2346482 C48.4924834,39.2408891 48.4750888,39.2464044 48.4585497,39.2533711 C48.4374481,39.2625148 48.4173446,39.2731099 48.397241,39.2832696 C48.3841238,39.2898009 48.370864,39.2954613 48.3580319,39.3025731 C48.3372155,39.314039 48.3178248,39.3269564 48.2977213,39.3395834 C48.286315,39.3468404 48.2743384,39.3533716 48.2629322,39.3610639 C48.244397,39.3738362 48.2268598,39.3880597 48.2088949,39.4019931 C48.1973461,39.4108465 48.1853695,39.4191194 48.1741058,39.4284083 C48.1579944,39.4420513 48.1428811,39.4568555 48.1274827,39.4710791 C48.1156487,39.4819645 48.1033869,39.4924145 48.0921232,39.5037353 C48.0778654,39.5182491 48.0648908,39.533779 48.0514884,39.5490185 C48.0402247,39.5616456 48.0283907,39.5736921 48.0175547,39.5868997 C48.0055781,39.6017039 47.9947422,39.617524 47.9834785,39.633199 C47.9726425,39.647858 47.9612363,39.6619364 47.9511132,39.677176 C47.9448397,39.68661 47.9395643,39.6966246 47.933576,39.7063489 L47.933576,37.737833 L47.9337186,37.737833 Z M47.7536421,42.4173942 L47.7536421,45.9775008 C46.90416,45.8449892 46.2507231,45.0985409 46.2507231,44.1976652 C46.2505806,43.296354 46.9040174,42.5499058 47.7536421,42.4173942 Z M51.8795759,54.7035282 L45.0097207,57.4422951 C44.627468,57.5759678 44.1787738,57.7896119 43.7058412,58.0855497 C43.642679,58.0746643 43.578091,58.0676976 43.5119346,58.0676976 L2.30520763,58.0676976 L2.30520763,43.657459 L43.9811601,43.657459 C43.9583476,43.8343831 43.9455155,44.014355 43.9455155,44.19752 C43.9455155,46.4854861 45.7743687,48.3468897 48.0222598,48.3468897 C48.0322403,48.3468897 48.0422208,48.3455834 48.0522013,48.3452931 C48.6353469,50.4416762 50.034754,52.1926291 51.8795759,53.2136797 L51.8795759,54.7035282 Z M58.5347081,55.5228361 C58.5347081,55.5242875 58.5347081,55.5255937 58.5347081,55.5268999 L58.5347081,55.6601373 L56.315903,58.0036915 L54.1847836,55.8906175 L54.1847836,54.0448889 C54.6538665,54.1338589 55.1364944,54.1827707 55.6305286,54.1827707 L57.0892482,54.1827707 C57.5831398,54.1827707 58.0659103,54.1341492 58.5347081,54.0450341 L58.5347081,55.5228361 Z M57.0895334,51.8360234 L55.6308137,51.8360234 C52.5585343,51.8360234 50.0589923,49.2915973 50.0589923,46.1642942 L50.0589923,41.4485935 C52.0709162,41.2721049 56.2598696,40.5683275 59.2454614,37.7543788 C59.8562673,38.9821069 60.9183338,40.4620859 62.6607845,41.1883599 L62.6607845,46.1644394 C62.6606419,49.2917424 60.1615277,51.8360234 57.0895334,51.8360234 Z" id="Shape"></path>
                <path d="M12.4256345,7.08622346 C13.1042153,7.08622346 13.6542229,6.61937806 13.6542229,6.04311173 C13.6542229,5.4668454 13.1040633,5 12.4256345,5 L6.2285884,5 C5.5500076,5 5,5.4668454 5,6.04311173 L5,12.9568883 C5,13.5331546 5.55015958,14 6.2285884,14 L14.7714116,14 C15.4499924,14 16,13.5330256 16,12.9568883 L16,11.0914422 C16,10.5151758 15.4498404,10.0483304 14.7714116,10.0483304 C14.0928308,10.0483304 13.5428232,10.5153049 13.5428232,11.0914422 L13.5428232,11.9135185 L7.45717681,11.9135185 L7.45717681,7.08622346 L12.4256345,7.08622346 Z" id="Shape"></path>
                <path d="M15.6382491,5.30214229 C15.1751376,4.88174995 14.4461287,4.90261854 14.0098064,5.34868475 L10.1833649,9.26044783 L9.00050676,8.01904105 C8.57031175,7.56720853 7.8414454,7.53755316 7.37291899,7.95190459 C6.9042501,8.36653061 6.873186,9.06864897 7.30323852,9.52006962 L9.32354489,11.6405659 C9.5399961,11.8677865 9.84465226,11.9979406 10.164698,12 C10.1672629,12 10.1698278,12 10.1722503,12 C10.4894461,12 10.7928197,11.8739647 11.0105534,11.6514121 L15.6862702,6.87113108 C16.1227351,6.42506487 16.1010757,5.72239734 15.6382491,5.30214229 Z" id="Shape"></path>
                <path d="M12.4256345,27.0862235 C13.1042153,27.0862235 13.6542229,26.6193781 13.6542229,26.0431117 C13.6542229,25.4668454 13.1040633,25 12.4256345,25 L6.2285884,25 C5.5500076,25 5,25.4668454 5,26.0431117 L5,32.9568883 C5,33.5331546 5.55015958,34 6.2285884,34 L14.7714116,34 C15.4499924,34 16,33.5331546 16,32.9568883 L16,31.0915712 C16,30.5153049 15.4498404,30.0484595 14.7714116,30.0484595 C14.0928308,30.0484595 13.5428232,30.5153049 13.5428232,31.0915712 L13.5428232,31.9136475 L7.45717681,31.9136475 L7.45717681,27.0860944 L12.4256345,27.0860944 L12.4256345,27.0862235 Z" id="Shape"></path>
                <path d="M15.63823,25.3021218 C15.1751194,24.8817368 14.4461122,24.902605 14.0097908,25.3488007 L10.1833579,29.2604956 L9.00050232,28.0191105 C8.57030826,27.5671485 7.84144353,27.537631 7.37291817,27.9519752 C6.90425031,28.366594 6.87318628,29.0687001 7.30323784,29.5201129 L9.32368223,31.6405722 C9.54013297,31.8677888 9.84478845,31.9979406 10.1648335,32 C10.1673984,32 10.1699633,32 10.1723857,32 C10.4895808,32 10.7929538,31.8739669 11.010687,31.6514182 L15.6863935,26.8712205 C16.1227148,26.4251621 16.1010555,25.7226441 15.63823,25.3021218 Z" id="Shape"></path>
                <path d="M14.7714116,52.0485885 C14.0928308,52.0485885 13.5428232,52.5154339 13.5428232,53.0917002 L13.5428232,53.9137765 L7.45717681,53.9137765 L7.45717681,49.0862235 L12.4257865,49.0862235 C13.1043673,49.0862235 13.6543749,48.61912 13.6543749,48.0431117 C13.6543749,47.4668454 13.1042153,47 12.4257865,47 L6.2285884,47 C5.5500076,47 5,47.4668454 5,48.0431117 L5,54.9568883 C5,55.5331546 5.55015958,56 6.2285884,56 L14.7714116,56 C15.4499924,56 16,55.5331546 16,54.9568883 L16,53.0915712 C16,52.5154339 15.4498404,52.0485885 14.7714116,52.0485885 Z" id="Shape"></path>
                <path d="M14.0097908,47.3487824 L10.1833579,51.2604881 L9.00050232,50.0190995 C8.57030826,49.5671363 7.84144353,49.537756 7.37291817,49.951964 C6.90425031,50.366584 6.87318628,51.068692 7.30323784,51.520106 L9.32368223,53.6405712 C9.54013297,53.8677884 9.84478845,53.9979406 10.1648335,54 C10.1673984,54 10.1699633,54 10.1723857,54 C10.4895808,54 10.7929538,53.8739665 11.010687,53.6514172 L15.6863935,48.8712064 C16.1227148,48.4251468 16.1010555,47.7226268 15.63823,47.3022407 C15.1751194,46.8817172 14.4461122,46.9025855 14.0097908,47.3487824 Z" id="Shape"></path>
                <path d="M1.16376394,19 L52.8362361,19 C53.4791566,19 54,18.4777436 54,17.8330788 L54,1.16692118 C54,0.52225641 53.4791566,0 52.8362361,0 L49.3797823,0 C48.7368617,0 48.2160184,0.52240076 48.2160184,1.16692118 C48.2160184,1.8114416 48.7370057,2.33384236 49.3797823,2.33384236 L51.6724721,2.33384236 L51.6724721,16.6658689 L2.32752788,16.6658689 L2.32752788,2.33384236 L45.4842538,2.33384236 C46.1271744,2.33384236 46.6480178,1.8114416 46.6480178,1.16692118 C46.6480178,0.52240076 46.1271744,0 45.4843978,0 L1.16376394,0 C0.521131304,0 0,0.522545109 0,1.16692118 L0,17.8329345 C0,18.4774549 0.521131304,19 1.16376394,19 Z" id="Shape"></path>
            </g>
        </g>
    </g>
</svg>