<?xml version="1.0" encoding="UTF-8"?>
<svg width="512px" height="481px" viewBox="0 0 512 481" version="1.1" xmlns="http://www.w3.org/2000/svg" xmlns:xlink="http://www.w3.org/1999/xlink">
    <!-- Generator: Sketch 49.3 (51167) - http://www.bohemiancoding.com/sketch -->
    <title>Mountain</title>
    <desc>Created with Sketch.</desc>
    <defs></defs>
    <g id="Symbols" stroke="none" stroke-width="1" fill="none" fill-rule="evenodd">
        <g id="Loader" transform="translate(0.000000, -14.000000)">
            <g id="Mountain" transform="translate(-3.000000, -60.000000)">
                <path d="M259.5,443 C308.717721,443 353.409741,423.623171 386.363626,392.081946 C421.265114,358.676607 443,311.626531 443,259.5 C443,158.155748 360.844252,76 259.5,76 C158.155748,76 76,158.155748 76,259.5" id="Loader" stroke="#FFFFFF" stroke-width="4" stroke-linecap="round" stroke-dasharray="8,16" transform="translate(259.500000, 259.500000) rotate(-44.000000) translate(-259.500000, -259.500000) "></path>
                <path d="M505,534.306 L489.139,534.306 C489.093,534.233 489.055,534.158 489.007,534.086 L323.464,288.462 C319.997,283.318 315.047,279.514 309.394,277.441 L309.394,249.568 L359.357,218.193 C362.488,216.227 364.279,212.694 364.013,209.006 C363.747,205.318 361.469,202.078 358.089,200.58 L303.443,176.375 C300.351,175.006 296.775,175.292 293.939,177.137 C291.104,178.983 289.394,182.136 289.394,185.519 L289.394,243.888 C289.392,243.995 289.392,244.103 289.394,244.21 L289.394,277.44 C283.741,279.513 278.791,283.317 275.324,288.461 L207.516,389.071 L191.392,365.148 C185.989,357.13 176.991,352.344 167.322,352.344 C157.653,352.344 148.655,357.13 143.252,365.148 L29.246,534.306 L13,534.306 C7.477,534.306 3,538.784 3,544.306 C3,549.828 7.477,554.306 13,554.306 L34.543,554.306 C34.547,554.306 34.552,554.307 34.556,554.307 C34.561,554.307 34.567,554.306 34.572,554.306 L505,554.306 C510.523,554.306 515,549.828 515,544.306 C515,538.784 510.523,534.306 505,534.306 Z M309.394,200.886 L332.8,211.254 L309.394,225.952 L309.394,200.886 Z M53.364,534.306 L159.838,376.327 C161.544,373.797 164.272,372.346 167.323,372.346 C170.374,372.346 173.102,373.797 174.808,376.327 L195.458,406.965 L160.006,459.567 C156.92,464.147 158.13,470.362 162.71,473.448 C167.292,476.538 173.506,475.324 176.591,470.745 L291.909,299.64 C293.615,297.11 296.343,295.659 299.394,295.659 C302.445,295.659 305.174,297.11 306.879,299.64 L465.036,534.306 L53.364,534.306 Z" id="Shape" fill="#FFFFFF" fill-rule="nonzero"></path>
                <circle id="Oval" fill="#FFFFFF" fill-rule="nonzero" cx="143" cy="502.22" r="10"></circle>
            </g>
        </g>
    </g>
</svg>