<?xml version="1.0" encoding="UTF-8"?>
<svg width="144px" height="32px" viewBox="0 0 144 32" version="1.1" xmlns="http://www.w3.org/2000/svg" xmlns:xlink="http://www.w3.org/1999/xlink">
    <!-- Generator: Sketch 49.3 (51167) - http://www.bohemiancoding.com/sketch -->
    <title>logo</title>
    <desc>Created with Sketch.</desc>
    <defs></defs>
    <g id="Symbols" stroke="none" stroke-width="1" fill="none" fill-rule="evenodd">
        <g id="Header" transform="translate(-16.000000, -19.000000)" fill="#FFFFFF">
            <g id="logo" transform="translate(16.000000, 19.000000)">
                <path d="M136.660876,9.53935755 C133.195602,9.53935755 130.376319,12.3569718 130.376319,15.8203868 C130.376319,17.7798638 131.279331,19.5321646 132.690741,20.6848207 C131.156845,21.8312652 130.162327,23.6604927 130.162327,25.7174418 C130.162327,29.1807613 132.981514,31.9982799 136.446884,31.9982799 L142.396207,31.9982799 C143.132558,31.9982799 143.729307,31.4018841 143.729307,30.6659693 C143.729307,29.9301501 143.132558,29.3336588 142.396207,29.3336588 L136.446884,29.3336588 C134.451633,29.3336588 132.82843,27.7114163 132.82843,25.7174418 C132.82843,23.7234673 134.451633,22.1012249 136.446884,22.1012249 L138.784255,22.1012249 C139.52051,22.1012249 140.117259,21.5047335 140.117259,20.7689143 C140.117259,20.0329995 139.52051,19.4366037 138.784255,19.4366037 L136.660876,19.4366037 C134.665721,19.4366037 133.042518,17.8142657 133.042518,15.8203868 C133.042518,13.8263167 134.665721,12.2040743 136.660876,12.2040743 L142.610295,12.2040743 C143.34655,12.2040743 143.943299,11.6076785 143.943299,10.8717637 C143.943299,10.1359445 143.34655,9.53935755 142.610295,9.53935755 L136.660876,9.53935755 Z M113.457275,9.53935755 C112.72102,9.53935755 112.124175,10.1359445 112.124175,10.8717637 L112.124175,30.6659693 C112.124175,31.4018841 112.72102,31.9982799 113.457275,31.9982799 C114.193625,31.9982799 114.790375,31.4018841 114.790375,30.6659693 L114.790375,22.1012249 L121.222853,22.1012249 L125.559108,31.2382838 C125.787155,31.7188597 126.26553,32 126.764558,32 C126.955888,32 127.150375,31.9586221 127.334821,31.8711839 C128.000127,31.5558328 128.283633,30.7612436 127.968,30.0965217 L123.897753,21.5197366 C126.04953,20.521507 127.54604,18.3429088 127.54604,15.8203868 C127.54604,12.3569718 124.726757,9.53935755 121.261482,9.53935755 L113.457275,9.53935755 Z M114.790375,12.2040743 L121.261482,12.2040743 C123.256637,12.2040743 124.879841,13.8263167 124.879841,15.8203868 C124.879841,17.8142657 123.256637,19.4366037 121.261482,19.4366037 L114.790375,19.4366037 L114.790375,12.2040743 Z M93.7013546,9.53935755 C92.965004,9.53935755 92.368255,10.1359445 92.368255,10.8717637 L92.368255,30.6659693 C92.368255,31.4018841 92.965004,31.9982799 93.7013546,31.9982799 L103.223426,31.9982799 C106.688701,31.9982799 109.507984,29.1807613 109.507984,25.7174418 C109.507984,23.2812113 108.11302,21.1646321 106.079426,20.1234002 C107.139538,18.9984568 107.790024,17.4839115 107.790024,15.8203868 C107.790024,12.3569718 104.970837,9.53935755 101.505466,9.53935755 L93.7013546,9.53935755 Z M95.0343586,12.2040743 L101.505466,12.2040743 C103.500622,12.2040743 105.123825,13.8263167 105.123825,15.8203868 C105.123825,17.8142657 103.500622,19.4366037 101.505466,19.4366037 L95.0343586,19.4366037 L95.0343586,12.2040743 Z M95.0343586,22.1012249 L103.223426,22.1012249 C105.218486,22.1012249 106.841785,23.7234673 106.841785,25.7174418 C106.841785,27.7114163 105.218486,29.3336588 103.223426,29.3336588 L95.0343586,29.3336588 L95.0343586,22.1012249 Z M65.3085896,12.7928252 C63.2772908,10.7825098 60.4846853,9.53935755 57.4068526,9.53935755 C53.0730837,9.53935755 49.2008606,11.9594383 47.3012271,15.8549798 C47.2929084,15.8719897 47.2849721,15.8891906 47.2774183,15.9063916 L40.5439363,30.0951839 C40.228494,30.7600013 40.5120956,31.5545905 41.1773068,31.869846 C41.8425179,32.1852927 42.6374821,31.9018589 42.9530199,31.2369459 L49.7046693,17.0098337 C49.7083028,17.0022844 49.7118406,16.9947351 49.7152829,16.9869947 C51.1706773,14.0356907 54.1141673,12.2040743 57.4068526,12.2040743 C59.8590598,12.2040743 62.0741355,13.2389036 63.6377689,14.8943057 C62.5832032,16.6042731 61.9743108,18.6169776 61.9743108,20.7689143 C61.9743108,22.60636 63.4699602,24.1012197 65.3085896,24.1012197 C67.1471235,24.1012197 68.6429641,22.60636 68.6429641,20.7689143 C68.6429641,18.6169776 68.0340717,16.6042731 66.979506,14.8943057 C68.5431394,13.2389036 70.7582151,12.2040743 73.2104223,12.2040743 C76.4915378,12.2040743 79.429004,14.0254657 80.888988,16.9605243 C80.8937689,16.9711316 80.8985498,16.9818344 80.9036175,16.9924416 L87.6641594,31.2379971 C87.8921116,31.718573 88.3705817,31.9998089 88.8695139,31.9997133 C89.0609402,31.9997133 89.2554263,31.9583354 89.4398725,31.8708972 C90.1050837,31.5556416 90.3885896,30.7610525 90.0731474,30.096235 L83.3364143,15.9008491 C83.3270438,15.8785834 83.317004,15.8565088 83.3061036,15.8347209 C81.4030279,11.9516978 77.5346295,9.53935755 73.2104223,9.53935755 C70.1325896,9.53935755 67.3399841,10.7825098 65.3085896,12.7928252 Z M64.64051,20.7689143 C64.64051,19.5939926 64.8784064,18.4736362 65.3085896,17.453332 C65.7388685,18.4736362 65.9768606,19.5939926 65.9768606,20.7689143 C65.9768606,21.1371106 65.6770996,21.4365985 65.3085896,21.4365985 C64.9401753,21.4365985 64.64051,21.1371106 64.64051,20.7689143 Z M0,20.7689143 C0,26.9607851 5.04047809,31.9982799 11.2361116,31.9982799 C13.883761,31.9982799 16.455012,31.0601582 18.4761753,29.3565934 C19.0390757,28.8822289 19.1104064,28.0415793 18.635761,27.4792032 C18.1610199,26.9165404 17.3200637,26.845252 16.757259,27.3196165 C15.2164781,28.6183851 13.2555538,29.3336588 11.2361116,29.3336588 C6.51059761,29.3336588 2.6661992,25.4915358 2.6661992,20.7689143 C2.6661992,16.0462928 6.51059761,12.2040743 11.2361116,12.2040743 C13.2556494,12.2040743 15.2168606,12.9194434 16.7579283,14.2185944 C17.3208287,14.6930544 18.1617849,14.6219571 18.6364303,14.0591987 C19.1110757,13.496727 19.0396494,12.656173 18.4768446,12.1819041 C16.4555857,10.4778615 13.8840478,9.53935755 11.2361116,9.53935755 C5.04047809,9.53935755 0,14.5769479 0,20.7689143 Z M37.5635378,10.8773062 L37.5635378,22.5287645 C37.5635378,26.2810602 34.5089402,29.3336588 30.7545179,29.3336588 C27,29.3336588 23.945498,26.2810602 23.945498,22.5287645 L23.945498,10.8773062 C23.945498,10.141487 23.3486534,9.54499564 22.6123984,9.54499564 C21.8761434,9.54499564 21.2793944,10.141487 21.2793944,10.8773062 L21.2793944,22.5287645 C21.2793944,27.7503096 25.5297849,31.9982799 30.7545179,31.9982799 C35.9791554,31.9982799 40.2297371,27.7503096 40.2297371,22.5287645 L40.2297371,10.8773062 C40.2297371,10.141487 39.6328924,9.54499564 38.8966375,9.54499564 C38.1602869,9.54499564 37.5635378,10.141487 37.5635378,10.8773062 Z" id="Fill-6"></path>
                <path d="M57.7418832,6.93545967 C59.6681953,6.93545967 61.229845,5.38872299 61.229845,3.48080638 C61.229845,1.57288978 59.6681953,0.026247825 57.7418832,0.026247825 C55.8155712,0.026247825 54.2540171,1.57288978 54.2540171,3.48080638 C54.2540171,5.38872299 55.8155712,6.93545967 57.7418832,6.93545967" id="Fill-1"></path>
                <path d="M73.5993465,6.93545967 C75.5256585,6.93545967 77.0873082,5.38872299 77.0873082,3.48080638 C77.0873082,1.57288978 75.5256585,0.026247825 73.5993465,0.026247825 C71.6730345,0.026247825 70.1114804,1.57288978 70.1114804,3.48080638 C70.1114804,5.38872299 71.6730345,6.93545967 73.5993465,6.93545967" id="Fill-3"></path>
            </g>
        </g>
    </g>
</svg>