<?xml version="1.0" encoding="UTF-8"?>
<svg width="227px" height="734px" viewBox="0 0 227 734" version="1.1" xmlns="http://www.w3.org/2000/svg" xmlns:xlink="http://www.w3.org/1999/xlink">
    <!-- Generator: Sketch 49.3 (51167) - http://www.bohemiancoding.com/sketch -->
    <title>Mapa</title>
    <desc>Created with Sketch.</desc>
    <defs>
        <path d="M13.0807329,19.7788184 L4.63480603,19.7788184 C3.57300987,19.7788184 2.6842085,19.0209089 2.47803258,18.0160913 L2.07513292,18.0160913 C1.41328261,18.0160913 0.875,17.4760537 0.875,16.8122657 L0.875,12.9901267 C0.875,12.3263387 1.41338107,11.786301 2.07513292,11.786301 L2.43293775,11.786301 L2.43293775,7.90875585 C1.98198945,7.73750032 1.66051649,7.29978146 1.66051649,6.78818766 L1.66051649,3.44080376 C1.66051649,2.7803737 2.19614066,2.24310145 2.85454487,2.24310145 L3.81512381,2.24310145 L3.81512381,1.85851723 C3.81512381,1.32302272 4.24943231,0.887377883 4.78338267,0.887377883 L6.49885694,0.887377883 C7.03270883,0.887377883 7.46701733,1.32302272 7.46701733,1.85851723 L7.46701733,2.24310145 L10.0992557,2.24310145 L10.0992557,1.04855956 C10.0992557,0.513065046 10.5335642,0.0774202116 11.0674161,0.0774202116 L12.7828904,0.0774202116 C13.3168407,0.0774202116 13.7511492,0.513065046 13.7511492,1.04855956 L13.7511492,2.24310145 L14.860994,2.24310145 C15.5193982,2.24310145 16.0550224,2.7803737 16.0550224,3.44080376 L16.0550224,6.78818766 C16.0550224,7.29978146 15.7335494,7.73750032 15.2826011,7.90875585 L15.2826011,11.786301 L15.6748671,11.786301 C16.3367174,11.786301 16.875,12.3263387 16.875,12.9901267 L16.875,16.8122657 C16.875,17.4760537 16.3366189,18.0160913 15.6748671,18.0160913 L15.2375063,18.0160913 C15.0312319,19.0209089 14.142529,19.7788184 13.0807329,19.7788184 L13.0807329,19.7788184 Z M2.94483299,17.8307126 C3.0703699,18.6531145 3.78036732,19.285002 4.63470757,19.285002 L13.0806344,19.285002 C14.0232936,19.285002 14.790201,18.515636 14.790201,17.5700763 L14.790201,7.98588998 L9.94634681,7.98588998 L9.94634681,8.49610109 C9.94634681,9.06912565 9.48151561,9.53528834 8.91034726,9.53528834 L8.80509317,9.53528834 C8.23382635,9.53528834 7.76909361,9.06912565 7.76909361,8.49610109 L7.76909361,7.98588998 L2.92514092,7.98588998 L2.92514092,11.9199278 C2.94266686,11.9539023 2.95251289,11.99242 2.95251289,12.0332093 L2.95251289,17.7692819 C2.95251289,17.7904172 2.94985446,17.8110587 2.94483299,17.8307126 L2.94483299,17.8307126 Z M15.2896903,17.5222749 L15.6748671,17.5222749 C16.0651638,17.5222749 16.3826984,17.2037633 16.3826984,16.8122657 L16.3826984,12.9901267 C16.3826984,12.598629 16.0650654,12.2801175 15.6748671,12.2801175 L15.2896903,12.2801175 L15.2896903,17.5222749 L15.2896903,17.5222749 Z M2.07503446,12.2801175 C1.68473773,12.2801175 1.36720317,12.598629 1.36720317,12.9901267 L1.36720317,16.8122657 C1.36720317,17.2037633 1.68483619,17.5222749 2.07503446,17.5222749 L2.43283929,17.5222749 L2.43283929,12.2800187 L2.07503446,12.2800187 L2.07503446,12.2801175 Z M8.26129678,7.86065814 L8.26129678,8.49610109 C8.26129678,8.79683528 8.50528147,9.04147193 8.80499471,9.04147193 L8.9102488,9.04147193 C9.21006049,9.04147193 9.45394672,8.79673652 9.45394672,8.49610109 L9.45394672,7.86065814 L9.10372334,7.86065814 L9.10372334,8.19477432 C9.10372334,8.33116641 8.99354623,8.44168252 8.85757252,8.44168252 C8.72159881,8.44168252 8.61142171,8.33116641 8.61142171,8.19477432 L8.61142171,7.86065814 L8.26129678,7.86065814 L8.26129678,7.86065814 Z M9.94644527,7.49207357 L14.860994,7.49207357 C15.2479431,7.49207357 15.5627208,7.17632736 15.5627208,6.78818766 L15.5627208,3.44080376 C15.5627208,3.05266407 15.2479431,2.73691786 14.860994,2.73691786 L2.85444641,2.73691786 C2.46749732,2.73691786 2.15271966,3.05266407 2.15271966,3.44080376 L2.15271966,6.78818766 C2.15271966,7.17632736 2.46749732,7.49207357 2.85444641,7.49207357 L7.76899515,7.49207357 L7.76899515,6.98186246 C7.76899515,6.4088379 8.23382635,5.94267521 8.80499471,5.94267521 L8.9102488,5.94267521 C9.48151561,5.94267521 9.94624835,6.4088379 9.94624835,6.98186246 L9.94624835,7.49207357 L9.94644527,7.49207357 Z M9.45414364,7.48466632 L9.45414364,6.98126473 C9.45414364,6.68086014 9.21015895,6.43649162 8.91044572,6.43649162 L8.80519163,6.43649162 C8.50537993,6.43649162 8.2614937,6.6809588 8.2614937,6.98126473 L8.2614937,7.48466632 L8.85776944,7.48466632 L9.45414364,7.48466632 Z M10.5914589,2.24310145 L13.2587491,2.24310145 L13.2587491,1.04855956 C13.2587491,0.785355413 13.0451887,0.571236619 12.7827919,0.571236619 L11.0673176,0.571236619 C10.8049209,0.571236619 10.5914589,0.785355413 10.5914589,1.04855956 L10.5914589,2.24310145 L10.5914589,2.24310145 Z M4.30732699,2.24310145 L6.97461724,2.24310145 L6.97461724,1.85851723 C6.97461724,1.59531308 6.76115525,1.38119429 6.49875848,1.38119429 L4.78328421,1.38119429 C4.52088744,1.38119429 4.30732699,1.59531308 4.30732699,1.85851723 L4.30732699,2.24310145 L4.30732699,2.24310145 Z M11.4841002,18.2791967 L6.23134023,18.2791967 C5.52567507,18.2791967 4.95165136,17.7034068 4.95165136,16.9956691 L4.95165136,12.0524681 C4.95165136,11.2568311 5.59696035,10.6095366 6.39015674,10.6095366 L11.3251852,10.6095366 C12.1184801,10.6095366 12.7636906,11.2568311 12.7636906,12.0524681 L12.7636906,16.9956691 C12.7637891,17.7034068 12.1897654,18.2791967 11.4841002,18.2791967 L11.4841002,18.2791967 Z M5.443953,13.8088743 L5.443953,16.9956691 C5.443953,17.4311164 5.79722865,17.7853803 6.23134023,17.7853803 L11.4841002,17.7853803 C11.9182118,17.7853803 12.2714874,17.4311164 12.2714874,16.9956691 L12.2714874,13.8088743 L5.443953,13.8088743 L5.443953,13.8088743 Z M5.443953,13.3150579 L12.2714874,13.3150579 L12.2714874,12.0524681 C12.2714874,11.5291215 11.8469265,11.103353 11.3252837,11.103353 L6.39015674,11.103353 C5.86841547,11.103353 5.443953,11.5291215 5.443953,12.0524681 L5.443953,13.3150579 L5.443953,13.3150579 Z" id="path-1"></path>
    </defs>
    <g id="Symbols" stroke="none" stroke-width="1" fill="none" fill-rule="evenodd">
        <g id="Mapa">
            <g>
                <g fill="#FFFFFF" id="Path-3-Copy" opacity="0.960484601">
                    <path d="M225,0.105978093 L225,733 L103.475552,733.894022 L14.1252484,733 C4.70841612,708.486936 -1.30104261e-16,693.153602 0,687 C-1.95156391e-16,677.769597 24.4633,623.129182 24.4633,619.067805 C24.4633,616.36022 22.4941473,611.314266 18.5558419,603.929943 C15.6021129,588.422866 14.1252484,579.192463 14.1252484,576.238734 C14.1252484,573.285005 11.5407354,569.838987 6.37170958,565.900682 C0.956539647,557.531783 2.06418804,548.670596 9.69465477,539.31712 C17.3251215,529.963645 19.4173462,517.902585 15.971329,503.133939 L34.4321356,454.39741 C34.6782797,452.428257 38.4935131,451.935969 45.8778357,452.920545 C53.2621583,453.905122 61.1387692,450.089888 69.5076681,441.474845 C63.1079219,435.813531 57.5696799,434.952027 52.8929422,438.890332 C48.2162045,442.828638 44.7701873,444.797791 42.5548905,444.797791 C43.785611,438.890332 46.2470518,432.73673 49.9392132,426.336984 C55.4774551,416.737365 73.5690456,380.9234 77.2612069,380.9234 C80.9533682,380.9234 82.0610166,383.507913 85.0147457,383.507913 C86.9838984,383.507913 82.5533048,390.769163 71.7229649,405.291664 L79.4765037,414.522068 C83.6609532,398.768846 89.1991952,388.430794 96.0912296,383.507913 C106.429281,376.12359 101.998688,356.185919 101.998688,354.709054 C101.998688,353.23219 100.152607,345.847867 120.459494,343.63257 C133.997419,342.155706 143.350895,336.98668 148.51992,328.125493 C146.304624,325.417908 141.997102,323.694899 135.597356,322.956467 C129.197609,322.218035 125.382376,320.371954 124.151656,317.418225 C109.38301,333.909879 101.998688,342.155706 101.998688,342.155706 C101.998688,342.155706 104.583201,318.89509 110.859875,316.679793 C117.136549,314.464496 113.813604,304.126444 113.813604,305.603309 C113.813604,306.587885 122.305575,301.049643 139.289517,288.988583 C125.505448,279.881252 122.059431,268.31248 128.951465,254.282267 C139.289517,233.236947 133.751275,221.791247 128.951465,216.991437 C124.151656,212.191627 120.459494,212.93006 122.674791,202.222792 C124.890088,191.515524 116.767333,183.023553 113.813604,178.223743 C110.859875,173.423934 112.336739,162.716666 113.813604,160.870585 C115.290469,159.024504 120.459494,160.132153 121.567143,160.870585 C122.305575,161.362873 126.982313,156.439992 135.597356,146.10194 C133.135915,136.010032 133.382059,128.010349 136.335788,122.102891 C140.766382,113.241704 149.996785,109.549543 149.996785,89.6118717 C149.996785,69.6742005 154.058162,56.3824198 158.857972,43.090639 C163.657782,29.7988583 154.058162,26.106697 157.750324,18.7223743 C161.442485,11.3380517 164.026998,1 164.026998,1 C164.026998,1 184.351332,0.701992698 225,0.105978093 Z"></path>
                </g>
                <g id="Ruta" transform="translate(66.000000, 72.000000)">
                    <g id="Group-8" transform="translate(15.000000, 29.000000)">
                        <path d="M2,618 L39.5,603 L48.5,551 L39.5,518 L74,477 C68.6666667,439 66,420 66,420 C66,420 54,406.666667 30,380 L72,339 L53,278 L87,202 L53,168 L74,119 L66,76 L95,4" id="Path-4" stroke="#59AA46"></path>
                        <circle id="Oval-5" fill="#68C951" cx="4.5" cy="616.5" r="4.5"></circle>
                        <circle id="Oval-5-Copy" fill="#68C951" cx="38.5" cy="518.5" r="4.5"></circle>
                        <circle id="Oval-5-Copy-2" fill="#68C951" cx="30.5" cy="381.5" r="4.5"></circle>
                        <circle id="Oval-5-Copy-3" fill="#68C951" cx="87.5" cy="202.5" r="4.5"></circle>
                        <circle id="Oval-5-Copy-4" fill="#68C951" cx="95.5" cy="4.5" r="4.5"></circle>
                    </g>
                    <g id="Campamento-Base" transform="translate(33.000000, 483.000000)">
                        <path d="M18.8937117,58.4403077 C18.8937117,50.9325314 8.34971867,37.0527093 5.08765638,32.9401694 C4.43537583,32.1225762 4.0086564,31.6045237 3.85762279,31.4205487 C1.30390156,27.9310001 0,23.9127724 0,19.6946294 C0,8.83478774 8.77116181,0 19.5532472,0 C30.3373112,0 39.1111111,8.83478774 39.1111111,19.6946294 C39.1111111,23.9127724 37.80655,27.9310001 35.3392279,31.3156098 C35.3240586,31.3361991 35.2409572,31.4344962 35.2409572,31.4344962 C35.08069,31.6297622 34.6599064,32.1418372 34.055772,32.9029759 C30.7547971,37.0606793 20.2127826,50.9385089 20.2127826,58.4403077 C20.2127826,58.685165 19.9929375,58.906555 19.5532472,59.1044776 C19.1135569,58.906555 18.8937117,58.685165 18.8937117,58.4403077 Z" id="Fill-1" stroke="#006131" fill="#59AA46"></path>
                        <g id="Icono/Campamento-base" transform="translate(8.000000, 10.000000)" fill="#FFFFFF">
                            <path d="M24.164486,13.5587678 C23.9653942,13.5587678 23.8040499,13.7223609 23.8040499,13.9240793 L23.8040499,14.1186906 C19.8570128,10.554247 17.4285912,5.68696975 16.9452137,0.332034919 L16.9152647,0 L7.6068394,0 L7.57689044,0.332034919 C7.09364397,5.68564134 4.66627088,10.5518558 0.720872138,14.1161003 L0.720872138,13.9240793 C0.720872138,13.7223609 0.559527847,13.5587678 0.360436069,13.5587678 C0.161344291,13.5587678 0,13.7223609 0,13.9240793 L0,15.7174265 C0,15.9191448 0.161344291,16.082738 0.360436069,16.082738 C0.559527847,16.082738 0.720872138,15.9191448 0.720872138,15.7174265 L0.720872138,15.0830465 C1.21421082,14.6626062 1.68631653,14.223369 2.13607521,13.7662647 L2.13607521,14.8758817 C2.13607521,15.0776001 2.2974195,15.2411932 2.49651128,15.2411932 L22.2877282,15.2411932 C22.4868199,15.2411932 22.6481642,15.0776001 22.6481642,14.8758817 L22.6481642,14.0279606 C23.0191512,14.392475 23.4046212,14.7451666 23.8040499,15.0855041 L23.8040499,15.7174265 C23.8040499,15.9191448 23.9653942,16.082738 24.164486,16.082738 C24.3635778,16.082738 24.5249221,15.9191448 24.5249221,15.7174265 L24.5249221,13.9240793 C24.5249221,13.7222945 24.3635778,13.5587678 24.164486,13.5587678 L24.164486,13.5587678 Z M7.57571083,14.5105702 L2.85694735,14.5105702 L2.85694735,12.9967195 C5.07690587,10.5110074 6.68405753,7.56513566 7.57571083,4.35225447 L7.57571083,14.5105702 L7.57571083,14.5105702 Z M13.2968143,14.5105702 L8.29658297,14.5105702 L8.29658297,4.34182649 C8.57942698,5.3577909 8.93507908,6.35283293 9.36281839,7.32137328 C10.3371754,9.52785457 11.6608932,11.5395916 13.2968143,13.3045774 L13.2968143,14.5105702 L13.2968143,14.5105702 Z M10.0207781,7.02281417 C9.13849609,5.0248261 8.57228379,2.90987193 8.33505133,0.730622946 L16.2598609,0.730622946 C16.7353088,5.25191699 18.5553799,9.42330907 21.4763538,12.7817835 C20.6538387,12.7799901 13.8593567,12.7787282 13.7993277,12.7793924 C12.2290715,11.079897 10.9577152,9.14447679 10.0207781,7.02281417 L10.0207781,7.02281417 Z M21.9272921,14.5105702 L14.0176864,14.5105702 L14.0176864,13.5080227 C15.1758658,13.501115 19.0644467,13.5065615 21.9272921,13.5134027 L21.9272921,14.5105702 L21.9272921,14.5105702 Z" id="Shape"></path>
                        </g>
                    </g>
                    <g id="Campamento-2" transform="translate(83.000000, 167.000000)">
                        <path d="M18.8937117,58.4403077 C18.8937117,50.9325314 8.34971867,37.0527093 5.08765638,32.9401694 C4.43537583,32.1225762 4.0086564,31.6045237 3.85762279,31.4205487 C1.30390156,27.9310001 0,23.9127724 0,19.6946294 C0,8.83478774 8.77116181,0 19.5532472,0 C30.3373112,0 39.1111111,8.83478774 39.1111111,19.6946294 C39.1111111,23.9127724 37.80655,27.9310001 35.3392279,31.3156098 C35.3240586,31.3361991 35.2409572,31.4344962 35.2409572,31.4344962 C35.08069,31.6297622 34.6599064,32.1418372 34.055772,32.9029759 C30.7547971,37.0606793 20.2127826,50.9385089 20.2127826,58.4403077 C20.2127826,58.685165 19.9929375,58.906555 19.5532472,59.1044776 C19.1135569,58.906555 18.8937117,58.685165 18.8937117,58.4403077 Z" id="Fill-1" stroke="#006131" fill="#59AA46"></path>
                        <g id="Icono/campamento-dos" transform="translate(6.000000, 7.000000)" stroke="#FFFFFF">
                            <g id="compass">
                                <path d="M14,4 L14,5.02564103 M24,14 L22.974359,14 M14,24 L14,22.974359 M4,14 L5.02564103,14" id="Line" stroke-width="2" stroke-linecap="round"></path>
                                <circle id="base" stroke-width="2" cx="13.5" cy="13.5" r="12.5"></circle>
                                <g id="direction" transform="translate(13.500000, 15.000000) rotate(45.000000) translate(-13.500000, -15.000000) translate(10.000000, 7.000000)">
                                    <path d="M3.48021865,1.26282477 C3.31718132,0.853161154 3.37581824,0.853132333 3.21276944,1.26282477 L1.06284754,6.66492998 C0.779796806,7.37615108 0.779891368,8.59080034 1.06284754,9.30178384 L3.21276944,14.703889 C3.37580677,15.1135527 3.31716985,15.1135815 3.48021865,14.703889 L5.63014055,9.30178384 C5.91319128,8.59056274 5.91309672,7.37591348 5.63014055,6.66492998 L3.48021865,1.26282477 Z" id="Path-5"></path>
                                    <path d="M1.02852694,7.56423207 L5.71739021,7.56423207" id="Line" stroke-linecap="round"></path>
                                </g>
                            </g>
                        </g>
                    </g>
                    <g id="Campamento-Uno" transform="translate(26.000000, 346.000000)">
                        <path d="M18.8937117,58.4403077 C18.8937117,50.9325314 8.34971867,37.0527093 5.08765638,32.9401694 C4.43537583,32.1225762 4.0086564,31.6045237 3.85762279,31.4205487 C1.30390156,27.9310001 0,23.9127724 0,19.6946294 C0,8.83478774 8.77116181,0 19.5532472,0 C30.3373112,0 39.1111111,8.83478774 39.1111111,19.6946294 C39.1111111,23.9127724 37.80655,27.9310001 35.3392279,31.3156098 C35.3240586,31.3361991 35.2409572,31.4344962 35.2409572,31.4344962 C35.08069,31.6297622 34.6599064,32.1418372 34.055772,32.9029759 C30.7547971,37.0606793 20.2127826,50.9385089 20.2127826,58.4403077 C20.2127826,58.685165 19.9929375,58.906555 19.5532472,59.1044776 C19.1135569,58.906555 18.8937117,58.685165 18.8937117,58.4403077 Z" id="Fill-1" stroke="#006131" fill="#59AA46"></path>
                        <g id="Icono/Campamento-uno" transform="translate(6.000000, 12.000000)">
                            <g id="binoculars">
                                <path d="M25.3690411,4.00256446 C25.3692603,3.9970453 25.369863,3.99163763 25.369863,3.98606272 L25.369863,3.54006969 C25.369863,2.32585366 24.3989041,1.33797909 23.2054795,1.33797909 L20.6671781,1.33797909 C20.0087671,0.496334495 19.0068493,0 17.9452055,0 C16.8835616,0 15.8816986,0.496334495 15.2232329,1.33797909 L12.7767123,1.33797909 C12.1183014,0.496334495 11.1163836,0 10.0547397,0 C8.99309589,0 7.99123288,0.496334495 7.33276712,1.33797909 L4.79452055,1.33797909 C3.60109589,1.33797909 2.63013699,2.32585366 2.63013699,3.54006969 L2.63013699,3.98606272 C2.63013699,3.99163763 2.63073973,3.9970453 2.6309589,4.00256446 C1.03479452,5.21862021 0,7.15768641 0,9.33797909 C0,13.0114564 2.93736986,16 6.54794521,16 C10.1585205,16 13.0958904,13.0114564 13.0958904,9.33797909 C13.0958904,9.104223 13.0838904,8.8733101 13.0606575,8.64568641 C13.3449315,8.78561672 13.6636164,8.8641115 14,8.8641115 C14.3363836,8.8641115 14.6550685,8.78556098 14.9393425,8.64568641 C14.9161096,8.8733101 14.9041096,9.104223 14.9041096,9.33797909 C14.9041096,13.0114564 17.8414795,16 21.4520548,16 C25.0626301,16 28,13.0114564 28,9.33797909 C28,7.15768641 26.9652055,5.21862021 25.3690411,4.00256446 L25.3690411,4.00256446 Z M17.9452055,0.836236934 C18.5027945,0.836236934 19.038411,1.01658537 19.4825753,1.33797909 L16.4078904,1.33797909 C16.852,1.01658537 17.3876164,0.836236934 17.9452055,0.836236934 L17.9452055,0.836236934 Z M10.0547945,0.836236934 C10.6123836,0.836236934 11.148,1.01658537 11.5921644,1.33797909 L8.51747945,1.33797909 C8.96158904,1.01658537 9.49720548,0.836236934 10.0547945,0.836236934 L10.0547945,0.836236934 Z M6.54794521,15.1637631 C3.39057534,15.1637631 0.821917808,12.5503554 0.821917808,9.33797909 C0.821917808,6.12560279 3.39057534,3.51219512 6.54794521,3.51219512 C9.70531507,3.51219512 12.2739726,6.12560279 12.2739726,9.33797909 C12.2739726,12.5503554 9.70531507,15.1637631 6.54794521,15.1637631 L6.54794521,15.1637631 Z M12.6575342,6.66202091 C12.6575342,5.90890592 13.2597808,5.29616725 14,5.29616725 C14.7402192,5.29616725 15.3424658,5.90890592 15.3424658,6.66202091 C15.3424658,7.41513589 14.7402192,8.02787456 14,8.02787456 C13.2597808,8.02787456 12.6575342,7.41513589 12.6575342,6.66202091 L12.6575342,6.66202091 Z M14,4.45993031 C13.1375342,4.45993031 12.3914521,4.976 12.0438904,5.72047387 C10.8756712,3.88961672 8.84860274,2.67595819 6.54794521,2.67595819 C5.42953425,2.67595819 4.37589041,2.9629547 3.45391781,3.46798606 C3.49090411,2.74826481 4.0780274,2.17421603 4.79452055,2.17421603 L7.53194521,2.17421603 L7.53210959,2.17421603 L12.5709041,2.17421603 L12.5713425,2.17421603 L12.571726,2.17421603 L15.422411,2.17421603 L15.4225753,2.17421603 L20.4613699,2.17421603 L20.4618082,2.17421603 L20.4621918,2.17421603 L23.2054795,2.17421603 C23.9219726,2.17421603 24.5090959,2.74826481 24.5460822,3.46798606 C23.6241096,2.9629547 22.5704658,2.67595819 21.4520548,2.67595819 C19.1513973,2.67595819 17.1243288,3.88961672 15.9561096,5.72047387 C15.6085479,4.976 14.8624658,4.45993031 14,4.45993031 L14,4.45993031 Z M21.4520548,15.1637631 C18.2946849,15.1637631 15.7260274,12.5503554 15.7260274,9.33797909 C15.7260274,6.12560279 18.2946849,3.51219512 21.4520548,3.51219512 C24.6094247,3.51219512 27.1780822,6.12560279 27.1780822,9.33797909 C27.1780822,12.5503554 24.6094247,15.1637631 21.4520548,15.1637631 L21.4520548,15.1637631 Z" id="Shape" stroke="#FFFFFF" stroke-width="0.3" fill="#FFFFFF"></path>
                                <path d="M21.5,4 C19.0186743,4 17,6.01867429 17,8.5 C17,10.9813257 19.0186743,13 21.5,13 C23.9813257,13 26,10.9813257 26,8.5 C26,6.01867429 23.9813257,4 21.5,4 L21.5,4 Z M21.5,12.2285714 C19.44404,12.2285714 17.7714286,10.55596 17.7714286,8.5 C17.7714286,6.44404 19.44404,4.77142857 21.5,4.77142857 C23.55596,4.77142857 25.2285714,6.44404 25.2285714,8.5 C25.2285714,10.55596 23.55596,12.2285714 21.5,12.2285714 L21.5,12.2285714 Z" id="Shape" stroke="#FFFFFF" stroke-width="0.3" fill="#FFFFFF"></path>
                                <path d="M6.5,4 C4.01867429,4 2,6.01867429 2,8.5 C2,10.9813257 4.01867429,13 6.5,13 C8.98132571,13 11,10.9813257 11,8.5 C11,6.01867429 8.98132571,4 6.5,4 L6.5,4 Z M6.5,12.2285714 C4.44404,12.2285714 2.77142857,10.55596 2.77142857,8.5 C2.77142857,6.44404 4.44404,4.77142857 6.5,4.77142857 C8.55596,4.77142857 10.2285714,6.44404 10.2285714,8.5 C10.2285714,10.55596 8.55596,12.2285714 6.5,12.2285714 L6.5,12.2285714 Z" id="Shape" stroke="#FFFFFF" stroke-width="0.3" fill="#FFFFFF"></path>
                                <path d="M21.3571429,6 C21.1599048,6 21,6.15990476 21,6.35714286 C21,6.55438095 21.1599048,6.71428571 21.3571429,6.71428571 C22.4205714,6.71428571 23.2857143,7.57942857 23.2857143,8.64285714 C23.2857143,8.84009524 23.445619,9 23.6428571,9 C23.8400952,9 24,8.84009524 24,8.64285714 C24,7.18557143 22.8144286,6 21.3571429,6 L21.3571429,6 Z" id="Shape" stroke="#68C951" fill="#434F5E"></path>
                                <path d="M6.35714286,6 C6.15990476,6 6,6.15990476 6,6.35714286 C6,6.55438095 6.15990476,6.71428571 6.35714286,6.71428571 C7.42057143,6.71428571 8.28571429,7.57942857 8.28571429,8.64285714 C8.28571429,8.84009524 8.44561905,9 8.64285714,9 C8.84009524,9 9,8.84009524 9,8.64285714 C9,7.18557143 7.81442857,6 6.35714286,6 L6.35714286,6 Z" id="Shape" stroke="#68C951" fill="#434F5E"></path>
                            </g>
                        </g>
                    </g>
                    <g id="Alistamiento" transform="translate(0.000000, 581.000000)">
                        <path d="M18.8937117,58.4403077 C18.8937117,50.9325314 8.34971867,37.0527093 5.08765638,32.9401694 C4.43537583,32.1225762 4.0086564,31.6045237 3.85762279,31.4205487 C1.30390156,27.9310001 0,23.9127724 0,19.6946294 C0,8.83478774 8.77116181,0 19.5532472,0 C30.3373112,0 39.1111111,8.83478774 39.1111111,19.6946294 C39.1111111,23.9127724 37.80655,27.9310001 35.3392279,31.3156098 C35.3240586,31.3361991 35.2409572,31.4344962 35.2409572,31.4344962 C35.08069,31.6297622 34.6599064,32.1418372 34.055772,32.9029759 C30.7547971,37.0606793 20.2127826,50.9385089 20.2127826,58.4403077 C20.2127826,58.685165 19.9929375,58.906555 19.5532472,59.1044776 C19.1135569,58.906555 18.8937117,58.685165 18.8937117,58.4403077 Z" id="Fill-1" stroke="#006131" fill="#59AA46"></path>
                        <g id="Icono/Alistamiento" transform="translate(11.000000, 9.000000)">
                            <g id="Shape">
                                <use fill="#FFFFFF" fill-rule="evenodd" xlink:href="#path-1"></use>
                                <path stroke="#FFFFFF" stroke-width="0.4" d="M2.32062055,18.2160913 L2.07513292,18.2160913 C1.30271932,18.2160913 0.675,17.5864049 0.675,16.8122657 L0.675,12.9901267 C0.675,12.216019 1.30278634,11.586301 2.07513292,11.586301 L2.23293775,11.586301 L2.23293775,8.03912916 C1.76689344,7.80587285 1.46051649,7.32526942 1.46051649,6.78818766 L1.46051649,3.44080376 C1.46051649,2.67005406 2.08554593,2.04310145 2.85454487,2.04310145 L3.61512381,2.04310145 L3.61512381,1.85851723 C3.61512381,1.21268466 4.13885598,0.687377883 4.78338267,0.687377883 L6.49885694,0.687377883 C7.14330356,0.687377883 7.66701733,1.21270308 7.66701733,1.85851723 L7.66701733,2.04310145 L9.8992557,2.04310145 L9.8992557,1.04855956 C9.8992557,0.402745409 10.4229695,-0.122579788 11.0674161,-0.122579788 L12.7828904,-0.122579788 C13.427417,-0.122579788 13.9511492,0.402726986 13.9511492,1.04855956 L13.9511492,2.04310145 L14.860994,2.04310145 C15.629993,2.04310145 16.2550224,2.67005406 16.2550224,3.44080376 L16.2550224,6.78818766 C16.2550224,7.32526942 15.9486454,7.80587285 15.4826011,8.03912916 L15.4826011,11.586301 L15.6748671,11.586301 C16.4472807,11.586301 17.075,12.2159875 17.075,12.9901267 L17.075,16.8122657 C17.075,17.5863733 16.4472137,18.2160913 15.6748671,18.2160913 L15.3949053,18.2160913 C15.1096762,19.2440219 14.1689878,19.9788184 13.0807329,19.9788184 L4.63480603,19.9788184 C3.54652422,19.9788184 2.60576626,19.2439951 2.32062055,18.2160913 Z M3.14792867,17.8333977 C3.27355673,18.5506153 3.89932006,19.085002 4.63470757,19.085002 L13.0806344,19.085002 C13.9126765,19.085002 14.590201,18.4053387 14.590201,17.5700763 L14.590201,8.18588998 L10.1463468,8.18588998 L10.1463468,8.49610109 C10.1463468,9.17941413 9.59214138,9.73528834 8.91034726,9.73528834 L8.80509317,9.73528834 C8.12323162,9.73528834 7.56909361,9.17944529 7.56909361,8.49610109 L7.56909361,8.18588998 L3.12398246,8.18588998 L3.10288493,11.8282377 C3.13534725,11.8911669 3.15251289,11.9611795 3.15251289,12.0332093 L3.15251289,17.7692819 C3.15251289,17.7908209 3.15097334,17.8122492 3.14792867,17.8333977 Z M15.4896903,17.3222749 L15.6748671,17.3222749 C15.9545691,17.3222749 16.1826984,17.0934437 16.1826984,16.8122657 L16.1826984,12.9901267 C16.1826984,12.708987 15.9545089,12.4801175 15.6748671,12.4801175 L15.4896903,12.4801175 L15.4896903,17.3222749 Z M2.23283929,17.3222749 L2.23283929,12.4800187 L2.07503446,12.4800187 L2.07503446,12.4801175 C1.79533246,12.4801175 1.56720317,12.7089487 1.56720317,12.9901267 L1.56720317,16.8122657 C1.56720317,17.0934053 1.79539262,17.3222749 2.07503446,17.3222749 L2.23283929,17.3222749 Z M8.46129678,7.91053321 L8.46129678,8.06065814 L8.41142171,8.06065814 L8.41142171,7.91053321 L8.43635924,7.88559568 L8.46129678,7.91053321 Z M8.46129678,8.40031491 L8.46129678,8.49610109 C8.46129678,8.68647598 8.6158366,8.84147193 8.80499471,8.84147193 L8.9102488,8.84147193 C9.09942616,8.84147193 9.25394672,8.68645655 9.25394672,8.49610109 L9.25394672,8.40012468 C9.17973243,8.5435946 9.03016308,8.64168252 8.85757252,8.64168252 C8.68505825,8.64168252 8.53554485,8.5436813 8.46129678,8.40031491 Z M9.25394672,8.06065814 L9.25394672,7.91043475 L9.27883503,7.88554645 L9.30372334,7.91043475 L9.30372334,8.06065814 L9.25394672,8.06065814 Z M10.1462484,7.29207357 L14.860994,7.29207357 C15.1373484,7.29207357 15.3627208,7.06600772 15.3627208,6.78818766 L15.3627208,3.44080376 C15.3627208,3.1629837 15.1373484,2.93691786 14.860994,2.93691786 L2.85444641,2.93691786 C2.57809205,2.93691786 2.35271966,3.1629837 2.35271966,3.44080376 L2.35271966,6.78818766 C2.35271966,7.06600772 2.57809205,7.29207357 2.85444641,7.29207357 L7.56899515,7.29207357 L7.56899515,6.98186246 C7.56899515,6.29854942 8.12320058,5.74267521 8.80499471,5.74267521 L8.9102488,5.74267521 C9.59211034,5.74267521 10.1462484,6.29851826 10.1462484,6.98186246 L10.1462484,7.29207357 Z M9.25414364,7.28466632 L9.25414364,6.98126473 C9.25414364,6.79126837 9.09965305,6.63649162 8.91044572,6.63649162 L8.80519163,6.63649162 C8.61596502,6.63649162 8.4614937,6.79128776 8.4614937,6.98126473 L8.4614937,7.28466632 L9.25414364,7.28466632 Z M10.7914589,2.04310145 L13.0587491,2.04310145 L13.0587491,1.04855956 C13.0587491,0.895706589 12.9346255,0.771236619 12.7827919,0.771236619 L11.0673176,0.771236619 C10.9155156,0.771236619 10.7914589,0.89567505 10.7914589,1.04855956 L10.7914589,2.04310145 Z M4.50732699,2.04310145 L6.77461724,2.04310145 L6.77461724,1.85851723 C6.77461724,1.70563272 6.65056052,1.58119429 6.49875848,1.58119429 L4.78328421,1.58119429 C4.6314506,1.58119429 4.50732699,1.70566426 4.50732699,1.85851723 L4.50732699,2.04310145 Z M11.4841002,18.4791967 L6.23134023,18.4791967 C5.41509797,18.4791967 4.75165136,17.8137441 4.75165136,16.9956691 L4.75165136,12.0524681 C4.75165136,11.1465115 5.48636561,10.4095366 6.39015674,10.4095366 L11.3251852,10.4095366 C12.2290429,10.4095366 12.9636906,11.1464795 12.9636906,12.0524681 L12.9636906,16.9956413 C12.9638044,17.8137156 12.3003647,18.4791967 11.4841002,18.4791967 Z M5.643953,14.0088743 L5.643953,16.9956691 C5.643953,17.3207703 5.90779689,17.5853803 6.23134023,17.5853803 L11.4841002,17.5853803 C11.8076435,17.5853803 12.0714874,17.3207703 12.0714874,16.9956691 L12.0714874,14.0088743 L5.643953,14.0088743 Z M5.643953,13.1150579 L12.0714874,13.1150579 L12.0714874,12.0524681 C12.0714874,11.6394784 11.736369,11.303353 11.3252837,11.303353 L6.39015674,11.303353 C5.9790102,11.303353 5.643953,11.6394411 5.643953,12.0524681 L5.643953,13.1150579 Z"></path>
                            </g>
                        </g>
                    </g>
                    <g id="Icono/Cumbre" transform="translate(110.000000, 0.000000)" fill="#68C951">
                        <g id="flag">
                            <path d="M19.7140909,1.46813333 C19.5054545,1.3818 14.5509091,-0.609466667 10.6959091,1.48913333 C7.64136364,3.15373333 2.27954545,1.90493333 0.909090909,1.54373333 L0.909090909,0.466666667 C0.909090909,0.2086 0.705909091,0 0.454545455,0 C0.203181818,0 0,0.2086 0,0.466666667 L0,1.86666667 C0,1.8732 0.00318181818,1.8788 0.00363636364,1.88533333 C0.00363636364,1.89093333 0,1.8956 0,1.9012 L0,15.4 L0,15.9012 L0,27.5333333 C0,27.7914 0.203181818,28 0.454545455,28 C0.705909091,28 0.909090909,27.7914 0.909090909,27.5333333 L0.909090909,16.5083333 C1.94227273,16.7729333 4.19409091,17.2699333 6.53090909,17.2699333 C8.14772727,17.2699333 9.80363636,17.0314667 11.1222727,16.3137333 C14.6004545,14.4186 19.3295455,16.3156 19.3768182,16.3347333 C19.5172727,16.3926 19.6754545,16.3748667 19.8004545,16.2871333 C19.925,16.2008 20,16.0561333 20,15.9012 L20,1.9012 C20,1.71033333 19.8868182,1.53906667 19.7140909,1.46813333 Z M19.0909091,15.2436667 C17.6090909,14.7592667 13.7972727,13.7988667 10.6959091,15.4886667 C7.64181818,17.1528 2.28181818,15.9049333 0.909090909,15.5437333 L0.909090909,15.4 L0.909090909,2.50833333 C2.66045455,2.9568 7.90045455,4.0684 11.1222727,2.31373333 C14.1068182,0.688333333 18.0122727,1.85406667 19.0909091,2.22926667 L19.0909091,15.2436667 Z" id="Shape" fill-rule="nonzero"></path>
                        </g>
                    </g>
                </g>
                <g id="Regla" transform="translate(185.000000, 92.000000)">
                    <g id="Group-5" opacity="0.54908288" transform="translate(14.000000, 9.000000)" stroke="#BBBBBB" stroke-linecap="square">
                        <g id="Group-4" transform="translate(3.000000, 598.000000)">
                            <path d="M24.5,21.5 L14.5,21.5" id="Line"></path>
                            <path d="M24.5,17.5 L14.5,17.5" id="Line-Copy"></path>
                            <path d="M24.5,13.5 L14.5,13.5" id="Line-Copy-2"></path>
                            <path d="M24.5,9.5 L14.5,9.5" id="Line-Copy-3"></path>
                            <path d="M24.5,5.5 L14.5,5.5" id="Line-Copy-4"></path>
                            <path d="M24.5,1.5 L0.5,1.5" id="Line-Copy-5"></path>
                        </g>
                        <g id="Group-4-Copy" transform="translate(3.000000, 575.000000)">
                            <path d="M24.5,21.5 L14.5,21.5" id="Line"></path>
                            <path d="M24.5,17.5 L14.5,17.5" id="Line-Copy"></path>
                            <path d="M24.5,13.5 L14.5,13.5" id="Line-Copy-2"></path>
                            <path d="M24.5,9.5 L14.5,9.5" id="Line-Copy-3"></path>
                            <path d="M24.5,5.5 L14.5,5.5" id="Line-Copy-4"></path>
                            <path d="M24.5,1.5 L0.5,1.5" id="Line-Copy-5"></path>
                        </g>
                        <g id="Group-4-Copy-2" transform="translate(3.000000, 552.000000)">
                            <path d="M24.5,21.5 L14.5,21.5" id="Line"></path>
                            <path d="M24.5,17.5 L14.5,17.5" id="Line-Copy"></path>
                            <path d="M24.5,13.5 L14.5,13.5" id="Line-Copy-2"></path>
                            <path d="M24.5,9.5 L14.5,9.5" id="Line-Copy-3"></path>
                            <path d="M24.5,5.5 L14.5,5.5" id="Line-Copy-4"></path>
                            <path d="M24.5,1.5 L0.5,1.5" id="Line-Copy-5"></path>
                        </g>
                        <g id="Group-4-Copy-3" transform="translate(3.000000, 529.000000)">
                            <path d="M24.5,21.5 L14.5,21.5" id="Line"></path>
                            <path d="M24.5,17.5 L14.5,17.5" id="Line-Copy"></path>
                            <path d="M24.5,13.5 L14.5,13.5" id="Line-Copy-2"></path>
                            <path d="M24.5,9.5 L14.5,9.5" id="Line-Copy-3"></path>
                            <path d="M24.5,5.5 L14.5,5.5" id="Line-Copy-4"></path>
                            <path d="M24.5,1.5 L0.5,1.5" id="Line-Copy-5"></path>
                        </g>
                        <g id="Group-4-Copy-4" transform="translate(3.000000, 506.000000)">
                            <path d="M24.5,21.5 L14.5,21.5" id="Line"></path>
                            <path d="M24.5,17.5 L14.5,17.5" id="Line-Copy"></path>
                            <path d="M24.5,13.5 L14.5,13.5" id="Line-Copy-2"></path>
                            <path d="M24.5,9.5 L14.5,9.5" id="Line-Copy-3"></path>
                            <path d="M24.5,5.5 L14.5,5.5" id="Line-Copy-4"></path>
                            <path d="M24.5,1.5 L0.5,1.5" id="Line-Copy-5"></path>
                        </g>
                        <g id="Group-4-Copy-5" transform="translate(3.000000, 483.000000)">
                            <path d="M24.5,21.5 L14.5,21.5" id="Line"></path>
                            <path d="M24.5,17.5 L14.5,17.5" id="Line-Copy"></path>
                            <path d="M24.5,13.5 L14.5,13.5" id="Line-Copy-2"></path>
                            <path d="M24.5,9.5 L14.5,9.5" id="Line-Copy-3"></path>
                            <path d="M24.5,5.5 L14.5,5.5" id="Line-Copy-4"></path>
                            <path d="M24.5,1.5 L0.5,1.5" id="Line-Copy-5"></path>
                        </g>
                        <g id="Group-4-Copy-6" transform="translate(3.000000, 460.000000)">
                            <path d="M24.5,21.5 L14.5,21.5" id="Line"></path>
                            <path d="M24.5,17.5 L14.5,17.5" id="Line-Copy"></path>
                            <path d="M24.5,13.5 L14.5,13.5" id="Line-Copy-2"></path>
                            <path d="M24.5,9.5 L14.5,9.5" id="Line-Copy-3"></path>
                            <path d="M24.5,5.5 L14.5,5.5" id="Line-Copy-4"></path>
                            <path d="M24.5,1.5 L0.5,1.5" id="Line-Copy-5"></path>
                        </g>
                        <g id="Group-4-Copy-7" transform="translate(3.000000, 437.000000)">
                            <path d="M24.5,21.5 L14.5,21.5" id="Line"></path>
                            <path d="M24.5,17.5 L14.5,17.5" id="Line-Copy"></path>
                            <path d="M24.5,13.5 L14.5,13.5" id="Line-Copy-2"></path>
                            <path d="M24.5,9.5 L14.5,9.5" id="Line-Copy-3"></path>
                            <path d="M24.5,5.5 L14.5,5.5" id="Line-Copy-4"></path>
                            <path d="M24.5,1.5 L0.5,1.5" id="Line-Copy-5"></path>
                        </g>
                        <g id="Group-4-Copy-8" transform="translate(3.000000, 414.000000)">
                            <path d="M24.5,21.5 L14.5,21.5" id="Line"></path>
                            <path d="M24.5,17.5 L14.5,17.5" id="Line-Copy"></path>
                            <path d="M24.5,13.5 L14.5,13.5" id="Line-Copy-2"></path>
                            <path d="M24.5,9.5 L14.5,9.5" id="Line-Copy-3"></path>
                            <path d="M24.5,5.5 L14.5,5.5" id="Line-Copy-4"></path>
                            <path d="M24.5,1.5 L0.5,1.5" id="Line-Copy-5"></path>
                        </g>
                        <g id="Group-4-Copy-9" transform="translate(3.000000, 391.000000)">
                            <path d="M24.5,21.5 L14.5,21.5" id="Line"></path>
                            <path d="M24.5,17.5 L14.5,17.5" id="Line-Copy"></path>
                            <path d="M24.5,13.5 L14.5,13.5" id="Line-Copy-2"></path>
                            <path d="M24.5,9.5 L14.5,9.5" id="Line-Copy-3"></path>
                            <path d="M24.5,5.5 L14.5,5.5" id="Line-Copy-4"></path>
                            <path d="M24.5,1.5 L0.5,1.5" id="Line-Copy-5"></path>
                        </g>
                        <g id="Group-4-Copy-10" transform="translate(3.000000, 368.000000)">
                            <path d="M24.5,21.5 L14.5,21.5" id="Line"></path>
                            <path d="M24.5,17.5 L14.5,17.5" id="Line-Copy"></path>
                            <path d="M24.5,13.5 L14.5,13.5" id="Line-Copy-2"></path>
                            <path d="M24.5,9.5 L14.5,9.5" id="Line-Copy-3"></path>
                            <path d="M24.5,5.5 L14.5,5.5" id="Line-Copy-4"></path>
                            <path d="M24.5,1.5 L0.5,1.5" id="Line-Copy-5"></path>
                        </g>
                        <g id="Group-4-Copy-11" transform="translate(3.000000, 345.000000)">
                            <path d="M24.5,21.5 L14.5,21.5" id="Line"></path>
                            <path d="M24.5,17.5 L14.5,17.5" id="Line-Copy"></path>
                            <path d="M24.5,13.5 L14.5,13.5" id="Line-Copy-2"></path>
                            <path d="M24.5,9.5 L14.5,9.5" id="Line-Copy-3"></path>
                            <path d="M24.5,5.5 L14.5,5.5" id="Line-Copy-4"></path>
                            <path d="M24.5,1.5 L0.5,1.5" id="Line-Copy-5"></path>
                        </g>
                        <g id="Group-4-Copy-12" transform="translate(3.000000, 322.000000)">
                            <path d="M24.5,21.5 L14.5,21.5" id="Line"></path>
                            <path d="M24.5,17.5 L14.5,17.5" id="Line-Copy"></path>
                            <path d="M24.5,13.5 L14.5,13.5" id="Line-Copy-2"></path>
                            <path d="M24.5,9.5 L14.5,9.5" id="Line-Copy-3"></path>
                            <path d="M24.5,5.5 L14.5,5.5" id="Line-Copy-4"></path>
                            <path d="M24.5,1.5 L0.5,1.5" id="Line-Copy-5"></path>
                        </g>
                        <g id="Group-4-Copy-13" transform="translate(3.000000, 299.000000)">
                            <path d="M24.5,21.5 L14.5,21.5" id="Line"></path>
                            <path d="M24.5,17.5 L14.5,17.5" id="Line-Copy"></path>
                            <path d="M24.5,13.5 L14.5,13.5" id="Line-Copy-2"></path>
                            <path d="M24.5,9.5 L14.5,9.5" id="Line-Copy-3"></path>
                            <path d="M24.5,5.5 L14.5,5.5" id="Line-Copy-4"></path>
                            <path d="M24.5,1.5 L0.5,1.5" id="Line-Copy-5"></path>
                        </g>
                        <g id="Group-4-Copy-14" transform="translate(3.000000, 276.000000)">
                            <path d="M24.5,21.5 L14.5,21.5" id="Line"></path>
                            <path d="M24.5,17.5 L14.5,17.5" id="Line-Copy"></path>
                            <path d="M24.5,13.5 L14.5,13.5" id="Line-Copy-2"></path>
                            <path d="M24.5,9.5 L14.5,9.5" id="Line-Copy-3"></path>
                            <path d="M24.5,5.5 L14.5,5.5" id="Line-Copy-4"></path>
                            <path d="M24.5,1.5 L0.5,1.5" id="Line-Copy-5"></path>
                        </g>
                        <g id="Group-4-Copy-15" transform="translate(3.000000, 253.000000)">
                            <path d="M24.5,21.5 L14.5,21.5" id="Line"></path>
                            <path d="M24.5,17.5 L14.5,17.5" id="Line-Copy"></path>
                            <path d="M24.5,13.5 L14.5,13.5" id="Line-Copy-2"></path>
                            <path d="M24.5,9.5 L14.5,9.5" id="Line-Copy-3"></path>
                            <path d="M24.5,5.5 L14.5,5.5" id="Line-Copy-4"></path>
                            <path d="M24.5,1.5 L0.5,1.5" id="Line-Copy-5"></path>
                        </g>
                        <g id="Group-4-Copy-16" transform="translate(3.000000, 230.000000)">
                            <path d="M24.5,21.5 L14.5,21.5" id="Line"></path>
                            <path d="M24.5,17.5 L14.5,17.5" id="Line-Copy"></path>
                            <path d="M24.5,13.5 L14.5,13.5" id="Line-Copy-2"></path>
                            <path d="M24.5,9.5 L14.5,9.5" id="Line-Copy-3"></path>
                            <path d="M24.5,5.5 L14.5,5.5" id="Line-Copy-4"></path>
                            <path d="M24.5,1.5 L0.5,1.5" id="Line-Copy-5"></path>
                        </g>
                        <g id="Group-4-Copy-17" transform="translate(3.000000, 207.000000)">
                            <path d="M24.5,21.5 L14.5,21.5" id="Line"></path>
                            <path d="M24.5,17.5 L14.5,17.5" id="Line-Copy"></path>
                            <path d="M24.5,13.5 L14.5,13.5" id="Line-Copy-2"></path>
                            <path d="M24.5,9.5 L14.5,9.5" id="Line-Copy-3"></path>
                            <path d="M24.5,5.5 L14.5,5.5" id="Line-Copy-4"></path>
                            <path d="M24.5,1.5 L0.5,1.5" id="Line-Copy-5"></path>
                        </g>
                        <g id="Group-4-Copy-18" transform="translate(3.000000, 184.000000)">
                            <path d="M24.5,21.5 L14.5,21.5" id="Line"></path>
                            <path d="M24.5,17.5 L14.5,17.5" id="Line-Copy"></path>
                            <path d="M24.5,13.5 L14.5,13.5" id="Line-Copy-2"></path>
                            <path d="M24.5,9.5 L14.5,9.5" id="Line-Copy-3"></path>
                            <path d="M24.5,5.5 L14.5,5.5" id="Line-Copy-4"></path>
                            <path d="M24.5,1.5 L0.5,1.5" id="Line-Copy-5"></path>
                        </g>
                        <g id="Group-4-Copy-20" transform="translate(3.000000, 138.000000)">
                            <path d="M24.5,21.5 L14.5,21.5" id="Line"></path>
                            <path d="M24.5,17.5 L14.5,17.5" id="Line-Copy"></path>
                            <path d="M24.5,13.5 L14.5,13.5" id="Line-Copy-2"></path>
                            <path d="M24.5,9.5 L14.5,9.5" id="Line-Copy-3"></path>
                            <path d="M24.5,5.5 L14.5,5.5" id="Line-Copy-4"></path>
                            <path d="M24.5,1.5 L0.5,1.5" id="Line-Copy-5"></path>
                        </g>
                        <g id="Group-4-Copy-21" transform="translate(3.000000, 115.000000)">
                            <path d="M24.5,21.5 L14.5,21.5" id="Line"></path>
                            <path d="M24.5,17.5 L14.5,17.5" id="Line-Copy"></path>
                            <path d="M24.5,13.5 L14.5,13.5" id="Line-Copy-2"></path>
                            <path d="M24.5,9.5 L14.5,9.5" id="Line-Copy-3"></path>
                            <path d="M24.5,5.5 L14.5,5.5" id="Line-Copy-4"></path>
                            <path d="M24.5,1.5 L0.5,1.5" id="Line-Copy-5"></path>
                        </g>
                        <g id="Group-4-Copy-22" transform="translate(3.000000, 92.000000)">
                            <path d="M24.5,21.5 L14.5,21.5" id="Line"></path>
                            <path d="M24.5,17.5 L14.5,17.5" id="Line-Copy"></path>
                            <path d="M24.5,13.5 L14.5,13.5" id="Line-Copy-2"></path>
                            <path d="M24.5,9.5 L14.5,9.5" id="Line-Copy-3"></path>
                            <path d="M24.5,5.5 L14.5,5.5" id="Line-Copy-4"></path>
                            <path d="M24.5,1.5 L0.5,1.5" id="Line-Copy-5"></path>
                        </g>
                        <g id="Group-4-Copy-23" transform="translate(3.000000, 69.000000)">
                            <path d="M24.5,21.5 L14.5,21.5" id="Line"></path>
                            <path d="M24.5,17.5 L14.5,17.5" id="Line-Copy"></path>
                            <path d="M24.5,13.5 L14.5,13.5" id="Line-Copy-2"></path>
                            <path d="M24.5,9.5 L14.5,9.5" id="Line-Copy-3"></path>
                            <path d="M24.5,5.5 L14.5,5.5" id="Line-Copy-4"></path>
                            <path d="M24.5,1.5 L0.5,1.5" id="Line-Copy-5"></path>
                        </g>
                        <g id="Group-4-Copy-24" transform="translate(3.000000, 46.000000)">
                            <path d="M24.5,21.5 L14.5,21.5" id="Line"></path>
                            <path d="M24.5,17.5 L14.5,17.5" id="Line-Copy"></path>
                            <path d="M24.5,13.5 L14.5,13.5" id="Line-Copy-2"></path>
                            <path d="M24.5,9.5 L14.5,9.5" id="Line-Copy-3"></path>
                            <path d="M24.5,5.5 L14.5,5.5" id="Line-Copy-4"></path>
                            <path d="M24.5,1.5 L0.5,1.5" id="Line-Copy-5"></path>
                        </g>
                        <g id="Group-4-Copy-25" transform="translate(3.000000, 23.000000)">
                            <path d="M24.5,21.5 L14.5,21.5" id="Line"></path>
                            <path d="M24.5,17.5 L14.5,17.5" id="Line-Copy"></path>
                            <path d="M24.5,13.5 L14.5,13.5" id="Line-Copy-2"></path>
                            <path d="M24.5,9.5 L14.5,9.5" id="Line-Copy-3"></path>
                            <path d="M24.5,5.5 L14.5,5.5" id="Line-Copy-4"></path>
                            <path d="M24.5,1.5 L0.5,1.5" id="Line-Copy-5"></path>
                        </g>
                        <g id="Group-4-Copy-26" transform="translate(3.000000, 0.000000)">
                            <path d="M24.5,21.5 L14.5,21.5" id="Line"></path>
                            <path d="M24.5,17.5 L14.5,17.5" id="Line-Copy"></path>
                            <path d="M24.5,13.5 L14.5,13.5" id="Line-Copy-2"></path>
                            <path d="M24.5,9.5 L14.5,9.5" id="Line-Copy-3"></path>
                            <path d="M24.5,5.5 L14.5,5.5" id="Line-Copy-4"></path>
                            <path d="M24.5,1.5 L0.5,1.5" id="Line-Copy-5"></path>
                        </g>
                        <g id="Group-4-Copy-19" transform="translate(0.000000, 161.000000)">
                            <path d="M24.5,21.5 L14.5,21.5" id="Line"></path>
                            <path d="M24.5,17.5 L14.5,17.5" id="Line-Copy"></path>
                            <path d="M24.5,13.5 L14.5,13.5" id="Line-Copy-2"></path>
                            <path d="M24.5,9.5 L14.5,9.5" id="Line-Copy-3"></path>
                            <path d="M24.5,5.5 L14.5,5.5" id="Line-Copy-4"></path>
                            <path d="M24.5,1.5 L0.5,1.5" id="Line-Copy-5"></path>
                        </g>
                    </g>
                    <g id="Group-6" fill="#8D8B8B" font-family="Roboto-Light, Roboto" font-size="8" font-weight="300" letter-spacing="1">
                        <text id="1000-mts">
                            <tspan x="9.265625" y="606">1000</tspan>
                            <tspan x="14.2890625" y="616">mts</tspan>
                        </text>
                        <text id="4000-mts">
                            <tspan x="9.265625" y="512">4000</tspan>
                            <tspan x="14.2890625" y="522">mts</tspan>
                        </text>
                        <text id="8000-mts">
                            <tspan x="9.265625" y="375">8000</tspan>
                            <tspan x="14.2890625" y="385">mts</tspan>
                        </text>
                        <text id="15.000-mts">
                            <tspan x="0.921875" y="192">15.000</tspan>
                            <tspan x="14.2890625" y="202">mts</tspan>
                        </text>
                        <text id="30.000-mts">
                            <tspan x="0.921875" y="8">30.000</tspan>
                            <tspan x="14.2890625" y="18">mts</tspan>
                        </text>
                    </g>
                </g>
            </g>
        </g>
    </g>
</svg>