<?xml version="1.0" encoding="UTF-8"?>
<svg width="38px" height="38px" viewBox="0 0 38 38" version="1.1" xmlns="http://www.w3.org/2000/svg" xmlns:xlink="http://www.w3.org/1999/xlink">
    <!-- Generator: Sketch 49.3 (51167) - http://www.bohemiancoding.com/sketch -->
    <title>peaks</title>
    <desc>Created with Sketch.</desc>
    <defs></defs>
    <g id="Symbols" stroke="none" stroke-width="1" fill="none" fill-rule="evenodd">
        <g id="Header" transform="translate(-974.000000, -16.000000)" fill="#68C951" fill-rule="nonzero">
            <g id="Menu-Items">
                <g id="peaks" transform="translate(974.000000, 16.000000)">
                    <path d="M32.4350213,5.56497872 C28.8464468,1.9763234 24.0751021,0 19,0 C13.9248979,0 9.15355319,1.9763234 5.56497872,5.56497872 C1.9763234,9.15355319 0,13.9248979 0,19 C0,24.0751021 1.9763234,28.8464468 5.56497872,32.4350213 C9.15355319,36.0236766 13.9248979,38 19,38 C24.0751021,38 28.8464468,36.0236766 32.4350213,32.4350213 C36.0236766,28.8464468 38,24.0751021 38,19 C38,13.9248979 36.0236766,9.15355319 32.4350213,5.56497872 Z M19,36.787234 C9.1920383,36.787234 1.21276596,28.8079617 1.21276596,19 C1.21276596,9.1920383 9.1920383,1.21276596 19,1.21276596 C28.8079617,1.21276596 36.787234,9.1920383 36.787234,19 C36.787234,28.8079617 28.8079617,36.787234 19,36.787234 Z" id="Shape"></path>
                    <circle id="Oval" cx="12.5" cy="29.5" r="1"></circle>
                    <circle id="Oval" cx="10.5" cy="26.5" r="1"></circle>
                    <circle id="Oval" cx="28.5" cy="24.5" r="1"></circle>
                    <path d="M34.9158974,25.0493472 L27.1991228,12.2994636 C27.0869531,12.1141156 26.8796903,12 26.6554345,12 C26.4310951,12 26.2239159,12.1141955 26.1117462,12.2994636 L20.0842141,22.2591447 C19.9108533,22.5455917 20.0137314,22.9118956 20.3139947,23.0772794 C20.6140905,23.2426631 20.99823,23.1445189 21.1715908,22.858072 L22.5208921,20.6285453 L24.1197291,21.7570041 C24.341641,21.9136036 24.6446667,21.9136036 24.8665786,21.7570041 L26.6552671,20.4944655 L28.4442067,21.7570041 C28.5551208,21.8352639 28.6863762,21.8744737 28.8175478,21.8744737 C28.9487194,21.8744737 29.0799747,21.8353438 29.1908888,21.7570041 L30.7902281,20.6283057 L33.6690556,25.3849061 C33.045844,26.6944007 32.2299348,27.9129382 31.2408323,29.0105722 C31.0148187,29.2614029 31.0447027,29.6395256 31.3076319,29.8552193 C31.4261635,29.9524052 31.571733,30 31.7166328,30 C31.8932583,30 32.0688792,29.9292467 32.1930193,29.7914935 C33.333551,28.5256807 34.2607091,27.1106951 34.948795,25.5856666 C35.0272301,25.4118978 35.0150086,25.2131338 34.9158974,25.0493472 Z M28.8175478,20.5305608 L27.0285244,19.2680222 C26.8066962,19.1114227 26.5035869,19.1114227 26.2817587,19.2680222 L24.4931539,20.5305608 L23.1528094,19.5844953 L26.6555182,13.7967818 L30.1583945,19.5843356 L28.8175478,20.5305608 Z" id="Shape"></path>
                    <path d="M29.9710317,31.0341903 C27.1113194,33.447702 23.4630932,34.776854 19.6982594,34.776854 C13.4914745,34.776854 7.88201324,31.2118727 5.32046449,25.6675965 L8.17685463,20.8106468 L9.76343351,21.963095 C9.98360943,22.1230009 10.2842646,22.1230009 10.5044405,21.963095 L12.2791365,20.6738991 L14.0540817,21.963095 C14.1641281,22.0430072 14.2943566,22.0830448 14.4245021,22.0830448 C14.5547306,22.0830448 14.6848761,22.0430887 14.7949225,21.963095 L16.3814184,20.8107283 L23.3265526,32.6211815 C23.4985572,32.9136765 23.8795255,33.0139744 24.1774399,32.8450172 C24.4753543,32.6761415 24.5774276,32.3021035 24.4054229,32.0096085 L12.8187378,12.3057865 C12.7074455,12.1166066 12.5018871,12 12.2793026,12 C12.0568012,12 11.8511597,12.1166066 11.7398674,12.3057865 L4.08345952,25.324871 C3.98512369,25.4921158 3.97299782,25.6950765 4.05073628,25.8724327 C6.74807818,32.0247755 12.8900811,36 19.6982594,36 C23.7609246,36 27.6975969,34.5659021 30.7831328,31.9617427 C31.0440051,31.7415764 31.0737384,31.3553885 30.8494098,31.0992617 C30.6250812,30.8432165 30.231904,30.8141056 29.9710317,31.0341903 Z M12.2793026,13.834719 L15.7546105,19.7446343 L14.4245021,20.710675 L12.6494739,19.4214791 C12.429381,19.2615732 12.1286428,19.2615732 11.9085499,19.4214791 L10.133854,20.710675 L8.80374555,19.7444712 L12.2793026,13.834719 Z" id="Shape"></path>
                </g>
            </g>
        </g>
    </g>
</svg>