<?xml version="1.0" encoding="UTF-8"?>
<svg width="27px" height="24px" viewBox="0 0 27 24" version="1.1" xmlns="http://www.w3.org/2000/svg" xmlns:xlink="http://www.w3.org/1999/xlink">
    <!-- Generator: Sketch 49.3 (51167) - http://www.bohemiancoding.com/sketch -->
    <title>alarm</title>
    <desc>Created with Sketch.</desc>
    <defs></defs>
    <g id="Symbols" stroke="none" stroke-width="1" fill="none" fill-rule="evenodd">
        <g id="Header" transform="translate(-848.000000, -24.000000)" fill="#68C951" fill-rule="nonzero">
            <g id="Menu-Items">
                <g id="alarm" transform="translate(848.000000, 24.000000)">
                    <path d="M21.6701788,12.6543154 L21.6701788,8.72973219 C21.6897482,5.73764113 19.5912657,3.7530954 17.7881454,2.96285522 C17.2716028,2.73638661 16.7391317,2.56184433 16.1980135,2.43224669 L16.1980135,2.18177851 C16.1980135,0.978745841 15.1772162,0 13.9224957,0 C12.6677752,0 11.6469779,0.978745841 11.6469779,2.18177851 L11.6469779,2.47020963 C11.1595619,2.59631643 10.6803379,2.76082253 10.215222,2.96678242 C8.22277863,3.84734823 6.20393922,5.96978237 6.18573507,8.72711405 L6.18573507,12.6543154 C6.18573507,15.4417556 5.15902143,17.8334212 3.13426567,19.7629861 C3.01366322,19.878184 2.96997328,20.0479264 3.02094488,20.2037054 C3.07191648,20.3594844 3.20981286,20.4746823 3.37774607,20.502609 L7.69713402,21.217796 C8.50175712,21.3508845 9.24266573,21.4599735 9.94762115,21.5498627 C10.7417769,23.0421992 12.3014168,24 14.0053245,24 C15.7096874,24 17.2697824,23.0417629 18.063483,21.5485537 C18.7657078,21.4591007 19.5029756,21.3504482 20.3030477,21.217796 L24.6219805,20.502609 C24.7899137,20.4751186 24.927355,20.3594844 24.9787817,20.2037054 C25.0302084,20.0483628 24.9865185,19.878184 24.8654609,19.7629861 C22.7455885,17.7422229 21.6701788,15.3505573 21.6701788,12.6543154 Z M12.557185,2.18177851 C12.557185,1.46004618 13.1697544,0.872711405 13.9224957,0.872711405 C14.675237,0.872711405 15.2878064,1.46004618 15.2878064,2.18177851 L15.2878064,2.26119525 C14.380785,2.13639752 13.4605656,2.14163379 12.557185,2.28170397 L12.557185,2.18177851 Z M14.0057796,23.1268522 C12.8534574,23.1268522 11.7766824,22.5779168 11.0853801,21.6803331 C12.1025365,21.7806949 13.0518826,21.8313122 14.0007735,21.8313122 C14.9533053,21.8313122 15.905837,21.7806949 16.9270894,21.679024 C16.235332,22.5774804 15.1581019,23.1268522 14.0057796,23.1268522 Z M20.1487676,20.3573026 C19.2754238,20.5017363 18.4748967,20.619116 17.7185145,20.7116234 C17.7176043,20.7116234 17.7166941,20.7116234 17.7153288,20.7116234 C17.3817379,20.7522045 17.0577042,20.7875493 16.740497,20.8180942 C16.7377663,20.8180942 16.7354908,20.8185306 16.7327602,20.8185306 C16.441949,20.8464573 16.1579644,20.8691478 15.8767104,20.8883475 C15.8239184,20.8918383 15.7711264,20.8953292 15.7187895,20.8983837 C15.4753091,20.9136561 15.2345593,20.9258741 14.9951748,20.9346012 C14.9464787,20.9363466 14.8973275,20.9389647 14.8486314,20.9402738 C14.2824826,20.9586008 13.7240705,20.9586008 13.1583768,20.9407102 C13.1078603,20.9389647 13.0568887,20.9363466 13.0063722,20.9346012 C12.7710837,20.9254377 12.5339747,20.9140925 12.2941351,20.89882 C12.2372472,20.8953292 12.1803592,20.8918383 12.1230162,20.8879111 C11.8504092,20.8691478 11.5746164,20.84733 11.2929073,20.820276 C11.2824399,20.8194033 11.2724276,20.8185306 11.2619602,20.8176579 C10.9470286,20.7875493 10.6257255,20.7522045 10.2953203,20.7120598 C10.293955,20.7120598 10.2925897,20.7120598 10.2912243,20.7120598 C9.53211159,20.6199887 8.7283987,20.5017363 7.85141412,20.3568662 L4.36532081,19.780004 C6.17799831,17.7928401 7.09594221,15.3998655 7.09594221,12.6543154 L7.09594221,8.72973219 C7.11141573,6.35813894 8.86538487,4.52457228 10.5961437,3.75920438 C11.1108659,3.53186306 11.6447023,3.36212069 12.1876409,3.24299558 C12.1921919,3.24212287 12.1971981,3.24255923 12.2017491,3.24168651 C13.3235794,2.99994546 14.5168609,2.98903656 15.6514341,3.21201433 C15.6573505,3.21332339 15.6632668,3.21070526 15.6691832,3.21157797 C16.2626382,3.33026672 16.8469912,3.51004527 17.4099543,3.75658624 C19.0888314,4.49271831 20.7759003,6.31406702 20.7599717,8.72755041 L20.7599717,12.6547517 C20.7599717,15.2872857 21.7498219,17.7352412 23.6330405,19.7808767 L20.1487676,20.3573026 Z" id="Shape"></path>
                    <path d="M15.7541769,4.60448559 C14.1226728,3.79880809 12.1248697,3.79789823 10.5043125,4.60539545 C9.58014438,5.06578259 8.01263736,6.41282442 8.00000636,8.54234242 C7.99874326,8.79346268 8.18568205,8.99818029 8.41851347,9 C8.41935554,9 8.42019761,9 8.42103967,9 C8.65218696,9 8.84080989,8.79846689 8.84207299,8.54780156 C8.85175675,6.87503128 10.1131726,5.80231103 10.8567174,5.43154471 C12.2587583,4.73232036 13.9917314,4.73414007 15.4034561,5.43154471 C15.6152359,5.53617815 15.8649086,5.43563906 15.9617463,5.2072652 C16.0585839,4.97843641 15.9651145,4.7086641 15.7541769,4.60448559 Z" id="Shape"></path>
                    <path d="M2.82733919,8.1209902 C2.59712477,7.95966993 2.22501349,7.95966993 1.99479908,8.1209902 C0.708306756,9.02248582 0,10.2222795 0,11.5000516 C0,12.7778236 0.708306756,13.9780299 1.99479908,14.8791129 C2.10961189,14.9595668 2.26034051,15 2.41106913,15 C2.56179775,15 2.71252637,14.9595668 2.82733919,14.8791129 C3.0575536,14.7177927 3.0575536,14.4570397 2.82733919,14.2957194 C1.76340709,13.5501805 1.17756734,12.5575039 1.17756734,11.5000516 C1.17756734,10.4425993 1.76340709,9.44951006 2.82733919,8.7043837 C3.05696482,8.54306343 3.05696482,8.28231047 2.82733919,8.1209902 Z" id="Shape"></path>
                    <path d="M5.28723278,16 C5.46965558,16 5.65207838,15.9536652 5.79103325,15.8614685 C6.06965558,15.6766021 6.06965558,15.37779 5.79103325,15.1929237 C3.9682304,13.9834913 3.9682304,12.0161541 5.79103325,10.8071945 C6.06965558,10.6223282 6.06965558,10.3235161 5.79103325,10.1386498 C5.51241093,9.95378342 5.06205463,9.95378342 4.7834323,10.1386498 C2.40552257,11.7163964 2.40552257,14.2841946 4.7834323,15.8614685 C4.92238717,15.954138 5.10480998,16 5.28723278,16 Z" id="Shape"></path>
                    <path d="M25.0052009,8.1209902 C24.7749865,7.95966993 24.4028752,7.95966993 24.1726608,8.1209902 C23.9424464,8.28231047 23.9424464,8.54306343 24.1726608,8.7043837 C25.2365929,9.44992264 25.8224327,10.4425993 25.8224327,11.5000516 C25.8224327,12.5575039 25.2365929,13.5501805 24.1726608,14.2957194 C23.9424464,14.4570397 23.9424464,14.7177927 24.1726608,14.8791129 C24.2874736,14.9595668 24.4382022,15 24.5889309,15 C24.7396595,15 24.8903881,14.9595668 25.0052009,14.8791129 C26.2916932,13.9780299 27,12.7778236 27,11.5000516 C27,10.2222795 26.2916932,9.02248582 25.0052009,8.1209902 Z" id="Shape"></path>
                    <path d="M23.2089667,10.1386498 C22.9303444,10.3235161 22.9303444,10.6223282 23.2089667,10.8071945 C25.0317696,12.0166269 25.0317696,13.9839641 23.2089667,15.1929237 C22.9303444,15.37779 22.9303444,15.6766021 23.2089667,15.8614685 C23.3479216,15.9536652 23.5303444,16 23.7127672,16 C23.89519,16 24.0776128,15.9536652 24.2165677,15.8614685 C26.5944774,14.2837218 26.5944774,11.7159236 24.2165677,10.1386498 C23.9379454,9.95378342 23.4868765,9.95378342 23.2089667,10.1386498 Z" id="Shape"></path>
                </g>
            </g>
        </g>
    </g>
</svg>