<?xml version="1.0" encoding="UTF-8"?>
<svg width="39px" height="41px" viewBox="0 0 39 41" version="1.1" xmlns="http://www.w3.org/2000/svg" xmlns:xlink="http://www.w3.org/1999/xlink">
    <!-- Generator: Sketch 49.3 (51167) - http://www.bohemiancoding.com/sketch -->
    <title>pdf</title>
    <desc>Created with Sketch.</desc>
    <defs></defs>
    <g id="Symbols" stroke="none" stroke-width="1" fill="none" fill-rule="evenodd">
        <g id="File-attached" transform="translate(-12.000000, -32.000000)" fill="#59AA46" fill-rule="nonzero">
            <g id="pdf" transform="translate(12.000000, 32.000000)">
                <path d="M38.777541,11.0953848 L28.2334547,0.241675781 C28.0833434,0.0872851563 27.8762431,0 27.6599276,0 L11.944721,0 C10.1859856,0 8.75511854,1.41690234 8.75511854,3.15844141 L8.75511854,14.1923262 L2.38634131,14.1923262 C1.07050296,14.1923262 0,15.2524805 0,16.5556719 L0,28.3867344 C1.43592483e-16,29.6898457 1.07050296,30.75 2.38634131,30.75 L8.75511854,30.75 L8.75511854,37.847084 C8.75511854,39.5855801 10.1859856,41 11.944721,41 L35.8103975,41 C37.5691329,41 39,39.5863809 39,37.8488457 L39,11.6421582 C39,11.4382793 38.9202155,11.2423281 38.777541,11.0953848 Z M27.857166,2.12855664 L36.5129378,11.0384492 L27.857166,11.0384492 L27.857166,2.12855664 Z M2.38634131,29.1731016 C1.94821354,29.1731016 1.59189117,28.8203574 1.59189117,28.3867344 L1.59189117,16.5556719 C1.59189117,16.1220488 1.94829437,15.7692246 2.38634131,15.7692246 L23.8790143,15.7692246 C24.3171421,15.7692246 24.6734644,16.1220488 24.6734644,16.5556719 L24.6734644,28.3867344 C24.6734644,28.8203574 24.3170612,29.1731016 23.8790143,29.1731016 L2.38634131,29.1731016 Z M37.4081088,37.8488457 C37.4081088,38.7168926 36.6913415,39.4231016 35.8103167,39.4231016 L11.944721,39.4231016 C11.0636962,39.4231016 10.3469289,38.7161719 10.3469289,37.8471641 L10.3469289,30.75 L23.8790143,30.75 C25.1948527,30.75 26.2653556,29.6898457 26.2653556,28.3867344 L26.2653556,16.5556719 C26.2653556,15.2524805 25.1948527,14.1923262 23.8790143,14.1923262 L10.3469289,14.1923262 L10.3469289,3.15844141 C10.3469289,2.28631055 11.0636962,1.57689844 11.944721,1.57689844 L26.2652748,1.57689844 L26.2652748,11.8268984 C26.2652748,12.2623633 26.621678,12.6153477 27.0611799,12.6153477 L37.4081088,12.6153477 L37.4081088,37.8488457 Z" id="Shape"></path>
                <path d="M9.62146936,19.6773473 C9.36919278,19.3758469 9.05602716,19.1800489 8.6820497,19.0900245 C8.43864794,19.0300082 7.91626794,19 7.11483254,19 L5,19 L5,25 L6.31787313,25 L6.31787313,22.7366896 L7.17718784,22.7366896 C7.77380769,22.7366896 8.22943355,22.7080294 8.54406544,22.6507088 C8.77558265,22.6043132 9.00339559,22.5095357 9.22750424,22.3662343 C9.4516129,22.2230039 9.63636364,22.0258581 9.78183362,21.7748679 C9.9273036,21.5238776 10,21.2141481 10,20.845821 C9.99992283,20.3683153 9.87374595,19.9788477 9.62146936,19.6773473 Z M8.49282297,21.3287892 C8.39342491,21.4625134 8.25613521,21.5606962 8.08095385,21.6234792 C7.9057725,21.6862622 7.55857385,21.7176183 7.03912641,21.7176183 L6.31787313,21.7176183 L6.31787313,20.0150277 L6.95454545,20.0150277 C7.42946442,20.0150277 7.74556259,20.0286485 7.90283994,20.0559608 C8.11653033,20.0914315 8.29317796,20.1801081 8.43262849,20.3219906 C8.5721562,20.4638732 8.64192005,20.643993 8.64192005,20.8622084 C8.64199722,21.0395616 8.59222102,21.1950649 8.49282297,21.3287892 Z" id="Shape"></path>
                <path d="M16.804736,20.639169 C16.67456,20.2558024 16.4846553,19.9318136 16.235163,19.6671317 C15.9856708,19.4024498 15.6858992,19.2182863 15.33606,19.1145702 C15.075708,19.0381664 14.697309,19 14.2010042,19 L12,19 L12,25 L14.2660922,25 C14.710919,25 15.0661881,24.957719 15.33197,24.8730861 C15.6873096,24.7585159 15.9693811,24.598898 16.1781846,24.3942325 C16.4548262,24.1240881 16.6677197,23.7708006 16.8169356,23.334228 C16.939002,22.9767549 17,22.5511073 17,22.0572851 C17,21.4952174 16.934912,21.0225357 16.804736,20.639169 Z M15.6330108,23.1030304 C15.5516332,23.3718269 15.4465615,23.5648581 15.3177254,23.682124 C15.1888892,23.7994608 15.0268391,23.882675 14.8315751,23.9317663 C14.6824298,23.9700037 14.4396367,23.9890869 14.1033369,23.9890869 L13.2042339,23.9890869 L13.2042339,20.0150277 L13.7453176,20.0150277 C14.2361926,20.0150277 14.5657932,20.0341109 14.7339078,20.0723483 C14.9590009,20.1214396 15.1448155,20.2155787 15.2912812,20.3547655 C15.4377468,20.4939523 15.5516332,20.6876219 15.6330108,20.9359164 C15.7143885,21.1842108 15.7550773,21.5402651 15.7550773,22.0041501 C15.7550773,22.4679641 15.7143885,22.8342339 15.6330108,23.1030304 Z" id="Shape"></path>
                <polygon id="Shape" points="23 20.0150277 23 19 18 19 18 25 19.4726376 25 19.4726376 22.4502288 22.5174281 22.4502288 22.5174281 21.4352011 19.4726376 21.4352011 19.4726376 20.0150277"></polygon>
            </g>
        </g>
    </g>
</svg>