<?xml version="1.0" encoding="UTF-8"?>
<svg width="45px" height="577px" viewBox="0 0 45 577" version="1.1" xmlns="http://www.w3.org/2000/svg" xmlns:xlink="http://www.w3.org/1999/xlink">
    <!-- Generator: Sketch 49.3 (51167) - http://www.bohemiancoding.com/sketch -->
    <title>Page 1</title>
    <desc>Created with Sketch.</desc>
    <defs>
        <polygon id="path-1" points="0.20583871 0.0652732733 35.990129 0.0652732733 35.990129 579.318536 0.20583871 579.318536"></polygon>
    </defs>
    <g id="Page-1" stroke="none" stroke-width="1" fill="none" fill-rule="evenodd">
        <g id="Dash-board--2" transform="translate(-962.000000, -400.000000)">
            <g id="Page-1" transform="translate(962.000000, 398.000000)">
                <polyline id="Stroke-1" stroke="#F9F9F9" stroke-width="0.459" stroke-linecap="round" points="0 108 5 108 5 56 0 56"></polyline>
                <polyline id="Stroke-3" stroke="#F9F9F9" stroke-width="0.459" stroke-linecap="round" points="3 67 6 67 6 56 3 56"></polyline>
                <polyline id="Stroke-4" stroke="#F9F9F9" stroke-width="0.459" stroke-linecap="round" points="3 77 6 77 6 66 3 66"></polyline>
                <polyline id="Stroke-5" stroke="#F9F9F9" stroke-width="0.459" stroke-linecap="round" points="3 87 6 87 6 76 3 76"></polyline>
                <polyline id="Stroke-6" stroke="#F9F9F9" stroke-width="0.459" stroke-linecap="round" points="3 97 6 97 6 86 3 86"></polyline>
                <polyline id="Stroke-7" stroke="#F9F9F9" stroke-width="0.459" stroke-linecap="round" points="3 107 6 107 6 96 3 96"></polyline>
                <polyline id="Stroke-8" stroke="#F9F9F9" stroke-width="0.459" stroke-linecap="round" points="0 56 5 56 5 4 0 4"></polyline>
                <polyline id="Stroke-10" stroke="#F9F9F9" stroke-width="0.459" stroke-linecap="round" points="3 15 6 15 6 4 3 4"></polyline>
                <polyline id="Stroke-11" stroke="#F9F9F9" stroke-width="0.459" stroke-linecap="round" points="3 24 6 24 6 13 3 13"></polyline>
                <polyline id="Stroke-12" stroke="#F9F9F9" stroke-width="0.459" stroke-linecap="round" points="3 35 6 35 6 24 3 24"></polyline>
                <polyline id="Stroke-13" stroke="#F9F9F9" stroke-width="0.459" stroke-linecap="round" points="3 45 6 45 6 34 3 34"></polyline>
                <polyline id="Stroke-14" stroke="#F9F9F9" stroke-width="0.459" stroke-linecap="round" points="3 56 6 56 6 45 3 45"></polyline>
                <polyline id="Stroke-15" stroke="#F9F9F9" stroke-width="0.459" stroke-linecap="round" points="0 159 5 159 5 107 0 107"></polyline>
                <polyline id="Stroke-17" stroke="#F9F9F9" stroke-width="0.459" stroke-linecap="round" points="3 118 6 118 6 107 3 107"></polyline>
                <polyline id="Stroke-18" stroke="#F9F9F9" stroke-width="0.459" stroke-linecap="round" points="3 127 6 127 6 116 3 116"></polyline>
                <polyline id="Stroke-19" stroke="#F9F9F9" stroke-width="0.459" stroke-linecap="round" points="3 139 6 139 6 128 3 128"></polyline>
                <polyline id="Stroke-20" stroke="#F9F9F9" stroke-width="0.459" stroke-linecap="round" points="3 149 6 149 6 138 3 138"></polyline>
                <polyline id="Stroke-21" stroke="#F9F9F9" stroke-width="0.459" stroke-linecap="round" points="3 160 6 160 6 149 3 149"></polyline>
                <polyline id="Stroke-22" stroke="#F9F9F9" stroke-width="0.459" stroke-linecap="round" points="0 211 5 211 5 159 0 159"></polyline>
                <polyline id="Stroke-24" stroke="#F9F9F9" stroke-width="0.459" stroke-linecap="round" points="3 170 6 170 6 159 3 159"></polyline>
                <polyline id="Stroke-25" stroke="#F9F9F9" stroke-width="0.459" stroke-linecap="round" points="3 180 6 180 6 169 3 169"></polyline>
                <polyline id="Stroke-26" stroke="#F9F9F9" stroke-width="0.459" stroke-linecap="round" points="3 190 6 190 6 179 3 179"></polyline>
                <polyline id="Stroke-27" stroke="#F9F9F9" stroke-width="0.459" stroke-linecap="round" points="3 200 6 200 6 189 3 189"></polyline>
                <polyline id="Stroke-28" stroke="#F9F9F9" stroke-width="0.459" stroke-linecap="round" points="3 210 6 210 6 199 3 199"></polyline>
                <polyline id="Stroke-29" stroke="#F9F9F9" stroke-width="0.459" stroke-linecap="round" points="0 263 5 263 5 211 0 211"></polyline>
                <polyline id="Stroke-31" stroke="#F9F9F9" stroke-width="0.459" stroke-linecap="round" points="3 222 6 222 6 211 3 211"></polyline>
                <polyline id="Stroke-32" stroke="#F9F9F9" stroke-width="0.459" stroke-linecap="round" points="3 232 6 232 6 221 3 221"></polyline>
                <polyline id="Stroke-33" stroke="#F9F9F9" stroke-width="0.459" stroke-linecap="round" points="3 243 6 243 6 232 3 232"></polyline>
                <polyline id="Stroke-34" stroke="#F9F9F9" stroke-width="0.459" stroke-linecap="round" points="3 252 6 252 6 241 3 241"></polyline>
                <polyline id="Stroke-35" stroke="#F9F9F9" stroke-width="0.459" stroke-linecap="round" points="3 263 6 263 6 252 3 252"></polyline>
                <polyline id="Stroke-36" stroke="#F9F9F9" stroke-width="0.459" stroke-linecap="round" points="0 314 5 314 5 262 0 262"></polyline>
                <polyline id="Stroke-38" stroke="#F9F9F9" stroke-width="0.459" stroke-linecap="round" points="3 273 6 273 6 262 3 262"></polyline>
                <polyline id="Stroke-39" stroke="#F9F9F9" stroke-width="0.459" stroke-linecap="round" points="3 283 6 283 6 272 3 272"></polyline>
                <polyline id="Stroke-40" stroke="#F9F9F9" stroke-width="0.459" stroke-linecap="round" points="3 294 6 294 6 283 3 283"></polyline>
                <polyline id="Stroke-41" stroke="#F9F9F9" stroke-width="0.459" stroke-linecap="round" points="3 303 6 303 6 292 3 292"></polyline>
                <polyline id="Stroke-42" stroke="#F9F9F9" stroke-width="0.459" stroke-linecap="round" points="3 314 6 314 6 303 3 303"></polyline>
                <polyline id="Stroke-43" stroke="#F9F9F9" stroke-width="0.459" stroke-linecap="round" points="0 365 5 365 5 313 0 313"></polyline>
                <polyline id="Stroke-45" stroke="#F9F9F9" stroke-width="0.459" stroke-linecap="round" points="3 324 6 324 6 313 3 313"></polyline>
                <polyline id="Stroke-46" stroke="#F9F9F9" stroke-width="0.459" stroke-linecap="round" points="3 335 6 335 6 324 3 324"></polyline>
                <polyline id="Stroke-47" stroke="#F9F9F9" stroke-width="0.459" stroke-linecap="round" points="3 345 6 345 6 334 3 334"></polyline>
                <polyline id="Stroke-48" stroke="#F9F9F9" stroke-width="0.459" stroke-linecap="round" points="3 355 6 355 6 344 3 344"></polyline>
                <polyline id="Stroke-49" stroke="#F9F9F9" stroke-width="0.459" stroke-linecap="round" points="3 365 6 365 6 354 3 354"></polyline>
                <polyline id="Stroke-50" stroke="#F9F9F9" stroke-width="0.459" stroke-linecap="round" points="0 417 5 417 5 365 0 365"></polyline>
                <polyline id="Stroke-52" stroke="#F9F9F9" stroke-width="0.459" stroke-linecap="round" points="3 376 6 376 6 365 3 365"></polyline>
                <polyline id="Stroke-53" stroke="#F9F9F9" stroke-width="0.459" stroke-linecap="round" points="3 386 6 386 6 375 3 375"></polyline>
                <polyline id="Stroke-54" stroke="#F9F9F9" stroke-width="0.459" stroke-linecap="round" points="3 397 6 397 6 386 3 386"></polyline>
                <polyline id="Stroke-55" stroke="#F9F9F9" stroke-width="0.459" stroke-linecap="round" points="3 407 6 407 6 396 3 396"></polyline>
                <polyline id="Stroke-56" stroke="#F9F9F9" stroke-width="0.459" stroke-linecap="round" points="3 418 6 418 6 407 3 407"></polyline>
                <polyline id="Stroke-57" stroke="#F9F9F9" stroke-width="0.459" stroke-linecap="round" points="0 469 5 469 5 417 0 417"></polyline>
                <polyline id="Stroke-59" stroke="#F9F9F9" stroke-width="0.459" stroke-linecap="round" points="3 428 6 428 6 417 3 417"></polyline>
                <polyline id="Stroke-60" stroke="#F9F9F9" stroke-width="0.459" stroke-linecap="round" points="3 438 6 438 6 427 3 427"></polyline>
                <polyline id="Stroke-61" stroke="#F9F9F9" stroke-width="0.459" stroke-linecap="round" points="3 448 6 448 6 437 3 437"></polyline>
                <polyline id="Stroke-62" stroke="#F9F9F9" stroke-width="0.459" stroke-linecap="round" points="3 458 6 458 6 447 3 447"></polyline>
                <polyline id="Stroke-63" stroke="#F9F9F9" stroke-width="0.459" stroke-linecap="round" points="3 469 6 469 6 458 3 458"></polyline>
                <polyline id="Stroke-64" stroke="#F9F9F9" stroke-width="0.459" stroke-linecap="round" points="0 521 5 521 5 469 0 469"></polyline>
                <polyline id="Stroke-66" stroke="#F9F9F9" stroke-width="0.459" stroke-linecap="round" points="3 480 6 480 6 469 3 469"></polyline>
                <polyline id="Stroke-67" stroke="#F9F9F9" stroke-width="0.459" stroke-linecap="round" points="3 489 6 489 6 478 3 478"></polyline>
                <polyline id="Stroke-68" stroke="#F9F9F9" stroke-width="0.459" stroke-linecap="round" points="3 500 6 500 6 489 3 489"></polyline>
                <polyline id="Stroke-69" stroke="#F9F9F9" stroke-width="0.459" stroke-linecap="round" points="3 510 6 510 6 499 3 499"></polyline>
                <polyline id="Stroke-70" stroke="#F9F9F9" stroke-width="0.459" stroke-linecap="round" points="3 521 6 521 6 510 3 510"></polyline>
                <polyline id="Stroke-71" stroke="#F9F9F9" stroke-width="0.459" stroke-linecap="round" points="0 572 5 572 5 520 0 520"></polyline>
                <polyline id="Stroke-73" stroke="#F9F9F9" stroke-width="0.459" stroke-linecap="round" points="3 531 6 531 6 520 3 520"></polyline>
                <polyline id="Stroke-74" stroke="#F9F9F9" stroke-width="0.459" stroke-linecap="round" points="3 541 6 541 6 530 3 530"></polyline>
                <polyline id="Stroke-75" stroke="#F9F9F9" stroke-width="0.459" stroke-linecap="round" points="3 553 6 553 6 542 3 542"></polyline>
                <polyline id="Stroke-76" stroke="#F9F9F9" stroke-width="0.459" stroke-linecap="round" points="3 562 6 562 6 551 3 551"></polyline>
                <polyline id="Stroke-77" stroke="#F9F9F9" stroke-width="0.459" stroke-linecap="round" points="3 573 6 573 6 562 3 562"></polyline>
                <text id="0" font-family="Roboto-Thin, Roboto" font-size="11.0272" font-style="condensed" font-weight="300" fill="#FFFFFF">
                    <tspan x="9" y="577">0</tspan>
                </text>
                <text id="10" font-family="Roboto-Thin, Roboto" font-size="11.0272" font-style="condensed" font-weight="300" fill="#FFFFFF">
                    <tspan x="9" y="525">1</tspan>
                    <tspan x="9" y="540">0</tspan>
                </text>
                <text id="20" font-family="Roboto-Thin, Roboto" font-size="11.0272" font-style="condensed" font-weight="300" fill="#FFFFFF">
                    <tspan x="9" y="474">2</tspan>
                    <tspan x="9" y="489">0</tspan>
                </text>
                <text id="30" font-family="Roboto-Thin, Roboto" font-size="11.0272" font-style="condensed" font-weight="300" fill="#FFFFFF">
                    <tspan x="9" y="422">3</tspan>
                    <tspan x="9" y="437">0</tspan>
                </text>
                <text id="40" font-family="Roboto-Thin, Roboto" font-size="11.0272" font-style="condensed" font-weight="300" fill="#FFFFFF">
                    <tspan x="9" y="370">4</tspan>
                    <tspan x="9" y="385">0</tspan>
                </text>
                <text id="50" font-family="Roboto-Thin, Roboto" font-size="11.0272" font-style="condensed" font-weight="300" fill="#FFFFFF">
                    <tspan x="9" y="318">5</tspan>
                    <tspan x="9" y="333">0</tspan>
                </text>
                <text id="50" font-family="Roboto-Thin, Roboto" font-size="11.0272" font-style="condensed" font-weight="300" fill="#FFFFFF">
                    <tspan x="9" y="268">5</tspan>
                    <tspan x="9" y="283">0</tspan>
                </text>
                <text id="60" font-family="Roboto-Thin, Roboto" font-size="11.0272" font-style="condensed" font-weight="300" fill="#FFFFFF">
                    <tspan x="9" y="215">6</tspan>
                    <tspan x="9" y="230">0</tspan>
                </text>
                <text id="70" font-family="Roboto-Thin, Roboto" font-size="11.0272" font-style="condensed" font-weight="300" fill="#FFFFFF">
                    <tspan x="9" y="164">7</tspan>
                    <tspan x="9" y="179">0</tspan>
                </text>
                <text id="80" font-family="Roboto-Thin, Roboto" font-size="11.0272" font-style="condensed" font-weight="300" fill="#FFFFFF">
                    <tspan x="9" y="112">8</tspan>
                    <tspan x="9" y="127">0</tspan>
                </text>
                <text id="90" font-family="Roboto-Thin, Roboto" font-size="11.0272" font-style="condensed" font-weight="300" fill="#FFFFFF">
                    <tspan x="9" y="61">9</tspan>
                    <tspan x="9" y="76">0</tspan>
                </text>
                <g id="Group-84" transform="translate(9.000000, 0.000000)">
                    <mask id="mask-2" fill="white">
                        <use xlink:href="#path-1"></use>
                    </mask>
                    <g id="Clip-79"></g>
                    <text id="100" mask="url(#mask-2)" font-family="Roboto-Thin, Roboto" font-size="11.0272" font-style="condensed" font-weight="300" fill="#FFFFFF">
                        <tspan x="0.20583871" y="9.13983002">1</tspan>
                        <tspan x="0.20583871" y="24.13983">0</tspan>
                        <tspan x="0.20583871" y="39.13983">0</tspan>
                    </text>
                    <polygon id="Fill-80" fill="#F9F9F9" mask="url(#mask-2)" points="10.9678065 579.318536 14.6408145 579.318536 14.6408145 450.778374 10.9678065 450.778374"></polygon>
                    <polygon id="Fill-81" fill="#F9F9F9" mask="url(#mask-2)" points="18.2311902 579.318536 21.9041983 579.318536 21.9041983 270.083682 18.2311902 270.083682"></polygon>
                    <polygon id="Fill-82" fill="#F9F9F9" mask="url(#mask-2)" points="25.0389156 579.318536 28.7119237 579.318536 28.7119237 223.368004 25.0389156 223.368004"></polygon>
                    <polygon id="Fill-83" fill="#F9F9F9" mask="url(#mask-2)" points="32.7308072 579.318536 36.4038153 579.318536 36.4038153 45.2320881 32.7308072 45.2320881"></polygon>
                </g>
            </g>
        </g>
    </g>
</svg>