<?xml version="1.0" encoding="UTF-8"?>
<svg width="39px" height="39px" viewBox="0 0 39 39" version="1.1" xmlns="http://www.w3.org/2000/svg" xmlns:xlink="http://www.w3.org/1999/xlink">
    <!-- Generator: Sketch 49.3 (51167) - http://www.bohemiancoding.com/sketch -->
    <title>uno</title>
    <desc>Created with Sketch.</desc>
    <defs></defs>
    <g id="Symbols" stroke="none" stroke-width="1" fill="none" fill-rule="evenodd">
        <g id="Footer" transform="translate(-494.000000, -13.000000)">
            <g id="Group-2" transform="translate(189.000000, 14.000000)">
                <g id="uno" transform="translate(306.000000, 0.000000)">
                    <circle id="Oval-Copy-2" stroke="#FFFFFF" cx="18.3206107" cy="18.3206107" r="18.3206107"></circle>
                    <path d="M28.5151938,18.6883778 C28.371046,18.3944953 25.2870736,13.279582 25.2089301,13.151852 C24.6332443,12.2118255 23.6353614,11.6506417 22.5395831,11.6506417 C22.383255,11.6506417 22.2297251,11.6625659 22.079446,11.6849238 C22.0793225,11.684634 22.078911,11.6840129 22.0787876,11.6838473 C21.8132478,11.2508903 21.3536456,10.9923664 20.8493959,10.9923664 C20.0532294,10.9923664 19.4054491,11.6440999 19.4054491,12.4452174 L19.4054491,14.9837527 L17.5411158,14.9837527 L17.5411158,12.4452174 C17.5411158,11.6441413 16.8933767,10.9923664 16.097169,10.9923664 C15.5938245,10.9923664 15.1350865,11.249938 14.8672012,11.6849238 C14.7169633,11.6625659 14.563351,11.6506417 14.4069817,11.6506417 C13.3112035,11.6506417 12.3133206,12.2118669 11.7375936,13.1519348 C11.7296517,13.1648942 11.7054968,13.2043932 11.1252022,14.1832148 C11.025455,14.3514789 11.0801843,14.5692616 11.247376,14.6696238 C11.4146088,14.7699447 11.6310568,14.7150021 11.7308039,14.5466967 C12.2083063,13.7413146 12.3245957,13.5460553 12.3380516,13.5240701 C12.7843625,12.7952845 13.5578143,12.3601745 14.4070229,12.3601745 C15.7463669,12.3601745 16.8359315,13.4564994 16.8359315,14.8040612 L16.8359315,14.8042682 L16.8359315,18.3003436 C15.991126,16.914111 14.4711755,15.987375 12.7400441,15.987375 C11.9582389,15.987375 11.2195587,16.1765065 10.5666347,16.5114199 C10.7343201,16.2283438 10.9114701,15.9292858 11.0892372,15.6293584 C11.1889432,15.4610529 11.134214,15.2432702 10.96694,15.1429494 C10.799666,15.0426285 10.5832592,15.0976953 10.483512,15.2660007 C9.73433862,16.5302171 8.55519084,18.4271628 8.40622853,18.7403393 C8.10682252,19.3699633 7.9389313,20.0746519 7.9389313,20.8181357 C7.9389313,23.4817925 10.0927123,25.648855 12.7400441,25.648855 C15.387376,25.648855 17.5411158,23.4817925 17.5411158,20.8181357 L17.5411158,19.8755008 L19.4054491,19.8755008 L19.4054491,20.8181357 C19.4054491,23.4817925 21.5592301,25.648855 24.2065207,25.648855 C26.8538526,25.648855 29.0076336,23.4817925 29.0076336,20.8181357 C29.0076747,20.0541572 28.8304425,19.3311681 28.5151938,18.6883778 Z M16.8359315,12.8139162 C16.5101896,12.4121774 16.0882395,12.0926247 15.6056757,11.8908651 C15.7391657,11.7703808 15.9122418,11.7018993 16.0972102,11.7018993 C16.5045521,11.7018993 16.8359315,12.0353222 16.8359315,12.445176 L16.8359315,12.8139162 Z M12.7400441,24.9392393 C10.4815369,24.9392393 8.64411558,23.0905288 8.64411558,20.8180943 C8.64411558,18.5456598 10.4815369,16.6969079 12.7400441,16.6969079 C14.9985514,16.6969079 16.8359315,18.5456598 16.8359315,20.8180943 C16.8359315,23.0905288 14.9985103,24.9392393 12.7400441,24.9392393 Z M17.5410747,17.8037079 L17.5410747,15.6932441 L19.4054079,15.6932441 L19.4054079,17.8037079 L17.5410747,17.8037079 Z M19.4054491,19.1659679 L17.5411158,19.1659679 L17.5411158,18.5132822 L19.4054491,18.5132822 L19.4054491,19.1659679 Z M20.1106333,12.4452174 C20.1106333,12.0353636 20.4420128,11.7019407 20.8493547,11.7019407 C21.0348992,11.7019407 21.2085514,11.7708776 21.3413418,11.8907409 C20.8586134,12.0925005 20.4364575,12.412136 20.1106333,12.8139576 L20.1106333,12.4452174 Z M20.1106333,14.8042682 L20.1106333,14.8040612 C20.1106333,13.456458 21.2002391,12.3601745 22.539542,12.3601745 C23.3887917,12.3601745 24.1622024,12.795326 24.6085132,13.5240701 C24.6508152,13.5931726 25.5320796,15.0801816 26.3799302,16.5114199 C25.726965,16.1764651 24.9882848,15.9873336 24.2064796,15.9873336 C22.4753483,15.9873336 20.9553978,16.914111 20.1105922,18.3003022 L20.1105922,14.8042682 L20.1106333,14.8042682 Z M24.2065619,24.9392393 C21.9480546,24.9392393 20.1106745,23.0904874 20.1106745,20.8180529 C20.1106745,18.5456183 21.9480958,16.6968665 24.2065619,16.6968665 C26.4650692,16.6968665 28.3024905,18.5456183 28.3024905,20.8180529 C28.3024905,23.0904874 26.465028,24.9392393 24.2065619,24.9392393 Z" id="Shape" fill="#FFFFFF" fill-rule="nonzero"></path>
                    <path d="M27.5890458,19.6270438 C27.5216244,19.4396781 27.3151518,19.3423338 27.1277019,19.4097131 C26.9403362,19.4770923 26.8429919,19.6836492 26.9103711,19.8710569 C27.0129762,20.1565245 27.0650362,20.4567642 27.0650362,20.7634009 C27.0650362,22.2177577 25.8818799,23.4009562 24.4274809,23.4009562 C22.973124,23.4009562 21.7899256,22.2177577 21.7899256,20.7634009 C21.7899256,19.309044 22.973124,18.1258455 24.4274809,18.1258455 C25.1573739,18.1258455 25.8612999,18.4324822 26.3588375,18.9670974 C26.494522,19.1128824 26.7226687,19.1210891 26.8685379,18.9854047 C27.0143229,18.8497202 27.0225296,18.6215735 26.8868452,18.4757043 C26.2534128,17.7950095 25.3569865,17.4045802 24.4274809,17.4045802 C22.5754138,17.4045802 21.0687023,18.9112917 21.0687023,20.7633588 C21.0687023,22.6154259 22.5754138,24.1221374 24.4274809,24.1221374 C26.279548,24.1221374 27.7862595,22.6154259 27.7862595,20.7633588 C27.7863016,20.3733923 27.7199324,19.9910434 27.5890458,19.6270438 Z" id="Shape" fill="#FFFFFF" fill-rule="nonzero"></path>
                    <path d="M12.8244275,17.4045802 C10.9723604,17.4045802 9.46564885,18.9112917 9.46564885,20.7633588 C9.46564885,22.6154259 10.9723604,24.1221374 12.8244275,24.1221374 C14.6764946,24.1221374 16.1832061,22.6154259 16.1832061,20.7633588 C16.1832061,18.9112917 14.6764525,17.4045802 12.8244275,17.4045802 Z M12.8244275,23.400872 C11.3700706,23.400872 10.1868722,22.2177156 10.1868722,20.7633167 C10.1868722,19.3089598 11.3700285,18.1257614 12.8244275,18.1257614 C14.2788264,18.1257614 15.4619828,19.3089177 15.4619828,20.7633167 C15.4619828,22.2177156 14.2787423,23.400872 12.8244275,23.400872 Z" id="Shape" fill="#FFFFFF" fill-rule="nonzero"></path>
                </g>
            </g>
        </g>
    </g>
</svg>